<?xml version="1.0" encoding="UTF-8"?>
<svg width="13px" height="13px" viewBox="0 0 13 13" version="1.1" xmlns="http://www.w3.org/2000/svg" xmlns:xlink="http://www.w3.org/1999/xlink">
    <!-- Generator: Sketch 50.2 (55047) - http://www.bohemiancoding.com/sketch -->
    <title>toolkit-icon-jetbrains-13x13</title>
    <desc>Created with Sketch.</desc>
    <defs></defs>
    <g id="toolkit-icon-jetbrains-13x13" stroke="none" stroke-width="1" fill="none" fill-rule="evenodd">
        <g id="AWS-CS-2687_Two_Icons_cube_28x28" transform="translate(0.750000, 0.000000)" fill="#5E5E5E" fill-rule="nonzero" stroke="#5E5E5E" stroke-width="0.25">
            <path d="M11.3918519,3.302 L6.02677249,0.485333333 C5.88844238,0.407925789 5.71801265,0.407925789 5.57968254,0.485333333 L0.214603175,3.302 C0.0777574243,3.3826758 -0.00410582018,3.52814048 -2.48173877e-16,3.68333333 L-2.48173877e-16,9.31666667 C-0.000447192869,9.47546338 0.0887560973,9.62177789 0.232486772,9.698 L5.59756614,12.5146667 C5.73589625,12.5920742 5.90632597,12.5920742 6.04465608,12.5146667 L11.4097354,9.698 C11.5465812,9.6173242 11.6284444,9.47185952 11.6243386,9.31666667 L11.6243386,3.68333333 C11.6247858,3.52453662 11.5355825,3.37822211 11.3918519,3.302 Z M5.36507937,11.4053333 L0.894179894,9.05666667 L0.894179894,4.41133333 L5.36507937,6.76 L5.36507937,11.4053333 Z M5.81216931,6.006 L1.39044974,3.68333333 L5.81216931,1.36066667 L10.2338889,3.68333333 L5.81216931,6.006 Z M10.7301587,9.03933333 L6.25925926,11.4053333 L6.25925926,6.76 L10.7301587,4.41133333 L10.7301587,9.03933333 Z" id="Shape"></path>
        </g>
    </g>
</svg>