<?xml version="1.0" encoding="utf-8"?>
<!-- Generator: Adobe Illustrator 19.1.0, SVG Export Plug-In . SVG Version: 6.00 Build 0)  -->
<svg version="1.1" id="Layer_1" xmlns="http://www.w3.org/2000/svg" xmlns:xlink="http://www.w3.org/1999/xlink" x="0px" y="0px" width="16px"
	 height="16px"
	 viewBox="14 14 72 72" style="enable-background:new 0 0 100 100;" xml:space="preserve">
<style type="text/css">
	.st0{fill:#9D5125;}
	.st1{fill:#F58535;}
	.st2{fill:#4F4F4F;}
	.st3{fill:#7D7C7C;}
	.st4{clip-path:url(#SVGID_2_);fill:#4F4F4F;}
	.st5{fill:#FFFFFF;}
	.st6{fill:none;}
	.st7{fill:#D2D3D3;}
	.st8{clip-path:url(#SVGID_4_);fill:#4F4F4F;}
	.st9{fill:none;stroke:#FFFFFF;stroke-miterlimit:10;}
</style>
<path class="st0" d="M85.2,58v3.2C85.2,67,78.8,73,71,73H29c-7.9,0-14.2-5.9-14.2-11.8V58H85.2z"/>
<path class="st1" d="M41.9,26.9c7.3,0,13.6,4.3,16.4,10.6c1.5-1,3.2-1.6,5.2-1.6c5,0,9,3.9,9.1,8.8c7.1,0.6,12.6,7.4,12.6,12.9v1.2
	c0,5.9-6.4,11.8-14.3,11.8H29c-7.9,0-14.2-5.9-14.2-11.8v-1.2c0-4.5,3.8-10.7,9.1-12.2c0-0.2,0-0.3,0-0.5
	C23.9,34.9,31.9,26.9,41.9,26.9z"/>
<path class="st5" d="M32.4,47.8l-4.7,16.4h2.8l1.1-4h4.8l1,4h2.8l-4.4-16.4H32.4z M32,58.1l2-8.1h0l1.9,8.1H32z"/>
<polygon class="st5" points="52,60.7 51.9,60.7 49.7,47.8 46.9,47.8 44.8,60.6 44.7,60.6 42.5,47.8 39.9,47.8 43.1,64.3 46.1,64.3 
	48.2,51.9 48.3,51.9 50.4,64.3 53.5,64.3 56.8,47.8 54.1,47.8 "/>
<path class="st5" d="M65.3,55.3l-1.8-0.6C61.7,54,61,53.2,61,51.8c0-1.8,1.1-2.4,2.2-2.4c1.6,0,2.3,0.9,2.3,2.4v0.3h2.6v-0.4
	c0-1.7-0.4-4.3-4.7-4.3c-3.1,0-5.1,1.7-5.1,4.7c0,2.3,1,3.6,3.5,4.5l1.8,0.6c1.5,0.4,2.4,1.2,2.4,2.9c0,1.2-0.8,2.4-2.5,2.4
	c-1.8,0-2.7-1-2.7-3v-0.4h-2.6v0.4c0,2.3,0.9,5,5,5c3.3,0,5.5-1.4,5.5-4.9C68.6,57.4,67.6,56.1,65.3,55.3z"/>
</svg>
