<svg id="Layer_1" data-name="Layer 1" xmlns="http://www.w3.org/2000/svg" width="64px" height="64px" viewBox="5 5 90 90">
  <defs>
    <style>.cls-1{fill:#3c4929;}.cls-2{fill:#b7ca9d;}.cls-3{fill:#759c3e;}.cls-4{fill:#4b612c;}</style>
  </defs>
  <title>SecurityIdentityCompliance</title>
  <polygon class="cls-1" points="36.06 37.67 31.07 33.08 28.58 37.88 32.4 38.33 36.06 37.67"/>
  <polygon class="cls-1" points="31.92 43.61 50 44.76 68.08 43.61 50 33.6 31.92 43.61"/>
  <polygon class="cls-1" points="62.22 37.67 66.62 38.45 71.42 37.88 67.13 28.84 62.22 37.67"/>
  <polygon class="cls-2" points="44.07 70.39 54.41 67.97 64.39 70.3 54.05 80.13 44.07 70.39"/>
  <polygon class="cls-3" points="45.22 36.76 39.84 35.83 34.3 28.93 39.84 17.79 45.22 19.46 45.22 36.76"/>
  <polygon class="cls-4"
           points="31.92 24.43 31.92 18.04 50 9 54.78 19.11 45.22 22.94 39.84 21.26 39.84 35.63 50 33.6 55.41 57.4 50 91 44.58 88.29 44.58 80.63 39.84 78.74 39.84 42.81 31.92 43.61 31.92 37.22 28.58 37.88 28.58 25.77 31.92 24.43"/>
  <polygon class="cls-3"
           points="59.36 13.68 63.17 15.58 68.08 18.04 68.08 24.43 71.42 25.77 71.42 37.88 68.08 37.22 68.08 43.61 63.82 43.18 60.16 42.81 60.16 49.92 60.16 49.96 60.16 50 68.08 50 68.08 56.57 64.4 56.9 64.4 63.53 55.41 65.32 55.41 72.98 64.38 70.31 64.4 77.07 55.41 80.63 55.41 88.29 50 91 50 66.4 50 58.2 50 49.95 50 49.91 50 41.8 50 33.6 54.78 34.55 54.78 22.94 50 21.26 50 17.2 50 9 59.36 13.68"/>
  <polygon class="cls-1" points="55.41 19.36 50 17.2 39.84 21.26 45.22 22.94 55.41 19.36"/>
  <polygon class="cls-4" points="54.78 21.26 60.16 21.26 60.16 35.63 54.78 34.55 54.78 21.26"/>
  <polygon class="cls-1"
           points="39.84 21.26 50 17.2 52.14 18.06 55.41 19.36 60.16 21.26 54.78 22.94 50 21.26 45.22 22.94 39.84 21.26"/>
</svg>