<?xml version="1.0" encoding="UTF-8"?>
<svg width="16px" height="16px" viewBox="0 0 53 46" version="1.1" xmlns="http://www.w3.org/2000/svg" xmlns:xlink="http://www.w3.org/1999/xlink">
    <!-- Generator: Sketch 64 (93537) - https://sketch.com -->
    <title>Cloudwatch logs - option 2</title>
    <desc>Created with Sketch.</desc>
    <g id="Page-1" stroke="#666666" stroke-width="2" fill="none" fill-rule="evenodd">
        <g id="Cloudwatch-logs---option-2" transform="translate(0.000000, 0.724217)" fill="#666666">
            <g id="Icon_Test" fill-rule="nonzero">
                <path d="M19.5,33 L8.5,33 C7.38725611,32.978494 6.30152055,32.6534648 5.36,32.06 C2.27568325,30.1705094 0.425599771,26.7863032 0.5,23.17 C0.290706784,18.9795352 2.97667935,15.1902478 7,14 C7,13.74 7,13.48 7,13.22 C7.1117931,8.03829418 10.1381651,3.36328473 14.82,1.14 C19.8749815,-1.09645487 25.7894638,0.0752444713 29.61,4.07 C30.8636011,5.34667544 31.879502,6.83666342 32.61,8.47 C30.6520881,7.62890484 32.9508254,7.17011178 36.29,7.17 C39.01,7.17 42.07,9.23 43.63,14.75 C45.2,14.36 50.48,16.46 50.48,23.26 C50.6583111,26.7360074 48.816361,30.0032296 45.75,31.65 L44.75,29.9 C47.1676516,28.5924996 48.6100964,26.0038961 48.45,23.26 C48.45,17.38 43.58,15.92 41.45,15.56 C41.1857467,15.5129091 40.9515184,15.3615616 40.8,15.14 C40.6533771,14.9305559 40.5925434,14.6729073 40.63,14.42 C40.34,10.79 38.22,9.17 36.23,9.17 C34.944292,9.18146745 33.7424747,9.81028207 33,10.86 C32.7817383,11.1588407 32.4162854,11.3127157 32.05,11.26 C31.6849574,11.2028433 31.3811791,10.9490539 31.26,10.6 C30.6079795,8.68065277 29.5351538,6.93133187 28.12,5.48 C24.8795842,2.11737534 19.8881612,1.12786863 15.61,3 C11.6842326,4.90956351 9.13931544,8.83666713 9,13.2 C9.00086107,13.6611334 9.02756963,14.1218561 9.08,14.58 C9.147218,15.1062922 8.79171183,15.5934674 8.27,15.69 C4.75685798,16.4079786 2.29851916,19.5893583 2.49,23.17 C2.40451616,26.1033965 3.90653902,28.8551942 6.42,30.37 C7.04190321,30.7679392 7.7618111,30.9859882 8.5,31 L19.5,31 L19.0,33 Z" id="Path"></path>
            </g>
            <path stroke-width="1.0" d="M39.9556238,30.5147059 L39.9556238,20.3609388 L24.9539042,20.3609388 L24.9539042,43.2033378 L39.9556238,43.2033378 L39.9556238,30.5147059 L41.8080668,30.5147059 L41.8080668,44.2205882 C41.8080668,44.6510455 41.4591136,45 41.028658,45 L23.8816663,45 C23.4512107,45 23.1022576,44.6510455 23.1022576,44.2205882 L23.1022576,19.2794118 C23.1022576,18.8489545 23.4512107,18.5 23.8816663,18.5 L41.028658,18.5 C41.4591136,18.5 41.8080668,18.8489545 41.8080668,19.2794118 L41.8080668,30.5147059 L39.9556238,30.5147059 Z" id="Path"></path>
            <rect id="Rectangle-Copy-2" x="29.0000000" y="23.9020985" width="3.97543929" height="1.74654688"></rect>
            <rect id="Rectangle-Copy-4" x="29.0000000" y="30.5829209" width="7.00000000" height="1.74654688"></rect>
            <rect id="Rectangle-Copy-5" x="29.0000000" y="38.0189723" width="6.00000000" height="1.74654688"></rect>
        </g>
    </g>
</svg>