<?xml version="1.0" encoding="UTF-8"?>
<svg width="16px" height="14px" viewBox="0 0 16 14" version="1.1" xmlns="http://www.w3.org/2000/svg" xmlns:xlink="http://www.w3.org/1999/xlink">
    <!-- Generator: Sketch 56.2 (81672) - https://sketch.com -->
    <title>AWS-CloudFormation_Icon_16_Squid</title>
    <desc>Created with Sketch.</desc>
    <g id="Page-1" stroke="none" stroke-width="1" fill="none" fill-rule="evenodd">
        <g id="AWS-Management-&amp;-Governance-Product-Icons_Squid" transform="translate(-38.000000, -423.000000)" fill="#666666">
            <path d="M39.9754448,432.951668 L43.984465,432.951668 L43.984465,431.941101 L39.9754448,431.941101 L39.9754448,432.951668 Z M39.9754448,428.901315 L42.98221,428.901315 L42.98221,427.890748 L39.9754448,427.890748 L39.9754448,428.901315 Z M39.9754448,430.961861 L45.9889752,430.961861 L45.9889752,429.951294 L39.9754448,429.951294 L39.9754448,430.961861 Z M44.9446254,435.989433 L39.0022551,435.989433 L39.0022551,426.787209 L44.9446254,426.787209 L44.9446254,428.915463 L45.9468805,428.915463 L45.9468805,426.281925 C45.9468805,426.001998 45.7223753,425.776641 45.4457529,425.776641 L38.5011275,425.776641 C38.2245051,425.776641 38,426.001998 38,426.281925 L38,436.494716 C38,436.773633 38.2245051,437 38.5011275,437 L45.4457529,437 C45.7223753,437 45.9468805,436.773633 45.9468805,436.494716 L45.9468805,431.947164 L44.9446254,431.947164 L44.9446254,435.989433 Z M54,428.938706 C54,431.053823 52.3933851,431.849139 51.5444751,431.973439 L46.9912303,431.978492 L46.9912303,430.967925 L51.4713104,430.967925 C51.5605112,430.947713 52.9977449,430.667786 52.9977449,428.938706 C52.9977449,428.051428 52.5206715,427.57444 51.4512653,427.392538 C51.1936858,427.349084 51.0132799,427.113622 51.0353295,426.851885 C51.0353295,426.847843 51.0363317,426.84279 51.0363317,426.837737 C51.0142821,426.075769 50.5592583,425.841318 50.3608118,425.77462 C50.0090203,425.656384 49.6401904,425.75643 49.4427462,426.025241 C49.3335004,426.173794 49.1470809,426.248576 48.966675,426.222302 C48.7842646,426.194006 48.6309196,426.067685 48.569782,425.891846 C48.412428,425.447197 48.1789025,425.154132 47.8521674,424.824687 C47.4673014,424.439661 46.4109246,423.609985 44.9456277,424.231484 C44.5607617,424.394186 44.2099724,424.710493 43.9343523,425.146048 L43.0904535,424.600341 C43.4763217,423.99299 43.9834628,423.543288 44.5577549,423.299741 C45.9609121,422.704517 47.4592834,423.006677 48.5607617,424.109206 C48.7902781,424.340625 49.0197945,424.59731 49.2172388,424.923723 C49.6492107,424.694324 50.1794037,424.649859 50.6755199,424.814581 C51.2548234,425.00861 51.8682035,425.5432 52.0095214,426.478986 C53.6421949,426.902413 54,428.032227 54,428.938706 L54,428.938706 Z" id="AWS-CloudFormation_Icon_16_Squid"></path>
        </g>
    </g>
</svg>