<?xml version="1.0" encoding="UTF-8" standalone="no"?><svg xmlns="http://www.w3.org/2000/svg" xmlns:xlink="http://www.w3.org/1999/xlink" contentScriptType="application/ecmascript" contentStyleType="text/css" height="434px" preserveAspectRatio="none" style="width:838px;height:434px;" version="1.1" viewBox="0 0 838 434" width="838px" zoomAndPan="magnify"><defs><filter height="300%" id="f9y5e0500bl5" width="300%" x="-1" y="-1"><feGaussianBlur result="blurOut" stdDeviation="2.0"/><feColorMatrix in="blurOut" result="blurOut2" type="matrix" values="0 0 0 0 0 0 0 0 0 0 0 0 0 0 0 0 0 0 .4 0"/><feOffset dx="4.0" dy="4.0" in="blurOut2" result="blurOut3"/><feBlend in="SourceGraphic" in2="blurOut3" mode="normal"/></filter></defs><g><!--MD5=[626eed683b636928253c4c4840380f7f]
class CredentialsProvider--><rect fill="#FEFECE" filter="url(#f9y5e0500bl5)" height="73.5986" id="CredentialsProvider" style="stroke: #A80036; stroke-width: 1.5;" width="252" x="153" y="350"/><ellipse cx="218.25" cy="366" fill="#B4A7E5" rx="11" ry="11" style="stroke: #A80036; stroke-width: 1.0;"/><path d="M214.2656,372 L214.2656,370.3594 L217.1406,370.3594 L217.1406,361.3438 L214.2656,361.3438 L214.2656,359.7188 L222.4688,359.7188 L222.4688,361.3438 L219.5938,361.3438 L219.5938,370.3594 L222.4688,370.3594 L222.4688,372 L214.2656,372 Z "/><text fill="#000000" font-family="sans-serif" font-size="12" font-style="italic" lengthAdjust="spacingAndGlyphs" textLength="113" x="238.75" y="370.4209">CredentialsProvider</text><line style="stroke: #A80036; stroke-width: 1.5;" x1="154" x2="404" y1="382" y2="382"/><line style="stroke: #A80036; stroke-width: 1.5;" x1="154" x2="404" y1="390" y2="390"/><text fill="#000000" font-family="sans-serif" font-size="11" lengthAdjust="spacingAndGlyphs" textLength="179" x="159" y="404.4521">getCredentialsProviderId(): string</text><text fill="#000000" font-family="sans-serif" font-size="11" lengthAdjust="spacingAndGlyphs" textLength="240" x="159" y="417.2515">getCredentials(): Promise&lt;AWS.Credentials&gt;</text><!--MD5=[ba04278c3ec56711f894750b844aa02b]
class SharedCredentialsProvider--><rect fill="#FEFECE" filter="url(#f9y5e0500bl5)" height="73.5986" id="SharedCredentialsProvider" style="stroke: #A80036; stroke-width: 1.5;" width="237" x="590.75" y="350"/><ellipse cx="629.15" cy="366" fill="#ADD1B2" rx="11" ry="11" style="stroke: #A80036; stroke-width: 1.0;"/><path d="M632.9781,371.6563 Q631.1031,372.3125 629.2906,372.3125 Q626.6969,372.3125 625.1109,370.5313 Q623.525,368.75 623.525,365.8438 Q623.525,363.1563 624.9313,361.3906 Q625.7906,360.3125 626.9078,359.8594 Q628.025,359.4063 629.8063,359.4063 Q631.525,359.4063 632.9781,359.7656 L632.9781,361.75 Q631.1031,361.0469 629.8531,361.0469 Q628.1656,361.0469 627.1734,362.3672 Q626.1813,363.6875 626.1813,365.9219 Q626.1813,367.9688 627.2203,369.2656 Q628.2594,370.5625 629.9,370.5625 Q631.2906,370.5625 632.9781,369.7813 L632.9781,371.6563 Z "/><text fill="#000000" font-family="sans-serif" font-size="12" lengthAdjust="spacingAndGlyphs" textLength="153" x="648.35" y="370.4209">SharedCredentialsProvider</text><line style="stroke: #A80036; stroke-width: 1.5;" x1="591.75" x2="826.75" y1="382" y2="382"/><text fill="#000000" font-family="sans-serif" font-size="11" lengthAdjust="spacingAndGlyphs" textLength="225" x="596.75" y="396.4521">// Represents a Shared Credentials Profile</text><line style="stroke: #A80036; stroke-width: 1.5;" x1="591.75" x2="826.75" y1="402.7993" y2="402.7993"/><ellipse cx="601.75" cy="413.7993" fill="#84BE84" rx="3" ry="3" style="stroke: #038048; stroke-width: 1.0;"/><text fill="#000000" font-family="sans-serif" font-size="11" lengthAdjust="spacingAndGlyphs" textLength="175" x="610.75" y="417.2515">constructor(profileName: string)</text><!--MD5=[5abab22754b31099482869aeb039b7c3]
class CredentialsProviderFactory--><rect fill="#FEFECE" filter="url(#f9y5e0500bl5)" height="86.3979" id="CredentialsProviderFactory" style="stroke: #A80036; stroke-width: 1.5;" width="410" x="74.5" y="186"/><ellipse cx="198.25" cy="202" fill="#B4A7E5" rx="11" ry="11" style="stroke: #A80036; stroke-width: 1.0;"/><path d="M194.2656,208 L194.2656,206.3594 L197.1406,206.3594 L197.1406,197.3438 L194.2656,197.3438 L194.2656,195.7188 L202.4688,195.7188 L202.4688,197.3438 L199.5938,197.3438 L199.5938,206.3594 L202.4688,206.3594 L202.4688,208 L194.2656,208 Z "/><text fill="#000000" font-family="sans-serif" font-size="12" font-style="italic" lengthAdjust="spacingAndGlyphs" textLength="154" x="218.75" y="206.4209">CredentialsProviderFactory</text><line style="stroke: #A80036; stroke-width: 1.5;" x1="75.5" x2="483.5" y1="218" y2="218"/><line style="stroke: #A80036; stroke-width: 1.5;" x1="75.5" x2="483.5" y1="226" y2="226"/><text fill="#000000" font-family="sans-serif" font-size="11" lengthAdjust="spacingAndGlyphs" textLength="144" x="80.5" y="240.4521">getCredentialType(): string</text><text fill="#000000" font-family="sans-serif" font-size="11" lengthAdjust="spacingAndGlyphs" textLength="195" x="80.5" y="253.2515">listProviders(): CredentialsProvider[]</text><text fill="#000000" font-family="sans-serif" font-size="11" lengthAdjust="spacingAndGlyphs" textLength="398" x="80.5" y="266.0508">getProvider(credentialsProviderId: string): CredentialsProvider | undefined</text><!--MD5=[6eaa205723d3b3abc1035d4f081b2c71]
class SharedCredentialsProviderFactory--><rect fill="#FEFECE" filter="url(#f9y5e0500bl5)" height="60.7993" id="SharedCredentialsProviderFactory" style="stroke: #A80036; stroke-width: 1.5;" width="226" x="596" y="198.5"/><ellipse cx="611" cy="214.5" fill="#ADD1B2" rx="11" ry="11" style="stroke: #A80036; stroke-width: 1.0;"/><path d="M614.8281,220.1563 Q612.9531,220.8125 611.1406,220.8125 Q608.5469,220.8125 606.9609,219.0313 Q605.375,217.25 605.375,214.3438 Q605.375,211.6563 606.7813,209.8906 Q607.6406,208.8125 608.7578,208.3594 Q609.875,207.9063 611.6563,207.9063 Q613.375,207.9063 614.8281,208.2656 L614.8281,210.25 Q612.9531,209.5469 611.7031,209.5469 Q610.0156,209.5469 609.0234,210.8672 Q608.0313,212.1875 608.0313,214.4219 Q608.0313,216.4688 609.0703,217.7656 Q610.1094,219.0625 611.75,219.0625 Q613.1406,219.0625 614.8281,218.2813 L614.8281,220.1563 Z "/><text fill="#000000" font-family="sans-serif" font-size="12" lengthAdjust="spacingAndGlyphs" textLength="194" x="625" y="218.9209">SharedCredentialsProviderFactory</text><line style="stroke: #A80036; stroke-width: 1.5;" x1="597" x2="821" y1="230.5" y2="230.5"/><line style="stroke: #A80036; stroke-width: 1.5;" x1="597" x2="821" y1="238.5" y2="238.5"/><ellipse cx="607" cy="249.5" fill="#84BE84" rx="3" ry="3" style="stroke: #038048; stroke-width: 1.0;"/><text fill="#000000" font-family="sans-serif" font-size="11" lengthAdjust="spacingAndGlyphs" textLength="153" x="616" y="252.9521">getCredentialType(): 'profile'</text><!--MD5=[3c04be574c776e647f715474cca4f8fe]
class CredentialsProviderManager--><rect fill="#FEFECE" filter="url(#f9y5e0500bl5)" height="99.1973" id="CredentialsProviderManager" style="stroke: #A80036; stroke-width: 1.5;" width="546" x="6" y="8.5"/><ellipse cx="193.25" cy="24.5" fill="#ADD1B2" rx="11" ry="11" style="stroke: #A80036; stroke-width: 1.0;"/><path d="M197.0781,30.1563 Q195.2031,30.8125 193.3906,30.8125 Q190.7969,30.8125 189.2109,29.0313 Q187.625,27.25 187.625,24.3438 Q187.625,21.6563 189.0313,19.8906 Q189.8906,18.8125 191.0078,18.3594 Q192.125,17.9063 193.9063,17.9063 Q195.625,17.9063 197.0781,18.2656 L197.0781,20.25 Q195.2031,19.5469 193.9531,19.5469 Q192.2656,19.5469 191.2734,20.8672 Q190.2813,22.1875 190.2813,24.4219 Q190.2813,26.4688 191.3203,27.7656 Q192.3594,29.0625 194,29.0625 Q195.3906,29.0625 197.0781,28.2813 L197.0781,30.1563 Z "/><text fill="#000000" font-family="sans-serif" font-size="12" lengthAdjust="spacingAndGlyphs" textLength="163" x="213.75" y="28.9209">CredentialsProviderManager</text><line style="stroke: #A80036; stroke-width: 1.5;" x1="7" x2="551" y1="40.5" y2="40.5"/><rect fill="none" height="6" style="stroke: #C82930; stroke-width: 1.0;" width="6" x="14" y="48.5"/><text fill="#000000" font-family="sans-serif" font-size="11" lengthAdjust="spacingAndGlyphs" textLength="255" x="26" y="54.9521">providerFactories: CredentialsProviderFactory[]</text><line style="stroke: #A80036; stroke-width: 1.5;" x1="7" x2="551" y1="61.2993" y2="61.2993"/><ellipse cx="17" cy="72.2993" fill="#84BE84" rx="3" ry="3" style="stroke: #038048; stroke-width: 1.0;"/><text fill="#000000" font-family="sans-serif" font-size="11" lengthAdjust="spacingAndGlyphs" textLength="303" x="26" y="75.7515">addProviderFactory(factory: CredentialsProviderFactory)</text><ellipse cx="17" cy="85.0986" fill="#84BE84" rx="3" ry="3" style="stroke: #038048; stroke-width: 1.0;"/><text fill="#000000" font-family="sans-serif" font-size="11" lengthAdjust="spacingAndGlyphs" textLength="332" x="26" y="88.5508">getAllCredentialsProviders(): Promise&lt;CredentialsProvider[]&gt;</text><ellipse cx="17" cy="97.8979" fill="#84BE84" rx="3" ry="3" style="stroke: #038048; stroke-width: 1.0;"/><text fill="#000000" font-family="sans-serif" font-size="11" lengthAdjust="spacingAndGlyphs" textLength="520" x="26" y="101.3501">getCredentialsProvider(credentialsProviderId: string): Promise&lt;CredentialsProvider | undefined&gt;</text><!--MD5=[57c7a42b1f8709038ba6c8bcd3ac7b34]
reverse link CredentialsProvider to SharedCredentialsProvider--><path d="M425.406,387 C479.268,387 539.547,387 590.634,387 " fill="none" id="CredentialsProvider&lt;-SharedCredentialsProvider" style="stroke: #A80036; stroke-width: 1.0;"/><polygon fill="none" points="425.109,393.9999,405.109,387,425.109,379.9999,425.109,393.9999" style="stroke: #A80036; stroke-width: 1.0;"/><text fill="#000000" font-family="sans-serif" font-size="13" lengthAdjust="spacingAndGlyphs" textLength="74" x="460.25" y="379.3525">Implements</text><!--MD5=[f4b7b1bbd9ab0ed95db14faa1a7ff0d8]
reverse link CredentialsProviderFactory to SharedCredentialsProviderFactory--><path d="M504.004,229 C535.859,229 567.421,229 595.883,229 " fill="none" id="CredentialsProviderFactory&lt;-SharedCredentialsProviderFactory" style="stroke: #A80036; stroke-width: 1.0;"/><polygon fill="none" points="503.611,236,483.611,229,503.61,222,503.611,236" style="stroke: #A80036; stroke-width: 1.0;"/><text fill="#000000" font-family="sans-serif" font-size="13" lengthAdjust="spacingAndGlyphs" textLength="74" x="502" y="221.3525">Implements</text><!--MD5=[ee83090e07a3070480505db8b77bd85e]
reverse link CredentialsProviderManager to CredentialsProviderFactory--><path d="M279,116.138 C279,138.953 279,164.752 279,185.819 " fill="none" id="CredentialsProviderManager&lt;-CredentialsProviderFactory" style="stroke: #A80036; stroke-width: 1.0;"/><line style="stroke: #A80036; stroke-width: 1.0;" x1="279" x2="273" y1="115.882" y2="107.882"/><line style="stroke: #A80036; stroke-width: 1.0;" x1="279" x2="285" y1="115.882" y2="107.882"/><line style="stroke: #A80036; stroke-width: 1.0;" x1="279" x2="279" y1="115.882" y2="107.882"/><ellipse cx="279" cy="121.882" fill="none" rx="4" ry="4" style="stroke: #A80036; stroke-width: 1.0;"/><text fill="#000000" font-family="sans-serif" font-size="13" lengthAdjust="spacingAndGlyphs" textLength="35" x="280" y="151.3525">Owns</text><!--MD5=[1d0627f2e2a937432fa1fff45e1aa7b1]
reverse link CredentialsProviderFactory to CredentialsProvider--><path d="M279,280.375 C279,303.006 279,329.1996 279,349.8406 " fill="none" id="CredentialsProviderFactory&lt;-CredentialsProvider" style="stroke: #A80036; stroke-width: 1.0;"/><line style="stroke: #A80036; stroke-width: 1.0;" x1="279" x2="273" y1="280.216" y2="272.216"/><line style="stroke: #A80036; stroke-width: 1.0;" x1="279" x2="285" y1="280.216" y2="272.216"/><line style="stroke: #A80036; stroke-width: 1.0;" x1="279" x2="279" y1="280.216" y2="272.216"/><ellipse cx="279" cy="286.216" fill="none" rx="4" ry="4" style="stroke: #A80036; stroke-width: 1.0;"/><text fill="#000000" font-family="sans-serif" font-size="13" lengthAdjust="spacingAndGlyphs" textLength="47" x="280" y="315.3525">Creates</text><!--MD5=[07eee499a71e50982ebc1535ca245ea3]
reverse link SharedCredentialsProviderFactory to SharedCredentialsProvider--><path d="M709,267.854 C709,292.784 709,325.2364 709,349.8199 " fill="none" id="SharedCredentialsProviderFactory&lt;-SharedCredentialsProvider" style="stroke: #A80036; stroke-width: 1.0;"/><line style="stroke: #A80036; stroke-width: 1.0;" x1="709" x2="703" y1="267.71" y2="259.71"/><line style="stroke: #A80036; stroke-width: 1.0;" x1="709" x2="715" y1="267.71" y2="259.71"/><line style="stroke: #A80036; stroke-width: 1.0;" x1="709" x2="709" y1="267.71" y2="259.71"/><ellipse cx="709" cy="273.71" fill="none" rx="4" ry="4" style="stroke: #A80036; stroke-width: 1.0;"/><text fill="#000000" font-family="sans-serif" font-size="13" lengthAdjust="spacingAndGlyphs" textLength="47" x="710" y="315.3525">Creates</text><!--MD5=[14484cc9c84c2bf89882e57361725ee7]
@startuml
interface CredentialsProvider {
    getCredentialsProviderId(): string
    getCredentials(): Promise<AWS.Credentials>
}


class SharedCredentialsProvider {
    // Represents a Shared Credentials Profile
    + constructor(profileName: string)
}

interface CredentialsProviderFactory {
    getCredentialType(): string
    listProviders(): CredentialsProvider[]
    getProvider(credentialsProviderId: string): CredentialsProvider | undefined
}


class SharedCredentialsProviderFactory {
    + getCredentialType(): 'profile'
}

class CredentialsProviderManager {
    - providerFactories: CredentialsProviderFactory[]
    + addProviderFactory(factory: CredentialsProviderFactory) 
    + getAllCredentialsProviders(): Promise<CredentialsProvider[]> 
    + getCredentialsProvider(credentialsProviderId: string): Promise<CredentialsProvider | undefined> 
}

SharedCredentialsProvider -left-|> CredentialsProvider: Implements
SharedCredentialsProviderFactory -left-|> CredentialsProviderFactory: Implements

CredentialsProviderManager }o- - CredentialsProviderFactory: Owns
CredentialsProviderFactory }o- - CredentialsProvider: Creates
SharedCredentialsProviderFactory }o- - SharedCredentialsProvider: Creates
@enduml

PlantUML version 1.2019.12(Sun Nov 03 10:24:54 UTC 2019)
(GPLV2 source distribution)
Java Runtime: OpenJDK Runtime Environment
JVM: OpenJDK 64-Bit Server VM
Java Version: 1.8.0_232-b09
Operating System: Linux
Default Encoding: UTF-8
Language: en
Country: US
--></g></svg>