<svg xmlns="http://www.w3.org/2000/svg" xmlns:xlink="http://www.w3.org/1999/xlink" width="1155" height="494" contentScriptType="application/ecmascript" contentStyleType="text/css" style="width:1155px;height:494px" preserveAspectRatio="none" version="1.1" viewBox="0 0 1155 494" zoomAndPan="magnify"><defs><filter id="f1xp8jykhjsru3" width="300%" height="300%" x="-1" y="-1"><feGaussianBlur result="blurOut" stdDeviation="2"/><feColorMatrix in="blurOut" result="blurOut2" type="matrix" values="0 0 0 0 0 0 0 0 0 0 0 0 0 0 0 0 0 0 .4 0"/><feOffset dx="4" dy="4" in="blurOut2" result="blurOut3"/><feBlend in="SourceGraphic" in2="blurOut3" mode="normal"/></filter></defs><g><rect id="CredentialsProvider" width="363" height="85.234" x="217" y="398.5" fill="#FEFECE" filter="url(#f1xp8jykhjsru3)" style="stroke:#a80036;stroke-width:1.5"/><ellipse cx="317.25" cy="414.5" fill="#B4A7E5" rx="11" ry="11" style="stroke:#a80036;stroke-width:1"/><path d="M313.2188,420.5 L313.2188,418.9531 L315.9063,418.9531 L315.9063,410.4688 L313.2188,410.4688 L313.2188,408.9375 L320.9219,408.9375 L320.9219,410.4688 L318.2344,410.4688 L318.2344,418.9531 L320.9219,418.9531 L320.9219,420.5 L313.2188,420.5 Z"/><text x="337.75" y="420.394" fill="#000" font-family="sans-serif" font-size="16" font-style="italic" lengthAdjust="spacingAndGlyphs" textLength="154">CredentialsProvider</text><line style="stroke:#a80036;stroke-width:1.5" x1="218" x2="579" y1="430.5" y2="430.5"/><line style="stroke:#a80036;stroke-width:1.5" x1="218" x2="579" y1="438.5" y2="438.5"/><text x="223" y="457.703" fill="#000" font-family="sans-serif" font-size="16" lengthAdjust="spacingAndGlyphs" textLength="260">getCredentialsProviderId(): string</text><text x="223" y="476.32" fill="#000" font-family="sans-serif" font-size="16" lengthAdjust="spacingAndGlyphs" textLength="351">getCredentials(): Promise&lt;AWS.Credentials&gt;</text><rect id="SharedCredentialsProvider" width="342" height="85.234" x="802.25" y="398.5" fill="#FEFECE" filter="url(#f1xp8jykhjsru3)" style="stroke:#a80036;stroke-width:1.5"/><ellipse cx="865" cy="414.5" fill="#ADD1B2" rx="11" ry="11" style="stroke:#a80036;stroke-width:1"/><path d="M868.25,420.1719 Q866.5,420.7969 864.7813,420.7969 Q862.3438,420.7969 860.8516,419.1172 Q859.3594,417.4375 859.3594,414.7031 Q859.3594,412.1719 860.6875,410.5 Q861.4844,409.5 862.5391,409.0703 Q863.5938,408.6406 865.2656,408.6406 Q866.8906,408.6406 868.25,408.9844 L868.25,410.8594 Q866.5,410.1875 865.3125,410.1875 Q863.7344,410.1875 862.7969,411.4297 Q861.8594,412.6719 861.8594,414.7813 Q861.8594,416.7031 862.8359,417.9219 Q863.8125,419.1406 865.3594,419.1406 Q866.6563,419.1406 868.25,418.4063 L868.25,420.1719 Z"/><text x="885.5" y="420.394" fill="#000" font-family="sans-serif" font-size="16" lengthAdjust="spacingAndGlyphs" textLength="208">SharedCredentialsProvider</text><line style="stroke:#a80036;stroke-width:1.5" x1="803.25" x2="1143.25" y1="430.5" y2="430.5"/><text x="808.25" y="449.703" fill="#000" font-family="sans-serif" font-size="16" lengthAdjust="spacingAndGlyphs" textLength="330">// Represents a Shared Credentials Profile</text><line style="stroke:#a80036;stroke-width:1.5" x1="803.25" x2="1143.25" y1="457.117" y2="457.117"/><ellipse cx="813.25" cy="468.117" fill="#84BE84" rx="3" ry="3" style="stroke:#038048;stroke-width:1"/><text x="822.25" y="476.32" fill="#000" font-family="sans-serif" font-size="16" lengthAdjust="spacingAndGlyphs" textLength="253">constructor(profileName: string)</text><rect id="CredentialsProviderFactory" width="593" height="103.852" x="102" y="212" fill="#FEFECE" filter="url(#f1xp8jykhjsru3)" style="stroke:#a80036;stroke-width:1.5"/><ellipse cx="288.75" cy="228" fill="#B4A7E5" rx="11" ry="11" style="stroke:#a80036;stroke-width:1"/><path d="M284.7188,234 L284.7188,232.4531 L287.4063,232.4531 L287.4063,223.9688 L284.7188,223.9688 L284.7188,222.4375 L292.4219,222.4375 L292.4219,223.9688 L289.7344,223.9688 L289.7344,232.4531 L292.4219,232.4531 L292.4219,234 L284.7188,234 Z"/><text x="309.25" y="233.894" fill="#000" font-family="sans-serif" font-size="16" font-style="italic" lengthAdjust="spacingAndGlyphs" textLength="211">CredentialsProviderFactory</text><line style="stroke:#a80036;stroke-width:1.5" x1="103" x2="694" y1="244" y2="244"/><line style="stroke:#a80036;stroke-width:1.5" x1="103" x2="694" y1="252" y2="252"/><text x="108" y="271.203" fill="#000" font-family="sans-serif" font-size="16" lengthAdjust="spacingAndGlyphs" textLength="209">getCredentialType(): string</text><text x="108" y="289.82" fill="#000" font-family="sans-serif" font-size="16" lengthAdjust="spacingAndGlyphs" textLength="281">listProviders(): CredentialsProvider[]</text><text x="108" y="308.438" fill="#000" font-family="sans-serif" font-size="16" lengthAdjust="spacingAndGlyphs" textLength="581">getProvider(credentialsProviderId: string): CredentialsProvider | undefined</text><rect id="SharedCredentialsProviderFactory" width="297" height="66.617" x="825" y="230.5" fill="#FEFECE" filter="url(#f1xp8jykhjsru3)" style="stroke:#a80036;stroke-width:1.5"/><ellipse cx="840" cy="246.5" fill="#ADD1B2" rx="11" ry="11" style="stroke:#a80036;stroke-width:1"/><path d="M843.25,252.1719 Q841.5,252.7969 839.7813,252.7969 Q837.3438,252.7969 835.8516,251.1172 Q834.3594,249.4375 834.3594,246.7031 Q834.3594,244.1719 835.6875,242.5 Q836.4844,241.5 837.5391,241.0703 Q838.5938,240.6406 840.2656,240.6406 Q841.8906,240.6406 843.25,240.9844 L843.25,242.8594 Q841.5,242.1875 840.3125,242.1875 Q838.7344,242.1875 837.7969,243.4297 Q836.8594,244.6719 836.8594,246.7813 Q836.8594,248.7031 837.8359,249.9219 Q838.8125,251.1406 840.3594,251.1406 Q841.6563,251.1406 843.25,250.4063 L843.25,252.1719 Z"/><text x="854" y="252.394" fill="#000" font-family="sans-serif" font-size="16" lengthAdjust="spacingAndGlyphs" textLength="265">SharedCredentialsProviderFactory</text><line style="stroke:#a80036;stroke-width:1.5" x1="826" x2="1121" y1="262.5" y2="262.5"/><line style="stroke:#a80036;stroke-width:1.5" x1="826" x2="1121" y1="270.5" y2="270.5"/><ellipse cx="836" cy="281.5" fill="#84BE84" rx="3" ry="3" style="stroke:#038048;stroke-width:1"/><text x="845" y="289.703" fill="#000" font-family="sans-serif" font-size="16" lengthAdjust="spacingAndGlyphs" textLength="223">getCredentialType(): &apos;profile&apos;</text><rect id="CredentialsProviderManager" width="785" height="122.469" x="6" y="8" fill="#FEFECE" filter="url(#f1xp8jykhjsru3)" style="stroke:#a80036;stroke-width:1.5"/><ellipse cx="283.25" cy="24" fill="#ADD1B2" rx="11" ry="11" style="stroke:#a80036;stroke-width:1"/><path d="M286.5,29.6719 Q284.75,30.2969 283.0313,30.2969 Q280.5938,30.2969 279.1016,28.6172 Q277.6094,26.9375 277.6094,24.2031 Q277.6094,21.6719 278.9375,20 Q279.7344,19 280.7891,18.5703 Q281.8438,18.1406 283.5156,18.1406 Q285.1406,18.1406 286.5,18.4844 L286.5,20.3594 Q284.75,19.6875 283.5625,19.6875 Q281.9844,19.6875 281.0469,20.9297 Q280.1094,22.1719 280.1094,24.2813 Q280.1094,26.2031 281.0859,27.4219 Q282.0625,28.6406 283.6094,28.6406 Q284.9063,28.6406 286.5,27.9063 L286.5,29.6719 Z"/><text x="303.75" y="29.895" fill="#000" font-family="sans-serif" font-size="16" lengthAdjust="spacingAndGlyphs" textLength="222">CredentialsProviderManager</text><line style="stroke:#a80036;stroke-width:1.5" x1="7" x2="790" y1="40" y2="40"/><rect style="stroke:#c82930;stroke-width:1" width="6" height="6" x="14" y="48" fill="none"/><text x="26" y="59.203" fill="#000" font-family="sans-serif" font-size="16" lengthAdjust="spacingAndGlyphs" textLength="368">providerFactories: CredentialsProviderFactory[]</text><line style="stroke:#a80036;stroke-width:1.5" x1="7" x2="790" y1="66.617" y2="66.617"/><ellipse cx="17" cy="77.617" fill="#84BE84" rx="3" ry="3" style="stroke:#038048;stroke-width:1"/><text x="26" y="85.82" fill="#000" font-family="sans-serif" font-size="16" lengthAdjust="spacingAndGlyphs" textLength="436">addProviderFactory(factory: CredentialsProviderFactory)</text><ellipse cx="17" cy="96.234" fill="#84BE84" rx="3" ry="3" style="stroke:#038048;stroke-width:1"/><text x="26" y="104.438" fill="#000" font-family="sans-serif" font-size="16" lengthAdjust="spacingAndGlyphs" textLength="481">getAllCredentialsProviders(): Promise&lt;CredentialsProvider[]&gt;</text><ellipse cx="17" cy="114.852" fill="#84BE84" rx="3" ry="3" style="stroke:#038048;stroke-width:1"/><text x="26" y="123.055" fill="#000" font-family="sans-serif" font-size="16" lengthAdjust="spacingAndGlyphs" textLength="759">getCredentialsProvider(credentialsProviderId: string): Promise&lt;CredentialsProvider | undefined&gt;</text><path id="CredentialsProvider&lt;-SharedCredentialsProvider" fill="none" d="M600.029,441 C665.99,441 738.577,441 802.063,441" style="stroke:#a80036;stroke-width:1"/><polygon fill="none" points="599.789 448 579.789 441 599.789 434 599.789 448" style="stroke:#a80036;stroke-width:1"/><text x="644.25" y="433.203" fill="#000" font-family="sans-serif" font-size="16" lengthAdjust="spacingAndGlyphs" textLength="92">Implements</text><path id="CredentialsProviderFactory&lt;-SharedCredentialsProviderFactory" fill="none" d="M714.695,264 C753.044,264 790.7,264 824.894,264" style="stroke:#a80036;stroke-width:1"/><polygon fill="none" points="714.593 271 694.593 264 714.593 257 714.593 271" style="stroke:#a80036;stroke-width:1"/><text x="713" y="256.203" fill="#000" font-family="sans-serif" font-size="16" lengthAdjust="spacingAndGlyphs" textLength="92">Implements</text><path id="CredentialsProviderManager&lt;-CredentialsProviderFactory" fill="none" d="M398.25,138.12 C398.25,162.363 398.25,189.229 398.25,211.812" style="stroke:#a80036;stroke-width:1"/><line style="stroke:#a80036;stroke-width:1" x1="398.25" x2="392.25" y1="138.008" y2="130.008"/><line style="stroke:#a80036;stroke-width:1" x1="398.25" x2="404.25" y1="138.008" y2="130.008"/><line style="stroke:#a80036;stroke-width:1" x1="398.25" x2="398.25" y1="138.008" y2="130.008"/><ellipse cx="398.25" cy="144.008" fill="none" rx="4" ry="4" style="stroke:#a80036;stroke-width:1"/><text x="399.25" y="176.703" fill="#000" font-family="sans-serif" font-size="16" lengthAdjust="spacingAndGlyphs" textLength="42">Owns</text><path id="CredentialsProviderFactory&lt;-CredentialsProvider" fill="none" d="M398.25,324.2 C398.25,348.526 398.25,376.123 398.25,398.2734" style="stroke:#a80036;stroke-width:1"/><line style="stroke:#a80036;stroke-width:1" x1="398.25" x2="392.25" y1="324.088" y2="316.088"/><line style="stroke:#a80036;stroke-width:1" x1="398.25" x2="404.25" y1="324.088" y2="316.088"/><line style="stroke:#a80036;stroke-width:1" x1="398.25" x2="398.25" y1="324.088" y2="316.088"/><ellipse cx="398.25" cy="330.088" fill="none" rx="4" ry="4" style="stroke:#a80036;stroke-width:1"/><text x="399.25" y="362.703" fill="#000" font-family="sans-serif" font-size="16" lengthAdjust="spacingAndGlyphs" textLength="59">Creates</text><path id="SharedCredentialsProviderFactory&lt;-SharedCredentialsProvider" fill="none" d="M973.25,305.837 C973.25,333.666 973.25,370.397 973.25,398.3888" style="stroke:#a80036;stroke-width:1"/><line style="stroke:#a80036;stroke-width:1" x1="973.25" x2="967.25" y1="305.506" y2="297.506"/><line style="stroke:#a80036;stroke-width:1" x1="973.25" x2="979.25" y1="305.506" y2="297.506"/><line style="stroke:#a80036;stroke-width:1" x1="973.25" x2="973.25" y1="305.506" y2="297.506"/><ellipse cx="973.25" cy="311.506" fill="none" rx="4" ry="4" style="stroke:#a80036;stroke-width:1"/><text x="974.25" y="362.703" fill="#000" font-family="sans-serif" font-size="16" lengthAdjust="spacingAndGlyphs" textLength="59">Creates</text></g></svg>