<svg width="24" height="24" viewBox="0 0 24 24" fill="none" xmlns="http://www.w3.org/2000/svg">
<path d="M11.1483 6.20865L6.6307 11.9909L6.63144 11.9905L11.1628 17.7906C11.3913 18.0834 11.1829 18.511 10.8114 18.511H7.59403C7.45657 18.511 7.32692 18.4478 7.24258 18.3397L2.49499 12.2632C2.36867 12.102 2.36904 11.8754 2.49499 11.7141L7.22846 5.65955C7.3128 5.55144 7.44246 5.48828 7.57955 5.48828H10.7969C11.1684 5.48828 11.3772 5.9159 11.1483 6.20865Z" fill="#C5C5C5"/>
<path d="M16.7589 5.65955L21.5065 11.7361L21.5058 11.7364C21.6321 11.8977 21.6317 12.1243 21.5058 12.2855L16.7723 18.3401C16.688 18.4482 16.5583 18.5114 16.4212 18.5114H13.2039C12.8324 18.5114 12.6236 18.0838 12.8525 17.791L17.3701 12.0087L12.8387 6.20865C12.6102 5.9159 12.8187 5.48828 13.1902 5.48828H16.4075C16.545 5.48828 16.6746 5.55144 16.7589 5.65955Z" fill="#C5C5C5"/>
</svg>
