<svg width="18" height="18" viewBox="0 0 18 18" fill="none" xmlns="http://www.w3.org/2000/svg">
<path fill-rule="evenodd" clip-rule="evenodd" d="M11.4044 0.819824L15.3671 3.19749V5.77478L17.1041 7.04857V11.6284L15.3671 12.4776V15.1814L11.0969 17.8829L8.5 16.3921V13.6709H9.5V15.8131L11.0718 16.7155L14.3671 14.6307V11.8534L16.1041 11.0042V7.5553L14.3671 6.28152V3.76368L11.382 1.97259L9.5 3.00464V5.60356H8.5V2.41254L11.4044 0.819824Z" fill="url(#paint0_linear_2857_55769)"/>
<path fill-rule="evenodd" clip-rule="evenodd" d="M6.59564 0.819824L2.63287 3.19749V5.77478L0.895893 7.04857V11.6284L2.63287 12.4776V15.1814L6.90309 17.8829L9.5 16.3921V13.6709H8.5V15.8131L6.92816 16.7155L3.63287 14.6307V11.8534L1.89589 11.0042V7.5553L3.63287 6.28152V3.76368L6.61802 1.97259L8.5 3.00464V5.60356H9.5V2.41254L6.59564 0.819824Z" fill="url(#paint1_linear_2857_55769)"/>
<path fill-rule="evenodd" clip-rule="evenodd" d="M6.21111 7.68604L6.9269 8.38436L5.71948 9.62196L6.93107 10.8941L6.20694 11.5838L4.33057 9.6136L6.21111 7.68604Z" fill="url(#paint2_linear_2857_55769)"/>
<path fill-rule="evenodd" clip-rule="evenodd" d="M11.6361 7.68604L10.9203 8.38436L12.1277 9.62196L10.9161 10.8941L11.6402 11.5838L13.5166 9.6136L11.6361 7.68604Z" fill="url(#paint3_linear_2857_55769)"/>
<path fill-rule="evenodd" clip-rule="evenodd" d="M7.56299 12.0028L9.26137 7.06201L10.2071 7.38709L8.50867 12.3278L7.56299 12.0028Z" fill="url(#paint4_linear_2857_55769)"/>
<defs>
<linearGradient id="paint0_linear_2857_55769" x1="17.0397" y1="-280.718" x2="11.6124" y2="-280.717" gradientUnits="userSpaceOnUse">
<stop stop-color="#6EB1FF"/>
<stop offset="1" stop-color="#DA8AF7"/>
</linearGradient>
<linearGradient id="paint1_linear_2857_55769" x1="0.960316" y1="-280.718" x2="6.38762" y2="-280.717" gradientUnits="userSpaceOnUse">
<stop stop-color="#6EB1FF"/>
<stop offset="1" stop-color="#DA8AF7"/>
</linearGradient>
<linearGradient id="paint2_linear_2857_55769" x1="6.9116" y1="-56.626" x2="5.27125" y2="-56.6256" gradientUnits="userSpaceOnUse">
<stop stop-color="#6EB1FF"/>
<stop offset="1" stop-color="#DA8AF7"/>
</linearGradient>
<linearGradient id="paint3_linear_2857_55769" x1="10.9356" y1="-56.626" x2="12.5759" y2="-56.6256" gradientUnits="userSpaceOnUse">
<stop stop-color="#6EB1FF"/>
<stop offset="1" stop-color="#DA8AF7"/>
</linearGradient>
<linearGradient id="paint4_linear_2857_55769" x1="10.1873" y1="-79.8229" x2="8.51943" y2="-79.8226" gradientUnits="userSpaceOnUse">
<stop stop-color="#6EB1FF"/>
<stop offset="1" stop-color="#DA8AF7"/>
</linearGradient>
</defs>
</svg>
