<svg width="17" height="18" viewBox="0 0 17 18" fill="none" xmlns="http://www.w3.org/2000/svg">
<path fill-rule="evenodd" clip-rule="evenodd" d="M10.5084 0.819824L14.4711 3.19749V5.77478L16.2081 7.04857V11.6284L14.4711 12.4776V15.1814L10.2009 17.8829L7.604 16.3921V13.6709H8.604V15.8131L10.1758 16.7155L13.4711 14.6307V11.8534L15.2081 11.0042V7.5553L13.4711 6.28152V3.76368L10.486 1.97259L8.604 3.00464V5.60356H7.604V2.41254L10.5084 0.819824Z" fill="white"/>
<path fill-rule="evenodd" clip-rule="evenodd" d="M5.69965 0.819824L1.73688 3.19749V5.77478L-0.000102997 7.04857V11.6284L1.73688 12.4776V15.1814L6.00709 17.8829L8.604 16.3921V13.6709H7.604V15.8131L6.03217 16.7155L2.73688 14.6307V11.8534L0.999897 11.0042V7.5553L2.73688 6.28152V3.76368L5.72202 1.97259L7.604 3.00464V5.60356H8.604V2.41254L5.69965 0.819824Z" fill="white"/>
<path fill-rule="evenodd" clip-rule="evenodd" d="M5.31512 7.68604L6.0309 8.38436L4.82349 9.62196L6.03508 10.8941L5.31094 11.5838L3.43457 9.6136L5.31512 7.68604Z" fill="white"/>
<path fill-rule="evenodd" clip-rule="evenodd" d="M10.7401 7.68604L10.0243 8.38436L11.2317 9.62196L10.0201 10.8941L10.7442 11.5838L12.6206 9.6136L10.7401 7.68604Z" fill="white"/>
<path fill-rule="evenodd" clip-rule="evenodd" d="M6.66699 12.0028L8.36537 7.06201L9.31106 7.38709L7.61268 12.3278L6.66699 12.0028Z" fill="white"/>
</svg>
