<?xml version="1.0" encoding="UTF-8"?>
<svg width="17" height="16" viewBox="0 0 17 16" version="1.1" xmlns="http://www.w3.org/2000/svg" xmlns:svg="http://www.w3.org/2000/svg">
  <g stroke="none" stroke-width="1" fill="none" fill-rule="evenodd" transform="matrix(0.30357137,0,0,0.2909092,3.0357137e-6,-4.7053074e-8)">
    <g transform="translate(-216,-85)" fill="currentColor">
      <path d="m 272,111.30553 c 0,6.92918 -4.73375,9.47051 -7.55474,10.36928 l -0.59954,-1.9065 c 2.81405,-0.89577 6.16906,-3.09119 6.16906,-8.46278 0,-6.79122 -5.55861,-8.48678 -7.94781,-8.90067 -0.53304,-0.092 -0.89335,-0.59684 -0.81394,-1.1347 v 0 c -0.23624,-3.094192 -1.67553,-5.319608 -3.86224,-5.96344 -1.81648,-0.53386 -3.76795,0.173955 -4.96503,1.807526 -0.21738,0.296923 -0.58465,0.447883 -0.94497,0.394897 -0.36329,-0.05399 -0.66703,-0.30692 -0.78912,-0.655828 -0.82486,-2.349384 -2.01996,-4.325866 -3.55155,-5.87446 -1.88,-1.899502 -7.0376,-5.98443 -14.32732,-2.877245 -4.20965,1.795529 -7.50709,6.968173 -7.50709,11.774912 0,0.534858 0.0318,1.073718 0.0953,1.602578 0.0586,0.49787 -0.25808,0.96275 -0.74049,1.08672 -2.49343,0.64083 -6.67529,2.61631 -6.67529,8.65573 0,0.19595 0.005,0.38789 0.0149,0.57685 0.18661,3.88798 3.02745,7.2281 6.91054,8.12487 l -0.44469,1.94848 c -4.74467,-1.09671 -8.21979,-5.19763 -8.44909,-9.97338 -0.0119,-0.21794 -0.0169,-0.44588 -0.0169,-0.67682 0,-6.90719 4.63747,-9.45452 7.35225,-10.35229 -0.0208,-0.33091 -0.0318,-0.66282 -0.0318,-0.992738 0,-5.64252 3.74809,-11.495985 8.71907,-13.616429 5.82463,-2.485348 11.99667,-1.248673 16.50609,3.307133 1.40256,1.417628 2.552,3.137177 3.42847,5.127655 1.66858,-1.41263 3.87514,-1.924495 5.97352,-1.306657 2.87857,0.846777 4.80522,3.518077 5.23502,7.206106 2.81603,0.66283 8.81734,2.98622 8.81734,10.7112 z m -11.10134,22.00822 -6.93535,3.88598 V 128.554 l 6.93535,-3.94196 z m -17.89077,-0.025 -6.92047,3.98795 V 128.52 l 6.92047,-3.92997 z m -7.91606,-6.4983 -6.92245,-3.88498 6.93436,-3.88498 6.86786,3.86199 z m -7.97064,-2.18442 6.98101,3.91797 v 8.7577 l -6.98101,-3.99495 z m 16.90809,-20.55261 6.88176,3.84499 -6.91054,3.86499 -6.85595,-3.845 z m 2.00309,18.83106 6.92245,-3.87998 6.91054,3.89897 -6.89466,3.91898 z m -1.03926,1.70455 6.98498,3.96496 v 8.64573 l -6.98498,-3.91897 z m 6.97108,-7.31708 -6.97108,3.90598 v -7.68299 l 6.97108,-3.89798 z m -15.86684,-7.65299 6.91054,3.87498 v 7.68099 l -6.91054,-3.88598 z m 26.2942,12.41774 c -0.005,-0.003 -0.0109,-0.004 -0.0159,-0.007 l 9.9e-4,-0.002 -8.42725,-4.75375 v -9.37554 c 0,-0.35491 -0.18562,-0.68182 -0.48935,-0.86178 -0.008,-0.004 -0.0149,-0.006 -0.0228,-0.01 l 0.002,-0.003 -8.92851,-4.98769 c -0.30176,-0.16696 -0.66704,-0.16696 -0.96482,0.001 l -8.92355,5.00868 9.9e-4,0.002 c -0.007,0.004 -0.0149,0.005 -0.0218,0.009 -0.30274,0.17995 -0.48935,0.50787 -0.48935,0.86177 v 9.36855 l -8.46596,4.74375 0.002,0.002 c -0.008,0.004 -0.0159,0.006 -0.0228,0.01 -0.30275,0.17895 -0.48936,0.50787 -0.48936,0.86177 v 10.96413 c 0,0.3599 0.19157,0.69182 0.50226,0.86877 l 8.95829,5.12765 0.008,0.005 v -0.001 c 0.15286,0.087 0.32161,0.13097 0.49035,0.13097 0.16974,0 0.34047,-0.044 0.49333,-0.13197 l 8.4193,-4.85172 8.48085,4.75775 9.9e-4,-0.003 c 0.14989,0.084 0.31466,0.12897 0.48142,0.12897 0.16577,0 0.33252,-0.042 0.48241,-0.12597 l 8.92156,-4.99869 c 0.31466,-0.17695 0.50921,-0.51087 0.50921,-0.87377 v -11.00112 c 0,-0.3559 -0.18661,-0.68382 -0.49233,-0.86377 z" />
    </g>
  </g>
</svg>
