<svg width="62" height="62" viewBox="0 0 62 62" fill="none" xmlns="http://www.w3.org/2000/svg">
<g clip-path="url(#clip0_993_7532)">
<mask id="mask0_993_7532" style="mask-type:luminance" maskUnits="userSpaceOnUse" x="0" y="0" width="62" height="62">
<path d="M62 0H0V62H62V0Z" fill="white"/>
</mask>
<g mask="url(#mask0_993_7532)">
<path fill-rule="evenodd" clip-rule="evenodd" d="M31.887 33.4227L33.9531 34.1391L29.3889 47.2958L27.3228 46.5794L31.887 33.4227ZM25.5269 36.8603L22.1669 40.2488L25.4602 43.6306L23.8917 45.1575L19.8503 41.0056C19.4347 40.578 19.438 39.8955 19.858 39.4722L23.9738 35.3203L25.5269 36.8603ZM41.7789 39.4722C42.1989 39.8955 42.2022 40.578 41.7866 41.0056L37.743 45.1575L36.1756 43.6306L39.4689 40.2488L36.11 36.8603L37.6631 35.3203L41.7789 39.4722ZM49.6277 43.9227L45.8564 45.8072C45.4867 45.9931 45.2527 46.3716 45.2527 46.7861V53.3027L36.3736 58.767L32.1277 56.3422V50.6875H29.9402V56.3422L25.6942 58.767L16.8152 53.3027V46.785C16.8152 46.3705 16.5811 45.992 16.2103 45.8072L12.4402 43.9216L12.4391 39.6625L12.4402 34.8828L16.3842 31.8772C16.6555 31.6705 16.8152 31.3489 16.8152 31.0077V24.9308L24.9461 20.1883L29.9402 22.9762V29.9062H32.1277V22.9762L37.1206 20.1883L45.2527 24.9308V31.0077C45.2527 31.3489 45.4112 31.6705 45.6825 31.8772L49.6277 34.8817L49.6288 39.6625L49.6277 43.9227ZM51.3842 33.4708L47.4402 30.4652V24.303C47.4402 23.9147 47.2334 23.5548 46.8977 23.358L37.6839 17.9844C37.3492 17.7886 36.9358 17.7853 36.6 17.9734L31.0339 21.0819L25.4678 17.9734C25.1298 17.7864 24.7175 17.7886 24.3839 17.9844L15.1702 23.358C14.8333 23.5548 14.6277 23.9147 14.6277 24.303V30.4662L10.6825 33.4708C10.4113 33.6775 10.2527 34.0002 10.2527 34.3414L10.2516 39.6625L10.2527 44.5975C10.2527 45.012 10.4867 45.3905 10.8564 45.5764L14.6277 47.4609V53.9141C14.6277 54.2936 14.8234 54.6458 15.1472 54.8448L25.1003 60.9709C25.4405 61.1788 25.867 61.1864 26.2159 60.9884L31.0339 58.2366L35.8508 60.9884C36.0192 61.0847 36.2062 61.1328 36.3933 61.1328C36.5923 61.1328 36.7903 61.0781 36.9675 60.9709L46.9195 54.8448C47.2433 54.6458 47.4402 54.2936 47.4402 53.9141V47.462L51.2103 45.5764C51.5811 45.3916 51.8152 45.0131 51.8152 44.5986L51.8163 39.6625L51.8152 34.3403C51.8152 33.9991 51.6555 33.6775 51.3842 33.4708ZM20.0964 6.39062C20.0964 7.29625 19.3614 8.03125 18.4558 8.03125C17.5491 8.03125 16.8152 7.29625 16.8152 6.39062C16.8152 5.48391 17.5491 4.75 18.4558 4.75C19.3614 4.75 20.0964 5.48391 20.0964 6.39062ZM14.6277 6.39062C14.6277 7.29625 13.8927 8.03125 12.987 8.03125C12.0803 8.03125 11.3464 7.29625 11.3464 6.39062C11.3464 5.48391 12.0803 4.75 12.987 4.75C13.8927 4.75 14.6277 5.48391 14.6277 6.39062ZM9.15891 6.39062C9.15891 7.29625 8.42391 8.03125 7.51828 8.03125C6.61156 8.03125 5.87766 7.29625 5.87766 6.39062C5.87766 5.48391 6.61156 4.75 7.51828 4.75C8.42391 4.75 9.15891 5.48391 9.15891 6.39062ZM2.59641 10.2188L2.60188 2.66422C2.60188 2.61609 2.65875 2.5625 2.73969 2.5625H59.3336C59.4145 2.5625 59.4714 2.61609 59.4714 2.66422V10.2188H2.59641ZM59.3336 0.375H2.73422C1.45453 0.375 0.411095 1.40094 0.408908 2.66203L0.375001 42.9262C0.373908 44.1819 1.41078 45.21 2.69375 45.2188L6.97141 45.2166V43.0312L2.73203 43.0323C2.65219 43.0323 2.59641 42.9788 2.59641 42.9306L2.62156 12.4062H59.4714V42.9186C59.4714 42.9787 59.408 43.0302 59.3336 43.0302L55.0964 43.0312V45.2188L59.3336 45.2177C60.6155 45.2177 61.6589 44.1862 61.6589 42.9186V2.66422C61.6589 1.40203 60.6155 0.375 59.3336 0.375Z" fill="white"/>
</g>
</g>
<defs>
<clipPath id="clip0_993_7532">
<rect width="62" height="62" fill="white"/>
</clipPath>
</defs>
</svg>
