<?xml version="1.0" encoding="UTF-8"?>
<svg id="Layer_1" data-name="Layer 1" xmlns="http://www.w3.org/2000/svg" xmlns:xlink="http://www.w3.org/1999/xlink" viewBox="0 0 128 128">
  <defs>
    <linearGradient id="linear-gradient" x1="115.52" y1="-9.57" x2="18.86" y2="128.46" gradientUnits="userSpaceOnUse">
      <stop offset="0" stop-color="#a7f8ff"/>
      <stop offset=".03" stop-color="#9df1ff"/>
      <stop offset=".08" stop-color="#84e1ff"/>
      <stop offset=".15" stop-color="#5ac7ff"/>
      <stop offset=".22" stop-color="#21a2ff"/>
      <stop offset=".26" stop-color="#008dff"/>
      <stop offset=".66" stop-color="#7f33ff"/>
      <stop offset=".99" stop-color="#39127d"/>
    </linearGradient>
  </defs>
  <path d="m54.17,2.63L15.77,24.8c-6.08,3.51-9.83,10-9.83,17.03v44.34c0,7.03,3.75,13.52,9.83,17.03l38.4,22.17c6.08,3.51,13.58,3.51,19.66,0l38.4-22.17c6.08-3.51,9.83-10,9.83-17.03v-44.34c0-7.02-3.75-13.52-9.83-17.03L73.83,2.63c-6.08-3.51-13.58-3.51-19.66,0Z" style="fill: url(#linear-gradient); stroke-width: 0px;"/>
  <path d="m100.98,35.15l-30.49-17.6c-1.79-1.03-4.14-1.55-6.5-1.55s-4.71.52-6.5,1.55l-30.49,17.6c-3.57,2.06-6.5,7.13-6.5,11.25v35.2c0,4.13,2.92,9.19,6.5,11.25l30.49,17.6c1.79,1.03,4.14,1.55,6.5,1.55s4.71-.52,6.5-1.55l30.49-17.6c3.57-2.06,6.5-7.13,6.5-11.25v-35.2c0-4.13-2.92-9.19-6.5-11.25Zm-34.49,68.38c-.28.16-1.17.48-2.5.48s-2.21-.31-2.5-.48l-30.49-17.6c-1.1-.63-2.5-3.06-2.5-4.32v-35.2c0-1.27,1.4-3.69,2.5-4.32l30.49-17.6c.28-.16,1.17-.48,2.5-.48s2.21.31,2.5.48l30.49,17.6c1.1.63,2.5,3.06,2.5,4.32v33.47l-27.48-15.86v-3.29c0-.82-.44-1.58-1.15-2l-5.7-3.29c-.36-.21-.75-.31-1.15-.31s-.8.1-1.15.31l-5.7,3.29c-.71.41-1.15,1.17-1.15,2v6.58c0,.82.44,1.58,1.15,2l5.7,3.29c.36.21.75.31,1.15.31s.8-.1,1.15-.31l2.85-1.64,27.48,15.86-28.98,16.73Z" style="fill: #fff; stroke-width: 0px;"/>
</svg>