<?xml version="1.0" encoding="UTF-8"?>
<svg id="Layer_1" data-name="Layer 1" xmlns="http://www.w3.org/2000/svg" viewBox="0 0 128 128">
  <path d="m113.31,25.53L72.66,2.06c-2.38-1.38-5.52-2.06-8.66-2.06s-6.28.69-8.66,2.06L14.69,25.53c-4.76,2.75-8.66,9.5-8.66,15v46.94c0,5.5,3.9,12.25,8.66,15l40.65,23.47c2.38,1.38,5.52,2.06,8.66,2.06s6.28-.69,8.66-2.06l40.65-23.47c4.76-2.75,8.66-9.5,8.66-15v-46.94c0-5.5-3.9-12.25-8.66-15Zm-45.65,91.75c-.47.27-1.76.72-3.66.72s-3.2-.45-3.66-.72l-40.65-23.47c-1.68-.97-3.66-4.41-3.66-6.34v-46.94c0-1.94,1.98-5.37,3.66-6.34L60.34,10.72c.47-.27,1.76-.72,3.66-.72s3.2.45,3.66.72l40.65,23.47c1.68.97,3.66,4.41,3.66,6.34v45.39l-37.97-21.92v-4.33c0-.89-.48-1.72-1.25-2.16l-7.5-4.33c-.39-.22-.82-.33-1.25-.33s-.86.11-1.25.33l-7.5,4.33c-.77.45-1.25,1.27-1.25,2.16v8.66c0,.89.48,1.72,1.25,2.16l7.5,4.33c.39.22.82.33,1.25.33s.86-.11,1.25-.33l3.75-2.17,37.97,21.92-39.31,22.69Z" style="fill: #232f3e; stroke-width: 0px;"/>
</svg>