<?xml version="1.0" encoding="UTF-8"?>
<svg xmlns="http://www.w3.org/2000/svg" xmlns:xlink="http://www.w3.org/1999/xlink" width="16px" height="16px" viewBox="0 0 16 16" version="1.1">
<g id="surface1">
<path style=" stroke:none;fill-rule:evenodd;fill:rgb(43.137255%,43.137255%,43.137255%);fill-opacity:1;" d="M 4.921875 0 L 11.078125 0 L 11.078125 1.230469 L 4.921875 1.230469 Z M 4.921875 0 "/>
<path style=" stroke:none;fill-rule:evenodd;fill:rgb(43.137255%,43.137255%,43.137255%);fill-opacity:1;" d="M 7.136719 6.152344 L 8.863281 6.152344 L 8.863281 9.847656 L 7.136719 9.847656 Z M 7.136719 6.152344 "/>
<path style=" stroke:none;fill-rule:nonzero;fill:rgb(43.137255%,43.137255%,43.137255%);fill-opacity:1;" d="M 8 14.152344 C 10.71875 14.152344 12.921875 11.949219 12.921875 9.230469 C 12.921875 6.511719 10.71875 4.308594 8 4.308594 C 5.28125 4.308594 3.078125 6.511719 3.078125 9.230469 C 3.078125 11.949219 5.28125 14.152344 8 14.152344 Z M 8 16 C 4.261719 16 1.230469 12.96875 1.230469 9.230469 C 1.230469 5.492188 4.261719 2.460938 8 2.460938 C 11.738281 2.460938 14.769531 5.492188 14.769531 9.230469 C 14.769531 12.96875 11.738281 16 8 16 Z M 8 16 "/>
<path style=" stroke:none;fill-rule:evenodd;fill:rgb(43.137255%,43.137255%,43.137255%);fill-opacity:1;" d="M 13.0625 2.582031 L 14.28125 3.800781 L 12.539062 5.542969 L 11.320312 4.324219 Z M 13.0625 2.582031 "/>
</g>
</svg>
