<?xml version="1.0" encoding="UTF-8"?>
<svg width="12px" height="14px" viewBox="0 0 12 14" version="1.1" xmlns="http://www.w3.org/2000/svg" xmlns:xlink="http://www.w3.org/1999/xlink">
    <!-- Generator: Sketch 56.2 (81672) - https://sketch.com -->
    <title>Amazon-Task-Definition_Icon_16_Dark</title>
    <desc>Created with Sketch.</desc>
    <g id="Page-1" stroke="none" stroke-width="1" fill="none" fill-rule="evenodd">
        <g id="AWS-Product-Icons_Squid" transform="translate(-60.000000, -1029.000000)" fill="#999999">
            <path d="M66,1039 L70,1039 L70,1038 L66,1038 L66,1039 Z M66,1034 L70,1034 L70,1033 L66,1033 L66,1034 Z M63,1039 L64,1039 L64,1038 L63,1038 L63,1039 Z M62.5,1040 L64.5,1040 C64.776,1040 65,1039.776 65,1039.5 L65,1037.5 C65,1037.224 64.776,1037 64.5,1037 L62.5,1037 C62.224,1037 62,1037.224 62,1037.5 L62,1039.5 C62,1039.776 62.224,1040 62.5,1040 L62.5,1040 Z M63,1034 L64,1034 L64,1033 L63,1033 L63,1034 Z M62.5,1035 L64.5,1035 C64.776,1035 65,1034.776 65,1034.5 L65,1032.5 C65,1032.224 64.776,1032 64.5,1032 L62.5,1032 C62.224,1032 62,1032.224 62,1032.5 L62,1034.5 C62,1034.776 62.224,1035 62.5,1035 L62.5,1035 Z M61,1042 L71,1042 L71,1030 L61,1030 L61,1042 Z M71.5,1029 L60.5,1029 C60.224,1029 60,1029.224 60,1029.5 L60,1042.5 C60,1042.776 60.224,1043 60.5,1043 L71.5,1043 C71.776,1043 72,1042.776 72,1042.5 L72,1029.5 C72,1029.224 71.776,1029 71.5,1029 L71.5,1029 Z" id="Amazon-Task-Definition_Icon_16_Dark"></path>
        </g>
    </g>
</svg>