<?xml version="1.0" encoding="UTF-8"?>
<svg width="10px" height="10px" viewBox="0 0 10 10" version="1.1" xmlns="http://www.w3.org/2000/svg" xmlns:xlink="http://www.w3.org/1999/xlink">
    <!-- Generator: Sketch 51.3 (57544) - http://www.bohemiancoding.com/sketch -->
    <title>Artboard Copy 15</title>
    <desc>Created with Sketch.</desc>
    <defs></defs>
    <g id="Artboard-Copy-15" stroke="none" stroke-width="1" fill="none" fill-rule="evenodd">
        <path d="M5,0 C2.24,0 0,2.24 0,5 C0,7.76 2.24,10 5,10 C7.76,10 10,7.76 10,5 C10,2.24 7.76,0 5,0 Z M5.5,8.5 L4.5,8.5 L4.5,7.5 L5.5,7.5 L5.5,8.5 Z M6.535,4.625 L6.085,5.085 C5.725,5.45 5.5,5.75 5.5,6.5 L4.5,6.5 L4.5,6.25 C4.5,5.7 4.725,5.2 5.085,4.835 L5.705,4.205 C5.89,4.025 6,3.775 6,3.5 C6,2.95 5.55,2.5 5,2.5 C4.45,2.5 4,2.95 4,3.5 L3,3.5 C3,2.395 3.895,1.5 5,1.5 C6.105,1.5 7,2.395 7,3.5 C7,3.94 6.82,4.34 6.535,4.625 Z" id="Shape" fill="#C5C5C5" fill-rule="nonzero"></path>
    </g>
</svg>