<?xml version="1.0" encoding="UTF-8"?>
<svg width="17px" height="14px" viewBox="0 0 17 14" version="1.1" xmlns="http://www.w3.org/2000/svg" xmlns:xlink="http://www.w3.org/1999/xlink">
    <!-- Generator: Sketch 64 (93537) - https://sketch.com -->
    <title>Cloudwatch log group - light</title>
    <desc>Created with Sketch.</desc>
    <g id="Page-1" stroke="none" stroke-width="1" fill="none" fill-rule="evenodd">
        <path d="M7.38169188,7.35475318 L11.046227,7.36251592 C11.3219552,7.36310001 11.5451678,7.58678596 11.5451678,7.8625148 L11.5442795,8.74856076 L12.847548,8.73672833 C13.3984975,8.73172808 13.8496933,9.17332019 13.856546,9.72424972 L13.9028952,13.4505531 C13.9063297,13.7266741 13.6852736,13.9532986 13.4091526,13.9567331 L7.38063271,13.9567718 C7.10449034,13.9567718 6.88063271,13.7329142 6.88063271,13.4567718 L6.88063271,7.85475206 C6.88063271,7.60929217 7.05750787,7.40514369 7.29075708,7.36280773 L7.38063271,7.35475206 C7.38098577,7.35475206 7.38133883,7.35475244 7.38169188,7.35475318 Z M7.84765176,8.36037904 L7.84765176,12.956511 L7.84765176,12.956511 C7.84764759,12.9606264 11.5584507,12.957654 12.9121805,12.9585836 C12.9164266,12.9585865 12.9156781,11.8386593 12.9099351,9.59880213 L10.5972924,9.59880213 L10.5972924,8.75715095 L10.5910398,8.3688707 L7.84765176,8.36037904 Z M12.1695739,10.7529838 L12.1695739,11.7534104 L8.62025053,11.7534104 L8.62025053,10.7529838 L12.1695739,10.7529838 Z M9.97152043,1.27686275 C10.3726463,1.67738837 10.7200333,2.05537291 10.9537773,2.56779223 C11.2872235,2.30391924 11.680472,2.24944683 12.1089796,2.24941176 C12.9793222,2.24941176 14.0628974,2.91976364 14.2420856,4.33780286 C15.0644314,4.52917541 16.6494804,5.16392157 16.6494804,7.2972549 C16.7065362,8.38776703 16.117151,9.41277792 15.1359801,9.92941176 L14.5960447,9.02102732 C15.3696422,8.61083113 15.6227328,8.05700611 15.6357139,7.2972549 C15.7388577,5.81544868 14.3468887,5.43435541 13.611653,5.09547967 C13.5270975,5.08070605 13.4521494,5.03322449 13.4036667,4.96371496 C13.3567505,4.89800701 13.337285,4.81717608 13.3492703,4.73783261 C13.2564764,3.59900908 12.7457376,3.19794678 12.1089796,3.19794678 C11.6975802,3.20154441 11.2457284,3.41362808 11.0081521,3.74295135 C10.938313,3.83670531 10.8213758,3.8849798 10.7041722,3.86844155 C10.5873662,3.85051005 10.4901636,3.77088983 10.4513888,3.66138272 C10.242756,3.05923457 9.7363826,2.39599966 9.28356322,1.94067986 C8.24669848,0.885738789 6.99330523,0.802958437 5.65628081,1.25181804 C4.30697947,1.95846382 3.93030024,2.84718141 3.7862383,4.19374075 C3.78651382,4.33841006 3.76946169,4.60351295 3.7862383,4.74724438 C3.80774665,4.91235567 3.70831801,5.15183358 3.54138122,5.18211832 C2.38579297,5.4652569 1.76133469,6.12093832 1.70818609,7.26901961 C1.68083306,8.18930088 2.03443478,8.56508047 2.63877393,9.10675643 C2.83776985,9.23160009 2.94262647,9.33619242 3.2167655,9.35791825 L5.65628081,9.35791825 L5.65628081,10.3529415 L3.2167655,10.3529415 C2.86071092,10.3461942 2.51329843,10.2442243 2.2120317,10.0580392 C1.22511537,9.46525786 0.633127665,8.40354611 0.65693417,7.26901961 C0.589964753,5.95436399 1.44941934,4.76556793 2.73679713,4.39215686 L2.73679713,4.14745098 L2.73679713,4.14745098 C2.77256856,2.52181778 3.7409438,1.05514815 5.23903226,0.357647059 C6.85651976,-0.343985841 8.74902941,0.0236061086 9.97152043,1.27686275 Z" id="Cloudwatch-log-group---light" fill="#999999" fill-rule="nonzero"></path>
    </g>
</svg>