<?xml version="1.0" encoding="UTF-8"?>
<svg width="16px" height="15px" viewBox="0 0 16 15" version="1.1" fill="none" xmlns="http://www.w3.org/2000/svg">
<path fill-rule="evenodd" clip-rule="evenodd" d="M4 10.5H8V9.5H4V10.5ZM4 7.5H8V6.5H4V7.5ZM14 12.5H15V11.5H14V12.5ZM3 13.5H9V4.5H3V13.5ZM2 4V10.5H1V1.5H7V3.5H2.5C2.224 3.5 2 3.724 2 4ZM14 2.5H15V1.5H14V2.5ZM14 7.5H15V6.5H14V7.5ZM15.5 3.5C15.776 3.5 16 3.276 16 3V1C16 0.724 15.776 0.5 15.5 0.5H13.5C13.224 0.5 13 0.724 13 1V2.79303L10 5.79303V4C10 3.724 9.776 3.5 9.5 3.5H8V1C8 0.724 7.776 0.5 7.5 0.5H0.5C0.224 0.5 0 0.724 0 1V11C0 11.276 0.224 11.5 0.5 11.5H2V14C2 14.276 2.224 14.5 2.5 14.5H9.5C9.776 14.5 10 14.276 10 14V8.20697L13 11.207V13C13 13.276 13.224 13.5 13.5 13.5H15.5C15.776 13.5 16 13.276 16 13V11C16 10.724 15.776 10.5 15.5 10.5H13.707L10.707 7.5H13V8C13 8.276 13.224 8.5 13.5 8.5H15.5C15.776 8.5 16 8.276 16 8V6C16 5.724 15.776 5.5 15.5 5.5H13.5C13.224 5.5 13 5.724 13 6V6.5H10.707L13.707 3.5H15.5Z" fill="#252526"/>
</svg>
