<?xml version="1.0" encoding="UTF-8"?>
<svg width="14px" height="15px" viewBox="0 0 14 15" fill="none" xmlns="http://www.w3.org/2000/svg">
<path fill-rule="evenodd" clip-rule="evenodd" d="M9 12H12V11H9V12ZM9 7H12V6H9V7ZM6 12H7V11H6V12ZM5.5 13H7.5C7.776 13 8 12.776 8 12.5V10.5C8 10.224 7.776 10 7.5 10H5.5C5.224 10 5 10.224 5 10.5V12.5C5 12.776 5.224 13 5.5 13ZM6 7H7V6H6V7ZM5.5 8H7.5C7.776 8 8 7.776 8 7.5V5.5C8 5.224 7.776 5 7.5 5H5.5C5.224 5 5 5.224 5 5.5V7.5C5 7.776 5.224 8 5.5 8ZM1 12H2V13H0.5C0.224 13 0 12.776 0 12.5V0.5C0 0.224 0.224 0 0.5 0H10.5C10.776 0 11 0.224 11 0.5V2H10V1H1V12ZM4 14H13V4H4V14ZM13.5 3H3.5C3.224 3 3 3.224 3 3.5V14.5C3 14.776 3.224 15 3.5 15H13.5C13.776 15 14 14.776 14 14.5V3.5C14 3.224 13.776 3 13.5 3Z" fill="#252526"/>
</svg>
