<svg width="32" height="32" viewBox="0 0 32 32" fill="none" xmlns="http://www.w3.org/2000/svg">
<path fill-rule="evenodd" clip-rule="evenodd" d="M22.0662 27.0186V27.0176V24.1533C20.5397 25.4607 17.3723 26.3223 13.5279 26.3223C9.68065 26.3223 6.51322 25.4597 4.98674 24.1512V27.0136C4.98674 28.4252 8.49459 29.9981 13.5279 29.9981C18.5544 29.9981 22.0583 28.4282 22.0662 27.0186ZM22.0672 18.8444L23.0539 18.8384V18.8444C23.0539 19.4685 22.7421 20.0506 22.1481 20.5856C22.8743 21.2388 23.0539 21.88 23.0539 22.3359C23.0539 22.3389 23.0529 22.3419 23.0529 22.3439V27.0136C23.0529 29.2858 18.9589 31 13.5279 31C8.12456 31 4.04736 29.3038 4.00493 27.0486C4.00493 27.0396 4 27.0326 4 27.0236V22.3339C4 22.3309 4.00197 22.3289 4.00197 22.3258C4.00395 21.872 4.18452 21.2368 4.90287 20.5886C4.18649 19.9384 4.00493 19.3052 4.00099 18.8554C4.00099 18.8534 4 18.8514 4 18.8494V14.1596C4 14.1566 4.00197 14.1536 4.00197 14.1516C4.00395 13.6968 4.18551 13.0616 4.90385 12.4144C4.18649 11.7632 4.00493 11.131 4.00099 10.6802C4.00099 10.6782 4 10.6762 4 10.6752V5.98442C4 5.97941 4.00296 5.9764 4.00296 5.9714C4.02269 3.70618 8.10878 2 13.5279 2C16.1359 2 18.6422 2.4298 20.4016 3.17719L20.0207 4.10191C18.3778 3.40261 16.0106 3.00187 13.5279 3.00187C8.49459 3.00187 4.98772 4.57479 4.98772 5.98642C4.98772 7.39905 8.49459 8.97198 13.5279 8.97198C13.6661 8.97298 13.7963 8.97198 13.9305 8.96597L13.971 9.96684C13.823 9.97385 13.675 9.97385 13.5279 9.97385C9.68065 9.97385 6.51322 9.11124 4.98674 7.8018V10.6641L4.98772 10.6762C4.99266 11.2212 5.53043 11.6961 5.9794 11.9976C7.32728 12.8873 9.74183 13.4944 12.4327 13.6196L12.3863 14.6205C9.66289 14.4943 7.27597 13.9082 5.74061 13.0115C5.35676 13.3071 4.98772 13.7038 4.98772 14.1616C4.98772 15.5733 8.49459 17.1462 13.5279 17.1462C14.0243 17.1462 14.5088 17.1292 14.9814 17.0951L15.0534 18.094C14.5571 18.13 14.047 18.1481 13.5279 18.1481C9.68065 18.1481 6.51322 17.2865 4.98674 15.977V18.8384C4.99167 19.3964 5.52944 19.8713 5.9794 20.1718C7.51969 21.1897 10.4128 21.8229 13.5279 21.8229H13.747V22.8248H13.5279C10.3625 22.8248 7.49799 22.2126 5.74159 21.1837C5.35775 21.4793 4.98772 21.877 4.98772 22.3359C4.98772 23.7475 8.49459 25.3204 13.5279 25.3204C18.5524 25.3204 22.0553 23.7525 22.0662 22.3419V22.3339V22.3329C22.0652 21.878 21.6991 21.4823 21.3173 21.1877C21.0735 21.331 20.812 21.4683 20.516 21.5945L20.1342 20.6718C20.4963 20.5165 20.812 20.3492 21.0725 20.1728C21.5264 19.8663 22.0672 19.3864 22.0672 18.8444ZM27.3551 10.4888H24.0722C23.9134 10.4888 23.7644 10.4107 23.6716 10.2794C23.5789 10.1482 23.5542 9.97986 23.6055 9.82657L25.0599 5.47948H18.5317L15.4106 11.4907H18.58C18.734 11.4907 18.879 11.5638 18.9718 11.688C19.0655 11.8113 19.0961 11.9726 19.0556 12.1239L16.3382 22.2317L27.3551 10.4888ZM28.8648 10.3335L15.7057 24.3596C15.609 24.4618 15.4787 24.5149 15.3475 24.5149C15.2646 24.5149 15.1807 24.4939 15.1047 24.4508C14.9084 24.3376 14.8117 24.1032 14.8719 23.8817L17.9347 12.4925H14.5926C14.42 12.4925 14.2591 12.4004 14.1703 12.2501C14.0805 12.0998 14.0746 11.9135 14.1555 11.7582L17.7976 4.74511C17.8834 4.58081 18.0511 4.47761 18.2337 4.47761H25.7487C25.9085 4.47761 26.0575 4.55576 26.1503 4.687C26.2421 4.81825 26.2677 4.98656 26.2164 5.13985L24.761 9.48694H28.5066C28.705 9.48694 28.8826 9.60616 28.9605 9.79051C29.0375 9.97485 29 10.1882 28.8648 10.3335ZM5.72778 27.0406C6.2991 27.3732 6.9987 27.6668 7.80684 27.9112L8.08806 26.9515C7.35392 26.729 6.72537 26.4666 6.21917 26.172L5.72778 27.0406ZM7.80684 19.8092L8.08806 18.8494C7.3559 18.628 6.72734 18.3655 6.21917 18.0689L5.72778 18.9385C6.30107 19.2732 7.00067 19.5657 7.80684 19.8092ZM5.72778 10.8355L6.21917 9.96684C6.72438 10.2614 7.35392 10.5249 8.08806 10.7473L7.80684 11.7071C6.99771 11.4626 6.2991 11.1691 5.72778 10.8355Z" fill="#232F3E"/>
</svg>
