<?xml version="1.0" encoding="UTF-8"?>
<svg width="64px" height="64px" viewBox="0 0 64 64" version="1.1" xmlns="http://www.w3.org/2000/svg" xmlns:xlink="http://www.w3.org/1999/xlink">
    <!-- Generator: Sketch 64 (93537) - https://sketch.com -->
    <title>Icon-Service/64/Amazon-Redshift</title>
    <desc>Created with Sketch.</desc>
    <defs>
        <path d="M42.8250355,27.1704885 C41.7652069,27.1704885 40.9041586,26.3110668 40.9041586,25.2542373 C40.9041586,24.1974078 41.7652069,23.336989 42.8250355,23.336989 C43.8838652,23.336989 44.7449135,24.1974078 44.7449135,25.2542373 C44.7449135,26.3110668 43.8838652,27.1704885 42.8250355,27.1704885 M37.9594133,38.8245264 C36.9005836,38.8245264 36.0395353,37.9651047 36.0395353,36.9082752 C36.0395353,35.8514457 36.9005836,34.9920239 37.9594133,34.9920239 C39.018243,34.9920239 39.8802902,35.8514457 39.8802902,36.9082752 C39.8802902,37.9651047 39.018243,38.8245264 37.9594133,38.8245264 M26.2823195,36.8823529 C25.2244887,36.8823529 24.3634404,36.0229312 24.3634404,34.9661017 C24.3634404,33.9092722 25.2244887,33.0488534 26.2823195,33.0488534 C27.3421482,33.0488534 28.2031965,33.9092722 28.2031965,34.9661017 C28.2031965,36.0229312 27.3421482,36.8823529 26.2823195,36.8823529 M21.4176962,47.5653041 C20.3598654,47.5653041 19.4978182,46.7058824 19.4978182,45.6490528 C19.4978182,44.5922233 20.3598654,43.7328016 21.4176962,43.7328016 C22.4775248,43.7328016 23.3385732,44.5922233 23.3385732,45.6490528 C23.3385732,46.7058824 22.4775248,47.5653041 21.4176962,47.5653041 M42.8250355,21.3429711 C40.6644235,21.3429711 38.9063666,23.0977069 38.9063666,25.2542373 C38.9063666,26.5762712 39.5706325,27.7417747 40.5805163,28.4506481 L38.7525367,33.0787637 C38.4958204,33.0259222 38.2301141,32.998006 37.9594133,32.998006 C36.2413122,32.998006 34.793912,34.114656 34.2674938,35.6550349 L30.1770149,34.7268195 C30.0501551,32.6839482 28.3620209,31.0548355 26.2823195,31.0548355 C24.1227065,31.0548355 22.3656485,32.8095713 22.3656485,34.9661017 C22.3656485,35.9740778 22.7592135,36.885344 23.3895168,37.5792622 L21.6044898,41.7577268 C21.5405604,41.7537388 21.4816256,41.7387836 21.4176962,41.7387836 C19.2580832,41.7387836 17.5000263,43.4925224 17.5000263,45.6490528 C17.5000263,47.8045862 19.2580832,49.559322 21.4176962,49.559322 C23.5783082,49.559322 25.3363651,47.8045862 25.3363651,45.6490528 C25.3363651,44.2652044 24.6091688,43.0548355 23.5193733,42.3589232 L25.0946322,38.6729811 C25.4722149,38.7936191 25.8657799,38.8763709 26.2823195,38.8763709 C27.823616,38.8763709 29.1471531,37.9760718 29.7854477,36.6829511 L34.1186583,37.666002 C34.4732664,39.4606181 36.0595132,40.8185444 37.9594133,40.8185444 C40.1200252,40.8185444 41.8780821,39.0648056 41.8780821,36.9082752 C41.8780821,35.7427717 41.3536617,34.7068794 40.5405604,33.9890329 L42.4614374,29.1276171 C42.5833027,29.1395813 42.7001735,29.1645065 42.8250355,29.1645065 C44.9846485,29.1645065 46.7427054,27.4097707 46.7427054,25.2542373 C46.7427054,23.0977069 44.9846485,21.3429711 42.8250355,21.3429711 M32,58.0059821 C22.2687556,58.0059821 14.9977919,55.0847458 14.9977919,52.4725823 L14.9977919,15.1515454 C18.3081331,17.8414756 25.3153883,19.2632104 32.0209768,19.2632104 C38.6965985,19.2632104 45.6738868,17.8534397 49.0022081,15.1864407 L49.0022081,52.4725823 C49.0022081,55.0847458 41.7302455,58.0059821 32,58.0059821 M32.0209768,5.99401795 C42.0279165,5.99401795 49.0022081,8.96510469 49.0022081,11.6321037 C49.0022081,14.2981057 42.0279165,17.2691924 32.0209768,17.2691924 C22.0130382,17.2691924 15.0397455,14.2981057 15.0397455,11.6321037 C15.0397455,8.96510469 22.0130382,5.99401795 32.0209768,5.99401795 M51,11.6321037 C51,6.67497507 41.2218075,4 32.0209768,4 C22.8201462,4 13.0419536,6.67497507 13.0419536,11.6321037 C13.0419536,11.6400798 13.0439514,11.6490528 13.0439514,11.6570289 L13,11.6570289 L13,52.4725823 C13,57.3619143 22.7891804,60 32,60 C41.2108196,60 51,57.3619143 51,52.4725823 L51,11.6570289 L50.9980022,11.6570289 C50.9980022,11.6490528 51,11.6400798 51,11.6321037" id="path-1"></path>
    </defs>
    <g id="Icon-Service/64/Amazon-Redshift" stroke="none" stroke-width="1" fill="none" fill-rule="evenodd">
        <mask id="mask-2" fill="white">
            <use xlink:href="#path-1"></use>
        </mask>
        <use id="Amazon-Redshift_Icon_64_Squid" fill="#232F3D" xlink:href="#path-1"></use>
    </g>
</svg>
