<svg width="17" height="16" viewBox="0 0 17 16" fill="none" xmlns="http://www.w3.org/2000/svg">
<path fill-rule="evenodd" clip-rule="evenodd" d="M8.88558 0C9.07688 0.00340781 9.24959 0.115757 9.32992 0.289062L14.6307 11.6777H15.8495C16.1249 11.678 16.3485 11.9008 16.3485 12.1758V15.4434C16.3485 15.7183 16.1249 15.9412 15.8495 15.9414H12.0604C11.8667 15.9428 11.6897 15.8326 11.6063 15.6582L6.29476 4.26953H4.14828C3.87268 4.26953 3.64939 4.0465 3.64925 3.77148V0.498047C3.64933 0.222971 3.87263 0 4.14828 0H8.88558ZM4.65218 3.27344H6.6141C6.80889 3.27296 6.98622 3.38522 7.0682 3.56152L12.3543 14.9453H15.3495V12.6738H14.3211C14.1263 12.6742 13.9489 12.5612 13.867 12.3848L8.57113 0.996094H4.65218V3.27344Z" fill="black"/>
<path d="M1.96201 13.2607C2.10141 13.2969 2.23876 13.3094 2.30283 13.3145C2.46734 13.3275 2.72147 13.3324 2.78428 13.335C2.84448 13.3488 2.90972 13.359 2.97862 13.3652L2.24424 14.9893H4.59776C5.38487 14.9893 5.32264 13.8126 5.5 13.8126C5.67736 13.8126 5.96304 13.8126 5.96304 13.8126C6.80186 13.8126 6.39916 13.8151 6.49999 13.8126C6.64643 13.8091 6.47577 13.8159 6.61284 13.8126L5.99999 15.5C5.92042 15.6755 5.5 16 5.38487 16H1.47959C1.31478 15.9995 1.16113 15.9103 1.07334 15.7637C0.985697 15.6171 0.97619 15.4336 1.04698 15.2773L1.96201 13.2607Z" fill="black"/>
<path d="M5.5626 6C5.74649 5.99961 5.91428 6.10964 5.99522 6.2832L7.56553 9.68945C7.54024 9.6717 7.51422 9.65392 7.48643 9.63769L7.35362 9.57129L7.20713 9.52148C7.06732 9.48496 6.93003 9.48085 6.80186 9.5C6.77816 9.48741 6.75403 9.47297 6.72862 9.46094C6.6392 9.41866 6.50396 9.36354 6.33702 9.33691L5.55772 7.67383L5.20357 8.41618C5.13332 8.3748 5.07877 8.30472 5.02354 8.282C4.87504 8.22095 4.76328 8.1106 4.59776 8.08105C4.51169 8.0657 4.41811 8.05535 4.33213 8.04394L5.12998 6.28808C5.20953 6.11262 5.37769 6.00061 5.5626 6Z" fill="black"/>
<path d="M4.31358 8.35058C4.31035 8.35082 4.30504 8.35205 4.29893 8.35254L4.29991 8.35156C4.31098 8.35031 4.32041 8.34961 4.32041 8.34961C4.32041 8.34961 4.31854 8.35022 4.31358 8.35058Z" fill="black"/>
<path d="M5.41052 8.60816C5.63615 8.83783 5.83156 9.05458 5.96304 9.34841C6.1506 9.1971 6.3718 9.16586 6.61284 9.16584C7.10241 9.16584 7.71192 9.55024 7.81271 10.3634C8.27528 10.4731 9.16687 10.8371 9.16687 12.0604C9.19896 12.6857 8.80288 13.6435 8.01181 13.8126L7.81271 13.2421C8.41764 13.2421 8.58932 12.4961 8.59663 12.0604C8.65464 11.2107 7.87166 10.9922 7.45809 10.7979C7.41053 10.7894 7.36837 10.7622 7.3411 10.7223C7.31471 10.6846 7.30376 10.6383 7.3105 10.5928C7.2583 9.93974 6.97101 9.70976 6.61284 9.70976C6.38143 9.71182 6.12726 9.83344 5.99362 10.0223C5.95434 10.076 5.88856 10.1037 5.82263 10.0942C5.75693 10.084 5.70225 10.0383 5.68044 9.9755C5.56309 9.63022 5.27825 9.2499 5.02354 8.98881C4.4403 8.38388 3.73527 8.33641 2.98319 8.5938C2.22421 8.99901 2.01233 9.50862 1.9313 10.2808C1.93145 10.3637 1.92186 10.5157 1.9313 10.5982C1.94339 10.6928 1.88747 10.8302 1.79356 10.8475C1.14355 11.0099 0.792288 11.3859 0.762391 12.0442C0.747005 12.5719 0.945906 12.7874 1.28585 13.098C1.39778 13.1696 1.45676 13.2296 1.61097 13.2421H7.81271L8.01181 13.8126H1.61097C1.41069 13.8088 1.21527 13.7503 1.0458 13.6435C0.490664 13.3036 0.157671 12.6948 0.171062 12.0442C0.133392 11.2904 0.616835 10.6087 1.34099 10.3946V10.2542C1.36111 9.32205 1.90582 8.48102 2.74849 8.08105C3.65833 7.67872 4.72287 7.88951 5.41052 8.60816Z" fill="black"/>
</svg>
