<svg width="16" height="16" viewBox="0 0 16 16" fill="none" xmlns="http://www.w3.org/2000/svg">
<path d="M11.2415 8.729C11.4671 8.95867 11.6625 9.17542 11.794 9.46925C11.9816 9.31794 12.2028 9.28671 12.4438 9.28668C12.9334 9.28668 13.5429 9.67108 13.6437 10.4842C14.1063 10.594 14.9979 10.9579 14.9979 12.1813C15.03 12.8066 14.6339 13.7644 13.8428 13.9335L13.6437 13.3629C14.2486 13.3629 14.4203 12.6169 14.4276 12.1813C14.4856 11.3315 13.7027 11.113 13.2891 10.9187C13.2415 10.9102 13.1994 10.883 13.1721 10.8431C13.1457 10.8055 13.1348 10.7591 13.1415 10.7136C13.0893 10.0606 12.802 9.8306 12.4438 9.8306C12.2124 9.83266 11.9583 9.95428 11.8246 10.1431C11.7853 10.1969 11.7196 10.2246 11.6536 10.2151C11.5879 10.2048 11.5332 10.1591 11.5114 10.0963C11.3941 9.75106 11.1092 9.37074 10.8545 9.10965C10.2713 8.50472 9.56626 8.45725 8.81419 8.71464C8.05521 9.11985 7.84332 9.62946 7.76229 10.4016C7.76244 10.4846 7.75285 10.6366 7.76229 10.719C7.77439 10.8137 7.71846 10.951 7.62456 10.9684C6.97454 11.1307 6.62328 11.5067 6.59339 12.1651C6.578 12.6928 6.7769 12.9083 7.11684 13.2189C7.22878 13.2905 7.28776 13.3504 7.44196 13.3629H13.6437L13.8428 13.9335H7.44196C7.24168 13.9296 7.04626 13.8711 6.8768 13.7644C6.32166 13.4244 5.98866 12.8156 6.00206 12.1651C5.96439 11.4112 6.44783 10.7295 7.17198 10.5154V10.3751C7.1921 9.44289 7.73681 8.60186 8.57949 8.2019C9.48932 7.79956 10.5539 8.01035 11.2415 8.729Z" fill="black"/>
<path d="M12.915 8.24023L11.4023 9.29785C11.3053 9.02501 11.0917 8.7957 10.7979 8.69043C10.734 8.6676 10.6691 8.65203 10.6045 8.64258C10.79 8.51276 10.9819 8.37928 11.1807 8.24023L4.99512 3.91211V12.5684C5.52586 12.197 6.00526 11.8613 6.45605 11.5459C6.43045 11.5926 6.40698 11.6399 6.38672 11.6875L6.32422 11.8613C6.30463 11.9282 6.27514 12.0492 6.27832 12.1992C6.28107 12.3248 6.31065 12.544 6.45703 12.7598L4 14.4805V2L12.915 8.24023Z" fill="black"/>
</svg>
