<?xml version="1.0" encoding="iso-8859-1"?>
<!-- Generator: Adobe Illustrator 24.0.3, SVG Export Plug-In . SVG Version: 6.00 Build 0)  -->
<svg version="1.1" xmlns="http://www.w3.org/2000/svg" xmlns:xlink="http://www.w3.org/1999/xlink" x="0px" y="0px"
	 viewBox="0 0 24 24" style="enable-background:new 0 0 24 24;" xml:space="preserve">
<g id="calendar">
	<path d="M20,3h-1v2c0,1.104-0.896,2-2,2s-2-0.896-2-2V3H9v2c0,1.104-0.896,2-2,2S5,6.104,5,5V3H4C2.895,3,2,3.895,2,5v14v1
		c0,1.105,0.895,2,2,2h16c1.105,0,2-0.895,2-2v-1V5C22,3.895,21.105,3,20,3z M7,18.5C7,18.775,6.775,19,6.5,19h-1
		C5.225,19,5,18.775,5,18.5v-1C5,17.225,5.225,17,5.5,17h1C6.775,17,7,17.225,7,17.5V18.5z M7,14.5C7,14.775,6.775,15,6.5,15h-1
		C5.225,15,5,14.775,5,14.5v-1C5,13.225,5.225,13,5.5,13h1C6.775,13,7,13.225,7,13.5V14.5z M7,10.5C7,10.775,6.775,11,6.5,11h-1
		C5.225,11,5,10.775,5,10.5v-1C5,9.225,5.225,9,5.5,9h1C6.775,9,7,9.225,7,9.5V10.5z M11,18.5c0,0.275-0.225,0.5-0.5,0.5h-1
		C9.225,19,9,18.775,9,18.5v-1C9,17.225,9.225,17,9.5,17h1c0.275,0,0.5,0.225,0.5,0.5V18.5z M11,14.5c0,0.275-0.225,0.5-0.5,0.5h-1
		C9.225,15,9,14.775,9,14.5v-1C9,13.225,9.225,13,9.5,13h1c0.275,0,0.5,0.225,0.5,0.5V14.5z M11,10.5c0,0.275-0.225,0.5-0.5,0.5h-1
		C9.225,11,9,10.775,9,10.5v-1C9,9.225,9.225,9,9.5,9h1C10.775,9,11,9.225,11,9.5V10.5z M15,18.5c0,0.275-0.225,0.5-0.5,0.5h-1
		c-0.275,0-0.5-0.225-0.5-0.5v-1c0-0.275,0.225-0.5,0.5-0.5h1c0.275,0,0.5,0.225,0.5,0.5V18.5z M15,14.5c0,0.275-0.225,0.5-0.5,0.5
		h-1c-0.275,0-0.5-0.225-0.5-0.5v-1c0-0.275,0.225-0.5,0.5-0.5h1c0.275,0,0.5,0.225,0.5,0.5V14.5z M15,10.5
		c0,0.275-0.225,0.5-0.5,0.5h-1c-0.275,0-0.5-0.225-0.5-0.5v-1C13,9.225,13.225,9,13.5,9h1C14.775,9,15,9.225,15,9.5V10.5z M19,18.5
		c0,0.275-0.225,0.5-0.5,0.5h-1c-0.275,0-0.5-0.225-0.5-0.5v-1c0-0.275,0.225-0.5,0.5-0.5h1c0.275,0,0.5,0.225,0.5,0.5V18.5z
		 M19,14.5c0,0.275-0.225,0.5-0.5,0.5h-1c-0.275,0-0.5-0.225-0.5-0.5v-1c0-0.275,0.225-0.5,0.5-0.5h1c0.275,0,0.5,0.225,0.5,0.5
		V14.5z M19,10.5c0,0.275-0.225,0.5-0.5,0.5h-1c-0.275,0-0.5-0.225-0.5-0.5v-1C17,9.225,17.225,9,17.5,9h1C18.775,9,19,9.225,19,9.5
		V10.5z M6,5V2c0-0.552,0.448-1,1-1s1,0.448,1,1v3c0,0.552-0.448,1-1,1S6,5.552,6,5z M16,5V2c0-0.552,0.447-1,1-1s1,0.448,1,1v3
		c0,0.552-0.447,1-1,1S16,5.552,16,5z"/>
</g>
<g id="Layer_1">
</g>
</svg>
