<?xml version="1.0" encoding="iso-8859-1"?>
<!-- Generator: Adobe Illustrator 24.0.3, SVG Export Plug-In . SVG Version: 6.00 Build 0)  -->
<svg version="1.1" xmlns="http://www.w3.org/2000/svg" xmlns:xlink="http://www.w3.org/1999/xlink" x="0px" y="0px"
	 viewBox="0 0 24 24" style="enable-background:new 0 0 24 24;" xml:space="preserve">
<g id="external_link">
	<path d="M22.854,1.146c-0.121-0.121-0.294-0.169-0.462-0.135l-9,2c-0.178,0.04-0.32,0.173-0.372,0.349
		c-0.051,0.175-0.002,0.364,0.127,0.493l2.793,2.793L1.293,21.294c-0.391,0.391-0.391,1.023,0,1.414
		C1.488,22.903,1.744,23.001,2,23.001s0.512-0.098,0.707-0.293L17.354,8.061l2.793,2.793C20.241,10.949,20.369,11,20.5,11
		c0.047,0,0.094-0.006,0.14-0.02c0.176-0.051,0.309-0.193,0.349-0.372l2-9C23.025,1.441,22.975,1.267,22.854,1.146z"/>
</g>
<g id="Layer_1">
</g>
</svg>
