<?xml version="1.0" encoding="iso-8859-1"?>
<!-- Generator: Adobe Illustrator 24.0.3, SVG Export Plug-In . SVG Version: 6.00 Build 0)  -->
<svg version="1.1" xmlns="http://www.w3.org/2000/svg" xmlns:xlink="http://www.w3.org/1999/xlink" x="0px" y="0px"
	 viewBox="0 0 24 24" style="enable-background:new 0 0 24 24;" xml:space="preserve">
<g id="error_inline">
	<path d="M12,1C5.92,1,1,5.92,1,12c0,6.08,4.92,11,11,11s11-4.92,11-11C23,5.92,18.08,1,12,1z M12,18c-0.55,0-1-0.45-1-1s0.45-1,1-1
		s1,0.45,1,1S12.55,18,12,18z M13,13.876C13,14.495,12.55,15,12,15s-1-0.505-1-1.124V7.124C11,6.505,11.45,6,12,6s1,0.505,1,1.124
		V13.876z"/>
</g>
<g id="Layer_1">
</g>
</svg>
