<?xml version="1.0" encoding="iso-8859-1"?>
<!-- Generator: Adobe Illustrator 24.0.3, SVG Export Plug-In . SVG Version: 6.00 Build 0)  -->
<svg version="1.1" xmlns="http://www.w3.org/2000/svg" xmlns:xlink="http://www.w3.org/1999/xlink" x="0px" y="0px"
	 viewBox="0 0 24 24" style="enable-background:new 0 0 24 24;" xml:space="preserve">
<g id="light">
	<path d="M7.106,13h9.789C18.192,11.729,19,9.96,19,8c0-3.866-3.134-7-7-7S5,4.134,5,8C5,9.96,5.808,11.729,7.106,13z"/>
	<path style="opacity:0.5;" d="M14,21h1v1c0,0.553-0.447,1-1,1h-4c-0.552,0-1-0.447-1-1v-1h1H14z M7,14c0,0,1,1.5,1,3c0,1,0,2,1,3h6
		c1-1,1-2,1-3c0-1.5,1-3,1-3H7z"/>
</g>
<g id="Layer_1">
</g>
</svg>
