<?xml version="1.0" encoding="iso-8859-1"?>
<!-- Generator: Adobe Illustrator 24.0.3, SVG Export Plug-In . SVG Version: 6.00 Build 0)  -->
<svg version="1.1" xmlns="http://www.w3.org/2000/svg" xmlns:xlink="http://www.w3.org/1999/xlink" x="0px" y="0px"
	 viewBox="0 0 24 24" style="enable-background:new 0 0 24 24;" xml:space="preserve">
<g id="minimize_x40_mirrored">
	<path d="M4.024,14.347c-0.057,0.179-0.01,0.374,0.123,0.506l1.793,1.793l-3.648,3.648c-0.389,0.389-0.389,1.025,0,1.414
		c0.389,0.389,1.025,0.389,1.414,0l3.648-3.648l1.793,1.793c0.132,0.132,0.328,0.18,0.506,0.123c0.178-0.057,0.31-0.209,0.34-0.394
		l1-6c0.025-0.158-0.025-0.321-0.14-0.436c-0.114-0.114-0.277-0.165-0.436-0.14l-6,1C4.233,14.037,4.081,14.169,4.024,14.347z
		 M14.347,4.024c0.179-0.057,0.374-0.01,0.506,0.123l1.793,1.793l3.648-3.648c0.389-0.389,1.025-0.389,1.414,0
		c0.389,0.389,0.389,1.025,0,1.414L18.06,7.354l1.793,1.793c0.132,0.132,0.18,0.328,0.123,0.506c-0.057,0.178-0.209,0.31-0.394,0.34
		l-6,1c-0.158,0.025-0.321-0.025-0.436-0.14c-0.114-0.114-0.165-0.277-0.14-0.436l1-6C14.037,4.233,14.169,4.081,14.347,4.024z"/>
</g>
<g id="Layer_1">
</g>
</svg>
