<?xml version="1.0" encoding="iso-8859-1"?>
<!-- Generator: Adobe Illustrator 24.0.3, SVG Export Plug-In . SVG Version: 6.00 Build 0)  -->
<svg version="1.1" xmlns="http://www.w3.org/2000/svg" xmlns:xlink="http://www.w3.org/1999/xlink" x="0px" y="0px"
	 viewBox="0 0 24 24" style="enable-background:new 0 0 24 24;" xml:space="preserve">
<g id="none">
	<path d="M12,1C5.935,1,1,5.935,1,12s4.935,11,11,11s11-4.935,11-11S18.065,1,12,1z M3,12c0-4.962,4.038-9,9-9
		c2.122,0,4.071,0.742,5.611,1.975L4.975,17.611C3.742,16.071,3,14.122,3,12z M12,21c-2.122,0-4.071-0.742-5.611-1.975L19.025,6.389
		C20.258,7.929,21,9.878,21,12C21,16.962,16.962,21,12,21z"/>
</g>
<g id="Layer_1">
</g>
</svg>
