<?xml version="1.0" encoding="iso-8859-1"?>
<!-- Generator: Adobe Illustrator 24.0.3, SVG Export Plug-In . SVG Version: 6.00 Build 0)  -->
<svg version="1.1" xmlns="http://www.w3.org/2000/svg" xmlns:xlink="http://www.w3.org/1999/xlink" x="0px" y="0px"
	 viewBox="0 0 24 24" style="enable-background:new 0 0 24 24;" xml:space="preserve">
<g id="pause">
	<path d="M9,22H6c-0.55,0-1-0.45-1-1V3c0-0.55,0.45-1,1-1h3c0.55,0,1,0.45,1,1v18C10,21.55,9.55,22,9,22z M19,21V3
		c0-0.55-0.45-1-1-1h-3c-0.55,0-1,0.45-1,1v18c0,0.55,0.45,1,1,1h3C18.55,22,19,21.55,19,21z"/>
</g>
<g id="Layer_1">
</g>
</svg>
