<?xml version="1.0" encoding="iso-8859-1"?>
<!-- Generator: Adobe Illustrator 24.0.3, SVG Export Plug-In . SVG Version: 6.00 Build 0)  -->
<svg version="1.1" xmlns="http://www.w3.org/2000/svg" xmlns:xlink="http://www.w3.org/1999/xlink" x="0px" y="0px"
	 viewBox="0 0 24 24" style="enable-background:new 0 0 24 24;" xml:space="preserve">
<g id="redeye">
	<path style="opacity:0.5;" d="M15,12c-1.105,0-2-0.895-2-2c0-0.64,0.306-1.202,0.773-1.569C13.236,8.164,12.64,8,12,8
		c-2.209,0-4,1.791-4,4c0,2.209,1.791,4,4,4s4-1.791,4-4c0-0.09-0.021-0.174-0.026-0.263C15.684,11.9,15.355,12,15,12z"/>
	<path d="M22.842,11.46C22.652,11.16,18.001,4,12,4S1.348,11.16,1.158,11.46c-0.21,0.33-0.21,0.75,0,1.08
		C1.348,12.84,5.999,20,12,20s10.652-7.16,10.842-7.46C23.053,12.21,23.053,11.79,22.842,11.46z M12,17
		c-2.762,0-5.001-2.239-5.001-5S9.238,7,12,7s5.001,2.239,5.001,5S14.762,17,12,17z"/>
</g>
<g id="Layer_1">
</g>
</svg>
