<?xml version="1.0" encoding="iso-8859-1"?>
<!-- Generator: Adobe Illustrator 24.0.3, SVG Export Plug-In . SVG Version: 6.00 Build 0)  -->
<svg version="1.1" xmlns="http://www.w3.org/2000/svg" xmlns:xlink="http://www.w3.org/1999/xlink" x="0px" y="0px"
	 viewBox="0 0 24 24" style="enable-background:new 0 0 24 24;" xml:space="preserve">
<g id="send_feedback">
	<path d="M15.5,13.747L8.672,6.066C8.776,6.03,8.884,6,9,6h13c0.116,0,0.224,0.03,0.328,0.066L15.5,13.747z M22.97,6.849L18.392,12
		l4.578,5.151C22.978,17.099,23,17.053,23,17V7C23,6.947,22.978,6.901,22.97,6.849z M15.874,14.832C15.779,14.938,15.643,15,15.5,15
		s-0.279-0.062-0.374-0.168l-1.848-2.08l-4.606,5.181C8.776,17.97,8.884,18,9,18h13c0.116,0,0.224-0.03,0.328-0.066l-4.605-5.181
		L15.874,14.832z M8.03,6.849C8.022,6.9,8,6.946,8,7v10c0,0.054,0.022,0.1,0.03,0.151L12.609,12L8.03,6.849z M6,11H2
		c-0.552,0-1,0.448-1,1s0.448,1,1,1h4c0.552,0,1-0.448,1-1S6.552,11,6,11z M6,7H3C2.448,7,2,7.448,2,8s0.448,1,1,1h3
		c0.552,0,1-0.448,1-1S6.552,7,6,7z M6,15H3c-0.552,0-1,0.447-1,1s0.448,1,1,1h3c0.552,0,1-0.447,1-1S6.552,15,6,15z"/>
</g>
<g id="Layer_1">
</g>
</svg>
