<?xml version="1.0" encoding="iso-8859-1"?>
<!-- Generator: Adobe Illustrator 24.0.3, SVG Export Plug-In . SVG Version: 6.00 Build 0)  -->
<svg version="1.1" xmlns="http://www.w3.org/2000/svg" xmlns:xlink="http://www.w3.org/1999/xlink" x="0px" y="0px"
	 viewBox="0 0 24 24" style="enable-background:new 0 0 24 24;" xml:space="preserve">
<g id="search">
	<path d="M22.707,21.293l-5.682-5.682C18.258,14.071,19,12.122,19,10c0-4.962-4.037-9-9-9c-4.962,0-9,4.038-9,9c0,4.963,4.038,9,9,9
		c2.122,0,4.071-0.742,5.611-1.975l5.682,5.682C21.488,22.902,21.744,23,22,23s0.512-0.098,0.707-0.293
		C23.098,22.316,23.098,21.684,22.707,21.293z M10,17c-3.86,0-7-3.141-7-7c0-3.86,3.14-7,7-7c3.859,0,7,3.14,7,7
		C17,13.859,13.859,17,10,17z"/>
</g>
<g id="Layer_1">
</g>
</svg>
