<?xml version="1.0" encoding="iso-8859-1"?>
<!-- Generator: Adobe Illustrator 24.0.3, SVG Export Plug-In . SVG Version: 6.00 Build 0)  -->
<svg version="1.1" xmlns="http://www.w3.org/2000/svg" xmlns:xlink="http://www.w3.org/1999/xlink" x="0px" y="0px"
	 viewBox="0 0 24 24" style="enable-background:new 0 0 24 24;" xml:space="preserve">
<g id="warning">
	<path d="M21.857,18.482l-9-15.03c-0.361-0.604-1.354-0.604-1.715,0l-9,15.03c-0.186,0.309-0.19,0.695-0.013,1.01
		C2.307,19.806,2.64,20,3,20h18c0.36,0,0.692-0.194,0.87-0.508C22.048,19.177,22.043,18.792,21.857,18.482z M12,18
		c-0.552,0-1-0.448-1-1c0-0.552,0.448-1,1-1s1,0.448,1,1C13,17.552,12.552,18,12,18z M13,14c0,0.553-0.448,1-1,1s-1-0.447-1-1V8
		c0-0.552,0.448-1,1-1s1,0.448,1,1V14z"/>
</g>
<g id="Layer_1">
</g>
</svg>
