<?xml version="1.0" encoding="UTF-8"?>
<svg width="16px" height="16px" viewBox="0 0 16 16" version="1.1" xmlns="http://www.w3.org/2000/svg" xmlns:xlink="http://www.w3.org/1999/xlink">
    <title>Icon-Service/16/AWS-Application-Composer_16</title>
    <g id="Icon-Service/16/AWS-Application-Composer_16" stroke="none" stroke-width="1" fill="none" fill-rule="evenodd">
        <path d="M14,14.5 C13.448,14.5 13,14.051 13,13.5 C13,12.949 13.448,12.5 14,12.5 C14.552,12.5 15,12.949 15,13.5 C15,14.051 14.552,14.5 14,14.5 M8.707,14.207 C8.316,14.597 7.684,14.597 7.293,14.207 C7.104,14.018 7,13.767 7,13.5 C7,13.233 7.104,12.982 7.293,12.793 C7.488,12.598 7.744,12.5 8,12.5 C8.256,12.5 8.512,12.598 8.707,12.793 C8.896,12.982 9,13.233 9,13.5 C9,13.767 8.896,14.018 8.707,14.207 M1.293,8.707 C1.104,8.518 1,8.267 1,8 C1,7.733 1.104,7.482 1.293,7.293 C1.488,7.098 1.744,7 2,7 C2.256,7 2.512,7.098 2.707,7.293 C2.896,7.482 3,7.733 3,8 C3,8.267 2.896,8.518 2.707,8.707 C2.316,9.097 1.684,9.097 1.293,8.707 M7.293,1.793 C7.488,1.598 7.744,1.5 8,1.5 C8.256,1.5 8.512,1.598 8.707,1.793 C8.896,1.982 9,2.233 9,2.5 C9,2.767 8.896,3.018 8.707,3.207 C8.316,3.597 7.684,3.597 7.293,3.207 C7.104,3.018 7,2.767 7,2.5 C7,2.233 7.104,1.982 7.293,1.793 M14,1.5 C14.552,1.5 15,1.949 15,2.5 C15,3.051 14.552,3.5 14,3.5 C13.448,3.5 13,3.051 13,2.5 C13,1.949 13.448,1.5 14,1.5 M14,11.5 C13.071,11.5 12.295,12.14 12.071,13 L9.929,13 C9.841,12.658 9.67,12.342 9.414,12.086 C8.736,11.407 7.686,11.32 6.911,11.823 L3.759,8.934 C3.911,8.648 4,8.333 4,8 C4,7.667 3.911,7.352 3.759,7.066 L6.911,4.176 C7.241,4.391 7.621,4.499 8,4.499 C8.512,4.499 9.024,4.304 9.414,3.914 C9.67,3.658 9.841,3.342 9.929,3 L12.071,3 C12.295,3.86 13.071,4.5 14,4.5 C15.103,4.5 16,3.603 16,2.5 C16,1.397 15.103,0.5 14,0.5 C13.071,0.5 12.295,1.14 12.071,2 L9.929,2 C9.841,1.658 9.67,1.342 9.414,1.086 C8.635,0.306 7.365,0.306 6.586,1.086 C6.208,1.463 6,1.966 6,2.5 C6,2.833 6.089,3.148 6.241,3.434 L3.089,6.323 C2.314,5.82 1.264,5.907 0.586,6.586 C0.208,6.963 0,7.466 0,8 C0,8.534 0.208,9.037 0.586,9.414 C0.976,9.804 1.488,9.999 2,9.999 C2.379,9.999 2.759,9.891 3.089,9.676 L6.241,12.566 C6.089,12.852 6,13.167 6,13.5 C6,14.034 6.208,14.537 6.586,14.914 C6.976,15.304 7.488,15.499 8,15.499 C8.512,15.499 9.024,15.304 9.414,14.914 C9.67,14.658 9.841,14.342 9.929,14 L12.071,14 C12.295,14.86 13.071,15.5 14,15.5 C15.103,15.5 16,14.603 16,13.5 C16,12.397 15.103,11.5 14,11.5 M2,14 C1.725,14 1.5,13.776 1.5,13.5 C1.5,13.224 1.725,13 2,13 C2.275,13 2.5,13.224 2.5,13.5 C2.5,13.776 2.275,14 2,14 M2,12 C1.173,12 0.5,12.673 0.5,13.5 C0.5,14.327 1.173,15 2,15 C2.827,15 3.5,14.327 3.5,13.5 C3.5,12.673 2.827,12 2,12 M14,8.5 C13.725,8.5 13.5,8.276 13.5,8 C13.5,7.724 13.725,7.5 14,7.5 C14.275,7.5 14.5,7.724 14.5,8 C14.5,8.276 14.275,8.5 14,8.5 M14,6.5 C13.173,6.5 12.5,7.173 12.5,8 C12.5,8.827 13.173,9.5 14,9.5 C14.827,9.5 15.5,8.827 15.5,8 C15.5,7.173 14.827,6.5 14,6.5 M8,8.5 C7.725,8.5 7.5,8.276 7.5,8 C7.5,7.724 7.725,7.5 8,7.5 C8.275,7.5 8.5,7.724 8.5,8 C8.5,8.276 8.275,8.5 8,8.5 M8,6.5 C7.173,6.5 6.5,7.173 6.5,8 C6.5,8.827 7.173,9.5 8,9.5 C8.827,9.5 9.5,8.827 9.5,8 C9.5,7.173 8.827,6.5 8,6.5 M2,2 C2.275,2 2.5,2.224 2.5,2.5 C2.5,2.776 2.275,3 2,3 C1.725,3 1.5,2.776 1.5,2.5 C1.5,2.224 1.725,2 2,2 M2,4 C2.827,4 3.5,3.327 3.5,2.5 C3.5,1.673 2.827,1 2,1 C1.173,1 0.5,1.673 0.5,2.5 C0.5,3.327 1.173,4 2,4" id="Fill-7" fill="#000000"></path>
    </g>
</svg>
