<?xml version="1.0" encoding="UTF-8"?>
<svg width="13px" height="13px" viewBox="0 0 17 17" version="1.1" xmlns="http://www.w3.org/2000/svg" xmlns:xlink="http://www.w3.org/1999/xlink">
    <!-- Generator: Sketch 64 (93537) - https://sketch.com -->
    <title>Cloudwatch logs - light</title>
    <desc>Created with Sketch.</desc>
    <g id="Page-1" stroke="none" stroke-width="1" fill="none" fill-rule="evenodd">
        <path d="M13.3374148,7.3660476 C13.5183547,7.3660476 13.6650354,7.51272833 13.6650354,7.69366818 L13.6650354,16.2243669 C13.6650354,16.4053068 13.5183547,16.5519875 13.3374148,16.5519875 L6.129762,16.5519875 C5.94882215,16.5519875 5.80214142,16.4053068 5.80214142,16.2243669 L5.80214142,7.69366818 C5.80214142,7.51272833 5.94882215,7.3660476 6.129762,7.3660476 L13.3374148,7.3660476 Z M12.6332902,8.40649164 L6.84776748,8.40649164 L6.84776748,15.509023 L12.6332902,15.509023 L12.6332902,8.40649164 Z M11.642718,12.7219885 L11.642718,13.7662791 L8.03889155,13.7662791 L8.03889155,12.7219885 L11.642718,12.7219885 Z M11.642718,10.151756 L11.642718,11.1960466 L8.03889155,11.1960466 L8.03889155,10.151756 L11.642718,10.151756 Z M9.93110919,1.84863011 C10.3322351,2.25713933 10.6796221,2.64265816 10.9133661,3.16529143 C11.2468123,2.89615871 11.6400607,2.84060052 12.0685684,2.84056475 C12.938911,2.84056475 14.0224861,3.52427861 14.2016743,4.97058332 C15.0240201,5.16577046 16.6090692,5.81316888 16.6090692,7.98902552 C16.666125,9.1012746 16.0767398,10.1467168 15.0955689,10.6736486 L14.5556335,9.74715754 C15.329231,9.32878499 15.5823215,8.7639207 15.5953027,7.98902552 C15.6984464,6.47768275 14.3064774,6.08899323 13.5712418,5.74336275 C13.4866863,5.72829464 13.4117382,5.67986665 13.3632555,5.6089716 C13.3163392,5.54195391 13.2968737,5.45951179 13.3088591,5.37858678 C13.2160652,4.21706331 12.7053264,3.80800672 12.0685684,3.80800672 C11.6571689,3.81167607 11.2053171,4.02798715 10.9677409,4.36387476 C10.8979018,4.45949749 10.7809645,4.50873422 10.6637609,4.49186632 C10.546955,4.4735774 10.4497523,4.39237013 10.4109776,4.28068024 C10.2023448,3.66652959 9.69597136,2.99007455 9.24315198,2.52567895 C8.20628724,1.44970996 6.95289399,1.36527956 5.61586957,1.82308619 C4.26656823,2.5438174 3.889889,3.45024962 3.74582706,4.82364964 C3.74610259,4.97120262 3.72905045,5.24158976 3.74582706,5.38818615 C3.76733541,5.55658857 3.66790677,5.80083994 3.50096998,5.83172835 C2.34538174,6.12051067 1.72092345,6.78926166 1.66777485,7.96022741 C1.64042182,8.89885246 1.99402355,9.28212239 2.59836269,9.83459547 L2.7757352,9.95267731 C2.88607218,10.0236548 2.99359491,10.0759911 3.17635426,10.0907636 L4.65424371,10.0907633 L4.65424371,11.1056205 L3.17635426,11.1056205 C2.82029968,11.0987387 2.47288719,10.9947362 2.17162047,10.80484 C1.18470413,10.2002428 0.592716426,9.1173682 0.616522931,7.96022741 C0.549553514,6.61936703 1.40900811,5.40687494 2.69638589,5.02602075 L2.69638589,4.77643719 L2.69638589,4.77643719 C2.73215732,3.11840058 3.70053256,1.62249612 5.19862102,0.911091882 C6.81610852,0.195473477 8.70861817,0.570392562 9.93110919,1.84863011 Z" id="Cloudwatch-logs---light" fill="#999999" fill-rule="nonzero"></path>
    </g>
</svg>