<svg xmlns="http://www.w3.org/2000/svg" xmlns:xlink="http://www.w3.org/1999/xlink" width="16" height="16" version="1.1" viewBox="0 0 16 16"><title>graph-preview-light-4</title><desc>Created with Sketch.</desc><g id="graph-preview-light-4" fill="none" fill-rule="evenodd" stroke="none" stroke-width="1"><rect id="Rectangle-Copy-5" width="6" height="3" x=".5" y="6.5" stroke="#424242" stroke-linejoin="round"/><rect id="Rectangle-Copy-6" width="6" height="3" x="9.5" y="6.5" stroke="#424242" stroke-linejoin="round"/><circle id="Oval" cx="8" cy="2" r="1.5" stroke="#424242"/><circle id="Oval-Copy" cx="8" cy="14" r="1.5" stroke="#424242"/><polyline id="Path-3" stroke="#424242" stroke-linejoin="round" points="8 3 8 4.362 4 4.362 4 6.018"/><polyline id="Path-3-Copy" stroke="#424242" stroke-linejoin="round" points="12 3 12 4.362 8 4.362 8 6.018" transform="translate(10.000000, 4.508761) scale(-1, 1) translate(-10.000000, -4.508761)"/><polyline id="Path-3-Copy-2" stroke="#424242" stroke-linejoin="round" points="12 10 12 11.354 8 11.354 8 13" transform="translate(10.000000, 11.500000) rotate(-180.000000) translate(-10.000000, -11.500000)"/><polyline id="Path-3-Copy-3" stroke="#424242" stroke-linejoin="round" points="8 10 8 11.354 4 11.354 4 13" transform="translate(6.000000, 11.500000) scale(-1, 1) rotate(-180.000000) translate(-6.000000, -11.500000)"/></g></svg>