<svg width="16" height="16" viewBox="0 0 16 16" xmlns="http://www.w3.org/2000/svg" fill="#424242"><path d="M7.91926 10.6311L5.77984 8.49167L11.532 8.49167L11.532 7.49167L5.85271 7.49167L7.91926 5.42511L7.21216 4.718L4.25561 7.67455L4.25561 8.38165L7.21216 11.3382L7.91926 10.6311Z"/><path d="M8 2C11.3137 2 14 4.68629 14 8C14 11.3137 11.3137 14 8 14C4.68629 14 2 11.3137 2 8C2 4.68629 4.68629 2 8 2ZM8 3C5.23858 3 3 5.23858 3 8C3 10.7614 5.23858 13 8 13C10.7614 13 13 10.7614 13 8C13 5.23858 10.7614 3 8 3Z"/></svg>