<?xml version="1.0" encoding="UTF-8"?>
<svg width="16px" height="15px" viewBox="0 0 16 15" version="1.1" xmlns="http://www.w3.org/2000/svg" xmlns:xlink="http://www.w3.org/1999/xlink">
    <!-- Generator: Sketch 56.2 (81672) - https://sketch.com -->
    <title>Amazon-S3-Standard-Icon_16_Squid</title>
    <desc>Created with Sketch.</desc>
    <g id="Page-1" stroke="none" stroke-width="1" fill="none" fill-rule="evenodd">
        <g id="AWS-Storage-Product-Icons_Squid" transform="translate(-44.000000, -120.000000)" fill="#999999">
            <path d="M58.1589495,128.353572 L58.1863657,128.187896 C58.3488322,128.280907 58.4818516,128.364229 58.5864393,128.433988 C58.4676358,128.415579 58.3204006,128.387482 58.1589495,128.353572 L58.1589495,128.353572 Z M51.9202386,126.795634 C51.9202386,127.062072 51.6927855,127.280067 51.412531,127.280067 C51.1332918,127.280067 50.9048234,127.062072 50.9048234,126.795634 C50.9048234,126.528226 51.1332918,126.3112 51.412531,126.3112 C51.6927855,126.3112 51.9202386,126.528226 51.9202386,126.795634 L51.9202386,126.795634 Z M56.3383101,133.166904 C56.2519998,133.214378 56.064148,133.28123 55.9067586,133.338393 L55.6417353,133.43528 C55.3706194,133.537011 55.0487328,133.629053 54.6811525,133.7085 C53.7611863,133.910993 52.4878556,134.031133 51.2774807,134.031133 C47.4788125,134.031133 46.5161989,133.403307 46.4816747,133.198876 L45.2103749,123.834776 C46.6268791,124.529454 49.0750452,124.857899 51.412531,124.857899 C53.5113942,124.857899 56.2956626,124.560457 57.883772,123.819274 L57.1760276,128.100698 C55.692506,127.665676 53.9236527,126.881863 52.872698,126.402274 C52.6909387,125.791887 52.1091058,125.342333 51.412531,125.342333 C50.5727826,125.342333 49.8894082,125.993412 49.8894082,126.795634 C49.8894082,127.596887 50.5727826,128.248934 51.412531,128.248934 C52.0126413,128.248934 52.5274568,127.912737 52.7762336,127.43121 C53.9063907,127.940835 55.5869028,128.663609 57.015592,129.067627 L56.3383101,133.166904 Z M51.412531,120.968867 C55.7442922,120.968867 58.0878705,121.991991 58.1152867,122.42023 L58.111225,122.443483 C58.0624851,122.875597 55.7249993,123.889032 51.412531,123.889032 C47.3041611,123.889032 45.054001,122.939543 45.0215077,122.440576 L45.0194769,122.421199 C45.0377543,121.92417 47.2909607,120.968867 51.412531,120.968867 L51.412531,120.968867 Z M58.3569555,127.160897 L59.1296865,122.504521 L59.1296865,122.503553 C59.1317173,122.478362 59.135779,122.455109 59.135779,122.42895 C59.135779,120.646234 54.5176706,120 51.412531,120 C47.8423311,120 44,120.760561 44,122.42895 C44,122.450265 44.0030462,122.470611 44.0040617,122.490957 L45.4774291,133.339362 C45.5474928,133.750161 45.76073,135 51.2774807,135 C52.5599501,135 53.9175602,134.871141 54.9086055,134.653146 C55.3239103,134.562072 55.6955523,134.455497 56.0133772,134.336326 L56.2662156,134.244284 C56.7932161,134.054386 57.3374786,133.858675 57.3324016,133.337424 L58.0005448,129.311781 C58.4544354,129.405762 58.8017074,129.449361 59.0525149,129.449361 C59.5216367,129.449361 59.7003498,129.318563 59.8242305,129.178078 C59.9724811,129.009495 60.0293443,128.797313 59.9856815,128.580287 C59.8973404,128.148172 59.4282185,127.735435 58.3569555,127.160897 L58.3569555,127.160897 Z" id="Amazon-S3-Standard-Icon_16_Squid"></path>
        </g>
    </g>
</svg>