<?xml version="1.0" encoding="UTF-8"?>
<svg width="16px" height="15px" viewBox="0 0 16 15" version="1.1" xmlns="http://www.w3.org/2000/svg" xmlns:xlink="http://www.w3.org/1999/xlink">
    <title>create bucket - dark</title>
    <defs>
        <polygon id="path-1" points="5.73947219 5.15102634 8.78726262 5.15102634 8.78726262 1.58101798 6.0195703 1.58101798 6.0195703 -0.342220713 16 -0.342220713 16 15 3.41504602e-13 15 -0.0200743098 5.83445347 2.05561818 5.83445347 2.32816312 7.88567433 5.73131602 7.88567433"></polygon>
    </defs>
    <g id="create-bucket---dark" stroke="none" stroke-width="1" fill="none" fill-rule="evenodd">
        <mask id="mask-2" fill="white">
            <use xlink:href="#path-1"></use>
        </mask>
        <g id="Rectangle" fill-rule="nonzero"></g>
        <path d="M14.1173659,8.35651408 L14.1447821,8.19083808 C14.3072486,8.28384908 14.440268,8.36717108 14.5448557,8.43693008 C14.4260522,8.41852108 14.278817,8.39042408 14.1173659,8.35651408 L14.1173659,8.35651408 Z M7.87865498,6.79857558 C7.87865498,7.06501408 7.65120188,7.28300908 7.37094738,7.28300908 C7.09170818,7.28300908 6.86323978,7.06501408 6.86323978,6.79857558 C6.86323978,6.53116808 7.09170818,6.31414208 7.37094738,6.31414208 C7.65120188,6.31414208 7.87865498,6.53116808 7.87865498,6.79857558 L7.87865498,6.79857558 Z M12.2967265,13.1698461 C12.2104162,13.2173201 12.0225644,13.2841721 11.865175,13.3413351 L11.6001517,13.4382221 C11.3290358,13.5399531 11.0071492,13.6319951 10.6395689,13.7114421 C9.71960268,13.9139351 8.44627198,14.0340751 7.23589708,14.0340751 C3.43722888,14.0340751 2.47461528,13.4062491 2.44009108,13.2018181 L1.16879128,3.83771808 C2.58529548,4.53239608 5.03346158,4.86084108 7.37094738,4.86084108 C9.46981058,4.86084108 12.254079,4.56339908 13.8421884,3.82221608 L13.134444,8.10364008 C11.6509224,7.66861808 9.88206908,6.88480508 8.83111438,6.40521608 C8.64935508,5.79482908 8.06752218,5.34527508 7.37094738,5.34527508 C6.53119898,5.34527508 5.84782458,5.99635408 5.84782458,6.79857608 C5.84782458,7.59982908 6.53119898,8.25187608 7.37094738,8.25187608 C7.97105768,8.25187608 8.48587318,7.91567908 8.73464998,7.43415208 C9.86480708,7.94377708 11.5453192,8.66655108 12.9740084,9.07056908 L12.2967265,13.1698461 Z M14.0737031,2.42317208 L14.0696414,2.44642508 C14.0209015,2.87853908 11.6834157,3.89197408 7.37094738,3.89197408 C3.26257748,3.89197408 1.01241738,2.94248508 0.979924079,2.44351808 L0.977893279,2.42414108 C0.996170679,1.92711208 3.24937708,0.971809082 7.37094738,0.971809082 C11.7027086,0.971809082 14.0462869,1.99493308 14.0737031,2.42317208 Z M15.0881029,2.50746308 C15.0901337,2.48130408 15.0941954,2.45805108 15.0941954,2.43189208 C15.0941954,0.649176082 10.476087,0.00294208177 7.37094738,0.00294208177 C3.80074748,0.00294208177 -0.0415836207,0.763503082 -0.0415836207,2.43189208 C-0.0415836207,2.45320708 -0.0385374207,2.47355308 -0.0375219207,2.49389908 L1.43584548,13.3423041 C1.50590918,13.7531031 1.71914638,15.0029421 7.23589708,15.0029421 C8.51836648,15.0029421 9.87597658,14.8740831 10.8670219,14.6560881 C11.2823267,14.5650141 11.6539687,14.4584391 11.9717936,14.3392681 L12.224632,14.2472261 C12.7516325,14.0573281 13.295895,13.8616171 13.290818,13.3403661 L13.9589612,9.31472308 C14.4128518,9.40870408 14.7601238,9.45230308 15.0109313,9.45230308 C15.4800531,9.45230308 15.6587662,9.32150508 15.7826469,9.18102008 C15.9308975,9.01243708 15.9877607,8.80025508 15.9440979,8.58322908 C15.8557568,8.15111408 15.3866349,7.73837708 14.3153719,7.16383908 L15.0881029,2.50746308 Z" id="Amazon-S3-Standard-Icon_16_Squid" fill="#424242" fill-rule="nonzero" mask="url(#mask-2)"></path>
        <polygon id="Path" fill="#424242" points="4.13501792 7.08891292 3.13501792 7.08891292 3.13501792 4.08891292 0.135017917 4.08891292 0.135017917 3.08891292 3.13501792 3.08891292 3.13501792 0.0889129225 4.13501792 0.0889129225 4.13501792 3.08891292 7.13501792 3.08891292 7.13501792 4.08891292 4.13501792 4.08891292"></polygon>
    </g>
</svg>