<?xml version="1.0" encoding="UTF-8"?>
<svg width="17px" height="17px" viewBox="0 0 17 17" version="1.1" xmlns="http://www.w3.org/2000/svg" xmlns:xlink="http://www.w3.org/1999/xlink">
    <!-- Generator: Sketch 64 (93537) - https://sketch.com -->
    <title>Cloudwatch logs - dark</title>
    <desc>Created with Sketch.</desc>
    <g id="Page-1" stroke="none" stroke-width="1" fill="none" fill-rule="evenodd">
        <path d="M13.3374148,7.3660476 C13.5183547,7.3660476 13.6650354,7.51272833 13.6650354,7.69366818 L13.6650354,16.2243669 C13.6650354,16.4053068 13.5183547,16.5519875 13.3374148,16.5519875 L6.129762,16.5519875 C5.94882215,16.5519875 5.80214142,16.4053068 5.80214142,16.2243669 L5.80214142,7.69366818 C5.80214142,7.51272833 5.94882215,7.3660476 6.129762,7.3660476 L13.3374148,7.3660476 Z M12.6332902,8.40649164 L6.84776748,8.40649164 L6.84776748,15.509023 L12.6332902,15.509023 L12.6332902,8.40649164 Z M11.642718,12.7219885 L11.642718,13.7662791 L8.03889155,13.7662791 L8.03889155,12.7219885 L11.642718,12.7219885 Z M11.642718,10.151756 L11.642718,11.1960466 L8.03889155,11.1960466 L8.03889155,10.151756 L11.642718,10.151756 Z M9.93110919,1.8232895 C10.3322351,2.22381513 10.6796221,2.60179967 10.9133661,3.11421899 C11.2468123,2.850346 11.6400607,2.79587359 12.0685684,2.79583852 C12.938911,2.79583852 14.0224861,3.4661904 14.2016743,4.88422962 C15.0240201,5.07560217 16.6090692,5.71034833 16.6090692,7.84368166 C16.666125,8.93419379 16.0767398,9.95920468 15.0955689,10.4758385 L14.5556335,9.56745408 C15.329231,9.15725789 15.5823215,8.60343287 15.5953027,7.84368166 C15.6984464,6.36187544 14.3064774,5.98078217 13.5712418,5.64190643 C13.4866863,5.62713281 13.4117382,5.57965125 13.3632555,5.51014172 C13.3163392,5.44443377 13.2968737,5.36360284 13.3088591,5.28425937 C13.2160652,4.14543584 12.7053264,3.74437354 12.0685684,3.74437354 C11.6571689,3.74797117 11.2053171,3.96005484 10.9677409,4.28937811 C10.8979018,4.38313207 10.7809645,4.43140655 10.6637609,4.41486831 C10.546955,4.39693681 10.4497523,4.31731659 10.4109776,4.20780948 C10.2023448,3.60566133 9.69597136,2.94242642 9.24315198,2.48710662 C8.20628724,1.43216555 6.95289399,1.3493852 5.61586957,1.7982448 C4.26656823,2.50489058 3.889889,3.39360817 3.74582706,4.74016751 C3.74610259,4.88483682 3.72905045,5.14993971 3.74582706,5.29367113 C3.76733541,5.45878243 3.66790677,5.69826034 3.50096998,5.72854508 C2.34538174,6.01168365 1.72092345,6.66736508 1.66777485,7.81544637 C1.64042182,8.73572764 1.99402355,9.11150722 2.59836269,9.65318319 C2.79735861,9.77802685 2.90221524,9.88261918 3.17635426,9.90434501 L4.53408394,9.90434466 L4.53408394,10.8993683 L3.17635426,10.8993683 C2.82029968,10.8926209 2.47288719,10.790651 2.17162047,10.604466 C1.18470413,10.0116846 0.592716426,8.94997287 0.616522931,7.81544637 C0.549553514,6.50079075 1.40900811,5.31199468 2.69638589,4.93858362 L2.69638589,4.69387774 L2.69638589,4.69387774 C2.73215732,3.06824454 3.70053256,1.60157491 5.19862102,0.904073818 C6.81610852,0.202440918 8.70861817,0.570032868 9.93110919,1.8232895 Z" id="Cloudwatch-logs---dark" fill="#666666" fill-rule="nonzero"></path>
    </g>
</svg>