<svg width="16" height="16" viewBox="0 0 16 16" fill="none" xmlns="http://www.w3.org/2000/svg">
<g clip-path="url(#clip0)">
<path fill-rule="evenodd" clip-rule="evenodd" d="M3.89026 2.09995C4.64449 1.60002 5.4948 1.26307 6.38674 1.11067C7.27869 0.958273 8.19264 0.993788 9.07007 1.21494C9.94751 1.4361 10.7691 1.83802 11.4823 2.39497C12.1954 2.95193 12.7844 3.65166 13.2116 4.44936C13.6388 5.24706 13.8947 6.12516 13.9629 7.02746C14.0312 7.92976 13.9103 8.83637 13.608 9.68926C13.3057 10.5421 12.8287 11.3225 12.2075 11.9804C11.5862 12.6384 10.8344 13.1593 10.0003 13.51C8.50812 14.1372 6.83564 14.1851 5.31002 13.6444C3.7844 13.1037 2.51541 12.0132 1.75131 10.5863C0.987215 9.15938 0.782984 7.49873 1.17858 5.92921C1.57417 4.35968 2.54112 2.99422 3.89026 2.09995V2.09995ZM4.44026 12.1C5.07972 12.5047 5.79584 12.7732 6.5438 12.8885C7.29177 13.0039 8.05549 12.9636 8.78718 12.7702C9.51887 12.5769 10.2028 12.2346 10.7961 11.7648C11.3895 11.295 11.8795 10.7078 12.2355 10.04C12.5915 9.37211 12.8058 8.63798 12.8651 7.88349C12.9243 7.12901 12.8273 6.37042 12.5799 5.65517C12.3326 4.93993 11.9403 4.28343 11.4276 3.72675C10.9149 3.17007 10.2928 2.72519 9.60026 2.41995C8.5991 1.99903 7.494 1.89096 6.43026 2.10995C5.36213 2.31858 4.3805 2.84108 3.61095 3.61064C2.84139 4.38019 2.31888 5.36182 2.11026 6.42995C1.89845 7.49506 2.00668 8.59904 2.42133 9.60273C2.83597 10.6064 3.53847 11.4649 4.44026 12.07V12.1ZM8.41026 3.99995C8.14055 3.88897 7.85191 3.83124 7.56026 3.82995C7.26816 3.82659 6.9786 3.88451 6.71026 3.99995C6.45029 4.11275 6.21307 4.27202 6.01026 4.46995C5.8134 4.66776 5.65714 4.90216 5.55026 5.15995C5.43136 5.42367 5.37326 5.71075 5.38026 5.99995H6.25026C6.24828 5.7416 6.32332 5.48852 6.46581 5.273C6.6083 5.05749 6.81177 4.88931 7.05026 4.78995C7.21108 4.7192 7.38457 4.68178 7.56026 4.67995C7.73917 4.6818 7.91593 4.71919 8.08026 4.78995C8.39497 4.92452 8.64569 5.17524 8.78026 5.48995C8.84404 5.65254 8.87791 5.82532 8.88026 5.99995C8.87739 6.18096 8.83291 6.35889 8.75026 6.51995C8.65729 6.67559 8.54655 6.81989 8.42026 6.94995L8.00026 7.31995C7.85009 7.46012 7.70975 7.61048 7.58026 7.76995C7.44678 7.93631 7.33892 8.1217 7.26026 8.31995C7.16687 8.53412 7.12246 8.76644 7.13026 8.99995V9.43995H8.00026V8.99995C7.99833 8.81834 8.04309 8.63929 8.13026 8.47995C8.22245 8.32379 8.33326 8.1794 8.46026 8.04995C8.59302 7.90922 8.73322 7.77569 8.88026 7.64995C9.03043 7.50978 9.17077 7.35943 9.30026 7.19995C9.43374 7.03359 9.5416 6.84821 9.62026 6.64995C9.70533 6.44376 9.74948 6.223 9.75026 5.99995C9.74897 5.7083 9.69124 5.41966 9.58026 5.14995C9.34488 4.63583 8.92836 4.22644 8.41026 3.99995ZM8.00026 11.22V10.34H7.13026V11.22H8.00026Z" fill="#424242"/>
</g>
<defs>
<clipPath id="clip0">
<rect width="16" height="16" fill="white" transform="translate(0.000244141)"/>
</clipPath>
</defs>
</svg>