<?xml version="1.0" encoding="iso-8859-1"?>
<!-- Generator: Adobe Illustrator 24.0.3, SVG Export Plug-In . SVG Version: 6.00 Build 0)  -->
<svg version="1.1" xmlns="http://www.w3.org/2000/svg" xmlns:xlink="http://www.w3.org/1999/xlink" x="0px" y="0px"
	 viewBox="0 0 24 24" style="enable-background:new 0 0 24 24;" xml:space="preserve">
<g id="announcer">
	<path d="M20.899,19.394l-6.49-15.095l-11.14,11.14l8.531,3.653l-1.669,1.821c-0.106,0.117-0.152,0.276-0.123,0.432
		c0.03,0.155,0.131,0.287,0.272,0.356l2.571,1.25c0.07,0.034,0.145,0.05,0.219,0.05c0.137,0,0.272-0.057,0.369-0.163l2-2.187
		l2.942,1.26L20.899,19.394z"/>
	<path style="opacity:0.5;" d="M9.5,6C9.339,6,9.18,5.922,9.084,5.777l-2-3c-0.153-0.23-0.091-0.54,0.139-0.693
		s0.541-0.092,0.693,0.139l2,3c0.153,0.23,0.091,0.54-0.139,0.693C9.692,5.973,9.596,6,9.5,6z M4.916,10.777
		c0.153-0.23,0.091-0.54-0.139-0.693l-3-2C1.545,7.93,1.236,7.993,1.084,8.223c-0.153,0.23-0.091,0.54,0.139,0.693l3,2
		C4.308,10.973,4.404,11,4.5,11C4.661,11,4.82,10.922,4.916,10.777z M6.854,7.854c0.195-0.195,0.195-0.512,0-0.707l-4-4
		c-0.195-0.195-0.512-0.195-0.707,0s-0.195,0.512,0,0.707l4,4C6.244,7.951,6.372,8,6.5,8S6.756,7.951,6.854,7.854z M18.854,22.854
		l3-3c0.195-0.195,0.195-0.512,0-0.707s-0.512-0.195-0.707,0l-3,3c-0.195,0.195-0.195,0.512,0,0.707
		C18.244,22.951,18.372,23,18.5,23S18.756,22.951,18.854,22.854z M2.854,15.854l12-12c0.195-0.195,0.195-0.512,0-0.707
		s-0.512-0.195-0.707,0l-12,12c-0.195,0.195-0.195,0.512,0,0.707C2.244,15.951,2.372,16,2.5,16S2.756,15.951,2.854,15.854z"/>
</g>
<g id="Layer_1">
</g>
</svg>
