<?xml version="1.0" encoding="iso-8859-1"?>
<!-- Generator: Adobe Illustrator 24.0.3, SVG Export Plug-In . SVG Version: 6.00 Build 0)  -->
<svg version="1.1" xmlns="http://www.w3.org/2000/svg" xmlns:xlink="http://www.w3.org/1999/xlink" x="0px" y="0px"
	 viewBox="0 0 24 24" style="enable-background:new 0 0 24 24;" xml:space="preserve">
<g id="exposure_minus_one">
	<path d="M16.574,19c-0.17,0-0.295-0.04-0.372-0.119c-0.08-0.079-0.119-0.204-0.119-0.374V8.213L13.38,9.1
		c-0.263,0.093-0.441,0.138-0.532,0.138c-0.185,0-0.276-0.124-0.276-0.374V7.563c0-0.185,0.029-0.323,0.088-0.414
		c0.059-0.091,0.174-0.178,0.345-0.257l2.978-1.361c0.276-0.13,0.571-0.197,0.887-0.197h1.635c0.186,0,0.315,0.037,0.385,0.109
		C18.965,5.515,19,5.644,19,5.828v12.679c0,0.17-0.035,0.295-0.109,0.374C18.82,18.96,18.692,19,18.506,19H16.574z M10.5,12.3h-8
		c-0.275,0-0.5,0.225-0.5,0.5v1.4c0,0.275,0.225,0.5,0.5,0.5h8c0.275,0,0.5-0.225,0.5-0.5v-1.4C11,12.525,10.775,12.3,10.5,12.3z"/>
</g>
<g id="Layer_1">
</g>
</svg>
