<?xml version="1.0" encoding="iso-8859-1"?>
<!-- Generator: Adobe Illustrator 24.0.3, SVG Export Plug-In . SVG Version: 6.00 Build 0)  -->
<svg version="1.1" xmlns="http://www.w3.org/2000/svg" xmlns:xlink="http://www.w3.org/1999/xlink" x="0px" y="0px"
	 viewBox="0 0 24 24" style="enable-background:new 0 0 24 24;" xml:space="preserve">
<g id="menu">
	<path d="M21,8H3C2.448,8,2,7.552,2,7s0.448-1,1-1h18c0.553,0,1,0.448,1,1S21.553,8,21,8z M22,12c0-0.552-0.447-1-1-1H3
		c-0.552,0-1,0.448-1,1s0.448,1,1,1h18C21.553,13,22,12.552,22,12z M22,17c0-0.553-0.447-1-1-1H3c-0.552,0-1,0.447-1,1s0.448,1,1,1
		h18C21.553,18,22,17.553,22,17z"/>
</g>
<g id="Layer_1">
</g>
</svg>
