<?xml version="1.0" encoding="iso-8859-1"?>
<!-- Generator: Adobe Illustrator 24.0.3, SVG Export Plug-In . SVG Version: 6.00 Build 0)  -->
<svg version="1.1" xmlns="http://www.w3.org/2000/svg" xmlns:xlink="http://www.w3.org/1999/xlink" x="0px" y="0px"
	 viewBox="0 0 24 24" style="enable-background:new 0 0 24 24;" xml:space="preserve">
<g id="star_on">
	<path d="M22.143,8.267l-1.569-0.228v0l-4.82-0.7l-2.018-4.084c0,0,0,0,0,0l-0.839-1.699c-0.367-0.743-1.426-0.743-1.793,0
		l-0.839,1.699c0,0,0,0,0,0L8.246,7.34L2.678,8.148c0,0,0,0,0,0L1.857,8.267c-0.82,0.119-1.148,1.127-0.554,1.706l0.594,0.579l0,0
		l4.028,3.923l-1.022,5.952c0,0,0,0,0,0l-0.069,0.402c-0.14,0.817,0.717,1.44,1.45,1.054l0.645-0.338l0,0L12,18.882l4.59,2.41l0,0
		l1.125,0.59c0.734,0.385,1.591-0.238,1.45-1.055l-0.234-1.364l0,0l-0.857-4.991l3.827-3.727l0,0l0.796-0.775
		C23.291,9.394,22.963,8.386,22.143,8.267z"/>
</g>
<g id="Layer_1">
</g>
</svg>
