<svg width="19" height="20" viewBox="0 0 19 20" fill="none" xmlns="http://www.w3.org/2000/svg">
<path d="M1.00067 7.69146L1.00213 14.3309L6.73904 17.6032M1.00067 7.69146L6.73904 11.0112M1.00067 7.69146L6.73904 4.41921L12.3826 7.6915M6.73904 17.6032L6.73904 11.0112M6.73904 17.6032L11.1471 15.0473M6.73904 11.0112L12.3826 7.6915M12.3826 7.6915L12.3826 11.4755" stroke="white"/>
<path d="M11.1475 12.3305L11.1484 16.5901L14.5721 18.6895M11.1475 12.3305L14.572 14.4604M11.1475 12.3305L14.572 10.2312L17.9399 12.3306M14.5721 18.6895L14.572 14.4604M14.5721 18.6895L17.94 16.5902L17.9399 12.3306M14.572 14.4604L17.9399 12.3306" stroke="white"/>
<path d="M9.61748 2.66021L9.61822 6.02752L12.5278 7.68713M9.61748 2.66021L12.5278 4.34389M9.61748 2.66021L12.5278 1.00063L15.39 2.66023M12.5278 7.68713L12.5278 4.34389M12.5278 7.68713L15.39 6.02753L15.39 2.66023M12.5278 4.34389L15.39 2.66023" stroke="white"/>
</svg>
