<svg width="35" height="37" viewBox="0 0 35 37" fill="none" xmlns="http://www.w3.org/2000/svg">
<path d="M1.10279 14L1.10565 27.02L12.3558 33.437M1.10279 14L12.3558 20.5101M1.10279 14L12.3558 7.58312L23.4228 14.0001M12.3558 33.437L12.3558 20.5101M12.3558 33.437L21 28.4249M12.3558 20.5101L23.4228 14.0001M23.4228 14.0001L23.4228 21.4205" stroke="white"/>
<path d="M21.0007 23.1182L21.0026 31.4712L27.7164 35.5882M21.0007 23.1182L27.7163 27.2949M21.0007 23.1182L27.7162 19.0014L34.3207 23.1184M27.7164 35.5882L27.7163 27.2949M27.7164 35.5882L34.3209 31.4715L34.3207 23.1184M27.7163 27.2949L34.3207 23.1184" stroke="white"/>
<path d="M18.0005 4.15572L18.002 10.7591L23.7077 14.0136M18.0005 4.15572L23.7077 7.45742M18.0005 4.15572L23.7077 0.901256L29.3205 4.15576M23.7077 14.0136L23.7077 7.45742M23.7077 14.0136L29.3205 10.7591L29.3205 4.15576M23.7077 7.45742L29.3205 4.15576" stroke="white"/>
</svg>
