<?xml version="1.0" encoding="iso-8859-1"?>
<!-- Generator: Adobe Illustrator 24.0.3, SVG Export Plug-In . SVG Version: 6.00 Build 0)  -->
<svg version="1.1" xmlns="http://www.w3.org/2000/svg" xmlns:xlink="http://www.w3.org/1999/xlink" x="0px" y="0px"
	 viewBox="0 0 24 24" style="enable-background:new 0 0 24 24;" xml:space="preserve">
<g id="cancel">
	<path d="M19.071,17.657L13.414,12l5.657-5.657c0.39-0.39,0.39-1.024,0-1.414s-1.024-0.39-1.414,0L12,10.586L6.343,4.929
		c-0.39-0.39-1.024-0.39-1.414,0s-0.39,1.024,0,1.414L10.586,12l-5.657,5.657c-0.391,0.391-0.39,1.024,0,1.414s1.023,0.391,1.414,0
		L12,13.414l5.657,5.657c0.39,0.39,1.024,0.39,1.414,0S19.462,18.047,19.071,17.657z"/>
</g>
<g id="Layer_1">
</g>
</svg>
