<?xml version="1.0" encoding="iso-8859-1"?>
<!-- Generator: Adobe Illustrator 24.0.3, SVG Export Plug-In . SVG Version: 6.00 Build 0)  -->
<svg version="1.1" xmlns="http://www.w3.org/2000/svg" xmlns:xlink="http://www.w3.org/1999/xlink" x="0px" y="0px"
	 viewBox="0 0 24 24" style="enable-background:new 0 0 24 24;" xml:space="preserve">
<g id="hyperlink">
	<path d="M16.5,5h-4c-2.13,0-3.98,1.22-4.89,3h2.45c0.63-0.62,1.49-1,2.44-1h4c1.93,0,3.5,1.57,3.5,3.5S18.43,14,16.5,14h-4
		c-1.39,0-2.6-0.82-3.15-2H7.21c0.65,2.3,2.78,4,5.29,4h4c3.03,0,5.5-2.47,5.5-5.5C22,7.47,19.53,5,16.5,5z M11.5,18h-4
		C5.57,18,4,16.43,4,14.5S5.57,11,7.5,11h4c1.39,0,2.6,0.82,3.15,2h2.14c-0.65-2.3-2.78-4-5.29-4h-4C4.47,9,2,11.47,2,14.5
		C2,17.53,4.47,20,7.5,20h4c2.13,0,3.98-1.22,4.89-3h-2.45C13.31,17.62,12.45,18,11.5,18z"/>
</g>
<g id="Layer_1">
</g>
</svg>
