<?xml version="1.0" encoding="iso-8859-1"?>
<!-- Generator: Adobe Illustrator 24.0.3, SVG Export Plug-In . SVG Version: 6.00 Build 0)  -->
<svg version="1.1" xmlns="http://www.w3.org/2000/svg" xmlns:xlink="http://www.w3.org/1999/xlink" x="0px" y="0px"
	 viewBox="0 0 24 24" style="enable-background:new 0 0 24 24;" xml:space="preserve">
<g id="information">
	<path d="M12,1C5.925,1,1,5.925,1,12s4.925,11,11,11s11-4.925,11-11S18.075,1,12,1z M14,17c0,1.105-0.895,2-2,2s-2-0.895-2-2v-5
		c0-1.105,0.895-2,2-2s2,0.895,2,2V17z M12,8c-1.105,0-2-0.895-2-2c0-1.105,0.895-2,2-2s2,0.895,2,2C14,7.105,13.105,8,12,8z"/>
</g>
<g id="Layer_1">
</g>
</svg>
