<?xml version="1.0" encoding="iso-8859-1"?>
<!-- Generator: Adobe Illustrator 24.0.3, SVG Export Plug-In . SVG Version: 6.00 Build 0)  -->
<svg version="1.1" xmlns="http://www.w3.org/2000/svg" xmlns:xlink="http://www.w3.org/1999/xlink" x="0px" y="0px"
	 viewBox="0 0 24 24" style="enable-background:new 0 0 24 24;" xml:space="preserve">
<g id="like">
	<path style="opacity:0.5;" d="M5,23H2c-0.552,0-1-0.448-1-1V10c0-0.552,0.448-1,1-1h3c0.552,0,1,0.448,1,1v12
		C6,22.552,5.552,23,5,23z"/>
	<path d="M20.999,9H17h-0.41c-0.72,0-1.17-0.76-0.82-1.39l0.15-0.27c0.54-0.99,0.85-2.1,0.8-3.22c-0.04-0.75-0.18-1.49-0.42-2.21
		C16.12,1.37,15.61,1,15.04,1c-0.61,0-1.14,0.42-1.29,1.01l-0.36,1.44C13.13,4.47,12.66,5.42,12,6.24L9.71,9.12
		C9.26,9.67,8.58,10,7.87,10C7.39,10,7,10.39,7,10.87V21c0,0.55,0.45,1,1,1h4.707H16h2.229c0.878,0,1.653-0.573,1.912-1.412l2.769-9
		C23.306,10.302,22.344,9,20.999,9z"/>
</g>
<g id="Layer_1">
</g>
</svg>
