<?xml version="1.0" encoding="iso-8859-1"?>
<!-- Generator: Adobe Illustrator 24.0.3, SVG Export Plug-In . SVG Version: 6.00 Build 0)  -->
<svg version="1.1" xmlns="http://www.w3.org/2000/svg" xmlns:xlink="http://www.w3.org/1999/xlink" x="0px" y="0px"
	 viewBox="0 0 24 24" style="enable-background:new 0 0 24 24;" xml:space="preserve">
<g id="maximize_x40_mirrored">
	<path d="M7.06,18.354l1.793,1.793c0.132,0.132,0.18,0.328,0.123,0.506c-0.057,0.178-0.209,0.31-0.394,0.34l-6,1
		c-0.158,0.025-0.321-0.025-0.436-0.14c-0.114-0.114-0.165-0.277-0.14-0.436l1-6c0.031-0.185,0.162-0.337,0.34-0.394
		c0.179-0.057,0.374-0.01,0.506,0.123l1.793,1.793L16.939,5.646l-1.793-1.793c-0.132-0.132-0.18-0.328-0.123-0.506
		c0.057-0.178,0.209-0.31,0.394-0.34l6-1c0.158-0.025,0.321,0.025,0.436,0.14c0.114,0.114,0.165,0.277,0.14,0.436l-1,6
		c-0.031,0.185-0.162,0.337-0.34,0.394c-0.179,0.057-0.374,0.01-0.506-0.123l-1.793-1.793L7.06,18.354z"/>
</g>
<g id="Layer_1">
</g>
</svg>
