<?xml version="1.0" encoding="iso-8859-1"?>
<!-- Generator: Adobe Illustrator 24.0.3, SVG Export Plug-In . SVG Version: 6.00 Build 0)  -->
<svg version="1.1" xmlns="http://www.w3.org/2000/svg" xmlns:xlink="http://www.w3.org/1999/xlink" x="0px" y="0px"
	 viewBox="0 0 24 24" style="enable-background:new 0 0 24 24;" xml:space="preserve">
<g id="options_reset">
	<path style="opacity:0.5;" d="M16.707,15.293L13,11.586V6c0-0.552-0.448-1-1-1s-1,0.448-1,1v6.414l4.293,4.293
		C15.488,16.902,15.744,17,16,17s0.512-0.098,0.707-0.293C17.098,16.316,17.098,15.684,16.707,15.293z"/>
	<path d="M13,1.702c-5.514,0-10,4.486-10,10V12H1.5c-0.182,0-0.349,0.099-0.438,0.258c-0.088,0.159-0.083,0.354,0.014,0.507
		l2.5,3.996C3.667,16.906,3.828,16.995,4,16.995s0.333-0.089,0.424-0.234l2.5-3.996c0.097-0.154,0.102-0.348,0.014-0.507
		C6.849,12.099,6.682,12,6.5,12H5v-0.298c0-4.411,3.589-8,8-8s8,3.589,8,8s-3.589,8-8,8c-1.852,0-3.59-0.614-5.027-1.776
		c-0.429-0.347-1.06-0.281-1.406,0.148c-0.348,0.43-0.281,1.06,0.148,1.406c1.771,1.433,4.003,2.222,6.285,2.222
		c5.514,0,10-4.486,10-10C23,6.188,18.514,1.702,13,1.702z"/>
</g>
<g id="Layer_1">
</g>
</svg>
