<?xml version="1.0" encoding="iso-8859-1"?>
<!-- Generator: Adobe Illustrator 24.0.3, SVG Export Plug-In . SVG Version: 6.00 Build 0)  -->
<svg version="1.1" xmlns="http://www.w3.org/2000/svg" xmlns:xlink="http://www.w3.org/1999/xlink" x="0px" y="0px"
	 viewBox="0 0 24 24" style="enable-background:new 0 0 24 24;" xml:space="preserve">
<g id="sms">
	<path d="M18.481,10h-1.947c-2.188,0-4.142,1.602-4.479,3.848C11.63,16.678,13.698,19,16.347,19h1.1H18
		c0.264,0.409,0.474,1.042,0.474,1.571c0,0.265-0.039,0.611-0.114,0.939c-0.075,0.329,0.252,0.604,0.536,0.441
		c1.968-1.132,4.047-4.317,4.103-7.259C23.048,12.112,20.965,10,18.481,10z"/>
	<path style="opacity:0.5;" d="M16.921,7.451C16.431,4.269,13.588,2,10.406,2H7.573C3.96,2,0.93,4.992,1.001,8.648
		c0.082,4.168,3.105,8.679,5.968,10.283c0.414,0.232,0.889-0.159,0.78-0.624c-0.109-0.466-0.166-0.955-0.166-1.331
		c0-0.75,0.033-1.396,0.417-1.976h0.804h1.6c0.206,0,0.41-0.015,0.612-0.035c-0.029-0.417-0.015-0.841,0.049-1.266
		C11.467,11.02,13.818,9,16.533,9h0.433C17.012,8.496,17.002,7.978,16.921,7.451z"/>
</g>
<g id="Layer_1">
</g>
</svg>
