<?xml version="1.0" encoding="iso-8859-1"?>
<!-- Generator: Adobe Illustrator 24.0.3, SVG Export Plug-In . SVG Version: 6.00 Build 0)  -->
<svg version="1.1" xmlns="http://www.w3.org/2000/svg" xmlns:xlink="http://www.w3.org/1999/xlink" x="0px" y="0px"
	 viewBox="0 0 24 24" style="enable-background:new 0 0 24 24;" xml:space="preserve">
<g id="select_text">
	<path d="M1,9h2v2H1V9z M1,7h2V5H1V7z M5,23h2v-2H5V23z M1,3h2V1H1V3z M1,23h2v-2H1V23z M11,1H9v2h2V1z M15,1h-2v2h2V1z M7,1H5v2h2
		V1z M9,23h2v-2H9V23z M1,19h2v-2H1V19z M1,15h2v-2H1V15z M21,11h2V9h-2V11z M13,23h2v-2h-2V23z M21,15h2v-2h-2V15z M21,7h2V5h-2V7z
		 M21,1v2h2V1H21z M21,19h2v-2h-2V19z M21,23h2v-2h-2V23z M17,23h2v-2h-2V23z M17,3h2V1h-2V3z M17.895,7.303
		C17.965,7.219,18,7.093,18,6.918V5.504c0-0.189-0.035-0.322-0.105-0.392C17.818,5.035,17.685,5,17.496,5H15.5h-0.775h-5.45H8.5
		H6.504C6.329,5,6.196,5.035,6.119,5.112C6.035,5.182,6,5.315,6,5.504v1.414c0,0.175,0.035,0.301,0.119,0.385
		c0.077,0.084,0.21,0.119,0.385,0.119H8.5h0.775h1.213v11.074c0,0.175,0.035,0.301,0.119,0.385C10.684,18.958,10.817,19,10.992,19
		h2.016c0.189,0,0.322-0.042,0.399-0.119c0.07-0.084,0.105-0.21,0.105-0.385V7.422h1.213H15.5h1.996
		C17.685,7.422,17.818,7.387,17.895,7.303z"/>
</g>
<g id="Layer_1">
</g>
</svg>
