<?xml version="1.0" encoding="UTF-8" standalone="no"?>
<svg width="16px" height="16px" viewBox="0 0 16 16" fill="currentColor" fill-rule="evenodd" version="1.1" xmlns="http://www.w3.org/2000/svg">
  <path d="M 8 0 C 6.9013539 0 6 0.90135392 6 2 C 6 2.8419202 6.5296838 3.5679766 7.2714844 3.8613281 L 4 3.8613281 A 0.50005 0.50005 0 0 0 3.5 4.3613281 L 3.5 6 L 0.5 6 A 0.50005 0.50005 0 0 0 0 6.5 L 0 9.5 A 0.50005 0.50005 0 0 0 0.5 10 L 3.5 10 L 3.5 11.646484 A 0.50005 0.50005 0 0 0 4 12.146484 L 7.2539062 12.146484 C 6.5215105 12.444374 6 13.164872 6 14 C 6 15.098646 6.9013539 16 8 16 C 9.0986461 16 10 15.098646 10 14 C 10 13.164872 9.4784895 12.444374 8.7460938 12.146484 L 12 12.146484 A 0.50005 0.50005 0 0 0 12.5 11.646484 L 12.5 10 L 15.5 10 A 0.50005 0.50005 0 0 0 16 9.5 L 16 6.5 A 0.50005 0.50005 0 0 0 15.5 6 L 12.5 6 L 12.5 4.3613281 A 0.50005 0.50005 0 0 0 12 3.8613281 L 8.7285156 3.8613281 C 9.4703162 3.5679766 10 2.8419202 10 2 C 10 0.90135392 9.0986461 0 8 0 z M 8 1 C 8.5582065 1 9 1.4417935 9 2 C 9 2.5582065 8.5582065 3 8 3 C 7.4417935 3 7 2.5582065 7 2 C 7 1.4417935 7.4417935 1 8 1 z M 4.5 4.8613281 L 8 4.8613281 L 11.5 4.8613281 L 11.5 6 L 9.5 6 A 0.50005 0.50005 0 0 0 9 6.5 L 9 9.5 A 0.50005 0.50005 0 0 0 9.5 10 L 11.5 10 L 11.5 11.146484 L 8 11.146484 L 4.5 11.146484 L 4.5 10 L 6.5 10 A 0.50005 0.50005 0 0 0 7 9.5 L 7 6.5 A 0.50005 0.50005 0 0 0 6.5 6 L 4.5 6 L 4.5 4.8613281 z M 1 7 L 6 7 L 6 9 L 1 9 L 1 7 z M 10 7 L 15 7 L 15 9 L 10 9 L 10 7 z M 8 13 C 8.5582065 13 9 13.441793 9 14 C 9 14.558207 8.5582065 15 8 15 C 7.4417935 15 7 14.558207 7 14 C 7 13.441793 7.4417935 13 8 13 z " />
</svg>
