<!-- SPDX-License-Identifier: Apache-2.0 -->
<!-- Derived from Unicons by Iconscout (https://github.com/Iconscout/unicons) -->
<!-- Modifications: unneeded svg attributes removed, fill color changed -->
<svg xmlns="http://www.w3.org/2000/svg" width="16" height="16" viewBox="0 0 24 24"><path d="M8.36 15.33a1 1 0 0 0-.13 1.4a1 1 0 0 0 1.41.13a3.76 3.76 0 0 1 4.72 0a1 1 0 0 0 1.41-.13a1 1 0 0 0-.13-1.4a5.81 5.81 0 0 0-7.28 0zM9 11a1 1 0 1 0-1-1a1 1 0 0 0 1 1zm3-9a10 10 0 1 0 10 10A10 10 0 0 0 12 2zm0 18a8 8 0 1 1 8-8a8 8 0 0 1-8 8zm3-11a1 1 0 1 0 1 1a1 1 0 0 0-1-1z" fill="#C75450"/></svg>
