<!-- SPDX-License-Identifier: Apache-2.0 -->
<!-- Derived from Unicons by Iconscout (https://github.com/Iconscout/unicons) -->
<!-- Modifications: unneeded svg attributes removed, fill color changed -->
<svg xmlns="http://www.w3.org/2000/svg" width="16" height="16" viewBox="0 0 24 24"><path d="M14.36 14.23a3.76 3.76 0 0 1-4.72 0a1 1 0 0 0-1.28 1.54a5.68 5.68 0 0 0 7.28 0a1 1 0 1 0-1.28-1.54zM9 11a1 1 0 1 0-1-1a1 1 0 0 0 1 1zm6-2a1 1 0 1 0 1 1a1 1 0 0 0-1-1zm-3-7a10 10 0 1 0 10 10A10 10 0 0 0 12 2zm0 18a8 8 0 1 1 8-8a8 8 0 0 1-8 8z" fill="#59A869"/></svg>
