<?xml version="1.0" encoding="UTF-8"?>
<svg width="40px" height="40px" viewBox="0 0 40 40" version="1.1" xmlns="http://www.w3.org/2000/svg" xmlns:xlink="http://www.w3.org/1999/xlink">
  <!-- Generator: Sketch 51.3 (57544) - http://www.bohemiancoding.com/sketch -->
  <title>Artboard 2</title>
  <desc>Created with Sketch.</desc>
  <defs></defs>
  <g id="Artboard-2" stroke="none" stroke-width="1" fill="none" fill-rule="evenodd">
    <rect id="Rectangle-13" fill="#FFFFFF" fill-rule="nonzero" x="0" y="0" width="40" height="40" rx="5"></rect>
    <g id="Amazon_Web_Services_Logo" transform="translate(8.000000, 13.000000)">
      <path d="M7.02936911,5.55744681 C7.02936911,5.87234043 7.06272661,6.12765957 7.12110225,6.31489362 C7.18781726,6.50212766 7.27121102,6.70638298 7.38796229,6.92765957 C7.42965917,6.99574468 7.44633793,7.06382979 7.44633793,7.12340426 C7.44633793,7.20851064 7.39630167,7.29361702 7.28788978,7.3787234 L6.76250906,7.73617021 C6.68745468,7.78723404 6.61240029,7.81276596 6.54568528,7.81276596 C6.46229152,7.81276596 6.37889775,7.77021277 6.29550399,7.69361702 C6.17875272,7.56595745 6.0786802,7.42978723 5.99528644,7.29361702 C5.91189268,7.14893617 5.82849891,6.98723404 5.73676577,6.79148936 C5.08629442,7.57446809 4.26903553,7.96595745 3.28498912,7.96595745 C2.58448151,7.96595745 2.02574329,7.76170213 1.61711385,7.35319149 C1.20848441,6.94468085 1,6.4 1,5.71914894 C1,4.99574468 1.25018129,4.40851064 1.75888325,3.96595745 C2.26758521,3.52340426 2.94307469,3.30212766 3.80203046,3.30212766 C4.08556925,3.30212766 4.37744743,3.32765957 4.68600435,3.37021277 C4.99456128,3.41276596 5.31145758,3.48085106 5.64503263,3.55744681 L5.64503263,2.93617021 C5.64503263,2.2893617 5.51160261,1.83829787 5.25308194,1.57446809 C4.9862219,1.3106383 4.53589558,1.18297872 3.8937636,1.18297872 C3.60188542,1.18297872 3.30166788,1.21702128 2.99311095,1.29361702 C2.68455402,1.37021277 2.38433648,1.46382979 2.0924583,1.58297872 C1.95902828,1.64255319 1.85895577,1.67659574 1.80058013,1.69361702 C1.7422045,1.7106383 1.70050761,1.71914894 1.66715011,1.71914894 C1.55039884,1.71914894 1.49202321,1.63404255 1.49202321,1.45531915 L1.49202321,1.03829787 C1.49202321,0.90212766 1.50870196,0.8 1.55039884,0.740425532 C1.59209572,0.680851064 1.66715011,0.621276596 1.78390138,0.561702128 C2.07577955,0.408510638 2.42603336,0.280851064 2.8346628,0.178723404 C3.24329224,0.0680851064 3.67693981,0.0170212766 4.13560551,0.0170212766 C5.1279913,0.0170212766 5.85351704,0.246808511 6.32052212,0.706382979 C6.77918782,1.16595745 7.01269036,1.86382979 7.01269036,2.8 L7.01269036,5.55744681 L7.02936911,5.55744681 Z M3.64358231,6.85106383 C3.91878173,6.85106383 4.20232052,6.8 4.50253807,6.69787234 C4.80275562,6.59574468 5.06961566,6.40851064 5.29477883,6.15319149 C5.42820885,5.99148936 5.52828136,5.81276596 5.57831762,5.60851064 C5.62835388,5.40425532 5.66171139,5.15744681 5.66171139,4.86808511 L5.66171139,4.5106383 C5.41986947,4.45106383 5.1613488,4.4 4.89448876,4.36595745 C4.62762872,4.33191489 4.36910805,4.31489362 4.11058738,4.31489362 C3.55184917,4.31489362 3.14321972,4.42553191 2.8680203,4.65531915 C2.59282088,4.88510638 2.45939086,5.20851064 2.45939086,5.63404255 C2.45939086,6.03404255 2.55946338,6.33191489 2.76794779,6.53617021 C2.96809282,6.74893617 3.25997099,6.85106383 3.64358231,6.85106383 Z M10.3401015,7.77021277 C10.1899927,7.77021277 10.0899202,7.74468085 10.0232052,7.68510638 C9.95649021,7.63404255 9.89811458,7.51489362 9.84807832,7.35319149 L7.88832487,0.774468085 C7.83828861,0.604255319 7.81327049,0.493617021 7.81327049,0.434042553 C7.81327049,0.29787234 7.8799855,0.221276596 8.01341552,0.221276596 L8.8306744,0.221276596 C8.98912255,0.221276596 9.09753445,0.246808511 9.15591008,0.306382979 C9.22262509,0.357446809 9.27266135,0.476595745 9.32269761,0.638297872 L10.7237128,6.27234043 L12.0246555,0.638297872 C12.0663524,0.468085106 12.1163887,0.357446809 12.1831037,0.306382979 C12.2498187,0.255319149 12.36657,0.221276596 12.5166788,0.221276596 L13.1838289,0.221276596 C13.342277,0.221276596 13.4506889,0.246808511 13.5174039,0.306382979 C13.5841189,0.357446809 13.6424946,0.476595745 13.6758521,0.638297872 L14.9934735,6.34042553 L16.4361856,0.638297872 C16.4862219,0.468085106 16.5445975,0.357446809 16.6029732,0.306382979 C16.6696882,0.255319149 16.7781001,0.221276596 16.9282088,0.221276596 L17.7037708,0.221276596 C17.8372009,0.221276596 17.9122553,0.289361702 17.9122553,0.434042553 C17.9122553,0.476595745 17.9039159,0.519148936 17.8955765,0.570212766 C17.8872371,0.621276596 17.8705584,0.689361702 17.8372009,0.782978723 L15.8274112,7.36170213 C15.7773749,7.53191489 15.7189993,7.64255319 15.6522843,7.69361702 C15.5855693,7.74468085 15.4771574,7.7787234 15.335388,7.7787234 L14.6182016,7.7787234 C14.4597534,7.7787234 14.3513416,7.75319149 14.2846265,7.69361702 C14.2179115,7.63404255 14.1595359,7.52340426 14.1261784,7.35319149 L12.8335751,1.86382979 L11.5493111,7.34468085 C11.5076142,7.51489362 11.457578,7.62553191 11.3908629,7.68510638 C11.3241479,7.74468085 11.2073967,7.77021277 11.0572879,7.77021277 L10.3401015,7.77021277 Z M21.0562001,8 C20.6225526,8 20.188905,7.94893617 19.7719362,7.84680851 C19.3549674,7.74468085 19.0297317,7.63404255 18.8129079,7.50638298 C18.6794779,7.42978723 18.5877447,7.34468085 18.5543872,7.26808511 C18.5210297,7.19148936 18.504351,7.10638298 18.504351,7.02978723 L18.504351,6.59574468 C18.504351,6.41702128 18.571066,6.33191489 18.6961566,6.33191489 C18.7461929,6.33191489 18.7962292,6.34042553 18.8462654,6.35744681 C18.8963017,6.37446809 18.9713561,6.40851064 19.0547498,6.44255319 C19.3382886,6.57021277 19.6468455,6.67234043 19.9720812,6.74042553 C20.3056563,6.80851064 20.630892,6.84255319 20.964467,6.84255319 C21.4898477,6.84255319 21.8984772,6.74893617 22.182016,6.56170213 C22.4655547,6.37446809 22.6156635,6.10212766 22.6156635,5.75319149 C22.6156635,5.51489362 22.5406091,5.31914894 22.3905004,5.15744681 C22.2403916,4.99574468 21.9568528,4.85106383 21.5482234,4.71489362 L20.3390138,4.33191489 C19.7302393,4.13617021 19.279913,3.84680851 19.0047136,3.46382979 C18.7295141,3.0893617 18.5877447,2.67234043 18.5877447,2.22978723 C18.5877447,1.87234043 18.6627991,1.55744681 18.8129079,1.28510638 C18.9630167,1.01276596 19.1631617,0.774468085 19.413343,0.587234043 C19.6635243,0.391489362 19.9470631,0.246808511 20.2806381,0.144680851 C20.6142132,0.0425531915 20.964467,0 21.3313996,0 C21.5148658,0 21.7066715,0.0085106383 21.8901378,0.0340425532 C22.0819434,0.0595744681 22.2570703,0.0936170213 22.4321972,0.127659574 C22.5989848,0.170212766 22.7574329,0.212765957 22.9075417,0.263829787 C23.0576505,0.314893617 23.1744017,0.365957447 23.2577955,0.417021277 C23.3745468,0.485106383 23.4579405,0.553191489 23.5079768,0.629787234 C23.5580131,0.69787234 23.5830312,0.791489362 23.5830312,0.910638298 L23.5830312,1.3106383 C23.5830312,1.4893617 23.5163162,1.58297872 23.3912255,1.58297872 C23.3245105,1.58297872 23.2160986,1.54893617 23.0743292,1.48085106 C22.5989848,1.25957447 22.0652647,1.14893617 21.473169,1.14893617 C20.9978245,1.14893617 20.6225526,1.22553191 20.3640319,1.38723404 C20.1055112,1.54893617 19.9720812,1.79574468 19.9720812,2.14468085 C19.9720812,2.38297872 20.055475,2.58723404 20.2222625,2.74893617 C20.38905,2.9106383 20.697607,3.07234043 21.1395939,3.21702128 L22.3237854,3.6 C22.9242204,3.79574468 23.357868,4.06808511 23.6163887,4.41702128 C23.8749094,4.76595745 24,5.16595745 24,5.60851064 C24,5.97446809 23.9249456,6.30638298 23.7831762,6.59574468 C23.6330674,6.88510638 23.4329224,7.14042553 23.1744017,7.34468085 C22.9158811,7.55744681 22.6073241,7.7106383 22.248731,7.8212766 C21.873459,7.94042553 21.4815083,8 21.0562001,8 Z" id="Shape" fill="#252F3E" fill-rule="nonzero"></path>
      <g id="Group" transform="translate(0.000000, 9.000000)" fill="#FF9900">
        <path d="M22.557947,2.70882353 C19.8344371,4.85294118 15.8774834,5.99117647 12.4751656,5.99117647 C7.70695364,5.99117647 3.41059603,4.11176471 0.165562914,0.988235294 C-0.0910596026,0.741176471 0.140728477,0.405882353 0.447019868,0.6 C3.95695364,2.77058824 8.28642384,4.08529412 12.7649007,4.08529412 C15.7864238,4.08529412 19.1059603,3.41470588 22.160596,2.03823529 C22.615894,1.81764706 23.0049669,2.35588235 22.557947,2.70882353 Z" id="Shape"></path>
        <path d="M23.692053,1.33235294 C23.3443709,0.855882353 21.3907285,1.10294118 20.5049669,1.21764706 C20.2400662,1.25294118 20.1986755,1.00588235 20.4387417,0.820588235 C21.9950331,-0.344117647 24.5529801,-0.00882352941 24.8509934,0.379411765 C25.1490066,0.776470588 24.7682119,3.50294118 23.3112583,4.80882353 C23.0877483,5.01176471 22.8725166,4.90588235 22.9718543,4.64117647 C23.3029801,3.76764706 24.0397351,1.8 23.692053,1.33235294 Z" id="Shape"></path>
      </g>
    </g>
  </g>
</svg>