<svg xmlns="http://www.w3.org/2000/svg" xmlns:xlink="http://www.w3.org/1999/xlink" width="11" height="13" version="1.1" viewBox="0 0 11 13"><title>edit - light</title><defs><filter id="filter-1"><feColorMatrix in="SourceGraphic" type="matrix" values="0 0 0 0 0.921569 0 0 0 0 0.929412 0 0 0 0 0.956863 0 0 0 1.000000 0"/></filter><path id="path-2" d="M6.5,0.8125 L6.5,2.4375 L3.25,2.4375 L3.25,10.5625 L9.75,10.5625 L9.75,6.5 L11.375,6.5 L11.375,11.375 C11.375,11.8235 11.0118125,12.1875 10.5625,12.1875 L10.5625,12.1875 L2.4375,12.1875 C1.9881875,12.1875 1.625,11.8235 1.625,11.375 L1.625,11.375 L1.625,1.625 C1.625,1.1765 1.9881875,0.8125 2.4375,0.8125 L2.4375,0.8125 L6.5,0.8125 Z M10.8005625,1.0505625 L11.9494375,2.1994375 L5.4494375,8.6994375 L4.3005625,7.5505625 L10.8005625,1.0505625 Z"/></defs><g id="V1" fill="none" fill-rule="evenodd" stroke="none" stroke-width="1"><g id="icons-/-actions-/-default" filter="url(#filter-1)" transform="translate(-1.500000, 0.000000)"><g id="LOCKED_ON_PURPOSE.CHANGING-RESETS-CHILDREN"><g id="icons-/-actions-/-default-/-caret"><mask id="mask-3" fill="#fff"><use xlink:href="#path-2"/></mask><use id="Combined-Shape" fill="#545B64" xlink:href="#path-2"/><g id="Group" fill="#16191F" mask="url(#mask-3)"><g id="color"><rect id="Rectangle" width="13" height="13" x="0" y="0"/></g></g></g><rect id="Rectangle" width="13" height="13" x="0" y="0" fill="#50E3C2" opacity="0"/></g></g></g></svg>