<svg xmlns="http://www.w3.org/2000/svg" xmlns:xlink="http://www.w3.org/1999/xlink" width="16" height="16" version="1.1" viewBox="0 0 16 16"><title>icon-app</title><desc>Created with Sketch.</desc><g id="icon-app" fill="none" fill-rule="evenodd" stroke="none" stroke-width="1"><g id="icon-/-app-/-13x13-v1" fill="#424242" transform="translate(1.500000, 1.500000)"><g id="icon_apps_v1"><rect id="Rectangle-path" width="3" height="3" x="3" y="3" fill-rule="nonzero"/><rect id="Rectangle-path" width="3" height="3" x="3" y="7" fill-rule="nonzero"/><rect id="Rectangle-path" width="3" height="3" x="7" y="3" fill-rule="nonzero"/><rect id="Rectangle-path" width="3" height="3" x="7" y="7" fill-rule="nonzero"/><rect id="Rectangle-path" width="1" height="5" x="0" y="0" fill-rule="nonzero"/><rect id="Rectangle-path" width="5" height="1" x="0" y="0" fill-rule="nonzero"/><rect id="Rectangle-path" width="5" height="1" x="8" y="0" fill-rule="nonzero"/><rect id="Rectangle-path" width="1" height="5" x="12" y="0" fill-rule="nonzero"/><rect id="Rectangle-path" width="1" height="5" x="12" y="8" fill-rule="nonzero" transform="translate(12.500000, 10.500000) rotate(180.000000) translate(-12.500000, -10.500000)"/><rect id="Rectangle-path" width="5" height="1" x="8" y="12" fill-rule="nonzero" transform="translate(10.500000, 12.500000) rotate(180.000000) translate(-10.500000, -12.500000)"/><rect id="Rectangle-path" width="5" height="1" x="0" y="12" fill-rule="nonzero" transform="translate(2.500000, 12.500000) rotate(180.000000) translate(-2.500000, -12.500000)"/><rect id="Rectangle-path" width="1" height="5" x="0" y="8" fill-rule="nonzero" transform="translate(0.500000, 10.500000) rotate(180.000000) translate(-0.500000, -10.500000)"/></g></g></g></svg>