<?xml version="1.0" encoding="UTF-8"?>
<svg width="16px" height="16px" viewBox="0 0 16 16" version="1.1" xmlns="http://www.w3.org/2000/svg" xmlns:xlink="http://www.w3.org/1999/xlink">
    <!-- Generator: Sketch 51.3 (57544) - http://www.bohemiancoding.com/sketch -->
    <title>icon-app</title>
    <desc>Created with Sketch.</desc>
    <defs></defs>
    <g id="icon-app" stroke="none" stroke-width="1" fill="none" fill-rule="evenodd">
        <g id="icon-/-app-/-13x13-v1" transform="translate(1.500000, 1.500000)" fill="#424242">
            <g id="icon_apps_v1">
                <rect id="Rectangle-path" fill-rule="nonzero" x="3" y="3" width="3" height="3"></rect>
                <rect id="Rectangle-path" fill-rule="nonzero" x="3" y="7" width="3" height="3"></rect>
                <rect id="Rectangle-path" fill-rule="nonzero" x="7" y="3" width="3" height="3"></rect>
                <rect id="Rectangle-path" fill-rule="nonzero" x="7" y="7" width="3" height="3"></rect>
                <rect id="Rectangle-path" fill-rule="nonzero" x="0" y="0" width="1" height="5"></rect>
                <rect id="Rectangle-path" fill-rule="nonzero" x="0" y="0" width="5" height="1"></rect>
                <rect id="Rectangle-path" fill-rule="nonzero" x="8" y="0" width="5" height="1"></rect>
                <rect id="Rectangle-path" fill-rule="nonzero" x="12" y="0" width="1" height="5"></rect>
                <rect id="Rectangle-path" fill-rule="nonzero" transform="translate(12.500000, 10.500000) rotate(180.000000) translate(-12.500000, -10.500000) " x="12" y="8" width="1" height="5"></rect>
                <rect id="Rectangle-path" fill-rule="nonzero" transform="translate(10.500000, 12.500000) rotate(180.000000) translate(-10.500000, -12.500000) " x="8" y="12" width="5" height="1"></rect>
                <rect id="Rectangle-path" fill-rule="nonzero" transform="translate(2.500000, 12.500000) rotate(180.000000) translate(-2.500000, -12.500000) " x="-1.33226763e-15" y="12" width="5" height="1"></rect>
                <rect id="Rectangle-path" fill-rule="nonzero" transform="translate(0.500000, 10.500000) rotate(180.000000) translate(-0.500000, -10.500000) " x="-1.33226763e-15" y="8" width="1" height="5"></rect>
            </g>
        </g>
    </g>
</svg>
