<svg width="15" height="16" viewBox="0 0 15 16" fill="none" xmlns="http://www.w3.org/2000/svg">
<path d="M5.52667 5.97333H9.52667V9.97333H5.52667V5.97333ZM8.08667 1.01333C8.86889 1.04889 9.61556 1.24444 10.3267 1.6C11.0733 1.95556 11.7311 2.41778 12.3 2.98667C13.6511 4.44444 14.3267 6.15111 14.3267 8.10667C14.3267 9.63556 13.7933 11.0933 12.7267 12.48C12.1933 13.12 11.5889 13.6533 10.9133 14.08C10.2378 14.4711 9.50889 14.7378 8.72667 14.88C7.02 15.2 5.47333 14.9689 4.08667 14.1867C3.37556 13.7956 2.75333 13.2978 2.22 12.6933C1.68667 12.0889 1.27778 11.4133 0.993333 10.6667C0.708889 9.92 0.531111 9.13778 0.46 8.32C0.424444 7.50222 0.531111 6.72 0.78 5.97333C1.31333 4.33778 2.25556 3.07556 3.60667 2.18667C4.24667 1.76 4.94 1.44 5.68667 1.22667C6.46889 1.01333 7.26889 0.942222 8.08667 1.01333ZM8.62 13.92C9.97111 13.6 11.0911 12.8889 11.98 11.7867C12.8689 10.5778 13.2778 9.31556 13.2067 8C13.2067 7.18222 13.0467 6.4 12.7267 5.65333C12.4422 4.90667 12.0333 4.24889 11.5 3.68C10.4689 2.64889 9.27778 2.08 7.92667 1.97333C7.25111 1.93778 6.57556 2.00889 5.9 2.18667C5.22444 2.32889 4.62 2.59556 4.08667 2.98667C2.94889 3.84 2.16667 4.96 1.74 6.34667C1.34889 7.73333 1.43778 9.06667 2.00667 10.3467C2.61111 11.6267 3.51778 12.6044 4.72667 13.28C5.29556 13.6356 5.91778 13.8667 6.59333 13.9733C7.26889 14.08 7.94444 14.0622 8.62 13.92Z" fill="#424242"/>
</svg>
