<svg width="16" height="16" viewBox="0 0 16 16" fill="none" xmlns="http://www.w3.org/2000/svg">
<path d="M10.0002 12.6L10.7002 13.3L12.3002 11.7L13.9002 13.3L14.7002 12.6L13.0002 11L14.7002 9.40005L13.9002 8.60005L12.3002 10.3L10.7002 8.60005L10.0002 9.40005L11.6002 11L10.0002 12.6Z" fill="#424242"/>
<path d="M1.00024 4L15.0002 4L15.0002 3L1.00024 3L1.00024 4Z" fill="#424242"/>
<path d="M1.00024 7L15.0002 7L15.0002 6L1.00024 6L1.00024 7Z" fill="#424242"/>
<path d="M9.00024 9.5L9.00024 9L1.00024 9L1.00024 10L9.00024 10L9.00024 9.5Z" fill="#424242"/>
<path d="M9.00024 13L9.00024 12.5L9.00024 12L1.00024 12L1.00024 13L9.00024 13Z" fill="#424242"/>
</svg>
