<svg width="15" height="15" viewBox="0 0 15 15" fill="none" xmlns="http://www.w3.org/2000/svg">
<path d="M3.89333 2.09333C4.85333 1.45333 5.90222 1.09778 7.04 1.02667C8.21333 0.955556 9.31556 1.18667 10.3467 1.72C11.4133 2.21778 12.2667 2.94667 12.9067 3.90667C13.5467 4.86667 13.9022 5.93333 13.9733 7.10667C14.0444 8.24444 13.8133 9.34667 13.28 10.4133C12.7822 11.4444 12.0533 12.28 11.0933 12.92C10.1333 13.56 9.06667 13.9156 7.89333 13.9867C6.75556 14.0578 5.67111 13.8444 4.64 13.3467C3.60889 12.8133 2.75556 12.0667 2.08 11.1067C1.44 10.1111 1.08444 9.04444 1.01333 7.90667C0.942222 6.76889 1.15556 5.68444 1.65333 4.65333C2.18667 3.58667 2.93333 2.73333 3.89333 2.09333ZM4.42667 12.0667C5.24444 12.6356 6.15111 12.9556 7.14667 13.0267C8.14222 13.0978 9.08444 12.92 9.97333 12.4933C10.8622 12.0667 11.5733 11.4444 12.1067 10.6267C12.6756 9.77333 12.9778 8.86667 13.0133 7.90667C13.0844 6.91111 12.8889 5.96889 12.4267 5.08C12 4.19111 11.3778 3.48 10.56 2.94667C9.74222 2.41333 8.83556 2.12889 7.84 2.09333C6.88 2.02222 5.97333 2.2 5.12 2.62667C4.26667 3.05333 3.55556 3.67556 2.98667 4.49333C2.45333 5.31111 2.15111 6.2 2.08 7.16C2.00889 8.12 2.18667 9.04444 2.61333 9.93333C3.04 10.7867 3.64444 11.4978 4.42667 12.0667ZM8 4.01333H6.98667V8.97333H8V4.01333ZM8 9.98667H6.98667V11H8V9.98667Z" fill="#F14C4C"/>
</svg>
