<svg width="13" height="13" viewBox="0 0 13 13" fill="none" xmlns="http://www.w3.org/2000/svg">
<path d="M5.11333 8.84H5.67667L9.36 5.11333L8.79667 4.55L5.37333 7.97333L3.81333 6.41333L3.25 6.97667L5.11333 8.84ZM6.97667 0.823333C7.61222 0.852222 8.21889 1.01111 8.79667 1.3C9.40333 1.58889 9.93778 1.96444 10.4 2.42667C11.4978 3.61111 12.0467 4.99778 12.0467 6.58667C12.0467 7.82889 11.6133 9.01333 10.7467 10.14C10.3133 10.66 9.82222 11.0933 9.27333 11.44C8.72444 11.7578 8.13222 11.9744 7.49667 12.09C6.11 12.35 4.85333 12.1622 3.72667 11.5267C3.14889 11.2089 2.64333 10.8044 2.21 10.3133C1.77667 9.82222 1.44444 9.27333 1.21333 8.66667C0.982222 8.06 0.837778 7.42444 0.78 6.76C0.751111 6.09556 0.837778 5.46 1.04 4.85333C1.47333 3.52444 2.23889 2.49889 3.33667 1.77667C3.85667 1.43 4.42 1.17 5.02667 0.996666C5.66222 0.823333 6.31222 0.765556 6.97667 0.823333ZM7.41 11.31C8.50778 11.05 9.41778 10.4722 10.14 9.57667C10.8622 8.59444 11.1944 7.56889 11.1367 6.5C11.1367 5.83556 11.0067 5.2 10.7467 4.59333C10.5156 3.98667 10.1833 3.45222 9.75 2.99C8.91222 2.15222 7.94444 1.69 6.84667 1.60333C6.29778 1.57444 5.74889 1.63222 5.2 1.77667C4.65111 1.89222 4.16 2.10889 3.72667 2.42667C2.80222 3.12 2.16667 4.03 1.82 5.15667C1.50222 6.28333 1.57444 7.36667 2.03667 8.40667C2.52778 9.44667 3.26444 10.2411 4.24667 10.79C4.70889 11.0789 5.21444 11.2667 5.76333 11.3533C6.31222 11.44 6.86111 11.4256 7.41 11.31Z" fill="#73C991"/>
</svg>
