<svg width="24" height="24" viewBox="0 0 24 24" fill="none" xmlns="http://www.w3.org/2000/svg">
<path d="M5 15.18V7C5 4.79 6.79 3 9 3C11.21 3 13 4.79 13 7V17C13 18.1 13.9 19 15 19C16.1 19 17 18.1 17 17V8.82C15.84 8.4 15 7.3 15 6C15 4.34 16.34 3 18 3C19.66 3 21 4.34 21 6C21 7.3 20.16 8.4 19 8.82V17C19 19.21 17.21 21 15 21C12.79 21 11 19.21 11 17V7C11 5.9 10.1 5 9 5C7.9 5 7 5.9 7 7V15.18C8.16 15.59 9 16.69 9 18C9 19.66 7.66 21 6 21C4.34 21 3 19.66 3 18C3 16.7 3.84 15.6 5 15.18Z" fill="white"/>
</svg>
