<svg width="24" height="24" viewBox="0 0 24 24" fill="none" xmlns="http://www.w3.org/2000/svg">
<path d="M3 13.6504H10C10.1933 13.6504 10.3496 13.8067 10.3496 14V21C10.3496 21.1933 10.1933 21.3496 10 21.3496H3C2.8067 21.3496 2.65039 21.1933 2.65039 21V14C2.65039 13.8067 2.8067 13.6504 3 13.6504ZM14 13.6504H21C21.1933 13.6504 21.3496 13.8067 21.3496 14V21C21.3496 21.1933 21.1933 21.3496 21 21.3496H14C13.8067 21.3496 13.6504 21.1933 13.6504 21V14C13.6504 13.8067 13.8067 13.6504 14 13.6504ZM3 2.65039H10C10.1933 2.65039 10.3496 2.8067 10.3496 3V10C10.3496 10.1933 10.1933 10.3496 10 10.3496H3C2.8067 10.3496 2.65039 10.1933 2.65039 10V3C2.65039 2.8067 2.8067 2.65039 3 2.65039ZM14 2.65039H21C21.1933 2.65039 21.3496 2.8067 21.3496 3V10C21.3496 10.1933 21.1933 10.3496 21 10.3496H14C13.8067 10.3496 13.6504 10.1933 13.6504 10V3C13.6504 2.8067 13.8067 2.65039 14 2.65039Z" stroke="#C5C5C5"
        stroke-width="1.3"/>
</svg>