<svg width="24" height="24" viewBox="0 0 24 24" fill="none" xmlns="http://www.w3.org/2000/svg">
<path d="M5.4091 16.8638H4.30691V10.0654C4.30691 9.802 4.30691 9.57947 4.30691 9.39782C4.31545 9.21617 4.32399 9.04814 4.33254 8.89373C4.34108 8.73025 4.34963 8.56222 4.35817 8.38965C4.22147 8.53497 4.09758 8.65758 3.9865 8.75749C3.87543 8.8574 3.73445 8.98456 3.56357 9.13896L2.58954 9.98365L2 9.17984L4.47352 7.13624H5.4091V16.8638Z" fill="#C5C5C5"/>
<path d="M14.7939 16.8638H8.7447V15.8692L11.1413 13.2943C11.6027 12.8038 11.9915 12.3678 12.3076 11.9864C12.6237 11.6049 12.863 11.2325 13.0253 10.8692C13.1876 10.4968 13.2688 10.0926 13.2688 9.65668C13.2688 9.1208 13.1193 8.71662 12.8202 8.44414C12.5212 8.16258 12.1324 8.0218 11.654 8.0218C11.2097 8.0218 10.8166 8.10354 10.4749 8.26703C10.1417 8.43052 9.79989 8.65758 9.44959 8.94823L8.84723 8.14441C9.08646 7.92643 9.34706 7.73115 9.62901 7.55858C9.91951 7.38601 10.2314 7.24977 10.5646 7.14986C10.9064 7.04995 11.2695 7 11.654 7C12.2264 7 12.7177 7.10445 13.1278 7.31335C13.5379 7.52225 13.8541 7.82198 14.0762 8.21253C14.3069 8.59401 14.4223 9.05268 14.4223 9.58856C14.4223 9.97003 14.3667 10.3333 14.2556 10.6785C14.1446 11.0145 13.9865 11.346 13.7814 11.673C13.5764 12 13.3286 12.3315 13.0381 12.6676C12.7476 13.0036 12.4272 13.3533 12.0769 13.7166L10.1673 15.7193V15.7738H14.7939V16.8638Z" fill="#C5C5C5"/>
<path d="M21.718 9.41144C21.718 9.84741 21.6411 10.2243 21.4874 10.5422C21.3336 10.8601 21.1114 11.119 20.8209 11.3188C20.539 11.5186 20.2057 11.6594 19.8213 11.7411V11.7956C20.556 11.8865 21.1029 12.1317 21.4617 12.5313C21.8206 12.931 22 13.4532 22 14.0981C22 14.6612 21.8761 15.1653 21.6283 15.6104C21.3806 16.0463 20.9961 16.3869 20.4749 16.6322C19.9622 16.8774 19.3001 17 18.4884 17C18.0099 17 17.5656 16.9591 17.1555 16.8774C16.7454 16.8047 16.3523 16.6685 15.9764 16.4687V15.3515C16.3609 15.5513 16.7753 15.7103 17.2196 15.8283C17.6639 15.9373 18.0911 15.9918 18.5012 15.9918C19.3214 15.9918 19.911 15.8238 20.2698 15.4877C20.6372 15.1426 20.8209 14.6703 20.8209 14.0708C20.8209 13.6621 20.7184 13.3352 20.5133 13.0899C20.3168 12.8356 20.0263 12.6494 19.6418 12.5313C19.2573 12.4133 18.796 12.3542 18.2577 12.3542H17.3734V11.3324H18.2705C18.7746 11.3324 19.1933 11.2552 19.5265 11.1008C19.8682 10.9464 20.1246 10.733 20.2955 10.4605C20.4749 10.1789 20.5646 9.85649 20.5646 9.49319C20.5646 9.02089 20.4151 8.65758 20.116 8.40327C19.817 8.13987 19.4111 8.00817 18.8985 8.00817C18.5738 8.00817 18.279 8.04451 18.0142 8.11717C17.7493 8.18074 17.5015 8.27611 17.2708 8.40327C17.0487 8.52134 16.8223 8.66213 16.5916 8.82561L16.0277 8.00817C16.2498 7.82652 16.5019 7.65849 16.7838 7.50409C17.0743 7.34968 17.3947 7.22707 17.745 7.13624C18.0953 7.04541 18.4756 7 18.8857 7C19.8426 7 20.5518 7.22707 21.0132 7.6812C21.4831 8.13533 21.718 8.71208 21.718 9.41144Z" fill="#C5C5C5"/>
</svg>
