<?xml version="1.0" encoding="UTF-8"?>
<svg width="16px" height="16px" viewBox="0 0 16 16" version="1.1" xmlns="http://www.w3.org/2000/svg" xmlns:xlink="http://www.w3.org/1999/xlink">
    <title>Icon-Service/16/Amazon-CodeCatalyst_16</title>
    <g id="Icon-Service/16/Amazon-CodeCatalyst_16" stroke="none" stroke-width="1" fill="none" fill-rule="evenodd">
        <path d="M8.5,14.967 L8.5,12.973 C9.039,12.919 9.567,12.779 10.06,12.557 L11.528,14.047 C10.604,14.588 9.573,14.891 8.5,14.967 L8.5,14.967 Z M1,8 C1,4.309 3.874,1.283 7.5,1.025 L7.5,3.05 C4.98,3.305 3,5.414 3,8 C3,10.585 4.98,12.694 7.5,12.949 L7.5,14.974 C3.874,14.716 1,11.691 1,8 L1,8 Z M10.045,3.436 C9.558,3.218 9.033,3.107 8.5,3.053 L8.5,1.033 C9.573,1.108 10.605,1.411 11.529,1.952 L10.045,3.436 Z M10.518,11.597 C10.36,11.438 10.115,11.401 9.921,11.51 C9.336,11.83 8.672,12 8,12 C5.794,12 4,10.205 4,8 C4,5.794 5.794,4 8,4 C8.666,4 9.325,4.167 9.907,4.482 C10.103,4.587 10.344,4.553 10.499,4.396 L12.674,2.222 C12.778,2.118 12.831,1.973 12.818,1.826 C12.806,1.679 12.729,1.545 12.608,1.46 C11.257,0.505 9.663,0 8,0 C3.589,0 0,3.589 0,8 C0,12.411 3.589,16 8,16 C9.66,16 11.252,15.496 12.604,14.543 C12.725,14.458 12.802,14.325 12.814,14.178 C12.827,14.032 12.775,13.887 12.673,13.783 L10.518,11.597 Z M14.027,11.521 L12.544,10.048 C12.843,9.397 13,8.682 13,7.958 C13,7.236 12.844,6.522 12.545,5.871 L14.017,4.377 C14.662,5.457 15,6.683 15,7.958 C15,9.225 14.665,10.446 14.027,11.521 L14.027,11.521 Z M14.501,3.294 C14.415,3.174 14.28,3.098 14.134,3.087 C13.974,3.072 13.842,3.13 13.738,3.235 L11.58,5.425 C11.425,5.583 11.392,5.825 11.5,6.019 C11.827,6.608 12,7.278 12,7.958 C12,8.64 11.826,9.313 11.497,9.903 C11.388,10.098 11.422,10.343 11.581,10.501 L13.758,12.663 C13.852,12.757 13.979,12.809 14.11,12.809 C14.124,12.809 14.139,12.808 14.152,12.807 C14.299,12.795 14.433,12.719 14.518,12.599 C15.487,11.239 16,9.634 16,7.958 C16,6.271 15.481,4.658 14.501,3.294 L14.501,3.294 Z" id="Fill-1" fill="#232F3E"></path>
    </g>
</svg>