<svg width="16" height="16" viewBox="0 0 16 16" fill="none" xmlns="http://www.w3.org/2000/svg">
<path fill-rule="evenodd" clip-rule="evenodd" d="M8 2C6.68228 2 5.61 3.07228 5.61 4.39C5.61 5.70772 6.68228 6.78 8 6.78C9.31771 6.78 10.39 5.70772 10.39 4.39C10.39 3.07228 9.31772 2 8 2ZM3.61 4.39C3.61 1.96772 5.57771 0 8 0C10.4223 0 12.39 1.96771 12.39 4.39C12.39 5.66447 11.8453 6.81311 10.9762 7.61551C11.1666 7.71116 11.3535 7.81608 11.5368 7.93001C13.5215 9.15787 15 11.3598 15 14V15H1V14C1 11.147 2.63919 8.7213 4.99701 7.59061C4.14356 6.78943 3.61 5.65134 3.61 4.39ZM10.482 9.62922C9.71501 9.15233 8.88729 8.90797 8.00229 8.91L8 8.91C5.59623 8.91 3.5507 10.634 3.09474 13H12.8975C12.601 11.5742 11.6867 10.3744 10.484 9.63047L10.482 9.62922Z" fill="white"/>
</svg>

