<?xml version="1.0" encoding="UTF-8"?>
<svg width="16px" height="16px" viewBox="0 0 16 16" version="1.1" xmlns="http://www.w3.org/2000/svg" xmlns:xlink="http://www.w3.org/1999/xlink">
    <!-- Generator: Sketch 64 (93537) - https://sketch.com -->
    <title>lambda</title>
    <desc>Created with Sketch.</desc>
    <g id="Page-1" stroke="none" stroke-width="1" fill="none" fill-rule="evenodd">
        <g id="lambda" transform="translate(0.500000, 0.000000)" fill="currentColor" fill-rule="nonzero">
            <path d="M14.5745455,15.5733458 L10.8945455,15.5733458 C10.7062936,15.574681 10.5342789,15.4669355 10.4533333,15.2969697 L5.29454545,4.21333333 L3.20969697,4.21333333 C2.94192255,4.21333333 2.72484848,3.99625927 2.72484848,3.72848485 L2.72484848,0.543030303 C2.72484848,0.275255879 2.94192255,0.0581818182 3.20969697,0.0581818182 L7.81090909,0.0581818182 C7.99676089,0.0614525239 8.16438318,0.170689524 8.24242424,0.339393939 L13.3915152,11.4230303 L14.5745455,11.4230303 C14.8423199,11.4230303 15.0593939,11.6401044 15.0593939,11.9078788 L15.0593939,15.0884848 C15.0593939,15.3562593 14.8423199,15.5733458 14.5745455,15.5733458 Z M11.1806061,14.6036364 L14.089697,14.6036364 L14.089697,12.3927273 L13.0909091,12.3927273 C12.9015413,12.3931959 12.7292311,12.2833718 12.649697,12.1115152 L7.50545455,1.02787879 L3.69939394,1.02787879 L3.69939394,3.24363636 L5.60484848,3.24363636 C5.79421624,3.24316778 5.96652648,3.35299189 6.04606061,3.52484848 L11.1806061,14.6036364 Z" id="Shape"></path>
            <path d="M4.57212121,15.5733333 L0.635151515,15.5733333 C0.469009147,15.5728636 0.314676682,15.4873565 0.226179551,15.3467444 C0.137682421,15.2061323 0.127345711,15.0299984 0.198787879,14.88 L4.31515152,6.25939394 C4.39534675,6.09101392 4.5650136,5.98355825 4.75151515,5.98302933 L4.75151515,5.98302933 C4.93691884,5.98265926 5.10630137,6.08805284 5.18787879,6.25454545 L7.16121212,10.3272727 C7.22402981,10.4591649 7.22402981,10.6123503 7.16121212,10.7442424 L5.00848485,15.2969697 C4.92828961,15.4653497 4.75862276,15.5728054 4.57212121,15.5733333 L4.57212121,15.5733333 Z M1.40606061,14.6036364 L4.26181818,14.6036364 L6.20121212,10.5406061 L4.74666667,7.58787879 L1.40606061,14.6036364 Z" id="Shape"></path>
        </g>
    </g>
</svg>
