<?xml version="1.0" encoding="utf-8"?>
<svg viewBox="0 0 331.33334 334.66666" width="331.33334" height="334.66666" xmlns="http://www.w3.org/2000/svg">
  <g id="g47" transform="matrix(3.292798, 0, 0, 3.292798, -373.532135, -291.555695)" style="">
    <path style="fill:#8e9cbe;stroke-width:0.666667" d="M 143.015 176.353 C 132.023 169.961 122.466 164.638 122 164 C 121 163 121.333 156.877 121.333 138.91 C 121.333 115.467 121.337 115.404 122.833 113.77 C 125.1 111.296 162.504 90 164.583 90 C 166.589 90 204.963 111.908 206.852 114.132 C 207.88 115.342 208.008 116.847 208.004 124.103 L 208 133 C 205.541 134.44 202.367 135.693 200.034 137.039 C 199.662 136.885 199.965 136 199.979 128.212 C 200 117 200 119 198.461 117.893 C 196.94 116.8 165.941 99.333 164.617 99.333 C 163.364 99.333 133.571 116.302 131.5 118.195 C 130.01 119.557 130 119.694 130 139.082 L 130 158.599 L 132.167 160.201 C 133.358 161.082 140.65 165.448 148.37 169.902 C 158.625 175.819 163.003 178 164.624 178 C 166.24 178 170.834 175.719 181.587 169.578 C 189.698 164.946 196.769 160.091 197.757 159.389 C 199.924 157.848 200 158.666 200 153.17 L 200 145 C 203.395 143.114 206.372 141.713 208 141 C 208 143 208.001 146.586 207.879 152.706 C 207.67 163.233 207.639 163.433 206 164.672 C 201.967 167.721 165.892 187.999 164.521 187.987 C 163.685 187.98 154.007 182.745 143.015 176.353 Z M 150 163.107 L 137 155.581 L 136.818 143.457 C 136.689 134.812 136.852 131.333 137.387 131.333 C 137.799 131.333 139.606 132.158 141.401 133.167 L 144.665 135 L 144.666 142.397 C 144.666 146.728 144.802 149.871 145 151 C 149 153 149.012 152.979 154.054 155.902 C 165.237 162.384 163.712 162.385 174.983 155.897 L 184.646 150.334 L 184.656 138.817 L 184.667 127.299 L 182.833 128.257 C 181.825 128.783 177.55 131.19 173.333 133.604 C 169.117 136.018 165.201 137.995 164.632 137.997 C 163.505 138.001 141.748 125.853 139.809 124.136 C 139.153 123.557 139 123 138.809 122.134 C 139.087 120.755 160 110 164.598 107.334 C 166 108 176.667 113.876 176.667 113.876 C 174.296 115.606 171.998 117.245 170 119 C 166 117 166.512 117.3 164.539 116.359 C 161.366 118.302 160 119 154.667 122.407 C 157 124 162 127 164.617 128 C 167 127 167 127 175.401 122.91 C 185.374 118.055 184.277 117.388 189.978 120.986 L 192.69 122.698 L 192.512 139.084 L 192 155 L 179.333 163.032 C 172.348 167.462 166 170 164.667 170.614 C 163 170 157.325 167.348 150 163.108 L 150 163.107 Z" id="path353"/>
  </g>
</svg>