<?xml version="1.0" encoding="UTF-8" standalone="no"?><svg xmlns="http://www.w3.org/2000/svg" xmlns:xlink="http://www.w3.org/1999/xlink" contentScriptType="application/ecmascript" contentStyleType="text/css" height="612px" preserveAspectRatio="none" style="width:832px;height:612px;" version="1.1" viewBox="0 0 832 612" width="832px" zoomAndPan="magnify"><defs><filter height="300%" id="f1rgx3qsomswil" width="300%" x="-1" y="-1"><feGaussianBlur result="blurOut" stdDeviation="2.0"/><feColorMatrix in="blurOut" result="blurOut2" type="matrix" values="0 0 0 0 0 0 0 0 0 0 0 0 0 0 0 0 0 0 .4 0"/><feOffset dx="4.0" dy="4.0" in="blurOut2" result="blurOut3"/><feBlend in="SourceGraphic" in2="blurOut3" mode="normal"/></filter></defs><g><!--MD5=[1885e361826177cd4b9d088868619b09]
class AwsRegion--><rect fill="#FEFECE" filter="url(#f1rgx3qsomswil)" height="89.5078" id="AwsRegion" style="stroke: #A80036; stroke-width: 1.5;" width="104" x="120" y="8"/><ellipse cx="139.05" cy="24" fill="#ADD1B2" rx="11" ry="11" style="stroke: #A80036; stroke-width: 1.0;"/><path d="M141.8156,19.875 Q141.9719,19.6563 142.1594,19.5469 Q142.3469,19.4375 142.5656,19.4375 Q142.9406,19.4375 143.175,19.6953 Q143.4094,19.9531 143.4094,20.5625 L143.4094,22.0156 Q143.4094,22.625 143.175,22.8906 Q142.9406,23.1563 142.5656,23.1563 Q142.2219,23.1563 142.0188,22.9531 Q141.8156,22.7656 141.7063,22.25 Q141.6594,21.8906 141.4719,21.7031 Q141.1438,21.3281 140.5344,21.1094 Q139.925,20.8906 139.3,20.8906 Q138.5344,20.8906 137.9016,21.2188 Q137.2688,21.5469 136.7766,22.2969 Q136.2844,23.0469 136.2844,24.0781 L136.2844,25.1719 Q136.2844,26.4063 137.175,27.2266 Q138.0656,28.0469 139.6594,28.0469 Q140.5969,28.0469 141.2531,27.7969 Q141.6438,27.6406 142.0656,27.2031 Q142.3313,26.9375 142.4797,26.8594 Q142.6281,26.7813 142.8313,26.7813 Q143.1594,26.7813 143.4172,27.0391 Q143.675,27.2969 143.675,27.6406 Q143.675,27.9844 143.3313,28.3906 Q142.8313,28.9688 142.0344,29.2969 Q140.9563,29.75 139.6594,29.75 Q138.1438,29.75 136.9406,29.125 Q135.9563,28.625 135.2688,27.5547 Q134.5813,26.4844 134.5813,25.2031 L134.5813,24.0469 Q134.5813,22.7188 135.1984,21.5703 Q135.8156,20.4219 136.9094,19.8047 Q138.0031,19.1875 139.2375,19.1875 Q139.9719,19.1875 140.6203,19.3516 Q141.2688,19.5156 141.8156,19.875 Z "/><text fill="#000000" font-family="sans-serif" font-size="12" lengthAdjust="spacingAndGlyphs" textLength="63" x="153.95" y="28.9102">AwsRegion</text><line style="stroke: #A80036; stroke-width: 1.5;" x1="121" x2="223" y1="40" y2="40"/><ellipse cx="131" cy="51" fill="none" rx="3" ry="3" style="stroke: #038048; stroke-width: 1.0;"/><text fill="#000000" font-family="sans-serif" font-size="11" lengthAdjust="spacingAndGlyphs" textLength="78" x="140" y="55.4189">String partitionId</text><ellipse cx="131" cy="64.8359" fill="none" rx="3" ry="3" style="stroke: #038048; stroke-width: 1.0;"/><text fill="#000000" font-family="sans-serif" font-size="11" lengthAdjust="spacingAndGlyphs" textLength="58" x="140" y="69.2549">String name</text><ellipse cx="131" cy="78.6719" fill="none" rx="3" ry="3" style="stroke: #038048; stroke-width: 1.0;"/><text fill="#000000" font-family="sans-serif" font-size="11" lengthAdjust="spacingAndGlyphs" textLength="39" x="140" y="83.0908">String id</text><line style="stroke: #A80036; stroke-width: 1.5;" x1="121" x2="223" y1="89.5078" y2="89.5078"/><!--MD5=[5b7374d207a5c83ad3ed1b5419045eec]
class CredentialIdentifier--><rect fill="#FEFECE" filter="url(#f1rgx3qsomswil)" height="89.5078" id="CredentialIdentifier" style="stroke: #A80036; stroke-width: 1.5;" width="136" x="259" y="8"/><ellipse cx="274" cy="24" fill="#A9DCDF" rx="11" ry="11" style="stroke: #A80036; stroke-width: 1.0;"/><path d="M276.1875,25.7656 L272.0469,25.7656 L271.625,26.7969 L272.0469,26.7969 Q272.6563,26.7969 272.9219,27.0313 Q273.1875,27.2656 273.1875,27.6563 Q273.1875,28.0313 272.9219,28.2656 Q272.6563,28.5 272.0469,28.5 L269.75,28.5 Q269.1406,28.5 268.8828,28.2656 Q268.625,28.0313 268.625,27.6406 Q268.625,27.2656 268.8984,27.0234 Q269.1719,26.7813 269.7969,26.7969 L272.4688,20.1406 L271.3594,20.1406 Q270.75,20.1406 270.4844,19.9063 Q270.2188,19.6719 270.2188,19.2813 Q270.2188,18.9063 270.4844,18.6719 Q270.75,18.4375 271.3594,18.4375 L275.0313,18.4375 L278.4219,26.7969 Q279.0156,26.7969 279.2031,26.9375 Q279.5938,27.2031 279.5938,27.6563 Q279.5938,28.0313 279.3359,28.2656 Q279.0781,28.5 278.4688,28.5 L276.1719,28.5 Q275.5625,28.5 275.2969,28.2656 Q275.0313,28.0313 275.0313,27.6406 Q275.0313,27.2656 275.2969,27.0313 Q275.5625,26.7969 276.1719,26.7969 L276.5938,26.7969 L276.1875,25.7656 Z M275.4688,24.0625 L274.1094,20.6875 L272.7344,24.0625 L275.4688,24.0625 Z "/><text fill="#000000" font-family="sans-serif" font-size="12" font-style="italic" lengthAdjust="spacingAndGlyphs" textLength="104" x="288" y="28.9102">CredentialIdentifier</text><line style="stroke: #A80036; stroke-width: 1.5;" x1="260" x2="394" y1="40" y2="40"/><ellipse cx="270" cy="51" fill="none" rx="3" ry="3" style="stroke: #038048; stroke-width: 1.0;"/><text fill="#000000" font-family="sans-serif" font-size="11" lengthAdjust="spacingAndGlyphs" textLength="74" x="279" y="55.4189">String factoryId</text><ellipse cx="270" cy="64.8359" fill="none" rx="3" ry="3" style="stroke: #038048; stroke-width: 1.0;"/><text fill="#000000" font-family="sans-serif" font-size="11" lengthAdjust="spacingAndGlyphs" textLength="94" x="279" y="69.2549">String displayName</text><ellipse cx="270" cy="78.6719" fill="none" rx="3" ry="3" style="stroke: #038048; stroke-width: 1.0;"/><text fill="#000000" font-family="sans-serif" font-size="11" lengthAdjust="spacingAndGlyphs" textLength="39" x="279" y="83.0908">String id</text><line style="stroke: #A80036; stroke-width: 1.5;" x1="260" x2="394" y1="89.5078" y2="89.5078"/><!--MD5=[6d8afcd9e6557b4477268f7aef75265b]
class CredentialsChangeEvent--><rect fill="#FEFECE" filter="url(#f1rgx3qsomswil)" height="89.5078" id="CredentialsChangeEvent" style="stroke: #A80036; stroke-width: 1.5;" width="194" x="75" y="176"/><ellipse cx="100.8" cy="192" fill="#ADD1B2" rx="11" ry="11" style="stroke: #A80036; stroke-width: 1.0;"/><path d="M103.5656,187.875 Q103.7219,187.6563 103.9094,187.5469 Q104.0969,187.4375 104.3156,187.4375 Q104.6906,187.4375 104.925,187.6953 Q105.1594,187.9531 105.1594,188.5625 L105.1594,190.0156 Q105.1594,190.625 104.925,190.8906 Q104.6906,191.1563 104.3156,191.1563 Q103.9719,191.1563 103.7688,190.9531 Q103.5656,190.7656 103.4563,190.25 Q103.4094,189.8906 103.2219,189.7031 Q102.8938,189.3281 102.2844,189.1094 Q101.675,188.8906 101.05,188.8906 Q100.2844,188.8906 99.6516,189.2188 Q99.0188,189.5469 98.5266,190.2969 Q98.0344,191.0469 98.0344,192.0781 L98.0344,193.1719 Q98.0344,194.4063 98.925,195.2266 Q99.8156,196.0469 101.4094,196.0469 Q102.3469,196.0469 103.0031,195.7969 Q103.3938,195.6406 103.8156,195.2031 Q104.0813,194.9375 104.2297,194.8594 Q104.3781,194.7813 104.5813,194.7813 Q104.9094,194.7813 105.1672,195.0391 Q105.425,195.2969 105.425,195.6406 Q105.425,195.9844 105.0813,196.3906 Q104.5813,196.9688 103.7844,197.2969 Q102.7063,197.75 101.4094,197.75 Q99.8938,197.75 98.6906,197.125 Q97.7063,196.625 97.0188,195.5547 Q96.3313,194.4844 96.3313,193.2031 L96.3313,192.0469 Q96.3313,190.7188 96.9484,189.5703 Q97.5656,188.4219 98.6594,187.8047 Q99.7531,187.1875 100.9875,187.1875 Q101.7219,187.1875 102.3703,187.3516 Q103.0188,187.5156 103.5656,187.875 Z "/><text fill="#000000" font-family="sans-serif" font-size="12" lengthAdjust="spacingAndGlyphs" textLength="138" x="117.2" y="196.9102">CredentialsChangeEvent</text><line style="stroke: #A80036; stroke-width: 1.5;" x1="76" x2="268" y1="208" y2="208"/><ellipse cx="86" cy="219" fill="none" rx="3" ry="3" style="stroke: #038048; stroke-width: 1.0;"/><text fill="#000000" font-family="sans-serif" font-size="11" lengthAdjust="spacingAndGlyphs" textLength="158" x="95" y="223.4189">added: List&lt;CredentialIdentifier&gt;,</text><ellipse cx="86" cy="232.8359" fill="none" rx="3" ry="3" style="stroke: #038048; stroke-width: 1.0;"/><text fill="#000000" font-family="sans-serif" font-size="11" lengthAdjust="spacingAndGlyphs" textLength="168" x="95" y="237.2549">modified: List&lt;CredentialIdentifier&gt;,</text><ellipse cx="86" cy="246.6719" fill="none" rx="3" ry="3" style="stroke: #038048; stroke-width: 1.0;"/><text fill="#000000" font-family="sans-serif" font-size="11" lengthAdjust="spacingAndGlyphs" textLength="168" x="95" y="251.0908">removed: List&lt;CredentialIdentifier&gt;</text><line style="stroke: #A80036; stroke-width: 1.5;" x1="76" x2="268" y1="257.5078" y2="257.5078"/><!--MD5=[5d65491a17d662873f0d2801e5fd9918]
class CredentialsChangeListener--><rect fill="#FEFECE" filter="url(#f1rgx3qsomswil)" height="61.8359" id="CredentialsChangeListener" style="stroke: #A80036; stroke-width: 1.5;" width="201" x="6.5" y="358"/><ellipse cx="29.6" cy="374" fill="#B4A7E5" rx="11" ry="11" style="stroke: #A80036; stroke-width: 1.0;"/><path d="M30.5531,370.6406 L30.5531,377.2969 L32.2719,377.2969 Q32.8813,377.2969 33.1469,377.5313 Q33.4125,377.7656 33.4125,378.1563 Q33.4125,378.5313 33.1469,378.7656 Q32.8813,379 32.2719,379 L27.1313,379 Q26.5219,379 26.2563,378.7656 Q25.9906,378.5313 25.9906,378.1406 Q25.9906,377.7656 26.2563,377.5313 Q26.5219,377.2969 27.1313,377.2969 L28.85,377.2969 L28.85,370.6406 L27.1313,370.6406 Q26.5219,370.6406 26.2563,370.4063 Q25.9906,370.1719 25.9906,369.7813 Q25.9906,369.4063 26.2563,369.1719 Q26.5219,368.9375 27.1313,368.9375 L32.2719,368.9375 Q32.8813,368.9375 33.1469,369.1719 Q33.4125,369.4063 33.4125,369.7813 Q33.4125,370.1719 33.1469,370.4063 Q32.8813,370.6406 32.2719,370.6406 L30.5531,370.6406 Z "/><text fill="#000000" font-family="sans-serif" font-size="12" font-style="italic" lengthAdjust="spacingAndGlyphs" textLength="151" x="45.4" y="378.9102">CredentialsChangeListener</text><line style="stroke: #A80036; stroke-width: 1.5;" x1="7.5" x2="206.5" y1="390" y2="390"/><line style="stroke: #A80036; stroke-width: 1.5;" x1="7.5" x2="206.5" y1="398" y2="398"/><ellipse cx="17.5" cy="409" fill="#84BE84" rx="3" ry="3" style="stroke: #038048; stroke-width: 1.0;"/><text fill="#000000" font-family="sans-serif" font-size="11" lengthAdjust="spacingAndGlyphs" textLength="175" x="26.5" y="413.4189">onChange(CredentialsChangeEvent</text><!--MD5=[0030afbfe6474a729c5c30c849c2a55a]
class CredentialManager--><rect fill="#FEFECE" filter="url(#f1rgx3qsomswil)" height="89.5078" id="CredentialManager" style="stroke: #A80036; stroke-width: 1.5;" width="442" x="6" y="512"/><ellipse cx="169.75" cy="528" fill="#A9DCDF" rx="11" ry="11" style="stroke: #A80036; stroke-width: 1.0;"/><path d="M171.9375,529.7656 L167.7969,529.7656 L167.375,530.7969 L167.7969,530.7969 Q168.4063,530.7969 168.6719,531.0313 Q168.9375,531.2656 168.9375,531.6563 Q168.9375,532.0313 168.6719,532.2656 Q168.4063,532.5 167.7969,532.5 L165.5,532.5 Q164.8906,532.5 164.6328,532.2656 Q164.375,532.0313 164.375,531.6406 Q164.375,531.2656 164.6484,531.0234 Q164.9219,530.7813 165.5469,530.7969 L168.2188,524.1406 L167.1094,524.1406 Q166.5,524.1406 166.2344,523.9063 Q165.9688,523.6719 165.9688,523.2813 Q165.9688,522.9063 166.2344,522.6719 Q166.5,522.4375 167.1094,522.4375 L170.7813,522.4375 L174.1719,530.7969 Q174.7656,530.7969 174.9531,530.9375 Q175.3438,531.2031 175.3438,531.6563 Q175.3438,532.0313 175.0859,532.2656 Q174.8281,532.5 174.2188,532.5 L171.9219,532.5 Q171.3125,532.5 171.0469,532.2656 Q170.7813,532.0313 170.7813,531.6406 Q170.7813,531.2656 171.0469,531.0313 Q171.3125,530.7969 171.9219,530.7969 L172.3438,530.7969 L171.9375,529.7656 Z M171.2188,528.0625 L169.8594,524.6875 L168.4844,528.0625 L171.2188,528.0625 Z "/><text fill="#000000" font-family="sans-serif" font-size="12" font-style="italic" lengthAdjust="spacingAndGlyphs" textLength="106" x="190.25" y="532.9102">CredentialManager</text><line style="stroke: #A80036; stroke-width: 1.5;" x1="7" x2="447" y1="544" y2="544"/><line style="stroke: #A80036; stroke-width: 1.5;" x1="7" x2="447" y1="552" y2="552"/><ellipse cx="17" cy="563" fill="#84BE84" rx="3" ry="3" style="stroke: #038048; stroke-width: 1.0;"/><text fill="#000000" font-family="sans-serif" font-size="11" lengthAdjust="spacingAndGlyphs" textLength="241" x="26" y="567.4189">List&lt;CredentialIdentifier&gt; getCredentialIdentifiers()</text><ellipse cx="17" cy="576.8359" fill="#84BE84" rx="3" ry="3" style="stroke: #038048; stroke-width: 1.0;"/><text fill="#000000" font-family="sans-serif" font-size="11" lengthAdjust="spacingAndGlyphs" textLength="283" x="26" y="581.2549">ToolkitCredentialsProvider getCredentialProvider(String id)</text><ellipse cx="17" cy="590.6719" fill="#84BE84" rx="3" ry="3" style="stroke: #038048; stroke-width: 1.0;"/><text fill="#000000" font-family="sans-serif" font-size="11" lengthAdjust="spacingAndGlyphs" textLength="416" x="26" y="595.0908">ToolkitCredentialsProvider getAwsCredentialProvider(CredentialIdentifier, AwsRegion)</text><!--MD5=[451b459bf30b8e599d0de9f7f4d6726d]
class CredentialProviderFactory--><rect fill="#FEFECE" filter="url(#f1rgx3qsomswil)" height="89.5078" id="CredentialProviderFactory" style="stroke: #A80036; stroke-width: 1.5;" width="579" x="242.5" y="344"/><ellipse cx="456.25" cy="360" fill="#A9DCDF" rx="11" ry="11" style="stroke: #A80036; stroke-width: 1.0;"/><path d="M458.4375,361.7656 L454.2969,361.7656 L453.875,362.7969 L454.2969,362.7969 Q454.9063,362.7969 455.1719,363.0313 Q455.4375,363.2656 455.4375,363.6563 Q455.4375,364.0313 455.1719,364.2656 Q454.9063,364.5 454.2969,364.5 L452,364.5 Q451.3906,364.5 451.1328,364.2656 Q450.875,364.0313 450.875,363.6406 Q450.875,363.2656 451.1484,363.0234 Q451.4219,362.7813 452.0469,362.7969 L454.7188,356.1406 L453.6094,356.1406 Q453,356.1406 452.7344,355.9063 Q452.4688,355.6719 452.4688,355.2813 Q452.4688,354.9063 452.7344,354.6719 Q453,354.4375 453.6094,354.4375 L457.2813,354.4375 L460.6719,362.7969 Q461.2656,362.7969 461.4531,362.9375 Q461.8438,363.2031 461.8438,363.6563 Q461.8438,364.0313 461.5859,364.2656 Q461.3281,364.5 460.7188,364.5 L458.4219,364.5 Q457.8125,364.5 457.5469,364.2656 Q457.2813,364.0313 457.2813,363.6406 Q457.2813,363.2656 457.5469,363.0313 Q457.8125,362.7969 458.4219,362.7969 L458.8438,362.7969 L458.4375,361.7656 Z M457.7188,360.0625 L456.3594,356.6875 L454.9844,360.0625 L457.7188,360.0625 Z "/><text fill="#000000" font-family="sans-serif" font-size="12" font-style="italic" lengthAdjust="spacingAndGlyphs" textLength="143" x="476.75" y="364.9102">CredentialProviderFactory</text><line style="stroke: #A80036; stroke-width: 1.5;" x1="243.5" x2="820.5" y1="376" y2="376"/><polygon fill="none" points="253.5,383,249.5,389,257.5,389" style="stroke: #1963A0; stroke-width: 1.0;"/><text fill="#000000" font-family="sans-serif" font-size="11" lengthAdjust="spacingAndGlyphs" textLength="39" x="262.5" y="391.4189">String id</text><line style="stroke: #A80036; stroke-width: 1.5;" x1="243.5" x2="820.5" y1="397.8359" y2="397.8359"/><ellipse cx="253.5" cy="408.8359" fill="#84BE84" rx="3" ry="3" style="stroke: #038048; stroke-width: 1.0;"/><text fill="#000000" font-family="sans-serif" font-size="11" lengthAdjust="spacingAndGlyphs" textLength="235" x="262.5" y="413.2549">void setUp(callback CredentialsChangeListener)</text><ellipse cx="253.5" cy="422.6719" fill="#84BE84" rx="3" ry="3" style="stroke: #038048; stroke-width: 1.0;"/><text fill="#000000" font-family="sans-serif" font-size="11" lengthAdjust="spacingAndGlyphs" textLength="553" x="262.5" y="427.0908">ToolkitCredentialsProvider createAwsCredentialProvider(CredentialIdentifier, AwsRegion, Suppier&lt;SdkHttpClient&gt;)</text><!--MD5=[11399213e4cbadb1e3a505dacea02544]
class ToolkitCredentialsProvider--><rect fill="#FEFECE" filter="url(#f1rgx3qsomswil)" height="75.6719" id="ToolkitCredentialsProvider" style="stroke: #A80036; stroke-width: 1.5;" width="177" x="443.5" y="183"/><ellipse cx="458.5" cy="199" fill="#A9DCDF" rx="11" ry="11" style="stroke: #A80036; stroke-width: 1.0;"/><path d="M460.6875,200.7656 L456.5469,200.7656 L456.125,201.7969 L456.5469,201.7969 Q457.1563,201.7969 457.4219,202.0313 Q457.6875,202.2656 457.6875,202.6563 Q457.6875,203.0313 457.4219,203.2656 Q457.1563,203.5 456.5469,203.5 L454.25,203.5 Q453.6406,203.5 453.3828,203.2656 Q453.125,203.0313 453.125,202.6406 Q453.125,202.2656 453.3984,202.0234 Q453.6719,201.7813 454.2969,201.7969 L456.9688,195.1406 L455.8594,195.1406 Q455.25,195.1406 454.9844,194.9063 Q454.7188,194.6719 454.7188,194.2813 Q454.7188,193.9063 454.9844,193.6719 Q455.25,193.4375 455.8594,193.4375 L459.5313,193.4375 L462.9219,201.7969 Q463.5156,201.7969 463.7031,201.9375 Q464.0938,202.2031 464.0938,202.6563 Q464.0938,203.0313 463.8359,203.2656 Q463.5781,203.5 462.9688,203.5 L460.6719,203.5 Q460.0625,203.5 459.7969,203.2656 Q459.5313,203.0313 459.5313,202.6406 Q459.5313,202.2656 459.7969,202.0313 Q460.0625,201.7969 460.6719,201.7969 L461.0938,201.7969 L460.6875,200.7656 Z M459.9688,199.0625 L458.6094,195.6875 L457.2344,199.0625 L459.9688,199.0625 Z "/><text fill="#000000" font-family="sans-serif" font-size="12" font-style="italic" lengthAdjust="spacingAndGlyphs" textLength="145" x="472.5" y="203.9102">ToolkitCredentialsProvider</text><line style="stroke: #A80036; stroke-width: 1.5;" x1="444.5" x2="619.5" y1="215" y2="215"/><ellipse cx="454.5" cy="226" fill="none" rx="3" ry="3" style="stroke: #038048; stroke-width: 1.0;"/><text fill="#000000" font-family="sans-serif" font-size="11" lengthAdjust="spacingAndGlyphs" textLength="94" x="463.5" y="230.4189">String displayName</text><ellipse cx="454.5" cy="239.8359" fill="none" rx="3" ry="3" style="stroke: #038048; stroke-width: 1.0;"/><text fill="#000000" font-family="sans-serif" font-size="11" lengthAdjust="spacingAndGlyphs" textLength="39" x="463.5" y="244.2549">String id</text><line style="stroke: #A80036; stroke-width: 1.5;" x1="444.5" x2="619.5" y1="250.6719" y2="250.6719"/><!--MD5=[498172f79df63217d8c5e88ba13feb44]
class AwsCredentialsProvider--><rect fill="#FEFECE" filter="url(#f1rgx3qsomswil)" height="61.8359" id="AwsCredentialsProvider" style="stroke: #A80036; stroke-width: 1.5;" width="204" x="430" y="22"/><ellipse cx="463" cy="38" fill="#A9DCDF" rx="11" ry="11" style="stroke: #A80036; stroke-width: 1.0;"/><path d="M465.1875,39.7656 L461.0469,39.7656 L460.625,40.7969 L461.0469,40.7969 Q461.6563,40.7969 461.9219,41.0313 Q462.1875,41.2656 462.1875,41.6563 Q462.1875,42.0313 461.9219,42.2656 Q461.6563,42.5 461.0469,42.5 L458.75,42.5 Q458.1406,42.5 457.8828,42.2656 Q457.625,42.0313 457.625,41.6406 Q457.625,41.2656 457.8984,41.0234 Q458.1719,40.7813 458.7969,40.7969 L461.4688,34.1406 L460.3594,34.1406 Q459.75,34.1406 459.4844,33.9063 Q459.2188,33.6719 459.2188,33.2813 Q459.2188,32.9063 459.4844,32.6719 Q459.75,32.4375 460.3594,32.4375 L464.0313,32.4375 L467.4219,40.7969 Q468.0156,40.7969 468.2031,40.9375 Q468.5938,41.2031 468.5938,41.6563 Q468.5938,42.0313 468.3359,42.2656 Q468.0781,42.5 467.4688,42.5 L465.1719,42.5 Q464.5625,42.5 464.2969,42.2656 Q464.0313,42.0313 464.0313,41.6406 Q464.0313,41.2656 464.2969,41.0313 Q464.5625,40.7969 465.1719,40.7969 L465.5938,40.7969 L465.1875,39.7656 Z M464.4688,38.0625 L463.1094,34.6875 L461.7344,38.0625 L464.4688,38.0625 Z "/><text fill="#000000" font-family="sans-serif" font-size="12" font-style="italic" lengthAdjust="spacingAndGlyphs" textLength="132" x="481" y="42.9102">AwsCredentialsProvider</text><line style="stroke: #A80036; stroke-width: 1.5;" x1="431" x2="633" y1="54" y2="54"/><line style="stroke: #A80036; stroke-width: 1.5;" x1="431" x2="633" y1="62" y2="62"/><ellipse cx="441" cy="73" fill="#84BE84" rx="3" ry="3" style="stroke: #038048; stroke-width: 1.0;"/><text fill="#000000" font-family="sans-serif" font-size="11" font-style="italic" lengthAdjust="spacingAndGlyphs" textLength="178" x="450" y="77.4189">AwsCredentials resolveCredentials()</text><!--MD5=[5a888642dfe987f39984b64e7ef5ce06]
reverse link CredentialsChangeListener to CredentialManager--><path d="M140.671,436.579 C157.699,460.133 178.254,488.568 195.036,511.7825 " fill="none" id="CredentialsChangeListener&lt;-CredentialManager" style="stroke: #A80036; stroke-width: 1.0; stroke-dasharray: 7.0,7.0;"/><polygon fill="none" points="134.775,440.371,128.731,420.061,146.121,432.169,134.775,440.371" style="stroke: #A80036; stroke-width: 1.0;"/><!--MD5=[c7d08587549eff58cd59c23529ef84f3]
reverse link AwsCredentialsProvider to ToolkitCredentialsProvider--><path d="M532,89.074 C532,116.61 532,154.854 532,182.899 " fill="none" id="AwsCredentialsProvider&lt;-ToolkitCredentialsProvider" style="stroke: #A80036; stroke-width: 1.0;"/><polygon fill="#A80036" points="532,84.061,528,93.061,532,89.061,536,93.061,532,84.061" style="stroke: #A80036; stroke-width: 1.0;"/><text fill="#000000" font-family="sans-serif" font-size="13" lengthAdjust="spacingAndGlyphs" textLength="64" x="533" y="142.4951">Inheritance</text><!--MD5=[1ff95b4d8e6a5265bfc476aa8e9de358]
reverse link ToolkitCredentialsProvider to CredentialProviderFactory--><path d="M532,272.488 C532,295.236 532,321.855 532,343.803 " fill="none" id="ToolkitCredentialsProvider&lt;-CredentialProviderFactory" style="stroke: #A80036; stroke-width: 1.0;"/><polygon fill="#FFFFFF" points="532,259.254,528,265.254,532,271.254,536,265.254,532,259.254" style="stroke: #A80036; stroke-width: 1.0;"/><text fill="#000000" font-family="sans-serif" font-size="13" lengthAdjust="spacingAndGlyphs" textLength="45" x="533" y="310.4951">Creates</text><text fill="#000000" font-family="sans-serif" font-size="13" lengthAdjust="spacingAndGlyphs" textLength="32" x="497.45" y="280.175">many</text><text fill="#000000" font-family="sans-serif" font-size="13" lengthAdjust="spacingAndGlyphs" textLength="7" x="524.4641" y="333.2169">1</text><!--MD5=[90e32ad70ed29ded681355a3896a48ae]
reverse link CredentialProviderFactory to CredentialManager--><path d="M439.452,440.37 C397.553,463.175 348.472,489.887 308.047,511.8892 " fill="none" id="CredentialProviderFactory&lt;-CredentialManager" style="stroke: #A80036; stroke-width: 1.0;"/><polygon fill="#FFFFFF" points="451.066,434.049,443.8838,433.4037,440.5258,439.7852,447.708,440.4305,451.066,434.049" style="stroke: #A80036; stroke-width: 1.0;"/><text fill="#000000" font-family="sans-serif" font-size="13" lengthAdjust="spacingAndGlyphs" textLength="33" x="389" y="478.4951">Owns</text><text fill="#000000" font-family="sans-serif" font-size="13" lengthAdjust="spacingAndGlyphs" textLength="32" x="405.4347" y="455.0635">many</text><text fill="#000000" font-family="sans-serif" font-size="13" lengthAdjust="spacingAndGlyphs" textLength="7" x="313.4061" y="500.9868">1</text><!--MD5=[ecda066fe48e055376506b0c8a47f24f]
link AwsRegion to CredentialIdentifier--><!--MD5=[fb55b10c3abc6a84359bde43b2460f7b]
link AwsRegion to CredentialsChangeEvent--><!--MD5=[0ac048b2055adda6bb7c7effdb8a329b]
@startuml
top to bottom direction

class AwsRegion {
  +String partitionId
  +String name
  +String id
}

abstract class CredentialIdentifier {
  +String factoryId
  +String displayName
  +String id
}

class CredentialsChangeEvent {
    +added: List<CredentialIdentifier>,
    +modified: List<CredentialIdentifier>,
    +removed: List<CredentialIdentifier>
}

interface CredentialsChangeListener {
    +onChange(CredentialsChangeEvent
}

abstract class CredentialManager implements CredentialsChangeListener {
  +List<CredentialIdentifier> getCredentialIdentifiers()
  +ToolkitCredentialsProvider getCredentialProvider(String id)
  +ToolkitCredentialsProvider getAwsCredentialProvider(CredentialIdentifier, AwsRegion)
}

abstract class CredentialProviderFactory {
  ~String id
  +void setUp(callback CredentialsChangeListener)
  +ToolkitCredentialsProvider createAwsCredentialProvider(CredentialIdentifier, AwsRegion, Suppier<SdkHttpClient>)
}

abstract class ToolkitCredentialsProvider {
  +String displayName
  +String id
}

abstract class AwsCredentialsProvider {
  {abstract} +AwsCredentials resolveCredentials()
}

AwsCredentialsProvider <- - ToolkitCredentialsProvider: Inheritance
ToolkitCredentialsProvider "many" o- - "1" CredentialProviderFactory: Creates
CredentialProviderFactory "many" o- - "1" CredentialManager: Owns
@enduml

PlantUML version 1.2020.10(Sun May 17 02:35:57 PDT 2020)
(GPL source distribution)
Java Runtime: OpenJDK Runtime Environment
JVM: OpenJDK 64-Bit Server VM
Java Version: 1.8.0_222-b10
Operating System: Windows 10
Default Encoding: Cp1252
Language: en
Country: US
--></g></svg>
