<?xml version="1.0" encoding="UTF-8" standalone="no"?><svg xmlns="http://www.w3.org/2000/svg" xmlns:xlink="http://www.w3.org/1999/xlink" contentScriptType="application/ecmascript" contentStyleType="text/css" height="588px" preserveAspectRatio="none" style="width:1010px;height:588px;" version="1.1" viewBox="0 0 1010 588" width="1010px" zoomAndPan="magnify"><defs><filter height="300%" id="fbutchcsxzm57" width="300%" x="-1" y="-1"><feGaussianBlur result="blurOut" stdDeviation="2.0"/><feColorMatrix in="blurOut" result="blurOut2" type="matrix" values="0 0 0 0 0 0 0 0 0 0 0 0 0 0 0 0 0 0 .4 0"/><feOffset dx="4.0" dy="4.0" in="blurOut2" result="blurOut3"/><feBlend in="SourceGraphic" in2="blurOut3" mode="normal"/></filter></defs><g><!--MD5=[1885e361826177cd4b9d088868619b09]
class AwsRegion--><rect codeLine="4" fill="#FEFECE" filter="url(#fbutchcsxzm57)" height="86.4141" id="AwsRegion" style="stroke: #A80036; stroke-width: 1.5;" width="119" x="134.5" y="7"/><ellipse cx="158.95" cy="23" fill="#ADD1B2" rx="11" ry="11" style="stroke: #A80036; stroke-width: 1.0;"/><path d="M161.2938,18.6719 C160.3563,18.2344 159.7625,18.0938 158.8875,18.0938 C156.2625,18.0938 154.2625,20.1719 154.2625,22.8906 L154.2625,24.0156 C154.2625,26.5938 156.3719,28.4844 159.2625,28.4844 C160.4813,28.4844 161.6375,28.1875 162.3875,27.6406 C162.9656,27.2344 163.2938,26.7813 163.2938,26.3906 C163.2938,25.9375 162.9031,25.5469 162.4344,25.5469 C162.2156,25.5469 162.0125,25.625 161.825,25.8125 C161.3719,26.2969 161.3719,26.2969 161.1844,26.3906 C160.7625,26.6563 160.075,26.7813 159.3094,26.7813 C157.2625,26.7813 155.9656,25.6875 155.9656,23.9844 L155.9656,22.8906 C155.9656,21.1094 157.2156,19.7969 158.95,19.7969 C159.5281,19.7969 160.1375,19.9531 160.6063,20.2031 C161.0906,20.4844 161.2625,20.7031 161.3563,21.1094 C161.4188,21.5156 161.45,21.6406 161.5906,21.7656 C161.7313,21.9063 161.9656,22.0156 162.1844,22.0156 C162.45,22.0156 162.7156,21.875 162.8875,21.6563 C162.9969,21.5 163.0281,21.3125 163.0281,20.8906 L163.0281,19.4688 C163.0281,19.0313 163.0125,18.9063 162.9188,18.75 C162.7625,18.4844 162.4813,18.3438 162.1844,18.3438 C161.8875,18.3438 161.6844,18.4375 161.4656,18.75 L161.2938,18.6719 Z "/><text fill="#000000" font-family="sans-serif" font-size="12" lengthAdjust="spacingAndGlyphs" textLength="66" x="175.05" y="27.1543">AwsRegion</text><line style="stroke: #A80036; stroke-width: 1.5;" x1="135.5" x2="252.5" y1="39" y2="39"/><ellipse cx="145.5" cy="50" fill="none" rx="3" ry="3" style="stroke: #038048; stroke-width: 1.0;"/><text fill="#000000" font-family="sans-serif" font-size="11" lengthAdjust="spacingAndGlyphs" textLength="93" x="154.5" y="53.2104">String partitionId</text><ellipse cx="145.5" cy="62.8047" fill="none" rx="3" ry="3" style="stroke: #038048; stroke-width: 1.0;"/><text fill="#000000" font-family="sans-serif" font-size="11" lengthAdjust="spacingAndGlyphs" textLength="70" x="154.5" y="66.0151">String name</text><ellipse cx="145.5" cy="75.6094" fill="none" rx="3" ry="3" style="stroke: #038048; stroke-width: 1.0;"/><text fill="#000000" font-family="sans-serif" font-size="11" lengthAdjust="spacingAndGlyphs" textLength="47" x="154.5" y="78.8198">String id</text><line style="stroke: #A80036; stroke-width: 1.5;" x1="135.5" x2="252.5" y1="85.4141" y2="85.4141"/><!--MD5=[cf8372452464626536968f2313affb15]
class ToolkitCredentialsIdentifier--><rect codeLine="10" fill="#FEFECE" filter="url(#fbutchcsxzm57)" height="86.4141" id="ToolkitCredentialsIdentifier" style="stroke: #A80036; stroke-width: 1.5;" width="192" x="289" y="7"/><ellipse cx="304" cy="23" fill="#A9DCDF" rx="11" ry="11" style="stroke: #A80036; stroke-width: 1.0;"/><path d="M306.0781,24.8125 L306.4688,25.7969 L306.0781,25.7969 C305.625,25.7969 305.5156,25.8125 305.3594,25.9219 C305.1094,26.0781 304.9531,26.3594 304.9531,26.6563 C304.9531,26.9219 305.0938,27.1719 305.3125,27.3281 C305.4531,27.4531 305.6563,27.5 306.0781,27.5 L308.4375,27.5 C308.7969,27.5 309.0156,27.4688 309.1563,27.375 C309.4063,27.2344 309.5625,26.9375 309.5625,26.6563 C309.5625,26.375 309.4219,26.125 309.2031,25.9688 C309.0313,25.8281 308.875,25.7969 308.4063,25.7969 L305.0156,17.5938 L301.3438,17.5938 C300.8906,17.5938 300.7656,17.6094 300.6094,17.7031 C300.3594,17.875 300.2031,18.1563 300.2031,18.4375 C300.2031,18.7188 300.3438,18.9688 300.5625,19.1406 C300.7344,19.25 300.9063,19.2813 301.3438,19.2813 L302.4219,19.2813 L299.7813,25.7969 C299.3594,25.7969 299.2031,25.8125 299.0469,25.9219 C298.7969,26.0781 298.6406,26.3594 298.6406,26.6563 C298.6406,27.2188 299.0156,27.5 299.7656,27.5 L302.0313,27.5 C302.3906,27.5 302.6094,27.4688 302.7344,27.375 C303,27.2344 303.1406,26.9375 303.1406,26.6563 C303.1406,26.375 303.0156,26.125 302.7969,25.9531 C302.625,25.8281 302.4844,25.7969 302.0313,25.7969 L301.6406,25.7969 L302.0313,24.8125 L306.0781,24.8125 Z M305.375,23.1094 L302.7031,23.1094 L304.0469,19.8438 L305.375,23.1094 Z "/><text fill="#000000" font-family="sans-serif" font-size="12" font-style="italic" lengthAdjust="spacingAndGlyphs" textLength="160" x="318" y="27.1543">ToolkitCredentialsIdentifier</text><line style="stroke: #A80036; stroke-width: 1.5;" x1="290" x2="480" y1="39" y2="39"/><ellipse cx="300" cy="50" fill="none" rx="3" ry="3" style="stroke: #038048; stroke-width: 1.0;"/><text fill="#000000" font-family="sans-serif" font-size="11" lengthAdjust="spacingAndGlyphs" textLength="86" x="309" y="53.2104">String factoryId</text><ellipse cx="300" cy="62.8047" fill="none" rx="3" ry="3" style="stroke: #038048; stroke-width: 1.0;"/><text fill="#000000" font-family="sans-serif" font-size="11" lengthAdjust="spacingAndGlyphs" textLength="111" x="309" y="66.0151">String displayName</text><ellipse cx="300" cy="75.6094" fill="none" rx="3" ry="3" style="stroke: #038048; stroke-width: 1.0;"/><text fill="#000000" font-family="sans-serif" font-size="11" lengthAdjust="spacingAndGlyphs" textLength="47" x="309" y="78.8198">String id</text><line style="stroke: #A80036; stroke-width: 1.5;" x1="290" x2="480" y1="85.4141" y2="85.4141"/><!--MD5=[6d8afcd9e6557b4477268f7aef75265b]
class CredentialsChangeEvent--><rect codeLine="16" fill="#FEFECE" filter="url(#fbutchcsxzm57)" height="86.4141" id="CredentialsChangeEvent" style="stroke: #A80036; stroke-width: 1.5;" width="276" x="56" y="170"/><ellipse cx="116.75" cy="186" fill="#ADD1B2" rx="11" ry="11" style="stroke: #A80036; stroke-width: 1.0;"/><path d="M119.0938,181.6719 C118.1563,181.2344 117.5625,181.0938 116.6875,181.0938 C114.0625,181.0938 112.0625,183.1719 112.0625,185.8906 L112.0625,187.0156 C112.0625,189.5938 114.1719,191.4844 117.0625,191.4844 C118.2813,191.4844 119.4375,191.1875 120.1875,190.6406 C120.7656,190.2344 121.0938,189.7813 121.0938,189.3906 C121.0938,188.9375 120.7031,188.5469 120.2344,188.5469 C120.0156,188.5469 119.8125,188.625 119.625,188.8125 C119.1719,189.2969 119.1719,189.2969 118.9844,189.3906 C118.5625,189.6563 117.875,189.7813 117.1094,189.7813 C115.0625,189.7813 113.7656,188.6875 113.7656,186.9844 L113.7656,185.8906 C113.7656,184.1094 115.0156,182.7969 116.75,182.7969 C117.3281,182.7969 117.9375,182.9531 118.4063,183.2031 C118.8906,183.4844 119.0625,183.7031 119.1563,184.1094 C119.2188,184.5156 119.25,184.6406 119.3906,184.7656 C119.5313,184.9063 119.7656,185.0156 119.9844,185.0156 C120.25,185.0156 120.5156,184.875 120.6875,184.6563 C120.7969,184.5 120.8281,184.3125 120.8281,183.8906 L120.8281,182.4688 C120.8281,182.0313 120.8125,181.9063 120.7188,181.75 C120.5625,181.4844 120.2813,181.3438 119.9844,181.3438 C119.6875,181.3438 119.4844,181.4375 119.2656,181.75 L119.0938,181.6719 Z "/><text fill="#000000" font-family="sans-serif" font-size="12" lengthAdjust="spacingAndGlyphs" textLength="146" x="137.25" y="190.1543">CredentialsChangeEvent</text><line style="stroke: #A80036; stroke-width: 1.5;" x1="57" x2="331" y1="202" y2="202"/><ellipse cx="67" cy="213" fill="none" rx="3" ry="3" style="stroke: #038048; stroke-width: 1.0;"/><text fill="#000000" font-family="sans-serif" font-size="11" lengthAdjust="spacingAndGlyphs" textLength="236" x="76" y="216.2104">added: List&lt;ToolkitCredentialsIdentifier&gt;,</text><ellipse cx="67" cy="225.8047" fill="none" rx="3" ry="3" style="stroke: #038048; stroke-width: 1.0;"/><text fill="#000000" font-family="sans-serif" font-size="11" lengthAdjust="spacingAndGlyphs" textLength="250" x="76" y="229.0151">modified: List&lt;ToolkitCredentialsIdentifier&gt;,</text><ellipse cx="67" cy="238.6094" fill="none" rx="3" ry="3" style="stroke: #038048; stroke-width: 1.0;"/><text fill="#000000" font-family="sans-serif" font-size="11" lengthAdjust="spacingAndGlyphs" textLength="249" x="76" y="241.8198">removed: List&lt;ToolkitCredentialsIdentifier&gt;</text><line style="stroke: #A80036; stroke-width: 1.5;" x1="57" x2="331" y1="248.4141" y2="248.4141"/><!--MD5=[5d65491a17d662873f0d2801e5fd9918]
class CredentialsChangeListener--><rect codeLine="22" fill="#FEFECE" filter="url(#fbutchcsxzm57)" height="60.8047" id="CredentialsChangeListener" style="stroke: #A80036; stroke-width: 1.5;" width="230" x="7" y="345.5"/><ellipse cx="38.65" cy="361.5" fill="#B4A7E5" rx="11" ry="11" style="stroke: #A80036; stroke-width: 1.0;"/><path d="M39.6031,358.2813 L41.3219,358.2813 C41.7125,358.2813 41.9,358.25 42.025,358.1719 C42.2906,358.0156 42.4313,357.7344 42.4313,357.4375 C42.4313,357.1719 42.3219,356.9063 42.0875,356.7344 C41.9156,356.625 41.775,356.5938 41.3219,356.5938 L36.1813,356.5938 C35.7438,356.5938 35.6188,356.6094 35.4625,356.7031 C35.2125,356.8594 35.0563,357.1563 35.0563,357.4375 C35.0563,357.7188 35.1969,357.9688 35.4156,358.1406 C35.5719,358.25 35.7594,358.2813 36.1813,358.2813 L37.9,358.2813 L37.9,364.7969 L36.1813,364.7969 C35.7438,364.7969 35.6188,364.8125 35.4625,364.9219 C35.2125,365.0781 35.0563,365.3594 35.0563,365.6563 C35.0563,365.9063 35.1969,366.1719 35.4156,366.3281 C35.5719,366.4531 35.775,366.5 36.1813,366.5 L41.3219,366.5 C42.0719,366.5 42.4313,366.2188 42.4313,365.6563 C42.4313,365.375 42.3219,365.125 42.0875,364.9531 C41.9156,364.8281 41.775,364.7969 41.3219,364.7969 L39.6031,364.7969 L39.6031,358.2813 Z "/><text fill="#000000" font-family="sans-serif" font-size="12" font-style="italic" lengthAdjust="spacingAndGlyphs" textLength="161" x="56.35" y="365.6543">CredentialsChangeListener</text><line style="stroke: #A80036; stroke-width: 1.5;" x1="8" x2="236" y1="377.5" y2="377.5"/><line style="stroke: #A80036; stroke-width: 1.5;" x1="8" x2="236" y1="385.5" y2="385.5"/><ellipse cx="18" cy="396.5" fill="#84BE84" rx="3" ry="3" style="stroke: #038048; stroke-width: 1.0;"/><text fill="#000000" font-family="sans-serif" font-size="11" lengthAdjust="spacingAndGlyphs" textLength="204" x="27" y="399.7104">onChange(CredentialsChangeEvent</text><!--MD5=[0030afbfe6474a729c5c30c849c2a55a]
class CredentialManager--><rect codeLine="26" fill="#FEFECE" filter="url(#fbutchcsxzm57)" height="73.6094" id="CredentialManager" style="stroke: #A80036; stroke-width: 1.5;" width="363" x="82.5" y="496"/><ellipse cx="203.25" cy="512" fill="#A9DCDF" rx="11" ry="11" style="stroke: #A80036; stroke-width: 1.0;"/><path d="M205.3281,513.8125 L205.7188,514.7969 L205.3281,514.7969 C204.875,514.7969 204.7656,514.8125 204.6094,514.9219 C204.3594,515.0781 204.2031,515.3594 204.2031,515.6563 C204.2031,515.9219 204.3438,516.1719 204.5625,516.3281 C204.7031,516.4531 204.9063,516.5 205.3281,516.5 L207.6875,516.5 C208.0469,516.5 208.2656,516.4688 208.4063,516.375 C208.6563,516.2344 208.8125,515.9375 208.8125,515.6563 C208.8125,515.375 208.6719,515.125 208.4531,514.9688 C208.2813,514.8281 208.125,514.7969 207.6563,514.7969 L204.2656,506.5938 L200.5938,506.5938 C200.1406,506.5938 200.0156,506.6094 199.8594,506.7031 C199.6094,506.875 199.4531,507.1563 199.4531,507.4375 C199.4531,507.7188 199.5938,507.9688 199.8125,508.1406 C199.9844,508.25 200.1563,508.2813 200.5938,508.2813 L201.6719,508.2813 L199.0313,514.7969 C198.6094,514.7969 198.4531,514.8125 198.2969,514.9219 C198.0469,515.0781 197.8906,515.3594 197.8906,515.6563 C197.8906,516.2188 198.2656,516.5 199.0156,516.5 L201.2813,516.5 C201.6406,516.5 201.8594,516.4688 201.9844,516.375 C202.25,516.2344 202.3906,515.9375 202.3906,515.6563 C202.3906,515.375 202.2656,515.125 202.0469,514.9531 C201.875,514.8281 201.7344,514.7969 201.2813,514.7969 L200.8906,514.7969 L201.2813,513.8125 L205.3281,513.8125 Z M204.625,512.1094 L201.9531,512.1094 L203.2969,508.8438 L204.625,512.1094 Z "/><text fill="#000000" font-family="sans-serif" font-size="12" font-style="italic" lengthAdjust="spacingAndGlyphs" textLength="113" x="223.75" y="516.1543">CredentialManager</text><line style="stroke: #A80036; stroke-width: 1.5;" x1="83.5" x2="444.5" y1="528" y2="528"/><line style="stroke: #A80036; stroke-width: 1.5;" x1="83.5" x2="444.5" y1="536" y2="536"/><ellipse cx="93.5" cy="547" fill="#84BE84" rx="3" ry="3" style="stroke: #038048; stroke-width: 1.0;"/><text fill="#000000" font-family="sans-serif" font-size="11" lengthAdjust="spacingAndGlyphs" textLength="337" x="102.5" y="550.2104">List&lt;ToolkitCredentialsIdentifier&gt; getCredentialIdentifiers()</text><ellipse cx="93.5" cy="559.8047" fill="#84BE84" rx="3" ry="3" style="stroke: #038048; stroke-width: 1.0;"/><text fill="#000000" font-family="sans-serif" font-size="11" lengthAdjust="spacingAndGlyphs" textLength="331" x="102.5" y="563.0151">ToolkitCredentialsProvider getCredentialProvider(String id)</text><!--MD5=[451b459bf30b8e599d0de9f7f4d6726d]
class CredentialProviderFactory--><rect codeLine="31" fill="#FEFECE" filter="url(#fbutchcsxzm57)" height="86.4141" id="CredentialProviderFactory" style="stroke: #A80036; stroke-width: 1.5;" width="719" x="272.5" y="333"/><ellipse cx="550.25" cy="349" fill="#A9DCDF" rx="11" ry="11" style="stroke: #A80036; stroke-width: 1.0;"/><path d="M552.3281,350.8125 L552.7188,351.7969 L552.3281,351.7969 C551.875,351.7969 551.7656,351.8125 551.6094,351.9219 C551.3594,352.0781 551.2031,352.3594 551.2031,352.6563 C551.2031,352.9219 551.3438,353.1719 551.5625,353.3281 C551.7031,353.4531 551.9063,353.5 552.3281,353.5 L554.6875,353.5 C555.0469,353.5 555.2656,353.4688 555.4063,353.375 C555.6563,353.2344 555.8125,352.9375 555.8125,352.6563 C555.8125,352.375 555.6719,352.125 555.4531,351.9688 C555.2813,351.8281 555.125,351.7969 554.6563,351.7969 L551.2656,343.5938 L547.5938,343.5938 C547.1406,343.5938 547.0156,343.6094 546.8594,343.7031 C546.6094,343.875 546.4531,344.1563 546.4531,344.4375 C546.4531,344.7188 546.5938,344.9688 546.8125,345.1406 C546.9844,345.25 547.1563,345.2813 547.5938,345.2813 L548.6719,345.2813 L546.0313,351.7969 C545.6094,351.7969 545.4531,351.8125 545.2969,351.9219 C545.0469,352.0781 544.8906,352.3594 544.8906,352.6563 C544.8906,353.2188 545.2656,353.5 546.0156,353.5 L548.2813,353.5 C548.6406,353.5 548.8594,353.4688 548.9844,353.375 C549.25,353.2344 549.3906,352.9375 549.3906,352.6563 C549.3906,352.375 549.2656,352.125 549.0469,351.9531 C548.875,351.8281 548.7344,351.7969 548.2813,351.7969 L547.8906,351.7969 L548.2813,350.8125 L552.3281,350.8125 Z M551.625,349.1094 L548.9531,349.1094 L550.2969,345.8438 L551.625,349.1094 Z "/><text fill="#000000" font-family="sans-serif" font-size="12" font-style="italic" lengthAdjust="spacingAndGlyphs" textLength="155" x="570.75" y="353.1543">CredentialProviderFactory</text><line style="stroke: #A80036; stroke-width: 1.5;" x1="273.5" x2="990.5" y1="365" y2="365"/><polygon fill="none" points="283.5,372,279.5,378,287.5,378" style="stroke: #1963A0; stroke-width: 1.0;"/><text fill="#000000" font-family="sans-serif" font-size="11" lengthAdjust="spacingAndGlyphs" textLength="47" x="292.5" y="379.2104">String id</text><line style="stroke: #A80036; stroke-width: 1.5;" x1="273.5" x2="990.5" y1="385.8047" y2="385.8047"/><ellipse cx="283.5" cy="396.8047" fill="#84BE84" rx="3" ry="3" style="stroke: #038048; stroke-width: 1.0;"/><text fill="#000000" font-family="sans-serif" font-size="11" lengthAdjust="spacingAndGlyphs" textLength="273" x="292.5" y="400.0151">void setUp(callback CredentialsChangeListener)</text><ellipse cx="283.5" cy="409.6094" fill="#84BE84" rx="3" ry="3" style="stroke: #038048; stroke-width: 1.0;"/><text fill="#000000" font-family="sans-serif" font-size="11" lengthAdjust="spacingAndGlyphs" textLength="693" x="292.5" y="412.8198">ToolkitCredentialsProvider createAwsCredentialProvider(ToolkitCredentialsIdentifier, AwsRegion, Suppier&lt;SdkHttpClient&gt;)</text><!--MD5=[11399213e4cbadb1e3a505dacea02544]
class ToolkitCredentialsProvider--><rect codeLine="37" fill="#FEFECE" filter="url(#fbutchcsxzm57)" height="73.6094" id="ToolkitCredentialsProvider" style="stroke: #A80036; stroke-width: 1.5;" width="187" x="538.5" y="176"/><ellipse cx="553.5" cy="192" fill="#A9DCDF" rx="11" ry="11" style="stroke: #A80036; stroke-width: 1.0;"/><path d="M555.5781,193.8125 L555.9688,194.7969 L555.5781,194.7969 C555.125,194.7969 555.0156,194.8125 554.8594,194.9219 C554.6094,195.0781 554.4531,195.3594 554.4531,195.6563 C554.4531,195.9219 554.5938,196.1719 554.8125,196.3281 C554.9531,196.4531 555.1563,196.5 555.5781,196.5 L557.9375,196.5 C558.2969,196.5 558.5156,196.4688 558.6563,196.375 C558.9063,196.2344 559.0625,195.9375 559.0625,195.6563 C559.0625,195.375 558.9219,195.125 558.7031,194.9688 C558.5313,194.8281 558.375,194.7969 557.9063,194.7969 L554.5156,186.5938 L550.8438,186.5938 C550.3906,186.5938 550.2656,186.6094 550.1094,186.7031 C549.8594,186.875 549.7031,187.1563 549.7031,187.4375 C549.7031,187.7188 549.8438,187.9688 550.0625,188.1406 C550.2344,188.25 550.4063,188.2813 550.8438,188.2813 L551.9219,188.2813 L549.2813,194.7969 C548.8594,194.7969 548.7031,194.8125 548.5469,194.9219 C548.2969,195.0781 548.1406,195.3594 548.1406,195.6563 C548.1406,196.2188 548.5156,196.5 549.2656,196.5 L551.5313,196.5 C551.8906,196.5 552.1094,196.4688 552.2344,196.375 C552.5,196.2344 552.6406,195.9375 552.6406,195.6563 C552.6406,195.375 552.5156,195.125 552.2969,194.9531 C552.125,194.8281 551.9844,194.7969 551.5313,194.7969 L551.1406,194.7969 L551.5313,193.8125 L555.5781,193.8125 Z M554.875,192.1094 L552.2031,192.1094 L553.5469,188.8438 L554.875,192.1094 Z "/><text fill="#000000" font-family="sans-serif" font-size="12" font-style="italic" lengthAdjust="spacingAndGlyphs" textLength="155" x="567.5" y="196.1543">ToolkitCredentialsProvider</text><line style="stroke: #A80036; stroke-width: 1.5;" x1="539.5" x2="724.5" y1="208" y2="208"/><ellipse cx="549.5" cy="219" fill="none" rx="3" ry="3" style="stroke: #038048; stroke-width: 1.0;"/><text fill="#000000" font-family="sans-serif" font-size="11" lengthAdjust="spacingAndGlyphs" textLength="111" x="558.5" y="222.2104">String displayName</text><ellipse cx="549.5" cy="231.8047" fill="none" rx="3" ry="3" style="stroke: #038048; stroke-width: 1.0;"/><text fill="#000000" font-family="sans-serif" font-size="11" lengthAdjust="spacingAndGlyphs" textLength="47" x="558.5" y="235.0151">String id</text><line style="stroke: #A80036; stroke-width: 1.5;" x1="539.5" x2="724.5" y1="241.6094" y2="241.6094"/><!--MD5=[498172f79df63217d8c5e88ba13feb44]
class AwsCredentialsProvider--><rect codeLine="42" fill="#FEFECE" filter="url(#fbutchcsxzm57)" height="60.8047" id="AwsCredentialsProvider" style="stroke: #A80036; stroke-width: 1.5;" width="231" x="516.5" y="19.5"/><ellipse cx="558.05" cy="35.5" fill="#A9DCDF" rx="11" ry="11" style="stroke: #A80036; stroke-width: 1.0;"/><path d="M560.1281,37.3125 L560.5188,38.2969 L560.1281,38.2969 C559.675,38.2969 559.5656,38.3125 559.4094,38.4219 C559.1594,38.5781 559.0031,38.8594 559.0031,39.1563 C559.0031,39.4219 559.1438,39.6719 559.3625,39.8281 C559.5031,39.9531 559.7063,40 560.1281,40 L562.4875,40 C562.8469,40 563.0656,39.9688 563.2063,39.875 C563.4563,39.7344 563.6125,39.4375 563.6125,39.1563 C563.6125,38.875 563.4719,38.625 563.2531,38.4688 C563.0813,38.3281 562.925,38.2969 562.4563,38.2969 L559.0656,30.0938 L555.3938,30.0938 C554.9406,30.0938 554.8156,30.1094 554.6594,30.2031 C554.4094,30.375 554.2531,30.6563 554.2531,30.9375 C554.2531,31.2188 554.3938,31.4688 554.6125,31.6406 C554.7844,31.75 554.9563,31.7813 555.3938,31.7813 L556.4719,31.7813 L553.8313,38.2969 C553.4094,38.2969 553.2531,38.3125 553.0969,38.4219 C552.8469,38.5781 552.6906,38.8594 552.6906,39.1563 C552.6906,39.7188 553.0656,40 553.8156,40 L556.0813,40 C556.4406,40 556.6594,39.9688 556.7844,39.875 C557.05,39.7344 557.1906,39.4375 557.1906,39.1563 C557.1906,38.875 557.0656,38.625 556.8469,38.4531 C556.675,38.3281 556.5344,38.2969 556.0813,38.2969 L555.6906,38.2969 L556.0813,37.3125 L560.1281,37.3125 Z M559.425,35.6094 L556.7531,35.6094 L558.0969,32.3438 L559.425,35.6094 Z "/><text fill="#000000" font-family="sans-serif" font-size="12" font-style="italic" lengthAdjust="spacingAndGlyphs" textLength="140" x="577.95" y="39.6543">AwsCredentialsProvider</text><line style="stroke: #A80036; stroke-width: 1.5;" x1="517.5" x2="746.5" y1="51.5" y2="51.5"/><line style="stroke: #A80036; stroke-width: 1.5;" x1="517.5" x2="746.5" y1="59.5" y2="59.5"/><ellipse cx="527.5" cy="70.5" fill="#84BE84" rx="3" ry="3" style="stroke: #038048; stroke-width: 1.0;"/><text fill="#000000" font-family="sans-serif" font-size="11" font-style="italic" lengthAdjust="spacingAndGlyphs" textLength="205" x="536.5" y="73.7104">AwsCredentials resolveCredentials()</text><!--MD5=[5a888642dfe987f39984b64e7ef5ce06]
reverse link CredentialsChangeListener to CredentialManager--><path d="M162.783,421.516 C184.352,445.06 210.495,473.5969 230.809,495.7702 " fill="none" id="CredentialsChangeListener&lt;-CredentialManager" style="stroke: #A80036; stroke-width: 1.0; stroke-dasharray: 7.0,7.0;"/><polygon fill="none" points="157.392,425.995,149.043,406.519,167.715,416.538,157.392,425.995" style="stroke: #A80036; stroke-width: 1.0;"/><!--MD5=[c7d08587549eff58cd59c23529ef84f3]
reverse link AwsCredentialsProvider to ToolkitCredentialsProvider--><path codeLine="46" d="M632,85.713 C632,112.326 632,148.94 632,175.894 " fill="none" id="AwsCredentialsProvider&lt;-ToolkitCredentialsProvider" style="stroke: #A80036; stroke-width: 1.0;"/><polygon fill="#A80036" points="632,80.53,628,89.53,632,85.53,636,89.53,632,80.53" style="stroke: #A80036; stroke-width: 1.0;"/><text fill="#000000" font-family="sans-serif" font-size="13" lengthAdjust="spacingAndGlyphs" textLength="71" x="633" y="136.0669">Inheritance</text><!--MD5=[1ff95b4d8e6a5265bfc476aa8e9de358]
reverse link ToolkitCredentialsProvider to CredentialProviderFactory--><path codeLine="47" d="M632,263.382 C632,285.557 632,311.454 632,332.719 " fill="none" id="ToolkitCredentialsProvider&lt;-CredentialProviderFactory" style="stroke: #A80036; stroke-width: 1.0;"/><polygon fill="#FFFFFF" points="632,250.132,628,256.132,632,262.132,636,256.132,632,250.132" style="stroke: #A80036; stroke-width: 1.0;"/><text fill="#000000" font-family="sans-serif" font-size="13" lengthAdjust="spacingAndGlyphs" textLength="50" x="633" y="299.0669">Creates</text><text fill="#000000" font-family="sans-serif" font-size="13" lengthAdjust="spacingAndGlyphs" textLength="37" x="591.9359" y="269.6344">many</text><text fill="#000000" font-family="sans-serif" font-size="13" lengthAdjust="spacingAndGlyphs" textLength="8" x="623.3875" y="321.9885">1</text><!--MD5=[90e32ad70ed29ded681355a3896a48ae]
reverse link CredentialProviderFactory to CredentialManager--><path codeLine="48" d="M519.704,424.299 C465.022,447.331 400.324,474.581 349.688,495.9084 " fill="none" id="CredentialProviderFactory&lt;-CredentialManager" style="stroke: #A80036; stroke-width: 1.0;"/><polygon fill="#FFFFFF" points="531.928,419.15,524.8458,417.7926,520.8689,423.8079,527.9511,425.1653,531.928,419.15" style="stroke: #A80036; stroke-width: 1.0;"/><text fill="#000000" font-family="sans-serif" font-size="13" lengthAdjust="spacingAndGlyphs" textLength="36" x="460" y="462.0669">Owns</text><text fill="#000000" font-family="sans-serif" font-size="13" lengthAdjust="spacingAndGlyphs" textLength="37" x="475.2895" y="439.5825">many</text><text fill="#000000" font-family="sans-serif" font-size="13" lengthAdjust="spacingAndGlyphs" textLength="8" x="356.7492" y="484.802">1</text><!--MD5=[7f568b425b3c925811e45ae7de4897f8]
link AwsRegion to ToolkitCredentialsIdentifier--><!--MD5=[fb55b10c3abc6a84359bde43b2460f7b]
link AwsRegion to CredentialsChangeEvent--><!--MD5=[82b93298a6fb594952f12b0a828afe6a]
@startuml
'default
top to bottom direction

class AwsRegion {
  +String partitionId
  +String name
  +String id
}

abstract class ToolkitCredentialsIdentifier {
  +String factoryId
  +String displayName
  +String id
}

class CredentialsChangeEvent {
    +added: List<ToolkitCredentialsIdentifier>,
    +modified: List<ToolkitCredentialsIdentifier>,
    +removed: List<ToolkitCredentialsIdentifier>
}

interface CredentialsChangeListener {
    +onChange(CredentialsChangeEvent
}

abstract class CredentialManager implements CredentialsChangeListener {
  +List<ToolkitCredentialsIdentifier> getCredentialIdentifiers()
  +ToolkitCredentialsProvider getCredentialProvider(String id)
}

abstract class CredentialProviderFactory {
  ~String id
  +void setUp(callback CredentialsChangeListener)
  +ToolkitCredentialsProvider createAwsCredentialProvider(ToolkitCredentialsIdentifier, AwsRegion, Suppier<SdkHttpClient>)
}

abstract class ToolkitCredentialsProvider {
  +String displayName
  +String id
}

abstract class AwsCredentialsProvider {
  {abstract} +AwsCredentials resolveCredentials()
}

AwsCredentialsProvider <- - ToolkitCredentialsProvider: Inheritance
ToolkitCredentialsProvider "many" o- - "1" CredentialProviderFactory: Creates
CredentialProviderFactory "many" o- - "1" CredentialManager: Owns
@enduml

@startuml
top to bottom direction

class AwsRegion {
  +String partitionId
  +String name
  +String id
}

abstract class ToolkitCredentialsIdentifier {
  +String factoryId
  +String displayName
  +String id
}

class CredentialsChangeEvent {
    +added: List<ToolkitCredentialsIdentifier>,
    +modified: List<ToolkitCredentialsIdentifier>,
    +removed: List<ToolkitCredentialsIdentifier>
}

interface CredentialsChangeListener {
    +onChange(CredentialsChangeEvent
}

abstract class CredentialManager implements CredentialsChangeListener {
  +List<ToolkitCredentialsIdentifier> getCredentialIdentifiers()
  +ToolkitCredentialsProvider getCredentialProvider(String id)
}

abstract class CredentialProviderFactory {
  ~String id
  +void setUp(callback CredentialsChangeListener)
  +ToolkitCredentialsProvider createAwsCredentialProvider(ToolkitCredentialsIdentifier, AwsRegion, Suppier<SdkHttpClient>)
}

abstract class ToolkitCredentialsProvider {
  +String displayName
  +String id
}

abstract class AwsCredentialsProvider {
  {abstract} +AwsCredentials resolveCredentials()
}

AwsCredentialsProvider <- - ToolkitCredentialsProvider: Inheritance
ToolkitCredentialsProvider "many" o- - "1" CredentialProviderFactory: Creates
CredentialProviderFactory "many" o- - "1" CredentialManager: Owns
@enduml

PlantUML version 1.2020.16beta3(Unknown compile time)
(GPL source distribution)
Java Runtime: Java(TM) SE Runtime Environment
JVM: Java HotSpot(TM) 64-Bit Server VM
Default Encoding: UTF-8
Language: en
Country: US
--></g></svg>
