<?xml version="1.0" encoding="UTF-8" standalone="no"?><svg xmlns="http://www.w3.org/2000/svg" xmlns:xlink="http://www.w3.org/1999/xlink" contentScriptType="application/ecmascript" contentStyleType="text/css" height="612px" preserveAspectRatio="none" style="width:826px;height:612px;" version="1.1" viewBox="0 0 826 612" width="826px" zoomAndPan="magnify"><defs><filter height="300%" id="f1c5vnu1r0ccjs" width="300%" x="-1" y="-1"><feGaussianBlur result="blurOut" stdDeviation="2.0"/><feColorMatrix in="blurOut" result="blurOut2" type="matrix" values="0 0 0 0 0 0 0 0 0 0 0 0 0 0 0 0 0 0 .4 0"/><feOffset dx="4.0" dy="4.0" in="blurOut2" result="blurOut3"/><feBlend in="SourceGraphic" in2="blurOut3" mode="normal"/></filter></defs><g><!--MD5=[1885e361826177cd4b9d088868619b09]
class AwsRegion--><rect fill="#FEFECE" filter="url(#f1c5vnu1r0ccjs)" height="89.5078" id="AwsRegion" style="stroke: #A80036; stroke-width: 1.5;" width="103" x="114.5" y="8"/><ellipse cx="133.1" cy="24" fill="#ADD1B2" rx="11" ry="11" style="stroke: #A80036; stroke-width: 1.0;"/><path d="M135.8656,19.875 Q136.0219,19.6563 136.2094,19.5469 Q136.3969,19.4375 136.6156,19.4375 Q136.9906,19.4375 137.225,19.7031 Q137.4594,19.9531 137.4594,20.5625 L137.4594,22.0156 Q137.4594,22.625 137.225,22.8906 Q136.9906,23.1563 136.6156,23.1563 Q136.2719,23.1563 136.0688,22.9531 Q135.8656,22.7656 135.7563,22.25 Q135.7094,21.8906 135.5219,21.7031 Q135.1938,21.3281 134.5844,21.1094 Q133.975,20.8906 133.35,20.8906 Q132.5844,20.8906 131.9438,21.2188 Q131.3188,21.5469 130.8188,22.2969 Q130.3344,23.0469 130.3344,24.0781 L130.3344,25.1719 Q130.3344,26.4063 131.225,27.2344 Q132.1156,28.0469 133.7094,28.0469 Q134.6469,28.0469 135.3031,27.7969 Q135.6938,27.6406 136.1156,27.2031 Q136.3813,26.9375 136.5219,26.8594 Q136.6781,26.7813 136.8813,26.7813 Q137.2094,26.7813 137.4594,27.0469 Q137.725,27.2969 137.725,27.6406 Q137.725,27.9844 137.3813,28.3906 Q136.8813,28.9688 136.0844,29.2969 Q135.0063,29.75 133.7094,29.75 Q132.1938,29.75 130.9906,29.125 Q130.0063,28.625 129.3188,27.5625 Q128.6313,26.4844 128.6313,25.2031 L128.6313,24.0469 Q128.6313,22.7188 129.2406,21.5781 Q129.8656,20.4219 130.9594,19.8125 Q132.0531,19.1875 133.2875,19.1875 Q134.0219,19.1875 134.6625,19.3594 Q135.3188,19.5156 135.8656,19.875 Z "/><text fill="#000000" font-family="sans-serif" font-size="12" lengthAdjust="spacingAndGlyphs" textLength="63" x="147.9" y="28.9102">AwsRegion</text><line style="stroke: #A80036; stroke-width: 1.5;" x1="115.5" x2="216.5" y1="40" y2="40"/><ellipse cx="125.5" cy="51" fill="none" rx="3" ry="3" style="stroke: #038048; stroke-width: 1.0;"/><text fill="#000000" font-family="sans-serif" font-size="11" lengthAdjust="spacingAndGlyphs" textLength="77" x="134.5" y="55.4189">String partitionId</text><ellipse cx="125.5" cy="64.8359" fill="none" rx="3" ry="3" style="stroke: #038048; stroke-width: 1.0;"/><text fill="#000000" font-family="sans-serif" font-size="11" lengthAdjust="spacingAndGlyphs" textLength="57" x="134.5" y="69.2549">String name</text><ellipse cx="125.5" cy="78.6719" fill="none" rx="3" ry="3" style="stroke: #038048; stroke-width: 1.0;"/><text fill="#000000" font-family="sans-serif" font-size="11" lengthAdjust="spacingAndGlyphs" textLength="39" x="134.5" y="83.0908">String id</text><line style="stroke: #A80036; stroke-width: 1.5;" x1="115.5" x2="216.5" y1="89.5078" y2="89.5078"/><!--MD5=[5b7374d207a5c83ad3ed1b5419045eec]
class CredentialIdentifier--><rect fill="#FEFECE" filter="url(#f1c5vnu1r0ccjs)" height="89.5078" id="CredentialIdentifier" style="stroke: #A80036; stroke-width: 1.5;" width="137" x="252.5" y="8"/><ellipse cx="267.5" cy="24" fill="#A9DCDF" rx="11" ry="11" style="stroke: #A80036; stroke-width: 1.0;"/><path d="M269.6875,25.7656 L265.5469,25.7656 L265.125,26.7969 L265.5469,26.7969 Q266.1563,26.7969 266.4219,27.0313 Q266.6875,27.2656 266.6875,27.6563 Q266.6875,28.0313 266.4219,28.2656 Q266.1563,28.5 265.5469,28.5 L263.25,28.5 Q262.6406,28.5 262.3906,28.2656 Q262.125,28.0313 262.125,27.6406 Q262.125,27.2656 262.4063,27.0313 Q262.6719,26.7813 263.2969,26.7969 L265.9688,20.1406 L264.8594,20.1406 Q264.25,20.1406 263.9844,19.9063 Q263.7188,19.6719 263.7188,19.2813 Q263.7188,18.9063 263.9844,18.6719 Q264.25,18.4375 264.8594,18.4375 L268.5313,18.4375 L271.9219,26.7969 Q272.5156,26.7969 272.7031,26.9375 Q273.0938,27.2031 273.0938,27.6563 Q273.0938,28.0313 272.8281,28.2656 Q272.5781,28.5 271.9688,28.5 L269.6719,28.5 Q269.0625,28.5 268.7969,28.2656 Q268.5313,28.0313 268.5313,27.6406 Q268.5313,27.2656 268.7969,27.0313 Q269.0625,26.7969 269.6719,26.7969 L270.0938,26.7969 L269.6875,25.7656 Z M268.9688,24.0625 L267.6094,20.6875 L266.2344,24.0625 L268.9688,24.0625 Z "/><text fill="#000000" font-family="sans-serif" font-size="12" font-style="italic" lengthAdjust="spacingAndGlyphs" textLength="105" x="281.5" y="28.9102">CredentialIdentifier</text><line style="stroke: #A80036; stroke-width: 1.5;" x1="253.5" x2="388.5" y1="40" y2="40"/><ellipse cx="263.5" cy="51" fill="none" rx="3" ry="3" style="stroke: #038048; stroke-width: 1.0;"/><text fill="#000000" font-family="sans-serif" font-size="11" lengthAdjust="spacingAndGlyphs" textLength="74" x="272.5" y="55.4189">String factoryId</text><ellipse cx="263.5" cy="64.8359" fill="none" rx="3" ry="3" style="stroke: #038048; stroke-width: 1.0;"/><text fill="#000000" font-family="sans-serif" font-size="11" lengthAdjust="spacingAndGlyphs" textLength="92" x="272.5" y="69.2549">String displayName</text><ellipse cx="263.5" cy="78.6719" fill="none" rx="3" ry="3" style="stroke: #038048; stroke-width: 1.0;"/><text fill="#000000" font-family="sans-serif" font-size="11" lengthAdjust="spacingAndGlyphs" textLength="39" x="272.5" y="83.0908">String id</text><line style="stroke: #A80036; stroke-width: 1.5;" x1="253.5" x2="388.5" y1="89.5078" y2="89.5078"/><!--MD5=[6d8afcd9e6557b4477268f7aef75265b]
class CredentialsChangeEvent--><rect fill="#FEFECE" filter="url(#f1c5vnu1r0ccjs)" height="89.5078" id="CredentialsChangeEvent" style="stroke: #A80036; stroke-width: 1.5;" width="193" x="69.5" y="176"/><ellipse cx="94.85" cy="192" fill="#ADD1B2" rx="11" ry="11" style="stroke: #A80036; stroke-width: 1.0;"/><path d="M97.6156,187.875 Q97.7719,187.6563 97.9594,187.5469 Q98.1469,187.4375 98.3656,187.4375 Q98.7406,187.4375 98.975,187.7031 Q99.2094,187.9531 99.2094,188.5625 L99.2094,190.0156 Q99.2094,190.625 98.975,190.8906 Q98.7406,191.1563 98.3656,191.1563 Q98.0219,191.1563 97.8188,190.9531 Q97.6156,190.7656 97.5063,190.25 Q97.4594,189.8906 97.2719,189.7031 Q96.9438,189.3281 96.3344,189.1094 Q95.725,188.8906 95.1,188.8906 Q94.3344,188.8906 93.6938,189.2188 Q93.0688,189.5469 92.5688,190.2969 Q92.0844,191.0469 92.0844,192.0781 L92.0844,193.1719 Q92.0844,194.4063 92.975,195.2344 Q93.8656,196.0469 95.4594,196.0469 Q96.3969,196.0469 97.0531,195.7969 Q97.4438,195.6406 97.8656,195.2031 Q98.1313,194.9375 98.2719,194.8594 Q98.4281,194.7813 98.6313,194.7813 Q98.9594,194.7813 99.2094,195.0469 Q99.475,195.2969 99.475,195.6406 Q99.475,195.9844 99.1313,196.3906 Q98.6313,196.9688 97.8344,197.2969 Q96.7563,197.75 95.4594,197.75 Q93.9438,197.75 92.7406,197.125 Q91.7563,196.625 91.0688,195.5625 Q90.3813,194.4844 90.3813,193.2031 L90.3813,192.0469 Q90.3813,190.7188 90.9906,189.5781 Q91.6156,188.4219 92.7094,187.8125 Q93.8031,187.1875 95.0375,187.1875 Q95.7719,187.1875 96.4125,187.3594 Q97.0688,187.5156 97.6156,187.875 Z "/><text fill="#000000" font-family="sans-serif" font-size="12" lengthAdjust="spacingAndGlyphs" textLength="138" x="111.15" y="196.9102">CredentialsChangeEvent</text><line style="stroke: #A80036; stroke-width: 1.5;" x1="70.5" x2="261.5" y1="208" y2="208"/><ellipse cx="80.5" cy="219" fill="none" rx="3" ry="3" style="stroke: #038048; stroke-width: 1.0;"/><text fill="#000000" font-family="sans-serif" font-size="11" lengthAdjust="spacingAndGlyphs" textLength="157" x="89.5" y="223.4189">added: List&lt;CredentialIdentifier&gt;,</text><ellipse cx="80.5" cy="232.8359" fill="none" rx="3" ry="3" style="stroke: #038048; stroke-width: 1.0;"/><text fill="#000000" font-family="sans-serif" font-size="11" lengthAdjust="spacingAndGlyphs" textLength="167" x="89.5" y="237.2549">modified: List&lt;CredentialIdentifier&gt;,</text><ellipse cx="80.5" cy="246.6719" fill="none" rx="3" ry="3" style="stroke: #038048; stroke-width: 1.0;"/><text fill="#000000" font-family="sans-serif" font-size="11" lengthAdjust="spacingAndGlyphs" textLength="166" x="89.5" y="251.0908">removed: List&lt;CredentialIdentifier&gt;</text><line style="stroke: #A80036; stroke-width: 1.5;" x1="70.5" x2="261.5" y1="257.5078" y2="257.5078"/><!--MD5=[5d65491a17d662873f0d2801e5fd9918]
class CredentialsChangeListener--><rect fill="#FEFECE" filter="url(#f1c5vnu1r0ccjs)" height="61.8359" id="CredentialsChangeListener" style="stroke: #A80036; stroke-width: 1.5;" width="197" x="8.5" y="358"/><ellipse cx="29.8" cy="374" fill="#B4A7E5" rx="11" ry="11" style="stroke: #A80036; stroke-width: 1.0;"/><path d="M30.7531,370.6406 L30.7531,377.2969 L32.4719,377.2969 Q33.0813,377.2969 33.3469,377.5313 Q33.6125,377.7656 33.6125,378.1563 Q33.6125,378.5313 33.3469,378.7656 Q33.0813,379 32.4719,379 L27.3313,379 Q26.7219,379 26.4563,378.7656 Q26.1906,378.5313 26.1906,378.1406 Q26.1906,377.7656 26.4563,377.5313 Q26.7219,377.2969 27.3313,377.2969 L29.05,377.2969 L29.05,370.6406 L27.3313,370.6406 Q26.7219,370.6406 26.4563,370.4063 Q26.1906,370.1719 26.1906,369.7813 Q26.1906,369.4063 26.4563,369.1719 Q26.7219,368.9375 27.3313,368.9375 L32.4719,368.9375 Q33.0813,368.9375 33.3469,369.1719 Q33.6125,369.4063 33.6125,369.7813 Q33.6125,370.1719 33.3469,370.4063 Q33.0813,370.6406 32.4719,370.6406 L30.7531,370.6406 Z "/><text fill="#000000" font-family="sans-serif" font-size="12" font-style="italic" lengthAdjust="spacingAndGlyphs" textLength="151" x="45.2" y="378.9102">CredentialsChangeListener</text><line style="stroke: #A80036; stroke-width: 1.5;" x1="9.5" x2="204.5" y1="390" y2="390"/><line style="stroke: #A80036; stroke-width: 1.5;" x1="9.5" x2="204.5" y1="398" y2="398"/><ellipse cx="19.5" cy="409" fill="#84BE84" rx="3" ry="3" style="stroke: #038048; stroke-width: 1.0;"/><text fill="#000000" font-family="sans-serif" font-size="11" lengthAdjust="spacingAndGlyphs" textLength="171" x="28.5" y="413.4189">onChange(CredentialsChangeEvent</text><!--MD5=[0030afbfe6474a729c5c30c849c2a55a]
class CredentialManager--><rect fill="#FEFECE" filter="url(#f1c5vnu1r0ccjs)" height="89.5078" id="CredentialManager" style="stroke: #A80036; stroke-width: 1.5;" width="440" x="6" y="512"/><ellipse cx="169.25" cy="528" fill="#A9DCDF" rx="11" ry="11" style="stroke: #A80036; stroke-width: 1.0;"/><path d="M171.4375,529.7656 L167.2969,529.7656 L166.875,530.7969 L167.2969,530.7969 Q167.9063,530.7969 168.1719,531.0313 Q168.4375,531.2656 168.4375,531.6563 Q168.4375,532.0313 168.1719,532.2656 Q167.9063,532.5 167.2969,532.5 L165,532.5 Q164.3906,532.5 164.1406,532.2656 Q163.875,532.0313 163.875,531.6406 Q163.875,531.2656 164.1563,531.0313 Q164.4219,530.7813 165.0469,530.7969 L167.7188,524.1406 L166.6094,524.1406 Q166,524.1406 165.7344,523.9063 Q165.4688,523.6719 165.4688,523.2813 Q165.4688,522.9063 165.7344,522.6719 Q166,522.4375 166.6094,522.4375 L170.2813,522.4375 L173.6719,530.7969 Q174.2656,530.7969 174.4531,530.9375 Q174.8438,531.2031 174.8438,531.6563 Q174.8438,532.0313 174.5781,532.2656 Q174.3281,532.5 173.7188,532.5 L171.4219,532.5 Q170.8125,532.5 170.5469,532.2656 Q170.2813,532.0313 170.2813,531.6406 Q170.2813,531.2656 170.5469,531.0313 Q170.8125,530.7969 171.4219,530.7969 L171.8438,530.7969 L171.4375,529.7656 Z M170.7188,528.0625 L169.3594,524.6875 L167.9844,528.0625 L170.7188,528.0625 Z "/><text fill="#000000" font-family="sans-serif" font-size="12" font-style="italic" lengthAdjust="spacingAndGlyphs" textLength="105" x="189.75" y="532.9102">CredentialManager</text><line style="stroke: #A80036; stroke-width: 1.5;" x1="7" x2="445" y1="544" y2="544"/><line style="stroke: #A80036; stroke-width: 1.5;" x1="7" x2="445" y1="552" y2="552"/><ellipse cx="17" cy="563" fill="#84BE84" rx="3" ry="3" style="stroke: #038048; stroke-width: 1.0;"/><text fill="#000000" font-family="sans-serif" font-size="11" lengthAdjust="spacingAndGlyphs" textLength="239" x="26" y="567.4189">List&lt;CredentialIdentifier&gt; getCredentialIdentifiers()</text><ellipse cx="17" cy="576.8359" fill="#84BE84" rx="3" ry="3" style="stroke: #038048; stroke-width: 1.0;"/><text fill="#000000" font-family="sans-serif" font-size="11" lengthAdjust="spacingAndGlyphs" textLength="264" x="26" y="581.2549">CredentialIdentifier getCredentialIdentifierById(String id)</text><ellipse cx="17" cy="590.6719" fill="#84BE84" rx="3" ry="3" style="stroke: #038048; stroke-width: 1.0;"/><text fill="#000000" font-family="sans-serif" font-size="11" lengthAdjust="spacingAndGlyphs" textLength="414" x="26" y="595.0908">ToolkitCredentialsProvider getAwsCredentialProvider(CredentialIdentifier, AwsRegion)</text><!--MD5=[451b459bf30b8e599d0de9f7f4d6726d]
class CredentialProviderFactory--><rect fill="#FEFECE" filter="url(#f1c5vnu1r0ccjs)" height="89.5078" id="CredentialProviderFactory" style="stroke: #A80036; stroke-width: 1.5;" width="574" x="241" y="344"/><ellipse cx="452.25" cy="360" fill="#A9DCDF" rx="11" ry="11" style="stroke: #A80036; stroke-width: 1.0;"/><path d="M454.4375,361.7656 L450.2969,361.7656 L449.875,362.7969 L450.2969,362.7969 Q450.9063,362.7969 451.1719,363.0313 Q451.4375,363.2656 451.4375,363.6563 Q451.4375,364.0313 451.1719,364.2656 Q450.9063,364.5 450.2969,364.5 L448,364.5 Q447.3906,364.5 447.1406,364.2656 Q446.875,364.0313 446.875,363.6406 Q446.875,363.2656 447.1563,363.0313 Q447.4219,362.7813 448.0469,362.7969 L450.7188,356.1406 L449.6094,356.1406 Q449,356.1406 448.7344,355.9063 Q448.4688,355.6719 448.4688,355.2813 Q448.4688,354.9063 448.7344,354.6719 Q449,354.4375 449.6094,354.4375 L453.2813,354.4375 L456.6719,362.7969 Q457.2656,362.7969 457.4531,362.9375 Q457.8438,363.2031 457.8438,363.6563 Q457.8438,364.0313 457.5781,364.2656 Q457.3281,364.5 456.7188,364.5 L454.4219,364.5 Q453.8125,364.5 453.5469,364.2656 Q453.2813,364.0313 453.2813,363.6406 Q453.2813,363.2656 453.5469,363.0313 Q453.8125,362.7969 454.4219,362.7969 L454.8438,362.7969 L454.4375,361.7656 Z M453.7188,360.0625 L452.3594,356.6875 L450.9844,360.0625 L453.7188,360.0625 Z "/><text fill="#000000" font-family="sans-serif" font-size="12" font-style="italic" lengthAdjust="spacingAndGlyphs" textLength="143" x="472.75" y="364.9102">CredentialProviderFactory</text><line style="stroke: #A80036; stroke-width: 1.5;" x1="242" x2="814" y1="376" y2="376"/><polygon fill="none" points="252,383,248,389,256,389" style="stroke: #1963A0; stroke-width: 1.0;"/><text fill="#000000" font-family="sans-serif" font-size="11" lengthAdjust="spacingAndGlyphs" textLength="39" x="261" y="391.4189">String id</text><line style="stroke: #A80036; stroke-width: 1.5;" x1="242" x2="814" y1="397.8359" y2="397.8359"/><ellipse cx="252" cy="408.8359" fill="#84BE84" rx="3" ry="3" style="stroke: #038048; stroke-width: 1.0;"/><text fill="#000000" font-family="sans-serif" font-size="11" lengthAdjust="spacingAndGlyphs" textLength="231" x="261" y="413.2549">void setUp(callback CredentialsChangeListener)</text><ellipse cx="252" cy="422.6719" fill="#84BE84" rx="3" ry="3" style="stroke: #038048; stroke-width: 1.0;"/><text fill="#000000" font-family="sans-serif" font-size="11" lengthAdjust="spacingAndGlyphs" textLength="548" x="261" y="427.0908">ToolkitCredentialsProvider createAwsCredentialProvider(CredentialIdentifier, AwsRegion, Suppier&lt;SdkHttpClient&gt;)</text><!--MD5=[11399213e4cbadb1e3a505dacea02544]
class ToolkitCredentialsProvider--><rect fill="#FEFECE" filter="url(#f1c5vnu1r0ccjs)" height="75.6719" id="ToolkitCredentialsProvider" style="stroke: #A80036; stroke-width: 1.5;" width="178" x="439" y="183"/><ellipse cx="454" cy="199" fill="#A9DCDF" rx="11" ry="11" style="stroke: #A80036; stroke-width: 1.0;"/><path d="M456.1875,200.7656 L452.0469,200.7656 L451.625,201.7969 L452.0469,201.7969 Q452.6563,201.7969 452.9219,202.0313 Q453.1875,202.2656 453.1875,202.6563 Q453.1875,203.0313 452.9219,203.2656 Q452.6563,203.5 452.0469,203.5 L449.75,203.5 Q449.1406,203.5 448.8906,203.2656 Q448.625,203.0313 448.625,202.6406 Q448.625,202.2656 448.9063,202.0313 Q449.1719,201.7813 449.7969,201.7969 L452.4688,195.1406 L451.3594,195.1406 Q450.75,195.1406 450.4844,194.9063 Q450.2188,194.6719 450.2188,194.2813 Q450.2188,193.9063 450.4844,193.6719 Q450.75,193.4375 451.3594,193.4375 L455.0313,193.4375 L458.4219,201.7969 Q459.0156,201.7969 459.2031,201.9375 Q459.5938,202.2031 459.5938,202.6563 Q459.5938,203.0313 459.3281,203.2656 Q459.0781,203.5 458.4688,203.5 L456.1719,203.5 Q455.5625,203.5 455.2969,203.2656 Q455.0313,203.0313 455.0313,202.6406 Q455.0313,202.2656 455.2969,202.0313 Q455.5625,201.7969 456.1719,201.7969 L456.5938,201.7969 L456.1875,200.7656 Z M455.4688,199.0625 L454.1094,195.6875 L452.7344,199.0625 L455.4688,199.0625 Z "/><text fill="#000000" font-family="sans-serif" font-size="12" font-style="italic" lengthAdjust="spacingAndGlyphs" textLength="146" x="468" y="203.9102">ToolkitCredentialsProvider</text><line style="stroke: #A80036; stroke-width: 1.5;" x1="440" x2="616" y1="215" y2="215"/><ellipse cx="450" cy="226" fill="none" rx="3" ry="3" style="stroke: #038048; stroke-width: 1.0;"/><text fill="#000000" font-family="sans-serif" font-size="11" lengthAdjust="spacingAndGlyphs" textLength="92" x="459" y="230.4189">String displayName</text><ellipse cx="450" cy="239.8359" fill="none" rx="3" ry="3" style="stroke: #038048; stroke-width: 1.0;"/><text fill="#000000" font-family="sans-serif" font-size="11" lengthAdjust="spacingAndGlyphs" textLength="39" x="459" y="244.2549">String id</text><line style="stroke: #A80036; stroke-width: 1.5;" x1="440" x2="616" y1="250.6719" y2="250.6719"/><!--MD5=[498172f79df63217d8c5e88ba13feb44]
class AwsCredentialsProvider--><rect fill="#FEFECE" filter="url(#f1c5vnu1r0ccjs)" height="61.8359" id="AwsCredentialsProvider" style="stroke: #A80036; stroke-width: 1.5;" width="207" x="424.5" y="22"/><ellipse cx="459.3" cy="38" fill="#A9DCDF" rx="11" ry="11" style="stroke: #A80036; stroke-width: 1.0;"/><path d="M461.4875,39.7656 L457.3469,39.7656 L456.925,40.7969 L457.3469,40.7969 Q457.9563,40.7969 458.2219,41.0313 Q458.4875,41.2656 458.4875,41.6563 Q458.4875,42.0313 458.2219,42.2656 Q457.9563,42.5 457.3469,42.5 L455.05,42.5 Q454.4406,42.5 454.1906,42.2656 Q453.925,42.0313 453.925,41.6406 Q453.925,41.2656 454.2063,41.0313 Q454.4719,40.7813 455.0969,40.7969 L457.7688,34.1406 L456.6594,34.1406 Q456.05,34.1406 455.7844,33.9063 Q455.5188,33.6719 455.5188,33.2813 Q455.5188,32.9063 455.7844,32.6719 Q456.05,32.4375 456.6594,32.4375 L460.3313,32.4375 L463.7219,40.7969 Q464.3156,40.7969 464.5031,40.9375 Q464.8938,41.2031 464.8938,41.6563 Q464.8938,42.0313 464.6281,42.2656 Q464.3781,42.5 463.7688,42.5 L461.4719,42.5 Q460.8625,42.5 460.5969,42.2656 Q460.3313,42.0313 460.3313,41.6406 Q460.3313,41.2656 460.5969,41.0313 Q460.8625,40.7969 461.4719,40.7969 L461.8938,40.7969 L461.4875,39.7656 Z M460.7688,38.0625 L459.4094,34.6875 L458.0344,38.0625 L460.7688,38.0625 Z "/><text fill="#000000" font-family="sans-serif" font-size="12" font-style="italic" lengthAdjust="spacingAndGlyphs" textLength="131" x="477.7" y="42.9102">AwsCredentialsProvider</text><line style="stroke: #A80036; stroke-width: 1.5;" x1="425.5" x2="630.5" y1="54" y2="54"/><line style="stroke: #A80036; stroke-width: 1.5;" x1="425.5" x2="630.5" y1="62" y2="62"/><ellipse cx="435.5" cy="73" fill="#84BE84" rx="3" ry="3" style="stroke: #038048; stroke-width: 1.0;"/><text fill="#000000" font-family="sans-serif" font-size="11" font-style="italic" lengthAdjust="spacingAndGlyphs" textLength="181" x="444.5" y="77.4189">AwsCredentials resolveCredentials()</text><!--MD5=[5a888642dfe987f39984b64e7ef5ce06]
reverse link CredentialsChangeListener to CredentialManager--><path d="M140.391,436.579 C157.276,460.133 177.66,488.568 194.302,511.7825 " fill="none" id="CredentialsChangeListener&lt;-CredentialManager" style="stroke: #A80036; stroke-width: 1.0; stroke-dasharray: 7.0,7.0;"/><polygon fill="none" points="134.513,440.395,128.55,420.061,145.892,432.238,134.513,440.395" style="stroke: #A80036; stroke-width: 1.0;"/><!--MD5=[c7d08587549eff58cd59c23529ef84f3]
reverse link AwsCredentialsProvider to ToolkitCredentialsProvider--><path d="M528,89.074 C528,116.61 528,154.854 528,182.899 " fill="none" id="AwsCredentialsProvider&lt;-ToolkitCredentialsProvider" style="stroke: #A80036; stroke-width: 1.0;"/><polygon fill="#A80036" points="528,84.061,524,93.061,528,89.061,532,93.061,528,84.061" style="stroke: #A80036; stroke-width: 1.0;"/><text fill="#000000" font-family="sans-serif" font-size="13" lengthAdjust="spacingAndGlyphs" textLength="63" x="529" y="142.4951">Inheritance</text><!--MD5=[1ff95b4d8e6a5265bfc476aa8e9de358]
reverse link ToolkitCredentialsProvider to CredentialProviderFactory--><path d="M528,272.488 C528,295.236 528,321.855 528,343.803 " fill="none" id="ToolkitCredentialsProvider&lt;-CredentialProviderFactory" style="stroke: #A80036; stroke-width: 1.0;"/><polygon fill="#FFFFFF" points="528,259.254,524,265.254,528,271.254,532,265.254,528,259.254" style="stroke: #A80036; stroke-width: 1.0;"/><text fill="#000000" font-family="sans-serif" font-size="13" lengthAdjust="spacingAndGlyphs" textLength="45" x="529" y="310.4951">Creates</text><text fill="#000000" font-family="sans-serif" font-size="13" lengthAdjust="spacingAndGlyphs" textLength="32" x="493.45" y="280.175">many</text><text fill="#000000" font-family="sans-serif" font-size="13" lengthAdjust="spacingAndGlyphs" textLength="7" x="520.4641" y="333.2169">1</text><!--MD5=[90e32ad70ed29ded681355a3896a48ae]
reverse link CredentialProviderFactory to CredentialManager--><path d="M436.362,440.37 C394.875,463.175 346.277,489.887 306.25,511.8892 " fill="none" id="CredentialProviderFactory&lt;-CredentialManager" style="stroke: #A80036; stroke-width: 1.0;"/><polygon fill="#FFFFFF" points="447.862,434.049,440.6772,433.4341,437.3462,439.8297,444.531,440.4447,447.862,434.049" style="stroke: #A80036; stroke-width: 1.0;"/><text fill="#000000" font-family="sans-serif" font-size="13" lengthAdjust="spacingAndGlyphs" textLength="33" x="387" y="478.4951">Owns</text><text fill="#000000" font-family="sans-serif" font-size="13" lengthAdjust="spacingAndGlyphs" textLength="32" x="402.3426" y="455.0635">many</text><text fill="#000000" font-family="sans-serif" font-size="13" lengthAdjust="spacingAndGlyphs" textLength="7" x="311.482" y="500.9868">1</text><!--MD5=[ecda066fe48e055376506b0c8a47f24f]
link AwsRegion to CredentialIdentifier--><!--MD5=[fb55b10c3abc6a84359bde43b2460f7b]
link AwsRegion to CredentialsChangeEvent--><!--MD5=[915978095a2322f3046d9aa783e2833c]
@startuml
top to bottom direction

class AwsRegion {
  +String partitionId
  +String name
  +String id
}

abstract class CredentialIdentifier {
  +String factoryId
  +String displayName
  +String id
}

class CredentialsChangeEvent {
    +added: List<CredentialIdentifier>,
    +modified: List<CredentialIdentifier>,
    +removed: List<CredentialIdentifier>
}

interface CredentialsChangeListener {
    +onChange(CredentialsChangeEvent
}

abstract class CredentialManager implements CredentialsChangeListener {
  +List<CredentialIdentifier> getCredentialIdentifiers()
  +CredentialIdentifier getCredentialIdentifierById(String id)
  +ToolkitCredentialsProvider getAwsCredentialProvider(CredentialIdentifier, AwsRegion)
}

abstract class CredentialProviderFactory {
  ~String id
  +void setUp(callback CredentialsChangeListener)
  +ToolkitCredentialsProvider createAwsCredentialProvider(CredentialIdentifier, AwsRegion, Suppier<SdkHttpClient>)
}

abstract class ToolkitCredentialsProvider {
  +String displayName
  +String id
}

abstract class AwsCredentialsProvider {
  {abstract} +AwsCredentials resolveCredentials()
}

AwsCredentialsProvider <- - ToolkitCredentialsProvider: Inheritance
ToolkitCredentialsProvider "many" o- - "1" CredentialProviderFactory: Creates
CredentialProviderFactory "many" o- - "1" CredentialManager: Owns
@enduml

PlantUML version 1.2020.10(Sun May 17 02:35:57 PDT 2020)
(GPL source distribution)
Java Runtime: OpenJDK Runtime Environment
JVM: OpenJDK 64-Bit Server VM
Java Version: 11.0.8+10-LTS
Operating System: Windows 10
Default Encoding: Cp1252
Language: en
Country: US
--></g></svg>