<?xml version="1.0" encoding="UTF-8"?>
<svg width="17px" height="15px" viewBox="0 0 17 15" version="1.1" fill="none" xmlns="http://www.w3.org/2000/svg">
<path fill-rule="evenodd" clip-rule="evenodd" d="M4.5 10.5H8.5V9.5H4.5V10.5ZM4.5 7.5H8.5V6.5H4.5V7.5ZM14.5 12.5H15.5V11.5H14.5V12.5ZM3.5 13.5H9.5V4.5H3.5V13.5ZM2.5 4V10.5H1.5V1.5H7.5V3.5H3C2.724 3.5 2.5 3.724 2.5 4ZM14.5 2.5H15.5V1.5H14.5V2.5ZM14.5 7.5H15.5V6.5H14.5V7.5ZM16 3.5C16.276 3.5 16.5 3.276 16.5 3V1C16.5 0.724 16.276 0.5 16 0.5H14C13.724 0.5 13.5 0.724 13.5 1V2.79297L10.5 5.79297V4C10.5 3.724 10.276 3.5 10 3.5H8.5V1C8.5 0.724 8.276 0.5 8 0.5H1C0.724 0.5 0.5 0.724 0.5 1V11C0.5 11.276 0.724 11.5 1 11.5H2.5V14C2.5 14.276 2.724 14.5 3 14.5H10C10.276 14.5 10.5 14.276 10.5 14V8.20703L13.5 11.207V13C13.5 13.276 13.724 13.5 14 13.5H16C16.276 13.5 16.5 13.276 16.5 13V11C16.5 10.724 16.276 10.5 16 10.5H14.207L11.207 7.5H13.5V8C13.5 8.276 13.724 8.5 14 8.5H16C16.276 8.5 16.5 8.276 16.5 8V6C16.5 5.724 16.276 5.5 16 5.5H14C13.724 5.5 13.5 5.724 13.5 6V6.5H11.207L14.207 3.5H16Z" fill="#D4D4D4"/>
</svg>
