<?xml version="1.0" encoding="UTF-8"?>
<svg width="15px" height="15px" viewBox="0 0 15 15" fill="none" xmlns="http://www.w3.org/2000/svg">
<path fill-rule="evenodd" clip-rule="evenodd" d="M9.5 12H12.5V11H9.5V12ZM9.5 7H12.5V6H9.5V7ZM6.5 12H7.5V11H6.5V12ZM6 13H8C8.276 13 8.5 12.776 8.5 12.5V10.5C8.5 10.224 8.276 10 8 10H6C5.724 10 5.5 10.224 5.5 10.5V12.5C5.5 12.776 5.724 13 6 13ZM6.5 7H7.5V6H6.5V7ZM6 8H8C8.276 8 8.5 7.776 8.5 7.5V5.5C8.5 5.224 8.276 5 8 5H6C5.724 5 5.5 5.224 5.5 5.5V7.5C5.5 7.776 5.724 8 6 8ZM1.5 12H2.5V13H1C0.724 13 0.5 12.776 0.5 12.5V0.5C0.5 0.224 0.724 0 1 0H11C11.276 0 11.5 0.224 11.5 0.5V2H10.5V1H1.5V12ZM4.5 14H13.5V4H4.5V14ZM14 3H4C3.724 3 3.5 3.224 3.5 3.5V14.5C3.5 14.776 3.724 15 4 15H14C14.276 15 14.5 14.776 14.5 14.5V3.5C14.5 3.224 14.276 3 14 3Z" fill="#D4D4D4"/>
</svg>
