<svg width="16" height="16" viewBox="0 0 16 16" fill="none" xmlns="http://www.w3.org/2000/svg">
<path d="M14.5 1H1.5L1 1.5V14.5L1.5 15H14.5L15 14.5V1.5L14.5 1ZM14 14H5V12H7.3C7.6 12.6 8.3 13 9 13C10.1 13 11 12.1 11 11C11 9.9 10.1 9 9 9C7.9 9 7 9.9 7 11H4V14H2V2H4V4.3C3.4 4.6 3 5.3 3 6C3 7.1 3.9 8 5 8C6.1 8 7 7.1 7 6H9C9 7.1 9.9 8 11 8C12.1 8 13 7.1 13 6C13 4.9 12.1 4 11 4C10.3 4 9.6 4.4 9.3 5H6.7C6.4 4.4 5.7 4 5 4V2H14V14ZM8 11C8 10.4 8.4 10 9 10C9.6 10 10 10.4 10 11C10 11.6 9.6 12 9 12C8.4 12 8 11.6 8 11ZM5 5C5.6 5 6 5.4 6 6C6 6.6 5.6 7 5 7C4.4 7 4 6.6 4 6C4 5.4 4.4 5 5 5ZM11 5C11.6 5 12 5.4 12 6C12 6.6 11.6 7 11 7C10.4 7 10 6.6 10 6C10 5.4 10.4 5 11 5Z" fill="#424242"/>
</svg>
