<svg width="40" height="40" viewBox="0 0 40 40" fill="none" xmlns="http://www.w3.org/2000/svg">
<g clip-path="url(#clip0_2420_34)">
<path d="M17.2353 2.73969L6.43534 8.975C4.72534 9.96219 3.67065 11.7875 3.67065 13.7647V26.2353C3.67065 28.2125 4.72534 30.0378 6.43534 31.025L17.2353 37.2603C18.9453 38.2475 21.0547 38.2475 22.7647 37.2603L33.5647 31.025C35.2747 30.0378 36.3294 28.2125 36.3294 26.2353V13.7647C36.3294 11.7903 35.2747 9.96219 33.5647 8.975L22.7647 2.73969C21.0547 1.7525 18.9453 1.7525 17.2353 2.73969Z" fill="url(#paint0_linear_2420_34)"/>
<path d="M30.4006 11.8859L21.8253 6.93594C21.3219 6.64625 20.6609 6.5 19.9972 6.5C19.3334 6.5 18.6725 6.64625 18.1691 6.93594L9.59375 11.8859C8.58969 12.4653 7.76562 13.8913 7.76562 15.05V24.95C7.76562 26.1116 8.58688 27.5347 9.59375 28.1141L18.1691 33.0641C18.6725 33.3537 19.3334 33.5 19.9972 33.5C20.6609 33.5 21.3219 33.3537 21.8253 33.0641L30.4006 28.1141C31.4047 27.5347 32.2288 26.1087 32.2288 24.95V15.05C32.2288 13.8884 31.4075 12.4653 30.4006 11.8859ZM20.7003 31.1178C20.6216 31.1628 20.3713 31.2528 19.9972 31.2528C19.6231 31.2528 19.3756 31.1656 19.2941 31.1178L10.7188 26.1678C10.4094 25.9906 10.0156 25.3072 10.0156 24.9528V15.0528C10.0156 14.6956 10.4094 14.015 10.7188 13.8378L19.2941 8.88781C19.3728 8.84281 19.6231 8.75281 19.9972 8.75281C20.3713 8.75281 20.6187 8.84 20.7003 8.88781L29.2756 13.8378C29.585 14.015 29.9788 14.6984 29.9788 15.0528V24.4662L22.25 20.0056V19.0803C22.25 18.8497 22.1262 18.6359 21.9266 18.5178L20.3234 17.5925C20.2222 17.5334 20.1125 17.5053 20 17.5053C19.8875 17.5053 19.775 17.5334 19.6766 17.5925L18.0734 18.5178C17.8738 18.6331 17.75 18.8469 17.75 19.0803V20.9309C17.75 21.1616 17.8738 21.3753 18.0734 21.4934L19.6766 22.4187C19.7778 22.4778 19.8875 22.5059 20 22.5059C20.1125 22.5059 20.225 22.4778 20.3234 22.4187L21.125 21.9575L28.8538 26.4181L20.7031 31.1234L20.7003 31.1178Z" fill="white"/>
</g>
<defs>
<linearGradient id="paint0_linear_2420_34" x1="34.49" y1="-0.691563" x2="7.3044" y2="38.1294" gradientUnits="userSpaceOnUse">
<stop stop-color="#A7F8FF"/>
<stop offset="0.03" stop-color="#9DF1FF"/>
<stop offset="0.08" stop-color="#84E1FF"/>
<stop offset="0.15" stop-color="#5AC7FF"/>
<stop offset="0.22" stop-color="#21A2FF"/>
<stop offset="0.26" stop-color="#008DFF"/>
<stop offset="0.66" stop-color="#7F33FF"/>
<stop offset="0.99" stop-color="#39127D"/>
</linearGradient>
<clipPath id="clip0_2420_34">
<rect width="36" height="36" fill="white" transform="translate(2 2)"/>
</clipPath>
</defs>
</svg>
