<?xml version="1.0" encoding="UTF-8"?>
<svg width="16px" height="14px" viewBox="0 0 16 14" version="1.1" xmlns="http://www.w3.org/2000/svg" xmlns:xlink="http://www.w3.org/1999/xlink">
    <!-- Generator: Sketch 56.2 (81672) - https://sketch.com -->
    <title>Amazon-Cluster_Icon_16_Dark</title>
    <desc>Created with Sketch.</desc>
    <g id="Page-1" stroke="none" stroke-width="1" fill="none" fill-rule="evenodd">
        <g id="AWS-Product-Icons_Squid" transform="translate(-76.000000, -1029.000000)" fill="#999999">
            <path d="M80,1039 L84,1039 L84,1038 L80,1038 L80,1039 Z M80,1036 L84,1036 L84,1035 L80,1035 L80,1036 Z M90,1041 L91,1041 L91,1040 L90,1040 L90,1041 Z M79,1042 L85,1042 L85,1033 L79,1033 L79,1042 Z M78,1032.5 L78,1039 L77,1039 L77,1030 L83,1030 L83,1032 L78.5,1032 C78.224,1032 78,1032.224 78,1032.5 L78,1032.5 Z M90,1031 L91,1031 L91,1030 L90,1030 L90,1031 Z M90,1036 L91,1036 L91,1035 L90,1035 L90,1036 Z M91.5,1032 C91.776,1032 92,1031.776 92,1031.5 L92,1029.5 C92,1029.224 91.776,1029 91.5,1029 L89.5,1029 C89.224,1029 89,1029.224 89,1029.5 L89,1031.293 L86,1034.293 L86,1032.5 C86,1032.224 85.776,1032 85.5,1032 L84,1032 L84,1029.5 C84,1029.224 83.776,1029 83.5,1029 L76.5,1029 C76.224,1029 76,1029.224 76,1029.5 L76,1039.5 C76,1039.776 76.224,1040 76.5,1040 L78,1040 L78,1042.5 C78,1042.776 78.224,1043 78.5,1043 L85.5,1043 C85.776,1043 86,1042.776 86,1042.5 L86,1036.707 L89,1039.707 L89,1041.5 C89,1041.776 89.224,1042 89.5,1042 L91.5,1042 C91.776,1042 92,1041.776 92,1041.5 L92,1039.5 C92,1039.224 91.776,1039 91.5,1039 L89.707,1039 L86.707,1036 L89,1036 L89,1036.5 C89,1036.776 89.224,1037 89.5,1037 L91.5,1037 C91.776,1037 92,1036.776 92,1036.5 L92,1034.5 C92,1034.224 91.776,1034 91.5,1034 L89.5,1034 C89.224,1034 89,1034.224 89,1034.5 L89,1035 L86.707,1035 L89.707,1032 L91.5,1032 Z" id="Amazon-Cluster_Icon_16_Dark"></path>
        </g>
    </g>
</svg>