<?xml version="1.0" encoding="UTF-8"?>
<svg width="14px" height="15px" viewBox="0 0 14 15" version="1.1" xmlns="http://www.w3.org/2000/svg" xmlns:xlink="http://www.w3.org/1999/xlink">
    <!-- Generator: Sketch 56.2 (81672) - https://sketch.com -->
    <title>Amazon-Service_Icon_16_Dark</title>
    <desc>Created with Sketch.</desc>
    <g id="Page-1" stroke="none" stroke-width="1" fill="none" fill-rule="evenodd">
        <g id="AWS-Product-Icons_Squid" transform="translate(-96.000000, -1029.000000)" fill="#999999">
            <path d="M105,1041 L108,1041 L108,1040 L105,1040 L105,1041 Z M105,1036 L108,1036 L108,1035 L105,1035 L105,1036 Z M102,1041 L103,1041 L103,1040 L102,1040 L102,1041 Z M101.5,1042 L103.5,1042 C103.776,1042 104,1041.776 104,1041.5 L104,1039.5 C104,1039.224 103.776,1039 103.5,1039 L101.5,1039 C101.224,1039 101,1039.224 101,1039.5 L101,1041.5 C101,1041.776 101.224,1042 101.5,1042 L101.5,1042 Z M102,1036 L103,1036 L103,1035 L102,1035 L102,1036 Z M101.5,1037 L103.5,1037 C103.776,1037 104,1036.776 104,1036.5 L104,1034.5 C104,1034.224 103.776,1034 103.5,1034 L101.5,1034 C101.224,1034 101,1034.224 101,1034.5 L101,1036.5 C101,1036.776 101.224,1037 101.5,1037 L101.5,1037 Z M97,1041 L98,1041 L98,1042 L96.5,1042 C96.224,1042 96,1041.776 96,1041.5 L96,1029.5 C96,1029.224 96.224,1029 96.5,1029 L106.5,1029 C106.776,1029 107,1029.224 107,1029.5 L107,1031 L106,1031 L106,1030 L97,1030 L97,1041 Z M100,1043 L109,1043 L109,1033 L100,1033 L100,1043 Z M109.5,1032 L99.5,1032 C99.224,1032 99,1032.224 99,1032.5 L99,1043.5 C99,1043.776 99.224,1044 99.5,1044 L109.5,1044 C109.776,1044 110,1043.776 110,1043.5 L110,1032.5 C110,1032.224 109.776,1032 109.5,1032 L109.5,1032 Z" id="Amazon-Service_Icon_16_Dark"></path>
        </g>
    </g>
</svg>