<?xml version="1.0" encoding="UTF-8"?>
<svg width="14px" height="15px" viewBox="0 0 14 15" version="1.1" xmlns="http://www.w3.org/2000/svg" xmlns:xlink="http://www.w3.org/1999/xlink">
    <!-- Generator: Sketch 56.2 (81672) - https://sketch.com -->
    <title>Amazon-Service_Icon_16_Light</title>
    <desc>Created with Sketch.</desc>
    <g id="Page-1" stroke="none" stroke-width="1" fill="none" fill-rule="evenodd">
        <g id="AWS-Product-Icons_Squid" transform="translate(-96.000000, -997.000000)" fill="#666666">
            <path d="M105,1009 L108,1009 L108,1008 L105,1008 L105,1009 Z M105,1004 L108,1004 L108,1003 L105,1003 L105,1004 Z M102,1009 L103,1009 L103,1008 L102,1008 L102,1009 Z M101.5,1010 L103.5,1010 C103.776,1010 104,1009.776 104,1009.5 L104,1007.5 C104,1007.224 103.776,1007 103.5,1007 L101.5,1007 C101.224,1007 101,1007.224 101,1007.5 L101,1009.5 C101,1009.776 101.224,1010 101.5,1010 L101.5,1010 Z M102,1004 L103,1004 L103,1003 L102,1003 L102,1004 Z M101.5,1005 L103.5,1005 C103.776,1005 104,1004.776 104,1004.5 L104,1002.5 C104,1002.224 103.776,1002 103.5,1002 L101.5,1002 C101.224,1002 101,1002.224 101,1002.5 L101,1004.5 C101,1004.776 101.224,1005 101.5,1005 L101.5,1005 Z M97,1009 L98,1009 L98,1010 L96.5,1010 C96.224,1010 96,1009.776 96,1009.5 L96,997.5 C96,997.224 96.224,997 96.5,997 L106.5,997 C106.776,997 107,997.224 107,997.5 L107,999 L106,999 L106,998 L97,998 L97,1009 Z M100,1011 L109,1011 L109,1001 L100,1001 L100,1011 Z M109.5,1000 L99.5,1000 C99.224,1000 99,1000.224 99,1000.5 L99,1011.5 C99,1011.776 99.224,1012 99.5,1012 L109.5,1012 C109.776,1012 110,1011.776 110,1011.5 L110,1000.5 C110,1000.224 109.776,1000 109.5,1000 L109.5,1000 Z" id="Amazon-Service_Icon_16_Light"></path>
        </g>
    </g>
</svg>