<?xml version="1.0" encoding="UTF-8"?>
<svg width="12px" height="14px" viewBox="0 0 12 14" version="1.1" xmlns="http://www.w3.org/2000/svg" xmlns:xlink="http://www.w3.org/1999/xlink">
    <!-- Generator: Sketch 56.2 (81672) - https://sketch.com -->
    <title>Amazon-Task-Definition_Icon_16_Light</title>
    <desc>Created with Sketch.</desc>
    <g id="Page-1" stroke="none" stroke-width="1" fill="none" fill-rule="evenodd">
        <g id="AWS-Product-Icons_Squid" transform="translate(-60.000000, -997.000000)" fill="#666666">
            <path d="M66,1007 L70,1007 L70,1006 L66,1006 L66,1007 Z M66,1002 L70,1002 L70,1001 L66,1001 L66,1002 Z M63,1007 L64,1007 L64,1006 L63,1006 L63,1007 Z M62.5,1008 L64.5,1008 C64.776,1008 65,1007.776 65,1007.5 L65,1005.5 C65,1005.224 64.776,1005 64.5,1005 L62.5,1005 C62.224,1005 62,1005.224 62,1005.5 L62,1007.5 C62,1007.776 62.224,1008 62.5,1008 L62.5,1008 Z M63,1002 L64,1002 L64,1001 L63,1001 L63,1002 Z M62.5,1003 L64.5,1003 C64.776,1003 65,1002.776 65,1002.5 L65,1000.5 C65,1000.224 64.776,1000 64.5,1000 L62.5,1000 C62.224,1000 62,1000.224 62,1000.5 L62,1002.5 C62,1002.776 62.224,1003 62.5,1003 L62.5,1003 Z M61,1010 L71,1010 L71,998 L61,998 L61,1010 Z M71.5,997 L60.5,997 C60.224,997 60,997.224 60,997.5 L60,1010.5 C60,1010.776 60.224,1011 60.5,1011 L71.5,1011 C71.776,1011 72,1010.776 72,1010.5 L72,997.5 C72,997.224 71.776,997 71.5,997 L71.5,997 Z" id="Amazon-Task-Definition_Icon_16_Light"></path>
        </g>
    </g>
</svg>