<?xml version="1.0" encoding="UTF-8"?>
<svg width="16px" height="14px" viewBox="0 0 16 14" version="1.1" xmlns="http://www.w3.org/2000/svg" xmlns:xlink="http://www.w3.org/1999/xlink">
    <!-- Generator: Sketch 56.2 (81672) - https://sketch.com -->
    <title>Amazon-Cluster_Icon_16_Light</title>
    <desc>Created with Sketch.</desc>
    <g id="Page-1" stroke="none" stroke-width="1" fill="none" fill-rule="evenodd">
        <g id="AWS-Product-Icons_Squid" transform="translate(-76.000000, -997.000000)" fill="#666666">
            <path d="M80,1007 L84,1007 L84,1006 L80,1006 L80,1007 Z M80,1004 L84,1004 L84,1003 L80,1003 L80,1004 Z M90,1009 L91,1009 L91,1008 L90,1008 L90,1009 Z M79,1010 L85,1010 L85,1001 L79,1001 L79,1010 Z M78,1000.5 L78,1007 L77,1007 L77,998 L83,998 L83,1000 L78.5,1000 C78.224,1000 78,1000.224 78,1000.5 L78,1000.5 Z M90,999 L91,999 L91,998 L90,998 L90,999 Z M90,1004 L91,1004 L91,1003 L90,1003 L90,1004 Z M91.5,1000 C91.776,1000 92,999.776 92,999.5 L92,997.5 C92,997.224 91.776,997 91.5,997 L89.5,997 C89.224,997 89,997.224 89,997.5 L89,999.293 L86,1002.293 L86,1000.5 C86,1000.224 85.776,1000 85.5,1000 L84,1000 L84,997.5 C84,997.224 83.776,997 83.5,997 L76.5,997 C76.224,997 76,997.224 76,997.5 L76,1007.5 C76,1007.776 76.224,1008 76.5,1008 L78,1008 L78,1010.5 C78,1010.776 78.224,1011 78.5,1011 L85.5,1011 C85.776,1011 86,1010.776 86,1010.5 L86,1004.707 L89,1007.707 L89,1009.5 C89,1009.776 89.224,1010 89.5,1010 L91.5,1010 C91.776,1010 92,1009.776 92,1009.5 L92,1007.5 C92,1007.224 91.776,1007 91.5,1007 L89.707,1007 L86.707,1004 L89,1004 L89,1004.5 C89,1004.776 89.224,1005 89.5,1005 L91.5,1005 C91.776,1005 92,1004.776 92,1004.5 L92,1002.5 C92,1002.224 91.776,1002 91.5,1002 L89.5,1002 C89.224,1002 89,1002.224 89,1002.5 L89,1003 L86.707,1003 L89.707,1000 L91.5,1000 Z" id="Amazon-Cluster_Icon_16_Light"></path>
        </g>
    </g>
</svg>