<?xml version="1.0" encoding="UTF-8"?>
<svg width="56px" height="48px" viewBox="0 0 56 48" version="1.1" xmlns="http://www.w3.org/2000/svg" xmlns:xlink="http://www.w3.org/1999/xlink">
    <!-- Generator: Sketch 56.2 (81672) - https://sketch.com -->
    <title>AWS-CloudFormation_Icon_64_White</title>
    <desc>Created with Sketch.</desc>
    <g id="Page-1" stroke="none" stroke-width="1" fill="none" fill-rule="evenodd">
        <g id="AWS-Management-&amp;-Governance-Product-Icons_White" transform="translate(-212.000000, -406.000000)" fill="#999999">
            <path d="M253,429.963204 L258,429.963204 L258,427.960138 L253,427.960138 L253,429.963204 Z M228,441.981602 L233,441.981602 L233,439.978536 L228,439.978536 L228,441.981602 Z M218,441.981602 L225,441.981602 L225,439.978536 L218,439.978536 L218,441.981602 Z M218,435.972403 L230,435.972403 L230,433.969337 L218,433.969337 L218,435.972403 Z M218,423.954005 L227,423.954005 L227,421.950938 L218,421.950938 L218,423.954005 Z M218,429.963204 L251,429.963204 L251,427.960138 L218,427.960138 L218,429.963204 Z M237,451.996934 L214,451.996934 L214,417.944806 L237,417.944806 L237,425.957071 L239,425.957071 L239,416.943273 C239,416.390426 238.552,415.941739 238,415.941739 L213,415.941739 C212.447,415.941739 212,416.390426 212,416.943273 L212,452.998467 C212,453.551313 212.447,454 213,454 L238,454 C238.552,454 239,453.551313 239,452.998467 L239,432.967803 L237,432.967803 L237,451.996934 Z M268,426.958604 C268,433.430512 262.173,435.681958 259.092,435.968397 L243,435.972403 L243,433.969337 L259,433.969337 C259.195,433.946301 266,433.212177 266,426.958604 C266,421.263887 260.863,420.108117 259.834,419.933851 C259.321,419.846717 258.96,419.382006 259.004,418.863212 C259.005,418.844183 259.007,418.826155 259.009,418.808127 C258.954,415.590201 256.981,414.584662 256.126,414.300227 C254.53,413.769414 252.751,414.277191 251.81,415.539123 C251.591,415.835577 251.229,415.986808 250.861,415.930723 C250.497,415.875638 250.192,415.625255 250.068,415.276721 C249.447,413.536057 248.546,412.40833 247.293,411.153409 C244.159,408.038641 239.905,407.178324 235.925,408.852888 C233.837,409.733235 232.012,411.728289 230.922,414.327268 L229.078,413.550078 C230.37,410.47437 232.584,408.088718 235.15,407.007062 C239.905,405.004997 244.971,406.02556 248.704,409.734237 C249.774,410.806879 250.66,411.851478 251.35,413.203548 C252.843,412.097855 254.857,411.767349 256.757,412.399317 C259.189,413.208555 260.727,415.320789 260.975,418.129088 C264.381,418.988403 268,421.711572 268,426.958604 L268,426.958604 Z" id="AWS-CloudFormation_Icon_64_White"></path>
        </g>
    </g>
</svg>