<?xml version="1.0" encoding="UTF-8"?>
<svg width="17px" height="16px" viewBox="0 0 17 16" version="1.1" xmlns="http://www.w3.org/2000/svg" xmlns:xlink="http://www.w3.org/1999/xlink">
    <!-- Generator: Sketch 64 (93537) - https://sketch.com -->
    <title>AWS-CloudFormation</title>
    <desc>Created with Sketch.</desc>
    <g id="Page-1" stroke="none" stroke-width="1" fill="none" fill-rule="evenodd">
        <g id="AWS-CloudFormation" transform="translate(0.500000, 0.244984)" fill="#999999" fill-rule="nonzero">
            <path d="M15.9021896,7.00049406 C15.9259346,8.40150722 14.6495847,10.1243751 13.0364469,10.0140017 L9.15384716,10.0140017 L9.15384716,8.9685982 L13.0364469,8.9685982 C13.0823138,8.9685982 14.8547412,8.77202585 14.8547412,6.96028402 C14.8547412,5.44012452 13.5835733,5.06008464 13.0397231,4.96507467 C12.8631194,4.93497071 12.7434457,4.76859513 12.7710742,4.59158721 C12.7710742,4.02900204 12.5682011,3.60408083 12.206001,3.39562173 C12.1463478,3.36128918 12.2691166,3.41785917 12.2010144,3.39562173 C11.7629219,3.24502939 11.0911007,3.31283099 10.8184556,3.6873544 C10.7432954,3.78991132 10.6155835,3.83971895 10.490835,3.81512643 C10.3720335,3.79698528 10.2727001,3.71525529 10.2320147,3.60217305 C10.0681765,3.10178048 9.67606753,2.6573381 9.31356558,2.27546375 C8.45968846,1.38006778 7.25432419,1.10454766 6.12365262,1.6069637 C5.48308354,1.90647167 5.05316471,2.42026694 4.76380386,3.06548323 L3.63649954,3.0714277 C3.84259463,2.07702784 4.65004049,1.12848449 5.54534001,0.678481978 C6.92095089,0.0722162863 8.94274191,0.370526546 9.98581643,1.45305088 C10.310357,1.78105753 10.6506499,2.26456172 10.8464549,2.68238386 C11.5964921,2.35065017 11.8972377,2.40777779 12.3507453,2.57930118 C13.0622051,2.83792079 13.5843708,3.42331291 13.5946464,4.18024989 C14.6495847,4.43251774 15.9021896,5.47705835 15.9021896,7.00049406 Z M6.98801157,6.04251384 L6.98801157,4.77038912 L1.20248881,4.77038912 L1.20248881,13.8260804 L6.98801157,13.8260804 L6.98801157,8.64425382 L8.01975674,8.64425382 L8.01975674,14.5414243 C8.01975674,14.7223642 7.87307601,14.8690449 7.69213616,14.8690449 L0.484483328,14.8690449 C0.303543476,14.8690449 0.156862745,14.7223642 0.156862745,14.5414243 L0.156862745,4.05756566 C0.156862745,3.87662581 0.303543476,3.72994507 0.484483328,3.72994507 L7.69213616,3.72994507 C7.87307601,3.72994507 8.01975674,3.87662581 8.01975674,4.05756566 L8.01975674,6.04251384 L6.98801157,6.04251384 Z M11.6235832,6.72926247 L2.16517692,6.72926247 L2.16517692,7.77355308 L11.6235832,7.77355308 L11.6235832,6.72926247 Z M5.76900333,9.29949499 L2.16517692,9.29949499 L2.16517692,10.3437856 L5.76900333,10.3437856 L5.76900333,9.29949499 Z M5.76900333,11.6730206 L2.16517692,11.6730206 L2.16517692,12.7173112 L5.76900333,12.7173112 L5.76900333,11.6730206 Z" id="Shape"></path>
        </g>
    </g>
</svg>