<?xml version="1.0" encoding="UTF-8"?>
<svg width="16" height="16" viewBox="0 0 16 16" fill="currentColor" xmlns="http://www.w3.org/2000/svg">
    <path d="M 4.25,11.084145 H 8 v -1 H 4.25 Z m 0,-3.0000004 H 8 v -1 H 4.25 Z m 9.375,5.0000004 v -1 h 0.9375 v 1 z m -10.3125,1 V 5.0841446 h 5.625 V 14.084145 Z M 2.375,4.5841446 V 11.084145 H 1.4375 V 2.0841446 h 5.625 v 2 H 2.84375 c -0.25875,0 -0.46875,0.224 -0.46875,0.5 z m 11.25,-1.5 v -1 h 0.9375 v 1 z m 0,5 v -1 h 0.9375 v 1 z m 1.40625,-4 c 0.25875,0 0.46875,-0.224 0.46875,-0.5 v -2 c 0,-0.276 -0.21,-0.5 -0.46875,-0.5 h -1.875 c -0.25875,0 -0.46875,0.224 -0.46875,0.5 v 1.79297 l -2.8125,3 v -1.79297 c 0,-0.276 -0.21,-0.5 -0.46875,-0.5 H 8 v -2.5 c 0,-0.276 -0.21,-0.5 -0.46875,-0.5 h -6.5625 c -0.25875,0 -0.46875,0.224 -0.46875,0.5 V 11.584145 c 0,0.276 0.21,0.5 0.46875,0.5 H 2.375 v 2.5 c 0,0.276 0.21,0.5 0.46875,0.5 h 6.5625 c 0.25875,0 0.46875,-0.224 0.46875,-0.5 V 8.7911746 l 2.8125,2.9999704 v 1.793 c 0,0.276 0.21,0.5 0.46875,0.5 h 1.875 c 0.25875,0 0.46875,-0.224 0.46875,-0.5 v -2 c 0,-0.276 -0.21,-0.5 -0.46875,-0.5 h -1.680938 l -2.8125,-3.0000004 H 12.6875 v 0.5 c 0,0.276 0.21,0.5 0.46875,0.5 h 1.875 c 0.25875,0 0.46875,-0.224 0.46875,-0.5 v -2 c 0,-0.276 -0.21,-0.5 -0.46875,-0.5 h -1.875 c -0.25875,0 -0.46875,0.224 -0.46875,0.5 v 0.5 h -2.149688 l 2.8125,-3 z" />
</svg>
