<?xml version="1.0" encoding="UTF-8"?>
<svg width="17" height="13" fill="currentColor" viewBox="0 0 17 13" xmlns="http://www.w3.org/2000/svg">
    <path d="M 1.5 0.42773438 C 0.95464916 0.42773438 0.5 0.88238352 0.5 1.4277344 L 0.5 11.427734 C 0.5 11.973085 0.95464916 12.427734 1.5 12.427734 L 15.5 12.427734 C 16.045351 12.427734 16.5 11.973085 16.5 11.427734 L 16.5 1.4277344 C 16.5 0.88238352 16.045351 0.42773437 15.5 0.42773438 L 1.5 0.42773438 z M 1.5 1.4277344 L 15.5 1.4277344 L 15.5 11.427734 L 1.5 11.427734 L 1.5 1.4277344 z M 3.046875 2.7148438 L 3.046875 10.138672 L 4.046875 10.138672 L 4.046875 2.7148438 L 3.046875 2.7148438 z M 5.4902344 2.7148438 L 5.4902344 10.138672 L 6.4902344 10.138672 L 6.4902344 2.7148438 L 5.4902344 2.7148438 z M 7.9316406 2.7148438 L 7.9316406 10.138672 L 8.9316406 10.138672 L 8.9316406 2.7148438 L 7.9316406 2.7148438 z M 10.375 2.7148438 L 10.375 10.138672 L 11.375 10.138672 L 11.375 2.7148438 L 10.375 2.7148438 z M 12.818359 2.7148438 L 12.818359 10.138672 L 13.818359 10.138672 L 13.818359 2.7148438 L 12.818359 2.7148438 z "/>
</svg>
