<?xml version="1.0" encoding="UTF-8"?>
<svg width="16" height="16" viewBox="0 0 16 16" fill="currentColor" xmlns="http://www.w3.org/2000/svg">
    <path d="m 10.206595,12.524899 h 3 v -1 h -3 z m 0,-4.9999999 h 3 v -1 h -3 z M 7.2065949,11.524899 h 1 v 1 h -1 z m -0.5,2 h 2 c 0.276,0 0.5,-0.224 0.5,-0.5 v -2 c 0,-0.276 -0.224,-0.5 -0.5,-0.5 h -2 c -0.276,0 -0.5,0.224 -0.5,0.5 v 2 c 0,0.276 0.224,0.5 0.5,0.5 z m 0.5,-6.9999999 h 1 v 1 h -1 z m -0.5,2 h 2 c 0.276,0 0.5,-0.224 0.5,-0.5 v -2 c 0,-0.276 -0.224,-0.5 -0.5,-0.5 h -2 c -0.276,0 -0.5,0.224 -0.5,0.5 v 2 c 0,0.276 0.224,0.5 0.5,0.5 z m -4.5,3.9999999 h 1 v 1 h -1.5 c -0.276,0 -0.5,-0.224 -0.5,-0.5 V 1.0248991 c 0,-0.27600004 0.224,-0.50000004 0.5,-0.50000004 H 11.706595 c 0.276,0 0.5,0.224 0.5,0.50000004 v 1.5 h -1 v -1 H 2.2065949 Z m 3,2 V 4.5248991 H 14.206595 V 14.524899 Z M 14.706595,3.5248991 H 4.7065949 c -0.276,0 -0.5,0.224 -0.5,0.5 V 15.024899 c 0,0.276 0.224,0.5 0.5,0.5 H 14.706595 c 0.276,0 0.5,-0.224 0.5,-0.5 V 4.0248991 c 0,-0.276 -0.224,-0.5 -0.5,-0.5 z" />
</svg>
