<?xml version="1.0" encoding="UTF-8"?>
<svg width="32px" height="32px" viewBox="0 0 32 32" version="1.1" xmlns="http://www.w3.org/2000/svg" xmlns:xlink="http://www.w3.org/1999/xlink">
    <title>Icon-Service/32/Amazon-CodeCatalyst_32_White</title>
    <g id="Icon-Service/32/Amazon-CodeCatalyst_32" stroke="none" stroke-width="1" fill="none" fill-rule="evenodd">
        <path d="M27.891,20.788 L26.056,19.526 C26.509,18.387 26.739,17.187 26.739,15.952 C26.739,14.532 26.424,13.12 25.826,11.84 L27.62,10.552 C28.471,12.218 28.919,14.073 28.919,15.952 C28.919,17.642 28.574,19.266 27.891,20.788 L27.891,20.788 Z M28.222,9.567 C28.152,9.444 28.033,9.357 27.895,9.327 C27.757,9.298 27.612,9.328 27.496,9.409 L24.897,11.276 C24.695,11.421 24.63,11.694 24.746,11.914 C25.396,13.151 25.739,14.547 25.739,15.952 C25.739,17.185 25.484,18.38 24.981,19.502 C24.882,19.723 24.954,19.982 25.154,20.119 L27.807,21.944 C27.891,22.001 27.99,22.032 28.09,22.032 C28.131,22.032 28.173,22.027 28.213,22.016 C28.354,21.98 28.471,21.886 28.537,21.758 C29.453,19.947 29.919,17.994 29.919,15.952 C29.919,13.713 29.332,11.505 28.222,9.567 L28.222,9.567 Z M15.968,28.919 L15.968,26.461 C19.164,26.459 22.199,24.982 24.184,22.488 L26.21,23.883 C23.763,27.043 19.973,28.916 15.968,28.919 L15.968,28.919 Z M3,15.959 C3,9.148 8.286,3.56 14.968,3.05 L14.968,5.507 C9.641,6.009 5.457,10.503 5.457,15.959 C5.457,21.416 9.641,25.91 14.968,26.412 L14.968,28.869 C8.286,28.36 3,22.771 3,15.959 L3,15.959 Z M25.781,7.509 L23.778,8.948 C21.786,6.726 18.966,5.46 15.968,5.457 L15.968,3 C19.767,3.003 23.313,4.639 25.781,7.509 L25.781,7.509 Z M20.87,11.036 C19.569,9.739 17.804,9.004 15.959,9.004 C12.124,9.004 9.004,12.124 9.004,15.959 C9.004,15.96 9.004,15.961 9.004,15.962 L6.458,15.962 C6.458,15.961 6.457,15.96 6.457,15.959 C6.457,10.72 10.72,6.457 15.959,6.457 C18.637,6.457 21.148,7.583 22.948,9.543 L20.87,11.036 Z M15.959,22.914 C17.993,22.914 19.937,22.009 21.251,20.471 L23.344,21.91 C21.545,24.136 18.83,25.462 15.959,25.462 C11.059,25.462 7.014,21.732 6.511,16.962 L9.085,16.962 C9.573,20.322 12.466,22.914 15.959,22.914 L15.959,22.914 Z M24.357,21.393 L21.434,19.383 C21.214,19.232 20.911,19.281 20.748,19.497 C19.613,21.034 17.867,21.914 15.959,21.914 C12.676,21.914 10.004,19.243 10.004,15.959 C10.004,12.676 12.676,10.004 15.959,10.004 C17.668,10.004 19.298,10.742 20.43,12.028 C20.599,12.221 20.89,12.253 21.097,12.103 L23.989,10.028 L26.799,8.01 C26.91,7.93 26.984,7.808 27.002,7.673 C27.021,7.537 26.984,7.4 26.899,7.293 C24.23,3.929 20.243,2 15.959,2 C8.262,2 2,8.262 2,15.959 C2,23.657 8.262,29.919 15.959,29.919 C20.459,29.919 24.709,27.727 27.329,24.055 C27.407,23.946 27.437,23.81 27.413,23.678 C27.39,23.546 27.315,23.429 27.204,23.352 L24.357,21.393 Z" id="Fill-5" fill="#FFFFFF"></path>
    </g>
</svg>
