<?xml version="1.0" encoding="UTF-8"?>
<svg width="17px" height="16px" viewBox="0 0 17 16" version="1.1" xmlns="http://www.w3.org/2000/svg" xmlns:xlink="http://www.w3.org/1999/xlink">
<!-- Generator: Sketch 55.2 (78181) - https://sketchapp.com -->
<title>Amazon-EventBridge_Icon_16_Squid</title>
<desc>Created with Sketch.</desc>
<g id="Page-1" stroke="none" stroke-width="1" fill="none" fill-rule="evenodd">
    <g id="AWS-Product-Icons_Squid" transform="translate(-46.000000, -252.000000)" fill="#232F3D">
        <path d="M48.5674,264.4614 C48.0154,264.4614 47.5674,264.0124 47.5674,263.4614 C47.5674,262.9104 48.0154,262.4614 48.5674,262.4614 C49.1194,262.4614 49.5674,262.9104 49.5674,263.4614 C49.5674,264.0124 49.1194,264.4614 48.5674,264.4614 L48.5674,264.4614 Z M49.9214,264.9244 C50.3164,264.5584 50.5674,264.0414 50.5674,263.4614 C50.5674,262.3584 49.6704,261.4614 48.5674,261.4614 C48.3614,261.4614 48.1664,261.5024 47.9784,261.5604 L47.0774,259.9984 L48.3894,257.7234 L47.5244,257.2234 L46.0674,259.7484 C45.9774,259.9024 45.9774,260.0934 46.0674,260.2484 L47.1264,262.0814 C46.7824,262.4404 46.5674,262.9254 46.5674,263.4614 C46.5674,264.5644 47.4644,265.4614 48.5674,265.4614 C48.7314,265.4614 48.8884,265.4364 49.0414,265.3984 L49.8234,266.7534 C49.9124,266.9084 50.0774,267.0034 50.2554,267.0034 L53.0504,267.0034 L53.0504,266.0034 L50.5454,266.0034 L49.9214,264.9244 Z M59.5504,257.5174 C58.9994,257.5174 58.5504,257.0684 58.5504,256.5174 C58.5504,255.9654 58.9994,255.5174 59.5504,255.5174 C60.1024,255.5174 60.5504,255.9654 60.5504,256.5174 C60.5504,257.0684 60.1024,257.5174 59.5504,257.5174 L59.5504,257.5174 Z M60.9924,257.8964 C61.3364,257.5374 61.5504,257.0524 61.5504,256.5174 C61.5504,255.4144 60.6534,254.5174 59.5504,254.5174 C59.3864,254.5174 59.2304,254.5424 59.0774,254.5804 L58.2964,253.2254 C58.2074,253.0704 58.0424,252.9754 57.8634,252.9754 L55.0684,252.9754 L55.0684,253.9754 L57.5744,253.9754 L58.1974,255.0544 C57.8024,255.4194 57.5504,255.9374 57.5504,256.5174 C57.5504,257.6204 58.4484,258.5174 59.5504,258.5174 C59.7564,258.5174 59.9524,258.4764 60.1394,258.4184 L61.0424,259.9814 L59.7284,262.2544 L60.5934,262.7544 L62.0514,260.2314 C62.1414,260.0764 62.1414,259.8854 62.0514,259.7314 L60.9924,257.8964 Z M58.0684,267.0004 C57.5164,267.0004 57.0684,266.5514 57.0684,266.0004 C57.0684,265.4484 57.5164,265.0004 58.0684,265.0004 C58.6204,265.0004 59.0684,265.4484 59.0684,266.0004 C59.0684,266.5514 58.6204,267.0004 58.0684,267.0004 L58.0684,267.0004 Z M55.0504,262.1004 L52.8454,262.1004 L51.6324,260.0004 L52.7564,258.0534 L53.0124,257.8994 L55.2694,257.8994 L56.4824,260.0004 L55.3854,261.8984 L55.0504,262.1004 Z M50.0684,255.0004 C49.5164,255.0004 49.0684,254.5514 49.0684,254.0004 C49.0684,253.4484 49.5164,253.0004 50.0684,253.0004 C50.6204,253.0004 51.0684,253.4484 51.0684,254.0004 C51.0684,254.5514 50.6204,255.0004 50.0684,255.0004 L50.0684,255.0004 Z M58.0684,264.0004 C57.7444,264.0004 57.4414,264.0854 57.1704,264.2224 L56.1664,262.5474 L57.4924,260.2504 C57.5824,260.0954 57.5824,259.9044 57.4924,259.7504 L55.9914,257.1494 C55.9024,256.9954 55.7374,256.8994 55.5584,256.8994 L52.7764,256.8994 L51.7144,255.1304 C51.9374,254.8084 52.0684,254.4194 52.0684,254.0004 C52.0684,252.8974 51.1714,252.0004 50.0684,252.0004 C48.9654,252.0004 48.0684,252.8974 48.0684,254.0004 C48.0684,255.1034 48.9654,256.0004 50.0684,256.0004 C50.3834,256.0004 50.6784,255.9194 50.9444,255.7894 L51.9454,257.4594 L50.6234,259.7504 C50.5334,259.9044 50.5334,260.0954 50.6234,260.2504 L52.1244,262.8504 C52.2134,263.0044 52.3784,263.1004 52.5564,263.1004 L55.3314,263.1004 L56.4054,264.8914 C56.1934,265.2094 56.0684,265.5894 56.0684,266.0004 C56.0684,267.1034 56.9654,268.0004 58.0684,268.0004 C59.1714,268.0004 60.0684,267.1034 60.0684,266.0004 C60.0684,264.8974 59.1714,264.0004 58.0684,264.0004 L58.0684,264.0004 Z" id="Amazon-EventBridge_Icon_16_Squid"></path>
    </g>
</g>
</svg>
