<svg xmlns="http://www.w3.org/2000/svg" enable-background="new 0 0 24 24" viewBox="0 0 24 24"><polygon fill="#FF9800" points="20.189 12.33 20.189 12.33 20.188 12.33"/><path fill="#FF9800" d="M0.106,14.677c3.13,2.855,7.272,4.573,11.87,4.573c3.28,0,7.096-1.039,9.722-2.999c0.431-0.324,0.056-0.816-0.383-0.614c-2.946,1.258-6.146,1.871-9.06,1.871c-4.319,0-8.493-1.202-11.877-3.185C0.082,14.145-0.141,14.452,0.106,14.677L0.106,14.677z"/><path fill="#DE8400" d="M0.206,14.27c-0.196,0-0.295,0.229-0.1,0.407c3.13,2.855,7.272,4.573,11.87,4.573c0.008,0,0.016,0,0.024,0v-1.743c-4.228-0.046-8.305-1.24-11.622-3.184C0.317,14.286,0.258,14.27,0.206,14.27L0.206,14.27z"/><path fill="#FF9800" d="M22.424,18.169c1.405-1.193,1.772-3.684,1.485-4.048c-0.287-0.355-2.754-0.661-4.254,0.403c-0.232,0.169-0.192,0.396,0.063,0.364c0.854-0.106,2.738-0.331,3.074,0.104c0.335,0.428-0.375,2.227-0.695,3.025C22.001,18.258,22.209,18.355,22.424,18.169L22.424,18.169z"/><path fill="#DE8400" d="M23.912,14.124L22.684,14.9c0.045,0.027,0.081,0.057,0.108,0.091c0.335,0.428-0.375,2.227-0.695,3.025c-0.061,0.154,0.001,0.25,0.111,0.25c0.062,0,0.138-0.03,0.216-0.097C23.825,16.979,24.194,14.5,23.912,14.124L23.912,14.124z"/><path fill="#212121" d="M17.181 5.16c0-.136-.073-.202-.199-.202H16.24l-.034-.001c-.104 0-.2.03-.279.082-.056.048-.112.154-.16.315l-1.381 5.404-1.261-5.404c-.031-.153-.088-.267-.151-.315-.064-.055-.168-.081-.32-.081h-.636l-.035-.001c-.106 0-.205.03-.287.082-.063.048-.111.154-.151.315L10.3 10.692 8.958 5.354C8.911 5.201 8.863 5.087 8.798 5.039c-.055-.055-.159-.081-.31-.081H7.705c-.127 0-.191.073-.191.202l.001.006C7.527 5.28 7.552 5.39 7.586 5.483l1.875 6.235c.048.152.104.266.168.314.064.057.159.081.304.081l.686-.001c.143 0 .255-.024.32-.081.063-.057.11-.161.15-.323l1.23-5.193 1.238 5.201c.031.162.087.267.15.323.065.057.169.08.32.08h.686l.029.001c.102 0 .197-.03.275-.081.064-.049.12-.153.168-.315l1.923-6.233L17.105 5.5l.059-.21L17.181 5.16 17.181 5.16zM21.682 10.202v.022c0 .314-.164.589-.415.744-.271.178-.663.267-1.165.267-.32 0-.631-.033-.95-.097-.312-.065-.607-.161-.878-.282l-.2-.081L17.93 10.75c-.119 0-.183.081-.183.25v.411l.048.226c.032.073.119.154.247.226.208.121.519.226.918.323.398.096.813.144 1.228.144.408 0 .781-.056 1.142-.168.343-.105.638-.249.886-.452.247-.194.439-.435.583-.71.135-.274.207-.589.207-.935 0-.419-.12-.798-.367-1.129-.247-.33-.663-.589-1.237-.775l-1.134-.361c-.423-.138-.718-.291-.877-.445-.16-.152-.24-.347-.24-.573 0-.331.128-.564.375-.717.247-.154.607-.225 1.062-.225h.055c.534 0 1.042.115 1.476.314l-.004-.002c.092.051.194.086.307.099.12 0 .184-.089.184-.259V5.614l.001-.026-.072-.24-.001-.002c-.063-.082-.143-.151-.239-.2C22.216 5.097 22.104 5.048 21.961 5c-.143-.048-.296-.088-.455-.129-.168-.032-.335-.064-.518-.089-.176-.024-.36-.032-.535-.032-.351 0-.686.041-1.006.137-.32.096-.59.234-.83.419-.24.177-.431.403-.575.661-.143.259-.215.557-.215.895.002.444.152.851.4 1.169.263.363.694.637 1.277.822l1.156.364c.391.129.663.267.807.419.134.141.216.332.216.543V10.202L21.682 10.202 21.682 10.202zM4.52 7.944C4.225 7.903 3.946 7.879 3.674 7.879c-.822 0-1.468.21-1.955.63C1.233 8.927.993 9.484.993 10.17c0 .646.199 1.162.59 1.549.391.387.927.58 1.596.58.942 0 1.725-.371 2.347-1.112l.016.037c.076.16.159.315.233.439l.006.01c.083.133.177.257.281.369L6.3 12.154h.001l.207-.073.503-.339c.104-.081.152-.162.152-.242l-.056-.185c-.112-.21-.192-.404-.256-.582-.056-.177-.088-.418-.088-.717l-.016.001V7.404c0-.887-.223-1.548-.661-1.983C5.638 4.986 4.944 4.767 3.994 4.767H3.948c-.426 0-.84.055-1.2.153C2.357 5.017 2.022 5.138 1.743 5.283L1.739 5.284l-.22.167c-.04.057-.056.153-.056.283v.395c0 .169.056.25.168.25h.001l.126-.023.016-.005C1.87 6.321 1.963 6.286 2.038 6.25 2.317 6.137 2.605 6.048 2.9 5.976c.295-.073.583-.104.863-.104.614 0 1.045.12 1.3.371.248.249.375.677.375 1.29v.589C5.12 8.049 4.815 7.984 4.52 7.944L4.52 7.944zM5.455 9.024v.339c0 .274-.033.508-.08.701-.048.194-.143.363-.272.517C4.888 10.823 4.632 11 4.345 11.097c-.288.097-.559.145-.822.145-.368 0-.648-.097-.838-.299-.2-.193-.295-.476-.295-.855 0-.403.127-.709.39-.927.264-.218.655-.323 1.19-.323.265 0 .525.018.75.048l.034.004C5.008 8.925 5.257 8.973 5.455 9.024L5.455 9.024z"/><path fill="#3E3E3E" d="M8.488 4.958H7.705c-.127 0-.191.073-.191.202l.001.006C7.527 5.28 7.552 5.39 7.586 5.483l.917 3.05h1.254L8.958 5.354C8.911 5.201 8.863 5.087 8.798 5.039 8.743 4.984 8.639 4.958 8.488 4.958L8.488 4.958zM11.983 4.957c-.106 0-.205.03-.287.082-.063.048-.111.154-.151.315l-.741 3.179h1.037l.478-2.018.48 2.018h1.067l-.742-3.179c-.031-.153-.088-.267-.151-.315-.064-.055-.168-.081-.32-.081h-.636L11.983 4.957 11.983 4.957zM16.206 4.957c-.104 0-.2.03-.279.082-.056.048-.112.154-.16.315l-.812 3.179h1.215l.938-3.041L17.105 5.5l.059-.21.017-.129c0-.136-.073-.202-.199-.202H16.24L16.206 4.957 16.206 4.957zM20.452 4.75c-.351 0-.686.041-1.006.137-.32.096-.59.234-.83.419-.24.177-.431.403-.575.661-.143.259-.215.557-.215.895.002.444.152.851.4 1.169.139.192.325.359.556.501h3.422c-.218-.146-.486-.27-.801-.372l-1.134-.361c-.423-.138-.718-.291-.877-.445-.16-.152-.24-.347-.24-.573 0-.331.128-.564.375-.717.247-.154.607-.225 1.062-.225h.055c.533 0 1.041.114 1.474.313.091.051.193.085.305.098.12 0 .184-.089.184-.259V5.614l.001-.026-.072-.24-.001-.002c-.063-.082-.143-.151-.239-.2C22.216 5.097 22.104 5.048 21.961 5c-.143-.048-.296-.088-.455-.129-.168-.032-.335-.064-.518-.089C20.811 4.758 20.627 4.75 20.452 4.75L20.452 4.75zM3.994 4.767H3.948c-.426 0-.84.055-1.2.153C2.357 5.017 2.022 5.138 1.743 5.283L1.739 5.284l-.22.167c-.04.057-.056.153-.056.283v.395c0 .169.056.25.168.25h.001l.126-.023.016-.005C1.87 6.321 1.963 6.286 2.038 6.25 2.317 6.137 2.605 6.048 2.9 5.976c.295-.073.583-.104.863-.104.614 0 1.045.12 1.3.371.248.249.375.677.375 1.29v.589C5.12 8.049 4.815 7.984 4.52 7.944 4.225 7.903 3.946 7.879 3.674 7.879c-.822 0-1.468.21-1.955.63C1.71 8.516 1.701 8.525 1.691 8.533h5.056V7.404c0-.887-.223-1.548-.661-1.983C5.638 4.986 4.944 4.767 3.994 4.767L3.994 4.767z"/></svg>