<svg xmlns="http://www.w3.org/2000/svg" data-name="Layer 1" viewBox="0 0 48 48" width="256" height="256">
    <path fill="#a0a0a0" d="M44,24c0,.47,0,.95-.06,1.41A18.34,18.34,0,0,1,43.6,28a20,20,0,0,0-8.83-12.85,2.59,2.59,0,0,0,.2-.75,1.64,1.64,0,0,0,0-.22A1.09,1.09,0,0,0,35,14a3.43,3.43,0,0,0,0-.56,2,2,0,0,0-.09-.33,1.33,1.33,0,0,0-.1-.28,1.15,1.15,0,0,0-.12-.25,2.34,2.34,0,0,0-.33-.49l-.19-.21a1.29,1.29,0,0,0-.21-.19,2.77,2.77,0,0,0-.83-.48l-.19-.07-.07,0L32.37,11A2.31,2.31,0,0,0,32,11a3.36,3.36,0,0,0-.63.06,20.19,20.19,0,0,0-5-6.91c.58.07,1.15.16,1.71.28A20,20,0,0,1,44,24Z" class="colora0a0a0 svgShape"></path>
    <path fill="#a0a0a0" d="M31.37,11.06h0a2.9,2.9,0,0,0-.42.12l-.14.06a1,1,0,0,0-.28.14l-.09,0a3.3,3.3,0,0,0-.3.22,2.11,2.11,0,0,0-.27.25,2,2,0,0,0-.32.38,2.73,2.73,0,0,0-.26.43A18.81,18.81,0,0,0,27,12.23c-.3-.05-.6-.09-.91-.12L25,12c-.33,0-.66,0-1,0s-.67,0-1,0-.69,0-1,.08l-.72.08-.63.1a1.13,1.13,0,0,0-.18,0c-.24,0-.49.09-.73.15s-.39.08-.58.13l-.87.24a9.82,9.82,0,0,0-1,.32h0c-.24.08-.48.17-.71.27-.45.18-.9.38-1.34.59a2.08,2.08,0,0,0-.21-.21,2.86,2.86,0,0,0-1-.61l-.35-.11-.19,0-.18,0-.25,0a19.7,19.7,0,0,1,2-6.92q.45-.22.9-.42A19.8,19.8,0,0,1,24,4c.47,0,.94,0,1.4.06s.66.05,1,.09A20.19,20.19,0,0,1,31.37,11.06Z" class="colora0a0a0 svgShape"></path>
    <path fill="#a0a0a0" d="M15.09,6.09a19.7,19.7,0,0,0-2,6.92H13a2.32,2.32,0,0,0-.46,0,3.34,3.34,0,0,0-.43.1,2.26,2.26,0,0,0-.39.15l-.08,0a2,2,0,0,0-.32.18,1.57,1.57,0,0,0-.25.2,1.54,1.54,0,0,0-.19.17l-.19.21a1.81,1.81,0,0,0-.18.23,1.28,1.28,0,0,0-.15.25l0,0a2.85,2.85,0,0,0-.2.51,2.17,2.17,0,0,0-.07.24c0,.11,0,.23-.05.34A3,3,0,0,0,10,16a1.93,1.93,0,0,0,0,.24l0,.21a2.13,2.13,0,0,0,.1.42.28.28,0,0,0,0,.13,2.78,2.78,0,0,0,.16.4A19.9,19.9,0,0,0,4.4,28a18.48,18.48,0,0,1-.34-2.6h0C4,24.93,4,24.47,4,24A20,20,0,0,1,13.62,6.91C14.1,6.61,14.59,6.34,15.09,6.09Z" class="colora0a0a0 svgShape"></path>
    <path fill="#a0a0a0" d="M23.69,35.9h0l-.6.36c-.19.12-.39.23-.59.33l-.16.08c-.28.16-.57.3-.86.43s-.77.35-1.16.5-.8.3-1.2.43l-.61.19-.63.17a18.91,18.91,0,0,1-2,.39c-.23,0-.47.07-.71.09l-.72.07L14,39l-1,0c-.33,0-.67,0-1,0l-.44,0c-.32,0-.63,0-1-.09q-.37-.33-.72-.69A19.85,19.85,0,0,1,4.62,29c-.08-.32-.15-.64-.22-1a19.9,19.9,0,0,1,5.94-10.6,2.36,2.36,0,0,0,.28.42,2,2,0,0,0,.34.37,2.52,2.52,0,0,0,.25.21l.11.08a1.28,1.28,0,0,0,.25.15l.11.06a2.18,2.18,0,0,0,.27.11.11.11,0,0,0,.08,0,2.24,2.24,0,0,0,.37.1l.27.05L13,19a2.69,2.69,0,0,0,.4,0,20,20,0,0,0,10,13.56,2.35,2.35,0,0,0-.19.43.08.08,0,0,0,0,0,2.75,2.75,0,0,0-.11.41.09.09,0,0,0,0,0,.59.59,0,0,0,0,.13,2.6,2.6,0,0,0,0,.4,3,3,0,0,0,.19,1l0,0a2.09,2.09,0,0,0,.19.4.21.21,0,0,0,0,.06A2.31,2.31,0,0,0,23.69,35.9Z" class="colora0a0a0 svgShape"></path>
    <path fill="#a0a0a0" d="M33 19a19.85 19.85 0 0 1-4.79 13A3 3 0 0 0 26 31a3 3 0 0 0-2.62 1.53A20 20 0 0 1 13.4 19 3 3 0 0 0 15.24 14 19.82 19.82 0 0 1 24 12a20 20 0 0 1 5.29.71A3.09 3.09 0 0 0 29 14a3 3 0 0 0 3 3 2.84 2.84 0 0 0 .88-.14A18.92 18.92 0 0 1 33 19zM41.91 32.91c-.25.5-.52 1-.81 1.46A20 20 0 0 1 12 40c-.47-.35-.92-.73-1.36-1.12.32 0 .63.07 1 .09L12 39c.33 0 .67 0 1 0l1 0 .46 0 .72-.07c.24 0 .48-.05.71-.09a18.91 18.91 0 0 0 2-.39l.63-.17.61-.19c.4-.13.8-.27 1.2-.43s.78-.32 1.16-.5.58-.27.86-.43l.16-.08c.2-.1.4-.21.59-.33l.6-.36a1.87 1.87 0 0 0 .31.32 2.87 2.87 0 0 0 .44.34l.07 0a1.59 1.59 0 0 0 .29.15l.27.1a.86.86 0 0 0 .23.06A2.74 2.74 0 0 0 26 37a2.56 2.56 0 0 0 .39 0l.14 0a2.48 2.48 0 0 0 .59-.17l.09 0 .29-.15a3.28 3.28 0 0 0 .63-.48 2.09 2.09 0 0 0 .24-.28 2.73 2.73 0 0 0 .21-.3v0a3.55 3.55 0 0 0 .21-.44 1.83 1.83 0 0 0 .08-.25l.06-.25c.38.08.76.15 1.14.2a5.77 5.77 0 0 0 .58.08l.54.06.8 0c.33 0 .67 0 1 0s.67 0 1 0 .7 0 1-.08h0q.39 0 .75-.09a4.33 4.33 0 0 0 .5-.08l.43-.07.67-.14a3.89 3.89 0 0 0 .49-.12l.49-.13c.21 0 .41-.11.62-.18s.61-.2.91-.31.65-.25 1-.39S41.58 33.08 41.91 32.91z" class="colora0a0a0 svgShape"></path>
    <path fill="#a0a0a0" d="M43.6,28c-.07.33-.14.65-.22,1a20.57,20.57,0,0,1-1.05,3q-.19.47-.42.9c-.33.17-.68.33-1,.47s-.64.27-1,.39-.6.22-.91.31-.41.13-.62.18l-.49.13a3.89,3.89,0,0,1-.49.12l-.67.14-.43.07a4.33,4.33,0,0,1-.5.08q-.36.06-.75.09h0c-.34,0-.69.06-1,.08s-.66,0-1,0-.67,0-1,0l-.8,0-.54-.06a5.77,5.77,0,0,1-.58-.08c-.38-.05-.76-.12-1.14-.2A2.78,2.78,0,0,0,29,34a3,3,0,0,0,0-.42l-.06-.32a2.18,2.18,0,0,0-.16-.45,2.9,2.9,0,0,0-.54-.83l.51-.62c.17-.21.33-.42.48-.64s.32-.44.46-.66.23-.34.33-.51.2-.32.29-.48.25-.42.36-.64.26-.49.38-.74l.05-.1c.1-.21.2-.44.3-.66l.07-.16c.08-.2.17-.41.25-.63l.06-.17c.1-.25.19-.5.27-.76s.16-.51.23-.77A20.29,20.29,0,0,0,33,20c0-.33,0-.67,0-1s0-.67,0-1,0-.76-.09-1.14a2.93,2.93,0,0,0,.89-.43l.25-.21.22-.22a2.83,2.83,0,0,0,.32-.45,3,3,0,0,0,.21-.4A20,20,0,0,1,43.6,28Z" class="colora0a0a0 svgShape"></path>
    <path fill="#c0c0c0" d="M16 6.54a18.81 18.81 0 0 0-1.89 6.57.29.29 0 0 1 0 .09 1 1 0 0 1-1 .81H13a1 1 0 0 1-.89-.86.59.59 0 0 1 0-.23 20.37 20.37 0 0 1 1.52-6c.48-.3 1-.57 1.47-.82q.45-.22.9-.42A1 1 0 0 1 16 6.54zM23.38 33.53a1 1 0 0 1-.48-.12A20.85 20.85 0 0 1 12.42 19.17a1 1 0 0 1 2-.4 18.86 18.86 0 0 0 9.48 12.88 1 1 0 0 1-.48 1.88zM28.21 33a1 1 0 0 1-.76-1.65A18.93 18.93 0 0 0 32 19a1 1 0 0 1 2 0 20.93 20.93 0 0 1-5 13.63A1 1 0 0 1 28.21 33zM13 40a1 1 0 0 1 0-2 19.1 19.1 0 0 0 10.16-2.94 1 1 0 0 1 1.06 1.7A21 21 0 0 1 13 40zM32.37 11a1 1 0 0 1-.6 1 1.14 1.14 0 0 1-.4.08 1 1 0 0 1-.92-.6s0 0 0 0a19.21 19.21 0 0 0-4.72-6.54 1 1 0 0 1-.32-.83c.33 0 .66.05 1 .09.58.07 1.15.16 1.71.28a21 21 0 0 1 4.19 6.23A.83.83 0 0 1 32.37 11zM43.94 25.41A18.34 18.34 0 0 1 43.6 28c-.07.33-.14.65-.22 1a1 1 0 0 1-.76-.77A19.06 19.06 0 0 0 34.24 16h0a1 1 0 0 1-.3-1.38A1 1 0 0 1 35 14.18a.8.8 0 0 1 .32.13A21 21 0 0 1 43.94 25.41zM11 18.13l-.06.06a18.78 18.78 0 0 0-5.58 10 1 1 0 0 1-.76.77c-.08-.32-.15-.64-.22-1a18.48 18.48 0 0 1-.34-2.6h0a20.77 20.77 0 0 1 5.6-8.72.86.86 0 0 1 .38-.22 1 1 0 0 1 1 .27A1 1 0 0 1 11 18.13zM15.24 15a1 1 0 0 1-.9-.56 1 1 0 0 1 .46-1.34A20.66 20.66 0 0 1 24 11a1 1 0 0 1 0 2 18.74 18.74 0 0 0-8.32 1.92A1 1 0 0 1 15.24 15z" class="colorc0c0c0 svgShape"></path>
    <path fill="#c0c0c0" d="M29.29 13.71a.75.75 0 0 1-.26 0A19.41 19.41 0 0 0 24 13a1 1 0 0 1 0-2 20.75 20.75 0 0 1 5.55.75 1 1 0 0 1 .7 1.22A1 1 0 0 1 29.29 13.71zM42.33 32q-.19.47-.42.9c-.25.5-.52 1-.81 1.46A21 21 0 0 1 33 36a1 1 0 0 1-1-1v0a1 1 0 0 1 1-1 18.82 18.82 0 0 0 8.46-2A1 1 0 0 1 42.33 32z" class="colorc0c0c0 svgShape"></path>
    <path fill="#c0c0c0" d="M33,36a20.69,20.69,0,0,1-4.27-.44,1,1,0,0,1,.42-2A18,18,0,0,0,33,34a1,1,0,0,1,0,2Z" class="colorc0c0c0 svgShape"></path>
    <path fill="#ebf3fe" d="M16 16a3 3 0 0 1-2.6 3 2.69 2.69 0 0 1-.4 0 3 3 0 0 1-2.66-1.6A3.11 3.11 0 0 1 10 16a3 3 0 0 1 3-3h.1a2.91 2.91 0 0 1 2.14 1A3 3 0 0 1 16 16zM29 34a2.78 2.78 0 0 1-.06.58 3 3 0 0 1-5.25 1.33h0A3 3 0 0 1 23 34a3 3 0 0 1 3-3 3 3 0 0 1 3 3z" class="colorebf3fe svgShape"></path>
    <path fill="#c0c0c0" d="M33,20a1,1,0,0,1-1-1,19.27,19.27,0,0,0-.11-2,1,1,0,0,1,.88-1.1,1,1,0,0,1,1.1.88A18.5,18.5,0,0,1,34,19,1,1,0,0,1,33,20Z" class="colorc0c0c0 svgShape"></path>
    <path fill="#ebf3fe" d="M35,14a2.91,2.91,0,0,1-.23,1.15,3,3,0,0,1-1.89,1.71A2.84,2.84,0,0,1,32,17a3,3,0,0,1-3-3,3.09,3.09,0,0,1,.29-1.29,3,3,0,0,1,2.08-1.64h0A3.36,3.36,0,0,1,32,11,3,3,0,0,1,35,14Z" class="colorebf3fe svgShape"></path>
    <path fill="#c0c0c0" d="M14,39v0a1,1,0,0,1-1,1c-.35,0-.69,0-1,0-.47-.35-.92-.73-1.36-1.12q-.37-.33-.72-.69a1,1,0,0,1,.85-.3A18.53,18.53,0,0,0,13,38,1,1,0,0,1,14,39Z" class="colorc0c0c0 svgShape"></path>
</svg>