<svg width="16" height="16" viewBox="0 0 16 16" xmlns="http://www.w3.org/2000/svg" fill="#424242"><path d="M1.47978 1.4797C1.30227 1.65721 1.28614 1.93498 1.43137 2.13072L1.47978 2.1868L4.1695 4.87652C2.88817 5.77616 1.93052 7.11985 1.53259 8.70952C1.46554 8.97738 1.62834 9.24892 1.89621 9.31598C2.16409 9.38298 2.4356 9.22025 2.50266 8.95232C2.85564 7.54225 3.72742 6.35956 4.88944 5.59626L6.09586 6.80278C5.62419 7.28378 5.33334 7.94278 5.33334 8.66965C5.33334 10.1424 6.52724 11.3363 8 11.3363C8.72694 11.3363 9.38587 11.0454 9.86694 10.5738L13.8131 14.5201C14.0084 14.7154 14.3249 14.7154 14.5202 14.5201C14.6977 14.3426 14.7139 14.0649 14.5686 13.8691L14.5202 13.813L10.4445 9.73692L10.4453 9.73592L9.64527 8.93732L7.732 7.02445L7.73334 7.02392L5.81252 5.10513L5.81334 5.10392L5.05782 4.35024L2.18689 1.4797C1.99163 1.28444 1.67504 1.28444 1.47978 1.4797ZM6.80274 7.51025L9.15947 9.86698C8.85947 10.1575 8.4506 10.3363 8 10.3363C7.07954 10.3363 6.33334 9.59012 6.33334 8.66965C6.33334 8.21905 6.51216 7.81018 6.80274 7.51025ZM8 3.66658C7.33314 3.66658 6.68607 3.7653 6.07406 3.94992L6.89874 4.77404C7.25594 4.70346 7.62427 4.66658 8 4.66658C10.6154 4.66658 12.8733 6.45342 13.4981 8.95538C13.565 9.22325 13.8364 9.38618 14.1043 9.31932C14.3723 9.25238 14.5352 8.98098 14.4683 8.71305C13.7329 5.7684 11.077 3.66658 8 3.66658ZM8.1298 6.0061L10.664 8.53992C10.5961 7.16865 9.49814 6.07168 8.1298 6.0061Z"/></svg>