<?xml version="1.0" encoding="UTF-8"?>
<svg width="13px" height="13px" viewBox="0 0 18 17" version="1.1" xmlns="http://www.w3.org/2000/svg" xmlns:xlink="http://www.w3.org/1999/xlink">
    <title>Amazon simple queue service (SQS) - light</title>
    <g id="Page-1" stroke="none" stroke-width="1" fill="none" fill-rule="evenodd">
        <g id="Amazon-simple-queue-service-(SQS)---light" transform="translate(0.866390, 0.254418)" fill="#999999" fill-rule="nonzero">
            <path d="M8.99587191,14.3903078 C7.12476656,14.3349922 4.79642362,13.5489676 3.31609242,11.0761525 L1.79303472,11.7003352 C2.92151162,14.1635346 6.28957009,15.8507394 8.96407777,15.8419747 C11.3833683,15.9016786 15.0284317,14.1394302 16.0395519,11.8928144 L14.6981558,11.1292133 C13.5591067,13.3416225 10.8398709,14.316321 8.99587191,14.3903078 Z" id="Path"></path>
            <path d="M8.99587191,3.51858264 C7.12476656,3.463267 4.79642362,2.6772424 3.31609242,0.204427257 L1.79303472,0.828609953 C2.92151162,3.29180941 6.28957009,4.97901424 8.96407777,4.97024954 C11.3833683,5.02995344 15.0284317,3.26770502 16.0395519,1.02108923 L14.6981558,0.257488116 C13.5591067,2.46989734 10.8398709,3.44459581 8.99587191,3.51858264 Z" id="Path-Copy-5" transform="translate(8.916293, 2.588075) scale(1, -1) translate(-8.916293, -2.588075) "></path>
            <path d="M3.79360748,8.08936931 C3.79463343,7.42128622 3.3234439,6.84557368 2.66834449,6.71449794 C2.01324509,6.5834222 1.3568156,6.9335148 1.10071126,7.55056151 C0.844606918,8.16760822 1.06020541,8.87963476 1.61558661,9.25096723 C2.1709678,9.62229971 2.91134392,9.54944573 3.38369457,9.07698309 C3.64697711,8.81588983 3.79462191,8.46016082 3.79360748,8.08936931 L3.79360748,8.08936931 Z" id="Path"></path>
            <path d="M16.4485215,7.09870393 C16.0480228,6.69813488 15.4456568,6.57827559 14.9223246,6.79501997 C14.3989924,7.01176436 14.0577637,7.5224248 14.0577637,8.08886523 C14.0577637,8.65530566 14.3989924,9.16596609 14.9223246,9.38271048 C15.4456568,9.59945487 16.0480228,9.47959557 16.4485215,9.07902652 L16.4485215,9.07902652 C16.9953046,8.53214741 16.9953046,7.64558305 16.4485215,7.09870393 L16.4485215,7.09870393 Z" id="Path"></path>
            <path d="M9.15602446,11.6525388 L11.8983326,8.87768101 C12.2138393,8.56029143 12.2138393,8.04769537 11.8983326,7.73030579 L9.13974963,4.97172281 L7.984237,6.11909803 L9.37573461,7.50245823 L5.69762397,7.50245823 L5.69762397,9.12994081 L9.37573461,9.12994081 L8.00051183,10.5051636 L9.15602446,11.6525388 Z" id="Path"></path>
        </g>
    </g>
</svg>
