<?xml version="1.0" encoding="UTF-8" standalone="no"?><svg xmlns="http://www.w3.org/2000/svg" xmlns:xlink="http://www.w3.org/1999/xlink" contentScriptType="application/ecmascript" contentStyleType="text/css" height="595px" preserveAspectRatio="none" style="width:490px;height:595px;" version="1.1" viewBox="0 0 490 595" width="490px" zoomAndPan="magnify"><defs><filter height="300%" id="fksk7l3nzz1b1" width="300%" x="-1" y="-1"><feGaussianBlur result="blurOut" stdDeviation="2.0"/><feColorMatrix in="blurOut" result="blurOut2" type="matrix" values="0 0 0 0 0 0 0 0 0 0 0 0 0 0 0 0 0 0 .4 0"/><feOffset dx="4.0" dy="4.0" in="blurOut2" result="blurOut3"/><feBlend in="SourceGraphic" in2="blurOut3" mode="normal"/></filter></defs><g><!--class ToolkitCredentialsProviderManager--><rect fill="#FEFECE" filter="url(#fksk7l3nzz1b1)" height="73.6094" id="ToolkitCredentialsProviderManager" style="stroke: #A80036; stroke-width: 1.5;" width="358" x="62" y="511"/><ellipse cx="128.75" cy="527" fill="#A9DCDF" rx="11" ry="11" style="stroke: #A80036; stroke-width: 1.0;"/><path d="M130.3281,528.8125 L126.2813,528.8125 L125.8906,529.7969 L126.2813,529.7969 C126.7344,529.7969 126.875,529.8281 127.0469,529.9531 C127.2656,530.125 127.3906,530.375 127.3906,530.6563 C127.3906,530.9375 127.25,531.2344 126.9844,531.375 C126.8594,531.4688 126.6406,531.5 126.2813,531.5 L124.0156,531.5 C123.2656,531.5 122.8906,531.2188 122.8906,530.6563 C122.8906,530.3594 123.0469,530.0781 123.2969,529.9219 C123.4531,529.8125 123.6094,529.7969 124.0313,529.7969 L126.6719,523.2813 L125.5938,523.2813 C125.1563,523.2813 124.9844,523.25 124.8125,523.1406 C124.5938,522.9688 124.4531,522.7188 124.4531,522.4375 C124.4531,522.1563 124.6094,521.875 124.8594,521.7031 C125.0156,521.6094 125.1406,521.5938 125.5938,521.5938 L129.2656,521.5938 L132.6563,529.7969 C133.125,529.7969 133.2813,529.8281 133.4531,529.9688 C133.6719,530.125 133.8125,530.375 133.8125,530.6563 C133.8125,530.9375 133.6563,531.2344 133.4063,531.375 C133.2656,531.4688 133.0469,531.5 132.6875,531.5 L130.3281,531.5 C129.9063,531.5 129.7031,531.4531 129.5625,531.3281 C129.3438,531.1719 129.2031,530.9219 129.2031,530.6563 C129.2031,530.3594 129.3594,530.0781 129.6094,529.9219 C129.7656,529.8125 129.875,529.7969 130.3281,529.7969 L130.7188,529.7969 Z M129.625,527.1094 L128.2969,523.8438 L126.9531,527.1094 Z "/><text fill="#000000" font-family="sans-serif" font-size="12" font-style="italic" lengthAdjust="spacingAndGlyphs" textLength="216" x="149.25" y="531.1543">ToolkitCredentialsProviderManager</text><line style="stroke: #A80036; stroke-width: 1.5;" x1="63" x2="419" y1="543" y2="543"/><line style="stroke: #A80036; stroke-width: 1.5;" x1="63" x2="419" y1="551" y2="551"/><ellipse cx="73" cy="562.9023" fill="#84BE84" rx="3" ry="3" style="stroke: #038048; stroke-width: 1.0;"/><text fill="#000000" font-family="sans-serif" font-size="11" lengthAdjust="spacingAndGlyphs" textLength="329" x="82" y="565.2104">List&lt;ToolkitCredentialsProvider&gt; getCredentialProviders()</text><ellipse cx="73" cy="575.707" fill="#84BE84" rx="3" ry="3" style="stroke: #038048; stroke-width: 1.0;"/><text fill="#000000" font-family="sans-serif" font-size="11" lengthAdjust="spacingAndGlyphs" textLength="332" x="82" y="578.0151">ToolkitCredentialsProvider getCredentialProvider(String id)</text><!--class ToolkitCredentialsProviderFactory--><rect fill="#FEFECE" filter="url(#fksk7l3nzz1b1)" height="124.8281" id="ToolkitCredentialsProviderFactory" style="stroke: #A80036; stroke-width: 1.5;" width="470" x="6" y="309"/><ellipse cx="21" cy="325" fill="#A9DCDF" rx="11" ry="11" style="stroke: #A80036; stroke-width: 1.0;"/><path d="M22.5781,326.8125 L18.5313,326.8125 L18.1406,327.7969 L18.5313,327.7969 C18.9844,327.7969 19.125,327.8281 19.2969,327.9531 C19.5156,328.125 19.6406,328.375 19.6406,328.6563 C19.6406,328.9375 19.5,329.2344 19.2344,329.375 C19.1094,329.4688 18.8906,329.5 18.5313,329.5 L16.2656,329.5 C15.5156,329.5 15.1406,329.2188 15.1406,328.6563 C15.1406,328.3594 15.2969,328.0781 15.5469,327.9219 C15.7031,327.8125 15.8594,327.7969 16.2813,327.7969 L18.9219,321.2813 L17.8438,321.2813 C17.4063,321.2813 17.2344,321.25 17.0625,321.1406 C16.8438,320.9688 16.7031,320.7188 16.7031,320.4375 C16.7031,320.1563 16.8594,319.875 17.1094,319.7031 C17.2656,319.6094 17.3906,319.5938 17.8438,319.5938 L21.5156,319.5938 L24.9063,327.7969 C25.375,327.7969 25.5313,327.8281 25.7031,327.9688 C25.9219,328.125 26.0625,328.375 26.0625,328.6563 C26.0625,328.9375 25.9063,329.2344 25.6563,329.375 C25.5156,329.4688 25.2969,329.5 24.9375,329.5 L22.5781,329.5 C22.1563,329.5 21.9531,329.4531 21.8125,329.3281 C21.5938,329.1719 21.4531,328.9219 21.4531,328.6563 C21.4531,328.3594 21.6094,328.0781 21.8594,327.9219 C22.0156,327.8125 22.125,327.7969 22.5781,327.7969 L22.9688,327.7969 Z M21.875,325.1094 L20.5469,321.8438 L19.2031,325.1094 Z "/><text fill="#000000" font-family="sans-serif" font-size="12" font-style="italic" lengthAdjust="spacingAndGlyphs" textLength="208" x="35" y="329.1543">ToolkitCredentialsProviderFactory</text><rect fill="#FFFFFF" height="15.9688" style="stroke: #000000; stroke-width: 1.0; stroke-dasharray: 2.0,2.0;" width="228" x="251" y="306"/><text fill="#000000" font-family="sans-serif" font-size="12" font-style="italic" lengthAdjust="spacingAndGlyphs" textLength="226" x="252" y="318.1387">T extends ToolkitCredentialsProvider</text><line style="stroke: #A80036; stroke-width: 1.5;" x1="7" x2="475" y1="341" y2="341"/><polygon fill="none" points="17,348.9023,13,354.9023,21,354.9023" style="stroke: #1963A0; stroke-width: 1.0;"/><text fill="#000000" font-family="sans-serif" font-size="11" lengthAdjust="spacingAndGlyphs" textLength="62" x="26" y="355.2104">String type</text><rect fill="none" height="6" style="stroke: #C82930; stroke-width: 1.0;" width="6" x="14" y="362.707"/><text fill="#000000" font-family="sans-serif" font-size="11" lengthAdjust="spacingAndGlyphs" textLength="103" x="26" y="368.0151">List&lt;T&gt; providers</text><line style="stroke: #A80036; stroke-width: 1.5;" x1="7" x2="475" y1="374.6094" y2="374.6094"/><polygon fill="#4177AF" points="17,382.5117,13,388.5117,21,388.5117" style="stroke: #1963A0; stroke-width: 1.0;"/><text fill="#000000" font-family="sans-serif" font-size="11" lengthAdjust="spacingAndGlyphs" textLength="186" x="26" y="388.8198">List&lt;T&gt; listCredentialProviders()</text><polygon fill="#4177AF" points="17,395.3164,13,401.3164,21,401.3164" style="stroke: #1963A0; stroke-width: 1.0;"/><text fill="#000000" font-family="sans-serif" font-size="11" lengthAdjust="spacingAndGlyphs" textLength="85" x="26" y="401.6245">T get(String id)</text><polygon fill="#FFFF44" points="17,407.1211,21,411.1211,17,415.1211,13,411.1211" style="stroke: #B38D22; stroke-width: 1.0;"/><text fill="#000000" font-family="sans-serif" font-size="11" lengthAdjust="spacingAndGlyphs" textLength="161" x="26" y="414.4292">void addProvider(T provider)</text><polygon fill="#FFFF44" points="17,419.9258,21,423.9258,17,427.9258,13,423.9258" style="stroke: #B38D22; stroke-width: 1.0;"/><text fill="#000000" font-family="sans-serif" font-size="11" lengthAdjust="spacingAndGlyphs" textLength="183" x="26" y="427.2339">void removeProvider(T provider)</text><!--class ToolkitCredentialsProvider--><rect fill="#FEFECE" filter="url(#fksk7l3nzz1b1)" height="86.4141" id="ToolkitCredentialsProvider" style="stroke: #A80036; stroke-width: 1.5;" width="193" x="144.5" y="146"/><ellipse cx="159.5" cy="162" fill="#A9DCDF" rx="11" ry="11" style="stroke: #A80036; stroke-width: 1.0;"/><path d="M161.0781,163.8125 L157.0313,163.8125 L156.6406,164.7969 L157.0313,164.7969 C157.4844,164.7969 157.625,164.8281 157.7969,164.9531 C158.0156,165.125 158.1406,165.375 158.1406,165.6563 C158.1406,165.9375 158,166.2344 157.7344,166.375 C157.6094,166.4688 157.3906,166.5 157.0313,166.5 L154.7656,166.5 C154.0156,166.5 153.6406,166.2188 153.6406,165.6563 C153.6406,165.3594 153.7969,165.0781 154.0469,164.9219 C154.2031,164.8125 154.3594,164.7969 154.7813,164.7969 L157.4219,158.2813 L156.3438,158.2813 C155.9063,158.2813 155.7344,158.25 155.5625,158.1406 C155.3438,157.9688 155.2031,157.7188 155.2031,157.4375 C155.2031,157.1563 155.3594,156.875 155.6094,156.7031 C155.7656,156.6094 155.8906,156.5938 156.3438,156.5938 L160.0156,156.5938 L163.4063,164.7969 C163.875,164.7969 164.0313,164.8281 164.2031,164.9688 C164.4219,165.125 164.5625,165.375 164.5625,165.6563 C164.5625,165.9375 164.4063,166.2344 164.1563,166.375 C164.0156,166.4688 163.7969,166.5 163.4375,166.5 L161.0781,166.5 C160.6563,166.5 160.4531,166.4531 160.3125,166.3281 C160.0938,166.1719 159.9531,165.9219 159.9531,165.6563 C159.9531,165.3594 160.1094,165.0781 160.3594,164.9219 C160.5156,164.8125 160.625,164.7969 161.0781,164.7969 L161.4688,164.7969 Z M160.375,162.1094 L159.0469,158.8438 L157.7031,162.1094 Z "/><text fill="#000000" font-family="sans-serif" font-size="12" font-style="italic" lengthAdjust="spacingAndGlyphs" textLength="161" x="173.5" y="166.1543">ToolkitCredentialsProvider</text><line style="stroke: #A80036; stroke-width: 1.5;" x1="145.5" x2="336.5" y1="178" y2="178"/><ellipse cx="155.5" cy="189.9023" fill="none" rx="3" ry="3" style="stroke: #038048; stroke-width: 1.0;"/><text fill="#000000" font-family="sans-serif" font-size="11" lengthAdjust="spacingAndGlyphs" textLength="111" x="164.5" y="192.2104">String displayName</text><ellipse cx="155.5" cy="202.707" fill="none" rx="3" ry="3" style="stroke: #038048; stroke-width: 1.0;"/><text fill="#000000" font-family="sans-serif" font-size="11" lengthAdjust="spacingAndGlyphs" textLength="48" x="164.5" y="205.0151">String id</text><line style="stroke: #A80036; stroke-width: 1.5;" x1="145.5" x2="336.5" y1="211.6094" y2="211.6094"/><ellipse cx="155.5" cy="223.5117" fill="#84BE84" rx="3" ry="3" style="stroke: #038048; stroke-width: 1.0;"/><text fill="#000000" font-family="sans-serif" font-size="11" lengthAdjust="spacingAndGlyphs" textLength="101" x="164.5" y="225.8198">boolean validate()</text><!--class AwsCredentialsProvider--><rect fill="#FEFECE" filter="url(#fksk7l3nzz1b1)" height="60.8047" id="AwsCredentialsProvider" style="stroke: #A80036; stroke-width: 1.5;" width="231" x="125.5" y="8"/><ellipse cx="165.25" cy="24" fill="#A9DCDF" rx="11" ry="11" style="stroke: #A80036; stroke-width: 1.0;"/><path d="M166.8281,25.8125 L162.7813,25.8125 L162.3906,26.7969 L162.7813,26.7969 C163.2344,26.7969 163.375,26.8281 163.5469,26.9531 C163.7656,27.125 163.8906,27.375 163.8906,27.6563 C163.8906,27.9375 163.75,28.2344 163.4844,28.375 C163.3594,28.4688 163.1406,28.5 162.7813,28.5 L160.5156,28.5 C159.7656,28.5 159.3906,28.2188 159.3906,27.6563 C159.3906,27.3594 159.5469,27.0781 159.7969,26.9219 C159.9531,26.8125 160.1094,26.7969 160.5313,26.7969 L163.1719,20.2813 L162.0938,20.2813 C161.6563,20.2813 161.4844,20.25 161.3125,20.1406 C161.0938,19.9688 160.9531,19.7188 160.9531,19.4375 C160.9531,19.1563 161.1094,18.875 161.3594,18.7031 C161.5156,18.6094 161.6406,18.5938 162.0938,18.5938 L165.7656,18.5938 L169.1563,26.7969 C169.625,26.7969 169.7813,26.8281 169.9531,26.9688 C170.1719,27.125 170.3125,27.375 170.3125,27.6563 C170.3125,27.9375 170.1563,28.2344 169.9063,28.375 C169.7656,28.4688 169.5469,28.5 169.1875,28.5 L166.8281,28.5 C166.4063,28.5 166.2031,28.4531 166.0625,28.3281 C165.8438,28.1719 165.7031,27.9219 165.7031,27.6563 C165.7031,27.3594 165.8594,27.0781 166.1094,26.9219 C166.2656,26.8125 166.375,26.7969 166.8281,26.7969 L167.2188,26.7969 Z M166.125,24.1094 L164.7969,20.8438 L163.4531,24.1094 Z "/><text fill="#000000" font-family="sans-serif" font-size="12" font-style="italic" lengthAdjust="spacingAndGlyphs" textLength="144" x="184.75" y="28.1543">AwsCredentialsProvider</text><line style="stroke: #A80036; stroke-width: 1.5;" x1="126.5" x2="355.5" y1="40" y2="40"/><line style="stroke: #A80036; stroke-width: 1.5;" x1="126.5" x2="355.5" y1="48" y2="48"/><ellipse cx="136.5" cy="59.9023" fill="#84BE84" rx="3" ry="3" style="stroke: #038048; stroke-width: 1.0;"/><text fill="#000000" font-family="sans-serif" font-size="11" font-style="italic" lengthAdjust="spacingAndGlyphs" textLength="205" x="145.5" y="62.2104">AwsCredentials resolveCredentials()</text><!--link AwsCredentialsProvider to ToolkitCredentialsProvider--><path d="M241,89.415 C241,107.782 241,128.381 241,145.982 " fill="none" id="AwsCredentialsProvider-ToolkitCredentialsProvider" style="stroke: #A80036; stroke-width: 1.0;"/><polygon fill="none" points="234,89.194,241,69.194,248,89.194,234,89.194" style="stroke: #A80036; stroke-width: 1.0;"/><text fill="#000000" font-family="sans-serif" font-size="13" lengthAdjust="spacingAndGlyphs" textLength="71" x="242" y="112.0669">Inheritance</text><!--link ToolkitCredentialsProvider to ToolkitCredentialsProviderFactory--><path d="M241,245.414 C241,265.52 241,288.352 241,308.955 " fill="none" id="ToolkitCredentialsProvider-ToolkitCredentialsProviderFactory" style="stroke: #A80036; stroke-width: 1.0;"/><polygon fill="#FFFFFF" points="241,232.319,237,238.319,241,244.319,245,238.319,241,232.319" style="stroke: #A80036; stroke-width: 1.0;"/><text fill="#000000" font-family="sans-serif" font-size="13" lengthAdjust="spacingAndGlyphs" textLength="50" x="242" y="275.0669">Creates</text><text fill="#000000" font-family="sans-serif" font-size="13" lengthAdjust="spacingAndGlyphs" textLength="36" x="202.1313" y="252.4628">many</text><text fill="#000000" font-family="sans-serif" font-size="13" lengthAdjust="spacingAndGlyphs" textLength="8" x="232.5375" y="297.9406">1</text><!--link ToolkitCredentialsProviderFactory to ToolkitCredentialsProviderManager--><path d="M241,447.206 C241,469.275 241,492.4364 241,510.8848 " fill="none" id="ToolkitCredentialsProviderFactory-ToolkitCredentialsProviderManager" style="stroke: #A80036; stroke-width: 1.0;"/><polygon fill="#FFFFFF" points="241,434.022,237,440.022,241,446.022,245,440.022,241,434.022" style="stroke: #A80036; stroke-width: 1.0;"/><text fill="#000000" font-family="sans-serif" font-size="13" lengthAdjust="spacingAndGlyphs" textLength="34" x="242" y="477.0669">Owns</text><text fill="#000000" font-family="sans-serif" font-size="13" lengthAdjust="spacingAndGlyphs" textLength="36" x="203.0313" y="453.7642">many</text><text fill="#000000" font-family="sans-serif" font-size="13" lengthAdjust="spacingAndGlyphs" textLength="8" x="232.2875" y="500.0512">1</text><!--
@startuml
abstract class ToolkitCredentialsProviderManager {
  +List<ToolkitCredentialsProvider> getCredentialProviders()
  +ToolkitCredentialsProvider getCredentialProvider(String id)
}

abstract class ToolkitCredentialsProviderFactory<T extends ToolkitCredentialsProvider> {
  ~String type
  -List<T> providers
  ~List<T> listCredentialProviders()
  ~T get(String id)
  #void addProvider(T provider)
  #void removeProvider(T provider)
}

abstract class ToolkitCredentialsProvider {
  +String displayName
  +String id
  +boolean validate()
}

abstract class AwsCredentialsProvider {
  {abstract} +AwsCredentials resolveCredentials()
}

AwsCredentialsProvider <|- - ToolkitCredentialsProvider: Inheritance
ToolkitCredentialsProvider "many" o- - "1" ToolkitCredentialsProviderFactory: Creates
ToolkitCredentialsProviderFactory "many" o- - "1" ToolkitCredentialsProviderManager: Owns
@enduml
--></g></svg>