<svg width="16" height="16" viewBox="0 0 16 16" xmlns="http://www.w3.org/2000/svg" fill="#C5C5C5"><path fill-rule="evenodd" clip-rule="evenodd" d="M2.99994 10V14L3.99994 15H12.9999L13.9999 14V5L13.7099 4.29L10.7099 1.29L9.99994 1H8V2H9.99994L12.9999 5V14H3.99994V10H2.99994ZM11 6H9V4H8V6H6V7H8V9H9V7H11V6ZM6 11H11V12H6V11Z"/><path fill-rule="evenodd" clip-rule="evenodd" d="M7.06065 3.85356L4.91421 6L4.2071 5.29289L5.49999 4H2.5C2.10218 4 1.72064 4.15804 1.43934 4.43934C1.15804 4.72065 1 5.10218 1 5.5C1 5.89783 1.15804 6.27936 1.43934 6.56066C1.72064 6.84197 2.10218 7 2.5 7H3V8H2.5C1.83696 8 1.20107 7.73661 0.732233 7.26777C0.263392 6.79893 0 6.16305 0 5.5C0 4.83696 0.263392 4.20108 0.732233 3.73224C1.20107 3.2634 1.83696 3 2.5 3H5.49999L4.2071 1.70711L4.91421 1L7.06065 3.14645L7.06065 3.85356Z"/></svg>