<svg width="16" height="16" viewBox="0 0 16 16" xmlns="http://www.w3.org/2000/svg" fill="#C5C5C5"><path d="M8.00024 9C8.55253 9 9.00024 8.55228 9.00024 8C9.00024 7.44772 8.55253 7 8.00024 7C7.44796 7 7.00024 7.44772 7.00024 8C7.00024 8.55228 7.44796 9 8.00024 9Z"/><path d="M12.0002 8C12.0002 10.2091 10.2094 12 8.00024 12C5.79111 12 4.00024 10.2091 4.00024 8C4.00024 5.79086 5.79111 4 8.00024 4C10.2094 4 12.0002 5.79086 12.0002 8ZM11.0002 8C11.0002 6.34315 9.6571 5 8.00024 5C6.34339 5 5.00024 6.34315 5.00024 8C5.00024 9.65685 6.34339 11 8.00024 11C9.6571 11 11.0002 9.65685 11.0002 8Z"/></svg>