<?xml version="1.0" encoding="UTF-8"?>
<svg width="13px" height="13px" viewBox="0 0 16 16" version="1.1" xmlns="http://www.w3.org/2000/svg" xmlns:xlink="http://www.w3.org/1999/xlink">
  <!-- Generator: Sketch 51.3 (57544) - http://www.bohemiancoding.com/sketch -->
  <title>service-cloudformation-vscode</title>
  <desc>Created with Sketch.</desc>
  <defs></defs>
  <g id="service-cloudformation-vscode" stroke="none" stroke-width="1" fill="none" fill-rule="evenodd">
    <g id="AWS-CloudFormation_16_Squid" fill="#666666" fill-rule="nonzero">
      <path d="M11,10 L11,8 L12.63,8 C13.2574565,7.96238287 13.7384563,7.42793863 13.71,6.8 C13.71,6.14 13.33,5.74 12.58,5.61 C12.0545341,5.52289137 11.689565,5.03919748 11.75,4.51 C11.75,4.45 11.75,4.1 11.51,4.03 C11.3848091,3.9878042 11.2467503,4.03247028 11.17,4.14 C10.9494981,4.43370983 10.5857388,4.58291373 10.2225025,4.52863704 C9.85926621,4.47436036 9.55501198,4.22533835 9.43,3.88 C9.29435006,3.50982289 9.08706616,3.17001322 8.82,2.88 C8.20618742,2.24960792 7.2656312,2.06627917 6.46,2.42 C5.99817957,2.65976484 5.64182197,3.06244892 5.46,3.55 L3.58,2.76 C3.97793171,1.78499931 4.73246094,0.998286366 5.69,0.56 C7.24086556,-0.134883963 9.06150522,0.226035793 10.23,1.46 C10.4303538,1.65622379 10.6081261,1.8742464 10.76,2.11 C11.3764725,1.92583457 12.0419812,2.00949919 12.5936866,2.34052241 C13.1453919,2.67154564 13.5323942,3.21938763 13.66,3.85 C14.9216261,4.27030602 15.7560067,5.47099998 15.71,6.8 C15.7356273,8.47456698 14.4503353,9.87829877 12.78,10 L11,10 Z" id="Shape"></path>
      <path d="M8,16 L1,16 C0.44771525,16 6.76353751e-17,15.5522847 0,15 L0,5 C-6.76353751e-17,4.44771525 0.44771525,4 1,4 L8,4 C8.55228475,4 9,4.44771525 9,5 L9,7 L7,7 L7,6 L2,6 L2,14 L7,14 L7,11 L9,11 L9,15 C9,15.5522847 8.55228475,16 8,16 Z" id="Shape"></path>
      <rect id="Rectangle-path" x="3" y="8" width="7" height="2"></rect>
      <rect id="Rectangle-path" x="3" y="11" width="3" height="2"></rect>
    </g>
  </g>
</svg>