<?xml version="1.0" encoding="UTF-8"?>
<svg width="17px" height="16px" viewBox="0 0 17 16" version="1.1" xmlns="http://www.w3.org/2000/svg" xmlns:xlink="http://www.w3.org/1999/xlink">
    <!-- Generator: Sketch 55.2 (78181) - https://sketchapp.com -->
    <title>Amazon-EventBridge_Icon_16_White</title>
    <desc>Created with Sketch.</desc>
    <g id="Page-1" stroke="none" stroke-width="1" fill="none" fill-rule="evenodd">
        <g id="AWS-Product-Icons_White" transform="translate(-36.000000, -252.000000)" fill="#FFFFFF">
            <path d="M38.5675,264.461 C38.0155,264.461 37.5675,264.012 37.5675,263.461 C37.5675,262.91 38.0155,262.461 38.5675,262.461 C39.1195,262.461 39.5675,262.91 39.5675,263.461 C39.5675,264.012 39.1195,264.461 38.5675,264.461 L38.5675,264.461 Z M39.9215,264.924 C40.3165,264.558 40.5675,264.041 40.5675,263.461 C40.5675,262.358 39.6705,261.461 38.5675,261.461 C38.3615,261.461 38.1665,261.502 37.9785,261.56 L37.0775,259.998 L38.3895,257.723 L37.5245,257.223 L36.0675,259.748 C35.9775,259.902 35.9775,260.093 36.0675,260.248 L37.1265,262.081 C36.7825,262.44 36.5675,262.925 36.5675,263.461 C36.5675,264.564 37.4645,265.461 38.5675,265.461 C38.7315,265.461 38.8885,265.436 39.0415,265.398 L39.8235,266.753 C39.9125,266.908 40.0775,267.003 40.2555,267.003 L43.0505,267.003 L43.0505,266.003 L40.5455,266.003 L39.9215,264.924 Z M49.5505,257.517 C48.9995,257.517 48.5505,257.068 48.5505,256.517 C48.5505,255.965 48.9995,255.517 49.5505,255.517 C50.1025,255.517 50.5505,255.965 50.5505,256.517 C50.5505,257.068 50.1025,257.517 49.5505,257.517 L49.5505,257.517 Z M50.9925,257.896 C51.3365,257.537 51.5505,257.052 51.5505,256.517 C51.5505,255.414 50.6535,254.517 49.5505,254.517 C49.3865,254.517 49.2305,254.542 49.0775,254.58 L48.2965,253.225 C48.2075,253.07 48.0425,252.975 47.8635,252.975 L45.0685,252.975 L45.0685,253.975 L47.5745,253.975 L48.1975,255.054 C47.8025,255.419 47.5505,255.937 47.5505,256.517 C47.5505,257.62 48.4485,258.517 49.5505,258.517 C49.7565,258.517 49.9525,258.476 50.1395,258.418 L51.0425,259.981 L49.7285,262.254 L50.5935,262.754 L52.0515,260.231 C52.1415,260.076 52.1415,259.885 52.0515,259.731 L50.9925,257.896 Z M48.0685,267 C47.5165,267 47.0685,266.551 47.0685,266 C47.0685,265.448 47.5165,265 48.0685,265 C48.6205,265 49.0685,265.448 49.0685,266 C49.0685,266.551 48.6205,267 48.0685,267 L48.0685,267 Z M45.0505,262.1 L42.8455,262.1 L41.6325,260 L42.7565,258.053 L43.0125,257.899 L45.2695,257.899 L46.4825,260 L45.3855,261.898 L45.0505,262.1 Z M40.0685,255 C39.5165,255 39.0685,254.551 39.0685,254 C39.0685,253.448 39.5165,253 40.0685,253 C40.6205,253 41.0685,253.448 41.0685,254 C41.0685,254.551 40.6205,255 40.0685,255 L40.0685,255 Z M48.0685,264 C47.7445,264 47.4415,264.085 47.1705,264.222 L46.1665,262.547 L47.4925,260.25 C47.5825,260.095 47.5825,259.904 47.4925,259.75 L45.9915,257.149 C45.9025,256.995 45.7375,256.899 45.5585,256.899 L42.7765,256.899 L41.7145,255.13 C41.9375,254.808 42.0685,254.419 42.0685,254 C42.0685,252.897 41.1715,252 40.0685,252 C38.9655,252 38.0685,252.897 38.0685,254 C38.0685,255.103 38.9655,256 40.0685,256 C40.3835,256 40.6785,255.919 40.9445,255.789 L41.9455,257.459 L40.6235,259.75 C40.5335,259.904 40.5335,260.095 40.6235,260.25 L42.1245,262.85 C42.2135,263.004 42.3785,263.1 42.5565,263.1 L45.3315,263.1 L46.4055,264.891 C46.1935,265.209 46.0685,265.589 46.0685,266 C46.0685,267.103 46.9655,268 48.0685,268 C49.1715,268 50.0685,267.103 50.0685,266 C50.0685,264.897 49.1715,264 48.0685,264 L48.0685,264 Z" id="Amazon-EventBridge_Icon_16_White"></path>
        </g>
    </g>
</svg>
