<?xml version="1.0" encoding="UTF-8"?>
<svg width="14px" height="14px" viewBox="0 0 14 14" version="1.1" xmlns="http://www.w3.org/2000/svg" xmlns:xlink="http://www.w3.org/1999/xlink">
    <g stroke="none" stroke-width="1" fill="none" fill-rule="evenodd">
        <g transform="translate(-205.896826, 0.500000)">
            <g transform="translate(207.574860, 1.006419)">
                <path d="M5.5,11 C2.46243388,11 0,8.53756612 0,5.5 C0,2.46243388 2.46243388,0 5.5,0 C8.53756612,0 11,2.46243388 11,5.5 C11,7.0535128 10.3559156,8.45659164 9.32021617,9.45676719 C8.33082412,10.4122237 6.98405332,11 5.5,11 Z" stroke="#EBEDF4" stroke-width="1.5"></path>
                <rect fill="#EAECF3" x="4.63375" y="7.93038485" width="1.7325" height="1.73461804" rx="0.86625"></rect>
                <path d="M4.71632086,4.18930803 C4.71632086,3.75898616 5.06967813,3.43448981 5.5,3.43448981 C5.93032187,3.43448981 6.27916667,3.78333461 6.27916667,4.21365648 C6.27916667,4.2709537 6.14234021,4.45680963 5.73523031,4.85374178 C5.5034906,5.079688 5.4382403,5.14470527 5.33046806,5.26190758 C4.93881063,5.68783503 4.72083333,6.07038519 4.72083333,6.55115648 C4.72083333,6.98147834 5.06967813,7.33032314 5.5,7.33032314 C5.93032187,7.33032314 6.27916667,6.98147834 6.27916667,6.55115648 L6.27916667,6.55115648 L6.27916667,6.55115648 C6.27916667,6.56529351 6.32836928,6.47894291 6.47755663,6.31670167 C6.55821032,6.22899079 6.61475786,6.17264521 6.82310302,5.96950867 C7.55933551,5.25168199 7.8375,4.8738419 7.8375,4.21365648 C7.8375,2.92269087 6.7909656,1.87615648 5.5,1.87615648 C4.2090344,1.87615648 3.1625,2.92269087 3.1625,4.21365648 C3.21166288,4.71587206 4.51469429,5.01477793 4.71632086,4.18930803 Z" fill="#EAECF3"></path>
            </g>
        </g>
    </g>
</svg>