<?xml version="1.0" encoding="UTF-8" standalone="no"?>
<!DOCTYPE svg PUBLIC "-//W3C//DTD SVG 1.1//EN"
 "http://www.w3.org/Graphics/SVG/1.1/DTD/svg11.dtd">
<!-- Generated by graphviz version 9.0.0 (20230911.1827)
 -->
<!-- Title: dependency&#45;cruiser output Pages: 1 -->
<svg width="888pt" height="782pt"
 viewBox="0.00 0.00 887.88 782.40" xmlns="http://www.w3.org/2000/svg" xmlns:xlink="http://www.w3.org/1999/xlink">
<g id="graph0" class="graph" transform="scale(1 1) rotate(0) translate(4 778.4)">
<title>dependency&#45;cruiser output</title>
<polygon fill="white" stroke="none" points="-4,4 -4,-778.4 883.88,-778.4 883.88,4 -4,4"/>
<g id="clust1" class="cluster">
<title>cluster_node_modules</title>
<path fill="#ffffff" stroke="black" stroke-width="2" d="M728.62,-396.4C728.62,-396.4 859.88,-396.4 859.88,-396.4 865.88,-396.4 871.88,-402.4 871.88,-408.4 871.88,-408.4 871.88,-702.4 871.88,-702.4 871.88,-708.4 865.88,-714.4 859.88,-714.4 859.88,-714.4 728.62,-714.4 728.62,-714.4 722.62,-714.4 716.62,-708.4 716.62,-702.4 716.62,-702.4 716.62,-408.4 716.62,-408.4 716.62,-402.4 722.62,-396.4 728.62,-396.4"/>
<text text-anchor="middle" x="794.25" y="-701.85" font-family="Helvetica,sans-Serif" font-weight="bold" font-size="9.00">node_modules</text>
</g>
<g id="clust2" class="cluster">
<title>cluster_node_modules/@aws&#45;sdk</title>
<path fill="#ffffff" stroke="black" stroke-width="2" d="M736.62,-520.4C736.62,-520.4 851.88,-520.4 851.88,-520.4 857.88,-520.4 863.88,-526.4 863.88,-532.4 863.88,-532.4 863.88,-590.4 863.88,-590.4 863.88,-596.4 857.88,-602.4 851.88,-602.4 851.88,-602.4 736.62,-602.4 736.62,-602.4 730.62,-602.4 724.62,-596.4 724.62,-590.4 724.62,-590.4 724.62,-532.4 724.62,-532.4 724.62,-526.4 730.62,-520.4 736.62,-520.4"/>
<text text-anchor="middle" x="794.25" y="-589.85" font-family="Helvetica,sans-Serif" font-weight="bold" font-size="9.00">@aws&#45;sdk</text>
</g>
<g id="clust3" class="cluster">
<title>cluster_node_modules/@types</title>
<path fill="#ffffff" stroke="black" stroke-width="2" d="M771.25,-460.4C771.25,-460.4 817.25,-460.4 817.25,-460.4 823.25,-460.4 829.25,-466.4 829.25,-472.4 829.25,-472.4 829.25,-500.4 829.25,-500.4 829.25,-506.4 823.25,-512.4 817.25,-512.4 817.25,-512.4 771.25,-512.4 771.25,-512.4 765.25,-512.4 759.25,-506.4 759.25,-500.4 759.25,-500.4 759.25,-472.4 759.25,-472.4 759.25,-466.4 765.25,-460.4 771.25,-460.4"/>
<text text-anchor="middle" x="794.25" y="-499.85" font-family="Helvetica,sans-Serif" font-weight="bold" font-size="9.00">@types</text>
</g>
<g id="clust4" class="cluster">
<title>cluster_src</title>
<path fill="#ffffff" stroke="black" stroke-width="2" d="M20,-138.4C20,-138.4 696.62,-138.4 696.62,-138.4 702.62,-138.4 708.62,-144.4 708.62,-150.4 708.62,-150.4 708.62,-554.4 708.62,-554.4 708.62,-560.4 702.62,-566.4 696.62,-566.4 696.62,-566.4 20,-566.4 20,-566.4 14,-566.4 8,-560.4 8,-554.4 8,-554.4 8,-150.4 8,-150.4 8,-144.4 14,-138.4 20,-138.4"/>
<text text-anchor="middle" x="358.31" y="-553.85" font-family="Helvetica,sans-Serif" font-weight="bold" font-size="9.00">src</text>
</g>
<g id="clust5" class="cluster">
<title>cluster_src/shared</title>
<path fill="#ffffff" stroke="black" stroke-width="2" d="M106,-146.4C106,-146.4 688.62,-146.4 688.62,-146.4 694.62,-146.4 700.62,-152.4 700.62,-158.4 700.62,-158.4 700.62,-528.4 700.62,-528.4 700.62,-534.4 694.62,-540.4 688.62,-540.4 688.62,-540.4 106,-540.4 106,-540.4 100,-540.4 94,-534.4 94,-528.4 94,-528.4 94,-158.4 94,-158.4 94,-152.4 100,-146.4 106,-146.4"/>
<text text-anchor="middle" x="397.31" y="-527.85" font-family="Helvetica,sans-Serif" font-weight="bold" font-size="9.00">shared</text>
</g>
<g id="clust6" class="cluster">
<title>cluster_src/shared/clients</title>
<path fill="#ffffff" stroke="black" stroke-width="2" d="M216.75,-232.4C216.75,-232.4 311,-232.4 311,-232.4 317,-232.4 323,-238.4 323,-244.4 323,-244.4 323,-272.4 323,-272.4 323,-278.4 317,-284.4 311,-284.4 311,-284.4 216.75,-284.4 216.75,-284.4 210.75,-284.4 204.75,-278.4 204.75,-272.4 204.75,-272.4 204.75,-244.4 204.75,-244.4 204.75,-238.4 210.75,-232.4 216.75,-232.4"/>
<text text-anchor="middle" x="263.88" y="-271.85" font-family="Helvetica,sans-Serif" font-weight="bold" font-size="9.00">clients</text>
</g>
<g id="clust7" class="cluster">
<title>cluster_src/shared/logger</title>
<path fill="#ffffff" stroke="black" stroke-width="2" d="M343.75,-376.4C343.75,-376.4 498.38,-376.4 498.38,-376.4 504.38,-376.4 510.38,-382.4 510.38,-388.4 510.38,-388.4 510.38,-446.4 510.38,-446.4 510.38,-452.4 504.38,-458.4 498.38,-458.4 498.38,-458.4 343.75,-458.4 343.75,-458.4 337.75,-458.4 331.75,-452.4 331.75,-446.4 331.75,-446.4 331.75,-388.4 331.75,-388.4 331.75,-382.4 337.75,-376.4 343.75,-376.4"/>
<text text-anchor="middle" x="421.06" y="-445.85" font-family="Helvetica,sans-Serif" font-weight="bold" font-size="9.00">logger</text>
</g>
<g id="clust8" class="cluster">
<title>cluster_src/shared/templates</title>
<path fill="#ffffff" stroke="black" stroke-width="2" d="M224.25,-376.4C224.25,-376.4 303.5,-376.4 303.5,-376.4 309.5,-376.4 315.5,-382.4 315.5,-388.4 315.5,-388.4 315.5,-416.4 315.5,-416.4 315.5,-422.4 309.5,-428.4 303.5,-428.4 303.5,-428.4 224.25,-428.4 224.25,-428.4 218.25,-428.4 212.25,-422.4 212.25,-416.4 212.25,-416.4 212.25,-388.4 212.25,-388.4 212.25,-382.4 218.25,-376.4 224.25,-376.4"/>
<text text-anchor="middle" x="263.88" y="-415.85" font-family="Helvetica,sans-Serif" font-weight="bold" font-size="9.00">templates</text>
</g>
<g id="clust9" class="cluster">
<title>cluster_src/shared/utilities</title>
<path fill="#ffffff" stroke="black" stroke-width="2" d="M422.5,-188.4C422.5,-188.4 680.62,-188.4 680.62,-188.4 686.62,-188.4 692.62,-194.4 692.62,-200.4 692.62,-200.4 692.62,-318.4 692.62,-318.4 692.62,-324.4 686.62,-330.4 680.62,-330.4 680.62,-330.4 422.5,-330.4 422.5,-330.4 416.5,-330.4 410.5,-324.4 410.5,-318.4 410.5,-318.4 410.5,-200.4 410.5,-200.4 410.5,-194.4 416.5,-188.4 422.5,-188.4"/>
<text text-anchor="middle" x="551.56" y="-317.85" font-family="Helvetica,sans-Serif" font-weight="bold" font-size="9.00">utilities</text>
</g>
<g id="clust10" class="cluster">
<title>cluster_src/shared/vscode</title>
<path fill="#ffffff" stroke="black" stroke-width="2" d="M634.62,-338.4C634.62,-338.4 680.62,-338.4 680.62,-338.4 686.62,-338.4 692.62,-344.4 692.62,-350.4 692.62,-350.4 692.62,-378.4 692.62,-378.4 692.62,-384.4 686.62,-390.4 680.62,-390.4 680.62,-390.4 634.62,-390.4 634.62,-390.4 628.62,-390.4 622.62,-384.4 622.62,-378.4 622.62,-378.4 622.62,-350.4 622.62,-350.4 622.62,-344.4 628.62,-338.4 634.62,-338.4"/>
<text text-anchor="start" x="641.88" y="-377.85" font-family="Helvetica,sans-Serif" font-weight="bold" font-size="9.00">vscode</text>
</g>
<g id="clust11" class="cluster">
<title>cluster_src/srcShared</title>
<path fill="#ffffff" stroke="black" stroke-width="2" d="M28,-271.4C28,-271.4 74,-271.4 74,-271.4 80,-271.4 86,-277.4 86,-283.4 86,-283.4 86,-311.4 86,-311.4 86,-317.4 80,-323.4 74,-323.4 74,-323.4 28,-323.4 28,-323.4 22,-323.4 16,-317.4 16,-311.4 16,-311.4 16,-283.4 16,-283.4 16,-277.4 22,-271.4 28,-271.4"/>
<text text-anchor="middle" x="51" y="-310.85" font-family="Helvetica,sans-Serif" font-weight="bold" font-size="9.00">srcShared</text>
</g>
<!-- crypto -->
<g id="node1" class="node">
<title>crypto</title>
<g id="a_node1"><a xlink:href="https://nodejs.org/api/crypto.html" xlink:title="crypto">
<path fill="#ffffcc" stroke="grey" d="M387.83,-651.27C387.83,-651.27 345.67,-651.27 345.67,-651.27 342.71,-651.27 339.75,-648.31 339.75,-645.35 339.75,-645.35 339.75,-639.44 339.75,-639.44 339.75,-636.48 342.71,-633.52 345.67,-633.52 345.67,-633.52 387.83,-633.52 387.83,-633.52 390.79,-633.52 393.75,-636.48 393.75,-639.44 393.75,-639.44 393.75,-645.35 393.75,-645.35 393.75,-648.31 390.79,-651.27 387.83,-651.27"/>
<text text-anchor="middle" x="366.75" y="-638.72" font-family="Helvetica,sans-Serif" font-size="9.00" fill="grey">crypto</text>
</a>
</g>
</g>
<!-- fs -->
<g id="node2" class="node">
<title>fs</title>
<g id="a_node2"><a xlink:href="https://nodejs.org/api/fs.html" xlink:title="fs">
<path fill="#ffffcc" stroke="grey" d="M387.83,-64.27C387.83,-64.27 345.67,-64.27 345.67,-64.27 342.71,-64.27 339.75,-61.31 339.75,-58.35 339.75,-58.35 339.75,-52.44 339.75,-52.44 339.75,-49.48 342.71,-46.52 345.67,-46.52 345.67,-46.52 387.83,-46.52 387.83,-46.52 390.79,-46.52 393.75,-49.48 393.75,-52.44 393.75,-52.44 393.75,-58.35 393.75,-58.35 393.75,-61.31 390.79,-64.27 387.83,-64.27"/>
<text text-anchor="middle" x="366.75" y="-51.72" font-family="Helvetica,sans-Serif" font-size="9.00" fill="grey">fs</text>
</a>
</g>
</g>
<!-- node_modules/@aws&#45;sdk/service&#45;error&#45;classification -->
<g id="node3" class="node">
<title>node_modules/@aws&#45;sdk/service&#45;error&#45;classification</title>
<g id="a_node3"><a xlink:href="https://www.npmjs.com/package/@aws-sdk/service-error-classification" xlink:title="service&#45;error&#45;classification">
<polygon fill="#c40b0a" fill-opacity="0.101961" stroke="black" points="855.88,-576.27 734.6,-576.27 732.62,-574.3 732.62,-558.52 853.9,-558.52 855.88,-560.49 855.88,-576.27"/>
<polyline fill="none" stroke="black" points="853.9,-574.3 732.62,-574.3"/>
<polyline fill="none" stroke="black" points="853.9,-574.3 853.9,-558.52"/>
<polyline fill="none" stroke="black" points="853.9,-574.3 855.88,-576.27"/>
<text text-anchor="start" x="740.62" y="-563.72" font-family="Helvetica,sans-Serif" font-size="9.00" fill="#c40b0a">service&#45;error&#45;classification</text>
</a>
</g>
</g>
<!-- node_modules/@aws&#45;sdk/smithy&#45;client -->
<g id="node4" class="node">
<title>node_modules/@aws&#45;sdk/smithy&#45;client</title>
<g id="a_node4"><a xlink:href="https://www.npmjs.com/package/@aws-sdk/smithy-client" xlink:title="smithy&#45;client">
<polygon fill="#c40b0a" fill-opacity="0.101961" stroke="black" points="827.75,-546.27 762.72,-546.27 760.75,-544.3 760.75,-528.52 825.78,-528.52 827.75,-530.49 827.75,-546.27"/>
<polyline fill="none" stroke="black" points="825.78,-544.3 760.75,-544.3"/>
<polyline fill="none" stroke="black" points="825.78,-544.3 825.78,-528.52"/>
<polyline fill="none" stroke="black" points="825.78,-544.3 827.75,-546.27"/>
<text text-anchor="start" x="768.75" y="-533.72" font-family="Helvetica,sans-Serif" font-size="9.00" fill="#c40b0a">smithy&#45;client</text>
</a>
</g>
</g>
<!-- node_modules/@types/vscode -->
<g id="node5" class="node">
<title>node_modules/@types/vscode</title>
<g id="a_node5"><a xlink:href="https://www.npmjs.com/package/@types/vscode" xlink:title="vscode">
<polygon fill="#c40b0a" fill-opacity="0.101961" stroke="black" points="821.25,-486.27 769.22,-486.27 767.25,-484.3 767.25,-468.52 819.28,-468.52 821.25,-470.49 821.25,-486.27"/>
<polyline fill="none" stroke="black" points="819.28,-484.3 767.25,-484.3"/>
<polyline fill="none" stroke="black" points="819.28,-484.3 819.28,-468.52"/>
<polyline fill="none" stroke="black" points="819.28,-484.3 821.25,-486.27"/>
<text text-anchor="start" x="779.62" y="-473.72" font-family="Helvetica,sans-Serif" font-size="9.00" fill="#c40b0a">vscode</text>
</a>
</g>
</g>
<!-- node_modules/aws&#45;sdk -->
<g id="node6" class="node">
<title>node_modules/aws&#45;sdk</title>
<g id="a_node6"><a xlink:href="https://www.npmjs.com/package/aws-sdk" xlink:title="aws&#45;sdk">
<polygon fill="#c40b0a" fill-opacity="0.101961" stroke="black" points="821.25,-422.27 769.22,-422.27 767.25,-420.3 767.25,-404.52 819.28,-404.52 821.25,-406.49 821.25,-422.27"/>
<polyline fill="none" stroke="black" points="819.28,-420.3 767.25,-420.3"/>
<polyline fill="none" stroke="black" points="819.28,-420.3 819.28,-404.52"/>
<polyline fill="none" stroke="black" points="819.28,-420.3 821.25,-422.27"/>
<text text-anchor="start" x="777.38" y="-409.72" font-family="Helvetica,sans-Serif" font-size="9.00" fill="#c40b0a">aws&#45;sdk</text>
</a>
</g>
</g>
<!-- node_modules/fs&#45;extra -->
<g id="node7" class="node">
<title>node_modules/fs&#45;extra</title>
<g id="a_node7"><a xlink:href="https://www.npmjs.com/package/fs-extra" xlink:title="fs&#45;extra">
<polygon fill="#c40b0a" fill-opacity="0.101961" stroke="black" points="821.25,-628.27 769.22,-628.27 767.25,-626.3 767.25,-610.52 819.28,-610.52 821.25,-612.49 821.25,-628.27"/>
<polyline fill="none" stroke="black" points="819.28,-626.3 767.25,-626.3"/>
<polyline fill="none" stroke="black" points="819.28,-626.3 819.28,-610.52"/>
<polyline fill="none" stroke="black" points="819.28,-626.3 821.25,-628.27"/>
<text text-anchor="start" x="779.25" y="-615.72" font-family="Helvetica,sans-Serif" font-size="9.00" fill="#c40b0a">fs&#45;extra</text>
</a>
</g>
</g>
<!-- node_modules/lodash -->
<g id="node8" class="node">
<title>node_modules/lodash</title>
<g id="a_node8"><a xlink:href="https://www.npmjs.com/package/lodash" xlink:title="lodash">
<polygon fill="#c40b0a" fill-opacity="0.101961" stroke="black" points="821.25,-688.27 769.22,-688.27 767.25,-686.3 767.25,-670.52 819.28,-670.52 821.25,-672.49 821.25,-688.27"/>
<polyline fill="none" stroke="black" points="819.28,-686.3 767.25,-686.3"/>
<polyline fill="none" stroke="black" points="819.28,-686.3 819.28,-670.52"/>
<polyline fill="none" stroke="black" points="819.28,-686.3 821.25,-688.27"/>
<text text-anchor="start" x="780.38" y="-675.72" font-family="Helvetica,sans-Serif" font-size="9.00" fill="#c40b0a">lodash</text>
</a>
</g>
</g>
<!-- node_modules/semver -->
<g id="node9" class="node">
<title>node_modules/semver</title>
<g id="a_node9"><a xlink:href="https://www.npmjs.com/package/semver" xlink:title="semver">
<polygon fill="#c40b0a" fill-opacity="0.101961" stroke="black" points="821.25,-452.27 769.22,-452.27 767.25,-450.3 767.25,-434.52 819.28,-434.52 821.25,-436.49 821.25,-452.27"/>
<polyline fill="none" stroke="black" points="819.28,-450.3 767.25,-450.3"/>
<polyline fill="none" stroke="black" points="819.28,-450.3 819.28,-434.52"/>
<polyline fill="none" stroke="black" points="819.28,-450.3 821.25,-452.27"/>
<text text-anchor="start" x="779.25" y="-439.72" font-family="Helvetica,sans-Serif" font-size="9.00" fill="#c40b0a">semver</text>
</a>
</g>
</g>
<!-- node_modules/vscode&#45;nls -->
<g id="node10" class="node">
<title>node_modules/vscode&#45;nls</title>
<g id="a_node10"><a xlink:href="https://www.npmjs.com/package/vscode-nls" xlink:title="vscode&#45;nls">
<polygon fill="#c40b0a" fill-opacity="0.101961" stroke="black" points="824.38,-658.27 766.1,-658.27 764.12,-656.3 764.12,-640.52 822.4,-640.52 824.38,-642.49 824.38,-658.27"/>
<polyline fill="none" stroke="black" points="822.4,-656.3 764.12,-656.3"/>
<polyline fill="none" stroke="black" points="822.4,-656.3 822.4,-640.52"/>
<polyline fill="none" stroke="black" points="822.4,-656.3 824.38,-658.27"/>
<text text-anchor="start" x="772.12" y="-645.72" font-family="Helvetica,sans-Serif" font-size="9.00" fill="#c40b0a">vscode&#45;nls</text>
</a>
</g>
</g>
<!-- os -->
<g id="node11" class="node">
<title>os</title>
<g id="a_node11"><a xlink:href="https://nodejs.org/api/os.html" xlink:title="os">
<path fill="#ffffcc" stroke="grey" d="M587.58,-116.27C587.58,-116.27 545.42,-116.27 545.42,-116.27 542.46,-116.27 539.5,-113.31 539.5,-110.35 539.5,-110.35 539.5,-104.44 539.5,-104.44 539.5,-101.48 542.46,-98.52 545.42,-98.52 545.42,-98.52 587.58,-98.52 587.58,-98.52 590.54,-98.52 593.5,-101.48 593.5,-104.44 593.5,-104.44 593.5,-110.35 593.5,-110.35 593.5,-113.31 590.54,-116.27 587.58,-116.27"/>
<text text-anchor="middle" x="566.5" y="-103.72" font-family="Helvetica,sans-Serif" font-size="9.00" fill="grey">os</text>
</a>
</g>
</g>
<!-- package.json -->
<g id="node12" class="node">
<title>package.json</title>
<g id="a_node12"><a xlink:href="package.json" xlink:title="package.json">
<path fill="#ffee44" stroke="black" d="M823.71,-200.27C823.71,-200.27 764.79,-200.27 764.79,-200.27 761.83,-200.27 758.88,-197.31 758.88,-194.35 758.88,-194.35 758.88,-188.44 758.88,-188.44 758.88,-185.48 761.83,-182.52 764.79,-182.52 764.79,-182.52 823.71,-182.52 823.71,-182.52 826.67,-182.52 829.62,-185.48 829.62,-188.44 829.62,-188.44 829.62,-194.35 829.62,-194.35 829.62,-197.31 826.67,-200.27 823.71,-200.27"/>
<text text-anchor="middle" x="794.25" y="-187.72" font-family="Helvetica,sans-Serif" font-size="9.00">package.json</text>
</a>
</g>
</g>
<!-- path -->
<g id="node13" class="node">
<title>path</title>
<g id="a_node13"><a xlink:href="https://nodejs.org/api/path.html" xlink:title="path">
<path fill="#ffffcc" stroke="grey" d="M587.58,-680.27C587.58,-680.27 545.42,-680.27 545.42,-680.27 542.46,-680.27 539.5,-677.31 539.5,-674.35 539.5,-674.35 539.5,-668.44 539.5,-668.44 539.5,-665.48 542.46,-662.52 545.42,-662.52 545.42,-662.52 587.58,-662.52 587.58,-662.52 590.54,-662.52 593.5,-665.48 593.5,-668.44 593.5,-668.44 593.5,-674.35 593.5,-674.35 593.5,-677.31 590.54,-680.27 587.58,-680.27"/>
<text text-anchor="middle" x="566.5" y="-667.72" font-family="Helvetica,sans-Serif" font-size="9.00" fill="grey">path</text>
</a>
</g>
</g>
<!-- src/shared/clients/ec2MetadataClient.ts -->
<g id="node14" class="node">
<title>src/shared/clients/ec2MetadataClient.ts</title>
<g id="a_node14"><a xlink:href="src/shared/clients/ec2MetadataClient.ts" xlink:title="ec2MetadataClient.ts">
<path fill="#ddfeff" stroke="black" d="M309.08,-258.27C309.08,-258.27 218.67,-258.27 218.67,-258.27 215.71,-258.27 212.75,-255.31 212.75,-252.35 212.75,-252.35 212.75,-246.44 212.75,-246.44 212.75,-243.48 215.71,-240.52 218.67,-240.52 218.67,-240.52 309.08,-240.52 309.08,-240.52 312.04,-240.52 315,-243.48 315,-246.44 315,-246.44 315,-252.35 315,-252.35 315,-255.31 312.04,-258.27 309.08,-258.27"/>
<text text-anchor="start" x="220.75" y="-245.72" font-family="Helvetica,sans-Serif" font-size="9.00">ec2MetadataClient.ts</text>
</a>
</g>
</g>
<!-- src/shared/clients/ec2MetadataClient.ts&#45;&gt;node_modules/aws&#45;sdk -->
<g id="edge1" class="edge">
<title>src/shared/clients/ec2MetadataClient.ts&#45;&gt;node_modules/aws&#45;sdk</title>
<path fill="none" stroke="#000000" stroke-opacity="0.200000" d="M267.66,-240.23C274.52,-219.38 294.43,-168.47 331,-146.4 379.69,-117 401.62,-135.4 458.5,-135.4 458.5,-135.4 458.5,-135.4 567.5,-135.4 634.04,-135.4 662.47,-137.46 708.62,-185.4 709.12,-185.9 768.17,-345.56 787.33,-397.37"/>
<polygon fill="#000000" fill-opacity="0.200000" stroke="#000000" stroke-opacity="0.200000" points="785.28,-397.88 789.33,-402.78 789.21,-396.42 785.28,-397.88"/>
</g>
<!-- src/shared/errors.ts -->
<g id="node15" class="node">
<title>src/shared/errors.ts</title>
<g id="a_node15"><a xlink:href="src/shared/errors.ts" xlink:title="errors.ts">
<path fill="#ddfeff" stroke="black" d="M387.83,-514.27C387.83,-514.27 345.67,-514.27 345.67,-514.27 342.71,-514.27 339.75,-511.31 339.75,-508.35 339.75,-508.35 339.75,-502.44 339.75,-502.44 339.75,-499.48 342.71,-496.52 345.67,-496.52 345.67,-496.52 387.83,-496.52 387.83,-496.52 390.79,-496.52 393.75,-499.48 393.75,-502.44 393.75,-502.44 393.75,-508.35 393.75,-508.35 393.75,-511.31 390.79,-514.27 387.83,-514.27"/>
<text text-anchor="start" x="350.25" y="-501.72" font-family="Helvetica,sans-Serif" font-size="9.00">errors.ts</text>
</a>
</g>
</g>
<!-- src/shared/errors.ts&#45;&gt;node_modules/@aws&#45;sdk/service&#45;error&#45;classification -->
<g id="edge4" class="edge">
<title>src/shared/errors.ts&#45;&gt;node_modules/@aws&#45;sdk/service&#45;error&#45;classification</title>
<g id="a_edge4"><a xlink:title="no&#45;non&#45;package&#45;json">
<path fill="none" stroke="red" d="M385.19,-514.6C392.77,-518.22 401.88,-522.05 410.5,-524.4 517.87,-553.54 647.35,-562.96 724.85,-565.99"/>
<polygon fill="red" stroke="red" points="724.6,-568.08 730.67,-566.21 724.75,-563.89 724.6,-568.08"/>
</a>
</g>
<text text-anchor="middle" x="513.38" y="-543.8" font-family="Helvetica,sans-Serif" font-size="9.00" fill="red">no&#45;non&#45;package&#45;json</text>
</g>
<!-- src/shared/errors.ts&#45;&gt;node_modules/@aws&#45;sdk/smithy&#45;client -->
<g id="edge5" class="edge">
<title>src/shared/errors.ts&#45;&gt;node_modules/@aws&#45;sdk/smithy&#45;client</title>
<path fill="none" stroke="#000000" stroke-opacity="0.200000" d="M393.96,-508.65C399.42,-509.28 405.14,-509.89 410.5,-510.4 535.29,-522.09 683.39,-531.18 753.13,-535.17"/>
<polygon fill="#000000" fill-opacity="0.200000" stroke="#000000" stroke-opacity="0.200000" points="752.82,-537.26 758.93,-535.5 753.06,-533.07 752.82,-537.26"/>
</g>
<!-- src/shared/errors.ts&#45;&gt;node_modules/@types/vscode -->
<g id="edge6" class="edge">
<title>src/shared/errors.ts&#45;&gt;node_modules/@types/vscode</title>
<path fill="none" stroke="#000000" stroke-opacity="0.200000" d="M393.87,-504.39C451,-502.09 591.35,-495.89 708.62,-486.4 725.46,-485.03 744.13,-483.09 759.64,-481.36"/>
<polygon fill="#000000" fill-opacity="0.200000" stroke="#000000" stroke-opacity="0.200000" points="759.75,-483.46 765.48,-480.7 759.28,-479.29 759.75,-483.46"/>
</g>
<!-- src/shared/utilities/timeoutUtils.ts -->
<g id="node16" class="node">
<title>src/shared/utilities/timeoutUtils.ts</title>
<g id="a_node16"><a xlink:href="src/shared/utilities/timeoutUtils.ts" xlink:title="timeoutUtils.ts">
<path fill="#ddfeff" stroke="black" d="M490.08,-304.27C490.08,-304.27 428.92,-304.27 428.92,-304.27 425.96,-304.27 423,-301.31 423,-298.35 423,-298.35 423,-292.44 423,-292.44 423,-289.48 425.96,-286.52 428.92,-286.52 428.92,-286.52 490.08,-286.52 490.08,-286.52 493.04,-286.52 496,-289.48 496,-292.44 496,-292.44 496,-298.35 496,-298.35 496,-301.31 493.04,-304.27 490.08,-304.27"/>
<text text-anchor="start" x="431" y="-291.72" font-family="Helvetica,sans-Serif" font-size="9.00">timeoutUtils.ts</text>
</a>
</g>
</g>
<!-- src/shared/errors.ts&#45;&gt;src/shared/utilities/timeoutUtils.ts -->
<g id="edge2" class="edge">
<title>src/shared/errors.ts&#45;&gt;src/shared/utilities/timeoutUtils.ts</title>
<path fill="none" stroke="#000000" stroke-width="2" stroke-opacity="0.200000" d="M394.01,-497.94C397.31,-495.98 400.3,-493.51 402.5,-490.4 417.55,-469.12 402.55,-398.21 410.5,-373.4 417.93,-350.18 433.67,-326.81 445.11,-311.78"/>
<polygon fill="#000000" fill-opacity="0.200000" stroke="#000000" stroke-width="2" stroke-opacity="0.200000" points="446.72,-313.13 448.76,-307.11 443.41,-310.54 446.72,-313.13"/>
</g>
<!-- src/shared/utilities/tsUtils.ts -->
<g id="node17" class="node">
<title>src/shared/utilities/tsUtils.ts</title>
<g id="a_node17"><a xlink:href="src/shared/utilities/tsUtils.ts" xlink:title="tsUtils.ts">
<path fill="#ddfeff" stroke="black" d="M678.71,-214.27C678.71,-214.27 636.54,-214.27 636.54,-214.27 633.58,-214.27 630.62,-211.31 630.62,-208.35 630.62,-208.35 630.62,-202.44 630.62,-202.44 630.62,-199.48 633.58,-196.52 636.54,-196.52 636.54,-196.52 678.71,-196.52 678.71,-196.52 681.67,-196.52 684.62,-199.48 684.62,-202.44 684.62,-202.44 684.62,-208.35 684.62,-208.35 684.62,-211.31 681.67,-214.27 678.71,-214.27"/>
<text text-anchor="start" x="640.75" y="-201.72" font-family="Helvetica,sans-Serif" font-size="9.00">tsUtils.ts</text>
</a>
</g>
</g>
<!-- src/shared/errors.ts&#45;&gt;src/shared/utilities/tsUtils.ts -->
<g id="edge3" class="edge">
<title>src/shared/errors.ts&#45;&gt;src/shared/utilities/tsUtils.ts</title>
<path fill="none" stroke="#000000" stroke-width="2" stroke-opacity="0.200000" d="M394.12,-498.02C397.41,-496.05 400.36,-493.55 402.5,-490.4 411.84,-476.59 398.55,-202.03 410.5,-190.4 469.5,-132.94 578.81,-170.31 629.5,-192.43"/>
<polygon fill="#000000" fill-opacity="0.200000" stroke="#000000" stroke-width="2" stroke-opacity="0.200000" points="628.59,-194.32 634.93,-194.86 630.31,-190.49 628.59,-194.32"/>
</g>
<!-- src/shared/utilities/timeoutUtils.ts&#45;&gt;node_modules/@types/vscode -->
<g id="edge52" class="edge">
<title>src/shared/utilities/timeoutUtils.ts&#45;&gt;node_modules/@types/vscode</title>
<path fill="none" stroke="#000000" stroke-opacity="0.200000" d="M467.61,-304.48C478.29,-318.52 498.47,-346.67 510.38,-373.4 515.82,-385.61 508.56,-393.31 518.38,-402.4 549.98,-431.65 676.43,-410.78 708.62,-439.4 717.34,-447.15 707.81,-456.75 716.62,-464.4 728.26,-474.48 744.74,-478.16 759.44,-479.14"/>
<polygon fill="#000000" fill-opacity="0.200000" stroke="#000000" stroke-opacity="0.200000" points="759.35,-481.24 765.42,-479.37 759.51,-477.04 759.35,-481.24"/>
</g>
<!-- src/shared/extensionGlobals.ts -->
<g id="node18" class="node">
<title>src/shared/extensionGlobals.ts</title>
<g id="a_node18"><a xlink:href="src/shared/extensionGlobals.ts" xlink:title="extensionGlobals.ts">
<path fill="#ddfeff" stroke="black" d="M608.71,-384.27C608.71,-384.27 524.29,-384.27 524.29,-384.27 521.33,-384.27 518.38,-381.31 518.38,-378.35 518.38,-378.35 518.38,-372.44 518.38,-372.44 518.38,-369.48 521.33,-366.52 524.29,-366.52 524.29,-366.52 608.71,-366.52 608.71,-366.52 611.67,-366.52 614.62,-369.48 614.62,-372.44 614.62,-372.44 614.62,-378.35 614.62,-378.35 614.62,-381.31 611.67,-384.27 608.71,-384.27"/>
<text text-anchor="start" x="526.38" y="-371.72" font-family="Helvetica,sans-Serif" font-size="9.00">extensionGlobals.ts</text>
</a>
</g>
</g>
<!-- src/shared/utilities/timeoutUtils.ts&#45;&gt;src/shared/extensionGlobals.ts -->
<g id="edge51" class="edge">
<title>src/shared/utilities/timeoutUtils.ts&#45;&gt;src/shared/extensionGlobals.ts</title>
<path fill="none" stroke="#000000" stroke-width="2" stroke-opacity="0.200000" d="M496.33,-300C501.5,-301.94 506.41,-304.64 510.38,-308.4 518.85,-316.42 512.02,-323.61 518.38,-333.4 525.25,-343.98 535.49,-353.55 544.66,-360.86"/>
<polygon fill="#000000" fill-opacity="0.200000" stroke="#000000" stroke-width="2" stroke-opacity="0.200000" points="543.25,-362.43 549.3,-364.39 545.79,-359.09 543.25,-362.43"/>
</g>
<!-- src/shared/extensionUtilities.ts -->
<g id="node19" class="node">
<title>src/shared/extensionUtilities.ts</title>
<g id="a_node19"><a xlink:href="src/shared/extensionUtilities.ts" xlink:title="extensionUtilities.ts">
<path fill="#ddfeff" stroke="black" d="M190.83,-362.27C190.83,-362.27 107.92,-362.27 107.92,-362.27 104.96,-362.27 102,-359.31 102,-356.35 102,-356.35 102,-350.44 102,-350.44 102,-347.48 104.96,-344.52 107.92,-344.52 107.92,-344.52 190.83,-344.52 190.83,-344.52 193.79,-344.52 196.75,-347.48 196.75,-350.44 196.75,-350.44 196.75,-356.35 196.75,-356.35 196.75,-359.31 193.79,-362.27 190.83,-362.27"/>
<text text-anchor="start" x="110" y="-349.72" font-family="Helvetica,sans-Serif" font-size="9.00">extensionUtilities.ts</text>
</a>
</g>
</g>
<!-- src/shared/extensionUtilities.ts&#45;&gt;node_modules/@types/vscode -->
<g id="edge17" class="edge">
<title>src/shared/extensionUtilities.ts&#45;&gt;node_modules/@types/vscode</title>
<path fill="none" stroke="#000000" stroke-opacity="0.200000" d="M150.69,-344.12C152.47,-297.47 162.72,-89 204.75,-43.4 254.87,10.98 291.8,-1.4 365.75,-1.4 365.75,-1.4 365.75,-1.4 460.5,-1.4 597.79,-1.4 653.94,-59.47 708.62,-185.4 714.8,-199.62 706.45,-452.69 716.62,-464.4 727.05,-476.38 744.09,-480.09 759.46,-480.61"/>
<polygon fill="#000000" fill-opacity="0.200000" stroke="#000000" stroke-opacity="0.200000" points="759.32,-482.71 765.32,-480.62 759.33,-478.51 759.32,-482.71"/>
</g>
<!-- src/shared/extensionUtilities.ts&#45;&gt;node_modules/lodash -->
<g id="edge14" class="edge">
<title>src/shared/extensionUtilities.ts&#45;&gt;node_modules/lodash</title>
<path fill="none" stroke="#000000" stroke-opacity="0.200000" d="M150.85,-362.69C153.42,-409.47 166.89,-618.81 204.75,-669.4 252.51,-733.21 286.04,-748.4 365.75,-748.4 365.75,-748.4 365.75,-748.4 567.5,-748.4 643.82,-748.4 728.56,-711.88 769.09,-691.98"/>
<polygon fill="#000000" fill-opacity="0.200000" stroke="#000000" stroke-opacity="0.200000" points="769.88,-693.93 774.31,-689.38 768.01,-690.17 769.88,-693.93"/>
</g>
<!-- src/shared/extensionUtilities.ts&#45;&gt;node_modules/vscode&#45;nls -->
<g id="edge18" class="edge">
<title>src/shared/extensionUtilities.ts&#45;&gt;node_modules/vscode&#45;nls</title>
<path fill="none" stroke="#000000" stroke-opacity="0.200000" d="M150.14,-362.43C149.68,-396.83 151.91,-521.72 204.75,-603.4 253.08,-678.1 276.77,-722.4 365.75,-722.4 365.75,-722.4 365.75,-722.4 567.5,-722.4 638.61,-722.4 648.32,-684.19 716.62,-664.4 729.47,-660.67 743.79,-657.59 756.54,-655.21"/>
<polygon fill="#000000" fill-opacity="0.200000" stroke="#000000" stroke-opacity="0.200000" points="756.83,-657.29 762.36,-654.16 756.08,-653.16 756.83,-657.29"/>
</g>
<!-- src/shared/extensionUtilities.ts&#45;&gt;os -->
<g id="edge15" class="edge">
<title>src/shared/extensionUtilities.ts&#45;&gt;os</title>
<path fill="none" stroke="#000000" stroke-dasharray="5,2" stroke-opacity="0.200000" d="M152.08,-344.26C160.92,-300 205.96,-107.24 331,-40.4 405.96,-0.32 507.57,-64.31 547.93,-93.78"/>
<polygon fill="#000000" fill-opacity="0.200000" stroke="#000000" stroke-opacity="0.200000" points="546.58,-95.4 552.65,-97.3 549.09,-92.03 546.58,-95.4"/>
</g>
<!-- src/shared/extensionUtilities.ts&#45;&gt;path -->
<g id="edge16" class="edge">
<title>src/shared/extensionUtilities.ts&#45;&gt;path</title>
<path fill="none" stroke="#000000" stroke-dasharray="5,2" stroke-opacity="0.200000" d="M152.32,-362.63C162.09,-406.61 210.29,-595.88 331,-675.4 392.29,-715.77 483.52,-697.31 532.15,-682.84"/>
<polygon fill="#000000" fill-opacity="0.200000" stroke="#000000" stroke-opacity="0.200000" points="532.72,-684.87 537.85,-681.1 531.49,-680.85 532.72,-684.87"/>
</g>
<!-- src/shared/extensionUtilities.ts&#45;&gt;src/shared/clients/ec2MetadataClient.ts -->
<g id="edge7" class="edge">
<title>src/shared/extensionUtilities.ts&#45;&gt;src/shared/clients/ec2MetadataClient.ts</title>
<path fill="none" stroke="#000000" stroke-width="2" stroke-opacity="0.200000" d="M153.12,-344.23C158.77,-326.88 173.39,-289.02 205.21,-263.23"/>
<polygon fill="#000000" fill-opacity="0.200000" stroke="#000000" stroke-width="2" stroke-opacity="0.200000" points="206.32,-265.03 209.85,-259.75 203.79,-261.68 206.32,-265.03"/>
</g>
<!-- src/shared/extensions.ts -->
<g id="node20" class="node">
<title>src/shared/extensions.ts</title>
<g id="a_node20"><a xlink:href="src/shared/extensions.ts" xlink:title="extensions.ts">
<path fill="#ddfeff" stroke="black" d="M292.58,-310.27C292.58,-310.27 235.17,-310.27 235.17,-310.27 232.21,-310.27 229.25,-307.31 229.25,-304.35 229.25,-304.35 229.25,-298.44 229.25,-298.44 229.25,-295.48 232.21,-292.52 235.17,-292.52 235.17,-292.52 292.58,-292.52 292.58,-292.52 295.54,-292.52 298.5,-295.48 298.5,-298.44 298.5,-298.44 298.5,-304.35 298.5,-304.35 298.5,-307.31 295.54,-310.27 292.58,-310.27"/>
<text text-anchor="start" x="237.25" y="-297.72" font-family="Helvetica,sans-Serif" font-size="9.00">extensions.ts</text>
</a>
</g>
</g>
<!-- src/shared/extensionUtilities.ts&#45;&gt;src/shared/extensions.ts -->
<g id="edge8" class="edge">
<title>src/shared/extensionUtilities.ts&#45;&gt;src/shared/extensions.ts</title>
<path fill="none" stroke="#000000" stroke-width="2" stroke-opacity="0.200000" d="M161.36,-344.23C171.88,-335.87 188.52,-323.74 204.75,-316.4 209.73,-314.14 215.12,-312.18 220.53,-310.48"/>
<polygon fill="#000000" fill-opacity="0.200000" stroke="#000000" stroke-width="2" stroke-opacity="0.200000" points="220.91,-312.56 226.09,-308.88 219.75,-308.53 220.91,-312.56"/>
</g>
<!-- src/shared/filesystemUtilities.ts -->
<g id="node21" class="node">
<title>src/shared/filesystemUtilities.ts</title>
<g id="a_node21"><a xlink:href="src/shared/filesystemUtilities.ts" xlink:title="filesystemUtilities.ts">
<path fill="#ddfeff" stroke="black" d="M305.71,-454.27C305.71,-454.27 222.04,-454.27 222.04,-454.27 219.08,-454.27 216.12,-451.31 216.12,-448.35 216.12,-448.35 216.12,-442.44 216.12,-442.44 216.12,-439.48 219.08,-436.52 222.04,-436.52 222.04,-436.52 305.71,-436.52 305.71,-436.52 308.67,-436.52 311.62,-439.48 311.62,-442.44 311.62,-442.44 311.62,-448.35 311.62,-448.35 311.62,-451.31 308.67,-454.27 305.71,-454.27"/>
<text text-anchor="start" x="224.12" y="-441.72" font-family="Helvetica,sans-Serif" font-size="9.00">filesystemUtilities.ts</text>
</a>
</g>
</g>
<!-- src/shared/extensionUtilities.ts&#45;&gt;src/shared/filesystemUtilities.ts -->
<g id="edge9" class="edge">
<title>src/shared/extensionUtilities.ts&#45;&gt;src/shared/filesystemUtilities.ts</title>
<path fill="none" stroke="#000000" stroke-width="2" stroke-opacity="0.200000" d="M154.19,-362.75C161.44,-379.31 178.85,-413.71 204.75,-431.4 205.82,-432.13 206.93,-432.82 208.06,-433.48"/>
<polygon fill="#000000" fill-opacity="0.200000" stroke="#000000" stroke-width="2" stroke-opacity="0.200000" points="206.86,-435.23 213.17,-435.98 208.71,-431.46 206.86,-435.23"/>
</g>
<!-- src/shared/logger/index.ts -->
<g id="node22" class="node">
<title>src/shared/logger/index.ts</title>
<g id="a_node22"><a xlink:href="src/shared/logger/index.ts" xlink:title="index.ts">
<path fill="#ddfeff" stroke="black" d="M387.83,-402.27C387.83,-402.27 345.67,-402.27 345.67,-402.27 342.71,-402.27 339.75,-399.31 339.75,-396.35 339.75,-396.35 339.75,-390.44 339.75,-390.44 339.75,-387.48 342.71,-384.52 345.67,-384.52 345.67,-384.52 387.83,-384.52 387.83,-384.52 390.79,-384.52 393.75,-387.48 393.75,-390.44 393.75,-390.44 393.75,-396.35 393.75,-396.35 393.75,-399.31 390.79,-402.27 387.83,-402.27"/>
<text text-anchor="start" x="351" y="-389.72" font-family="Helvetica,sans-Serif" font-size="9.00">index.ts</text>
</a>
</g>
</g>
<!-- src/shared/extensionUtilities.ts&#45;&gt;src/shared/logger/index.ts -->
<g id="edge10" class="edge">
<title>src/shared/extensionUtilities.ts&#45;&gt;src/shared/logger/index.ts</title>
<path fill="none" stroke="#000000" stroke-width="2" stroke-opacity="0.200000" d="M196.85,-357.35C244.03,-361.59 311.69,-368.38 323,-373.4 327.32,-375.31 326.94,-377.97 331,-380.4 331.17,-380.49 331.33,-380.59 331.5,-380.69"/>
<polygon fill="#000000" fill-opacity="0.200000" stroke="#000000" stroke-width="2" stroke-opacity="0.200000" points="330.46,-382.52 336.76,-383.36 332.37,-378.78 330.46,-382.52"/>
</g>
<!-- src/shared/settings.ts -->
<g id="node23" class="node">
<title>src/shared/settings.ts</title>
<g id="a_node23"><a xlink:href="src/shared/settings.ts" xlink:title="settings.ts">
<path fill="#ddfeff" stroke="black" d="M286.21,-340.27C286.21,-340.27 241.54,-340.27 241.54,-340.27 238.58,-340.27 235.62,-337.31 235.62,-334.35 235.62,-334.35 235.62,-328.44 235.62,-328.44 235.62,-325.48 238.58,-322.52 241.54,-322.52 241.54,-322.52 286.21,-322.52 286.21,-322.52 289.17,-322.52 292.12,-325.48 292.12,-328.44 292.12,-328.44 292.12,-334.35 292.12,-334.35 292.12,-337.31 289.17,-340.27 286.21,-340.27"/>
<text text-anchor="start" x="243.62" y="-327.72" font-family="Helvetica,sans-Serif" font-size="9.00">settings.ts</text>
</a>
</g>
</g>
<!-- src/shared/extensionUtilities.ts&#45;&gt;src/shared/settings.ts -->
<g id="edge11" class="edge">
<title>src/shared/extensionUtilities.ts&#45;&gt;src/shared/settings.ts</title>
<path fill="none" stroke="#000000" stroke-width="2" stroke-opacity="0.200000" d="M197.11,-344.26C206.99,-342.32 217.27,-340.31 226.7,-338.47"/>
<polygon fill="#000000" fill-opacity="0.200000" stroke="#000000" stroke-width="2" stroke-opacity="0.200000" points="226.97,-340.56 232.45,-337.34 226.16,-336.44 226.97,-340.56"/>
</g>
<!-- src/shared/templates/baseTemplates.ts -->
<g id="node24" class="node">
<title>src/shared/templates/baseTemplates.ts</title>
<g id="a_node24"><a xlink:href="src/shared/templates/baseTemplates.ts" xlink:title="baseTemplates.ts">
<path fill="#ddfeff" stroke="black" d="M301.58,-402.27C301.58,-402.27 226.17,-402.27 226.17,-402.27 223.21,-402.27 220.25,-399.31 220.25,-396.35 220.25,-396.35 220.25,-390.44 220.25,-390.44 220.25,-387.48 223.21,-384.52 226.17,-384.52 226.17,-384.52 301.58,-384.52 301.58,-384.52 304.54,-384.52 307.5,-387.48 307.5,-390.44 307.5,-390.44 307.5,-396.35 307.5,-396.35 307.5,-399.31 304.54,-402.27 301.58,-402.27"/>
<text text-anchor="start" x="228.25" y="-389.72" font-family="Helvetica,sans-Serif" font-size="9.00">baseTemplates.ts</text>
</a>
</g>
</g>
<!-- src/shared/extensionUtilities.ts&#45;&gt;src/shared/templates/baseTemplates.ts -->
<g id="edge12" class="edge">
<title>src/shared/extensionUtilities.ts&#45;&gt;src/shared/templates/baseTemplates.ts</title>
<path fill="none" stroke="#000000" stroke-width="2" stroke-opacity="0.200000" d="M166.58,-362.73C177.16,-368.5 191.44,-375.68 204.75,-380.4 207.03,-381.2 209.39,-381.97 211.78,-382.71"/>
<polygon fill="#000000" fill-opacity="0.200000" stroke="#000000" stroke-width="2" stroke-opacity="0.200000" points="210.75,-384.6 217.09,-384.22 211.89,-380.56 210.75,-384.6"/>
</g>
<!-- src/shared/vscode/env.ts -->
<g id="node25" class="node">
<title>src/shared/vscode/env.ts</title>
<g id="a_node25"><a xlink:href="src/shared/vscode/env.ts" xlink:title="env.ts">
<path fill="#ddfeff" stroke="black" d="M678.71,-364.27C678.71,-364.27 636.54,-364.27 636.54,-364.27 633.58,-364.27 630.62,-361.31 630.62,-358.35 630.62,-358.35 630.62,-352.44 630.62,-352.44 630.62,-349.48 633.58,-346.52 636.54,-346.52 636.54,-346.52 678.71,-346.52 678.71,-346.52 681.67,-346.52 684.62,-349.48 684.62,-352.44 684.62,-352.44 684.62,-358.35 684.62,-358.35 684.62,-361.31 681.67,-364.27 678.71,-364.27"/>
<text text-anchor="start" x="645.62" y="-351.72" font-family="Helvetica,sans-Serif" font-size="9.00">env.ts</text>
</a>
</g>
</g>
<!-- src/shared/extensionUtilities.ts&#45;&gt;src/shared/vscode/env.ts -->
<g id="edge13" class="edge">
<title>src/shared/extensionUtilities.ts&#45;&gt;src/shared/vscode/env.ts</title>
<path fill="none" stroke="#000000" stroke-width="2" stroke-opacity="0.200000" d="M197.01,-353.4C240.63,-353.4 307.61,-353.4 365.75,-353.4 365.75,-353.4 365.75,-353.4 460.5,-353.4 516.77,-353.4 582.12,-354.23 621.38,-354.82"/>
<polygon fill="#000000" fill-opacity="0.200000" stroke="#000000" stroke-width="2" stroke-opacity="0.200000" points="621.24,-356.92 627.27,-354.91 621.3,-352.72 621.24,-356.92"/>
</g>
<!-- src/shared/filesystemUtilities.ts&#45;&gt;crypto -->
<g id="edge23" class="edge">
<title>src/shared/filesystemUtilities.ts&#45;&gt;crypto</title>
<path fill="none" stroke="#000000" stroke-dasharray="5,2" stroke-opacity="0.200000" d="M265.89,-454.37C269.53,-482.71 284.29,-571.5 331,-624.4 332.53,-626.13 334.26,-627.72 336.13,-629.17"/>
<polygon fill="#000000" fill-opacity="0.200000" stroke="#000000" stroke-opacity="0.200000" points="334.6,-630.67 340.75,-632.29 336.95,-627.19 334.6,-630.67"/>
</g>
<!-- src/shared/filesystemUtilities.ts&#45;&gt;fs -->
<g id="edge24" class="edge">
<title>src/shared/filesystemUtilities.ts&#45;&gt;fs</title>
<path fill="none" stroke="#000000" stroke-dasharray="5,2" stroke-opacity="0.200000" d="M311.99,-440.09C316.2,-437.94 320,-435.11 323,-431.4 334.59,-417.04 324.74,-116.75 331,-99.4 335.03,-88.24 343.1,-77.73 350.44,-69.78"/>
<polygon fill="#000000" fill-opacity="0.200000" stroke="#000000" stroke-opacity="0.200000" points="351.64,-71.57 354.31,-65.8 348.62,-68.65 351.64,-71.57"/>
</g>
<!-- src/shared/filesystemUtilities.ts&#45;&gt;node_modules/@types/vscode -->
<g id="edge28" class="edge">
<title>src/shared/filesystemUtilities.ts&#45;&gt;node_modules/@types/vscode</title>
<path fill="none" stroke="#000000" stroke-opacity="0.200000" d="M275.7,-454.36C289.39,-466.42 312.45,-489.27 323,-514.4 330.26,-531.68 319.53,-583.56 331,-598.4 354,-628.15 373.46,-620.85 410.5,-627.4 475.99,-638.97 662.44,-649.25 708.62,-601.4 721.65,-587.9 706.16,-532.95 716.62,-517.4 726.65,-502.5 744.05,-492.79 759.73,-486.67"/>
<polygon fill="#000000" fill-opacity="0.200000" stroke="#000000" stroke-opacity="0.200000" points="760.44,-488.65 765.36,-484.62 759.01,-484.7 760.44,-488.65"/>
</g>
<!-- src/shared/filesystemUtilities.ts&#45;&gt;node_modules/fs&#45;extra -->
<g id="edge25" class="edge">
<title>src/shared/filesystemUtilities.ts&#45;&gt;node_modules/fs&#45;extra</title>
<path fill="none" stroke="#000000" stroke-opacity="0.200000" d="M274.97,-454.71C287.87,-467.15 310.08,-490.4 323,-514.4 328.93,-525.41 321.71,-533.01 331,-541.4 454.56,-653 675.83,-636.04 759.74,-624.73"/>
<polygon fill="#000000" fill-opacity="0.200000" stroke="#000000" stroke-opacity="0.200000" points="759.81,-626.84 765.46,-623.93 759.23,-622.68 759.81,-626.84"/>
</g>
<!-- src/shared/filesystemUtilities.ts&#45;&gt;os -->
<g id="edge26" class="edge">
<title>src/shared/filesystemUtilities.ts&#45;&gt;os</title>
<path fill="none" stroke="#000000" stroke-dasharray="5,2" stroke-opacity="0.200000" d="M311.88,-440C316.11,-437.87 319.94,-435.06 323,-431.4 333.47,-418.83 326.06,-299.99 331,-284.4 351.11,-220.91 357.97,-198.32 410.5,-157.4 446.27,-129.53 498.05,-116.96 531.75,-111.45"/>
<polygon fill="#000000" fill-opacity="0.200000" stroke="#000000" stroke-opacity="0.200000" points="531.96,-113.54 537.57,-110.55 531.32,-109.39 531.96,-113.54"/>
</g>
<!-- src/shared/filesystemUtilities.ts&#45;&gt;path -->
<g id="edge27" class="edge">
<title>src/shared/filesystemUtilities.ts&#45;&gt;path</title>
<path fill="none" stroke="#000000" stroke-dasharray="5,2" stroke-opacity="0.200000" d="M264.44,-454.6C263.4,-488.28 264.81,-605.6 331,-657.4 361.35,-681.15 474.72,-677.46 531.97,-673.9"/>
<polygon fill="#000000" fill-opacity="0.200000" stroke="#000000" stroke-opacity="0.200000" points="531.97,-676.01 537.82,-673.52 531.7,-671.81 531.97,-676.01"/>
</g>
<!-- src/shared/filesystemUtilities.ts&#45;&gt;src/shared/extensionGlobals.ts -->
<g id="edge19" class="edge">
<title>src/shared/filesystemUtilities.ts&#45;&gt;src/shared/extensionGlobals.ts</title>
<path fill="none" stroke="#000000" stroke-width="2" stroke-opacity="0.200000" d="M311.85,-439.6C316.04,-437.54 319.87,-434.86 323,-431.4 340.46,-412.1 311.38,-390.49 331,-373.4 356.6,-351.09 448.39,-358.7 509.25,-366.71"/>
<polygon fill="#000000" fill-opacity="0.200000" stroke="#000000" stroke-width="2" stroke-opacity="0.200000" points="508.77,-368.76 514.99,-367.49 509.33,-364.6 508.77,-368.76"/>
</g>
<!-- src/shared/filesystemUtilities.ts&#45;&gt;src/shared/logger/index.ts -->
<g id="edge21" class="edge">
<title>src/shared/filesystemUtilities.ts&#45;&gt;src/shared/logger/index.ts</title>
<path fill="none" stroke="#000000" stroke-width="2" stroke-opacity="0.200000" d="M312.12,-438.62C316.1,-436.73 319.81,-434.36 323,-431.4 331.55,-423.45 322.95,-414.84 331,-406.4 331.45,-405.92 331.92,-405.47 332.4,-405.03"/>
<polygon fill="#000000" fill-opacity="0.200000" stroke="#000000" stroke-width="2" stroke-opacity="0.200000" points="333.2,-407.03 336.97,-401.91 330.83,-403.56 333.2,-407.03"/>
</g>
<!-- src/shared/globalState.ts -->
<g id="node26" class="node">
<title>src/shared/globalState.ts</title>
<g id="a_node26"><a xlink:href="src/shared/globalState.ts" xlink:title="globalState.ts">
<path fill="#ddfeff" stroke="black" d="M396.58,-484.27C396.58,-484.27 336.92,-484.27 336.92,-484.27 333.96,-484.27 331,-481.31 331,-478.35 331,-478.35 331,-472.44 331,-472.44 331,-469.48 333.96,-466.52 336.92,-466.52 336.92,-466.52 396.58,-466.52 396.58,-466.52 399.54,-466.52 402.5,-469.48 402.5,-472.44 402.5,-472.44 402.5,-478.35 402.5,-478.35 402.5,-481.31 399.54,-484.27 396.58,-484.27"/>
<text text-anchor="start" x="339" y="-471.72" font-family="Helvetica,sans-Serif" font-size="9.00">globalState.ts</text>
</a>
</g>
</g>
<!-- src/shared/filesystemUtilities.ts&#45;&gt;src/shared/globalState.ts -->
<g id="edge20" class="edge">
<title>src/shared/filesystemUtilities.ts&#45;&gt;src/shared/globalState.ts</title>
<path fill="none" stroke="#000000" stroke-width="2" stroke-opacity="0.200000" d="M296.24,-454.72C305.63,-457.52 316.06,-460.62 325.92,-463.55"/>
<polygon fill="#000000" fill-opacity="0.200000" stroke="#000000" stroke-width="2" stroke-opacity="0.200000" points="325.15,-465.51 331.5,-465.21 326.35,-461.49 325.15,-465.51"/>
</g>
<!-- src/shared/utilities/pathUtils.ts -->
<g id="node27" class="node">
<title>src/shared/utilities/pathUtils.ts</title>
<g id="a_node27"><a xlink:href="src/shared/utilities/pathUtils.ts" xlink:title="pathUtils.ts">
<path fill="#ddfeff" stroke="black" d="M484.08,-274.27C484.08,-274.27 434.92,-274.27 434.92,-274.27 431.96,-274.27 429,-271.31 429,-268.35 429,-268.35 429,-262.44 429,-262.44 429,-259.48 431.96,-256.52 434.92,-256.52 434.92,-256.52 484.08,-256.52 484.08,-256.52 487.04,-256.52 490,-259.48 490,-262.44 490,-262.44 490,-268.35 490,-268.35 490,-271.31 487.04,-274.27 484.08,-274.27"/>
<text text-anchor="start" x="437" y="-261.72" font-family="Helvetica,sans-Serif" font-size="9.00">pathUtils.ts</text>
</a>
</g>
</g>
<!-- src/shared/filesystemUtilities.ts&#45;&gt;src/shared/utilities/pathUtils.ts -->
<g id="edge22" class="edge">
<title>src/shared/filesystemUtilities.ts&#45;&gt;src/shared/utilities/pathUtils.ts</title>
<path fill="none" stroke="#000000" stroke-width="2" stroke-opacity="0.200000" d="M311.93,-439.66C316.09,-437.59 319.9,-434.89 323,-431.4 333.1,-420.01 324.51,-377.16 331,-363.4 333.72,-357.62 405.07,-283.76 410.5,-280.4 413.59,-278.48 416.94,-276.79 420.39,-275.31"/>
<polygon fill="#000000" fill-opacity="0.200000" stroke="#000000" stroke-width="2" stroke-opacity="0.200000" points="420.85,-277.38 425.71,-273.28 419.36,-273.45 420.85,-277.38"/>
</g>
<!-- src/shared/logger/logger.ts -->
<g id="node28" class="node">
<title>src/shared/logger/logger.ts</title>
<g id="a_node28"><a xlink:href="src/shared/logger/logger.ts" xlink:title="logger.ts">
<path fill="#ddfeff" stroke="black" d="M480.58,-432.27C480.58,-432.27 438.42,-432.27 438.42,-432.27 435.46,-432.27 432.5,-429.31 432.5,-426.35 432.5,-426.35 432.5,-420.44 432.5,-420.44 432.5,-417.48 435.46,-414.52 438.42,-414.52 438.42,-414.52 480.58,-414.52 480.58,-414.52 483.54,-414.52 486.5,-417.48 486.5,-420.44 486.5,-420.44 486.5,-426.35 486.5,-426.35 486.5,-429.31 483.54,-432.27 480.58,-432.27"/>
<text text-anchor="start" x="441.88" y="-419.72" font-family="Helvetica,sans-Serif" font-size="9.00">logger.ts</text>
</a>
</g>
</g>
<!-- src/shared/logger/index.ts&#45;&gt;src/shared/logger/logger.ts -->
<g id="edge32" class="edge">
<title>src/shared/logger/index.ts&#45;&gt;src/shared/logger/logger.ts</title>
<path fill="none" stroke="#000000" stroke-width="2" stroke-opacity="0.200000" d="M393.93,-402.74C399.39,-404.65 405.12,-406.61 410.5,-408.4 414.74,-409.8 419.21,-411.25 423.64,-412.66"/>
<polygon fill="#000000" fill-opacity="0.200000" stroke="#000000" stroke-width="2" stroke-opacity="0.200000" points="422.8,-414.59 429.15,-414.4 424.06,-410.59 422.8,-414.59"/>
</g>
<!-- src/shared/logger/outputChannel.ts -->
<g id="node29" class="node">
<title>src/shared/logger/outputChannel.ts</title>
<g id="a_node29"><a xlink:href="src/shared/logger/outputChannel.ts" xlink:title="outputChannel.ts">
<path fill="#ddfeff" stroke="black" d="M496.46,-402.27C496.46,-402.27 422.54,-402.27 422.54,-402.27 419.58,-402.27 416.62,-399.31 416.62,-396.35 416.62,-396.35 416.62,-390.44 416.62,-390.44 416.62,-387.48 419.58,-384.52 422.54,-384.52 422.54,-384.52 496.46,-384.52 496.46,-384.52 499.42,-384.52 502.38,-387.48 502.38,-390.44 502.38,-390.44 502.38,-396.35 502.38,-396.35 502.38,-399.31 499.42,-402.27 496.46,-402.27"/>
<text text-anchor="start" x="424.62" y="-389.72" font-family="Helvetica,sans-Serif" font-size="9.00">outputChannel.ts</text>
</a>
</g>
</g>
<!-- src/shared/logger/index.ts&#45;&gt;src/shared/logger/outputChannel.ts -->
<g id="edge33" class="edge">
<title>src/shared/logger/index.ts&#45;&gt;src/shared/logger/outputChannel.ts</title>
<path fill="none" stroke="#000000" stroke-width="2" stroke-opacity="0.200000" d="M394,-393.4C398.27,-393.4 402.82,-393.4 407.46,-393.4"/>
<polygon fill="#000000" fill-opacity="0.200000" stroke="#000000" stroke-width="2" stroke-opacity="0.200000" points="407.38,-395.5 413.38,-393.4 407.38,-391.3 407.38,-395.5"/>
</g>
<!-- src/shared/settings.ts&#45;&gt;node_modules/@types/vscode -->
<g id="edge44" class="edge">
<title>src/shared/settings.ts&#45;&gt;node_modules/@types/vscode</title>
<path fill="none" stroke="#000000" stroke-opacity="0.200000" d="M285.87,-340.63C298.99,-347.61 314.89,-358.53 323,-373.4 338.68,-402.11 310.79,-494.67 331,-520.4 353.8,-549.42 373.99,-539 410.5,-544.4 542.5,-563.89 699.01,-513.26 763.36,-489.23"/>
<polygon fill="#000000" fill-opacity="0.200000" stroke="#000000" stroke-opacity="0.200000" points="763.73,-491.34 768.6,-487.25 762.25,-487.41 763.73,-491.34"/>
</g>
<!-- src/shared/settings.ts&#45;&gt;package.json -->
<g id="edge36" class="edge">
<title>src/shared/settings.ts&#45;&gt;package.json</title>
<path fill="none" stroke="#000000" stroke-width="2" stroke-opacity="0.200000" d="M292.35,-331.08C303.57,-329.44 315.62,-325.44 323,-316.4 333.91,-303.04 322.14,-176.19 331,-161.4 352.21,-125.99 371.99,-128.23 410.5,-113.4 534.24,-65.72 592.25,-61.82 708.62,-125.4 734.66,-139.62 761.05,-161.69 777.28,-176.34"/>
<polygon fill="#000000" fill-opacity="0.200000" stroke="#000000" stroke-width="2" stroke-opacity="0.200000" points="775.51,-177.56 781.35,-180.07 778.35,-174.47 775.51,-177.56"/>
</g>
<!-- src/shared/settings.ts&#45;&gt;src/shared/errors.ts -->
<g id="edge37" class="edge">
<title>src/shared/settings.ts&#45;&gt;src/shared/errors.ts</title>
<path fill="none" stroke="#000000" stroke-width="2" stroke-opacity="0.200000" d="M285.8,-340.67C298.89,-347.66 314.78,-358.59 323,-373.4 335.65,-396.18 315.95,-469.12 331,-490.4 331.48,-491.08 332,-491.73 332.55,-492.35"/>
<polygon fill="#000000" fill-opacity="0.200000" stroke="#000000" stroke-width="2" stroke-opacity="0.200000" points="331.15,-493.91 337.14,-496.04 333.78,-490.64 331.15,-493.91"/>
</g>
<!-- src/shared/settings.ts&#45;&gt;src/shared/utilities/tsUtils.ts -->
<g id="edge41" class="edge">
<title>src/shared/settings.ts&#45;&gt;src/shared/utilities/tsUtils.ts</title>
<path fill="none" stroke="#000000" stroke-width="2" stroke-opacity="0.200000" d="M292.34,-331.07C303.55,-329.42 315.6,-325.42 323,-316.4 333.3,-303.83 319.5,-181.88 331,-170.4 353.31,-148.11 585.7,-147.83 614.62,-160.4 627.9,-166.17 638.89,-178.43 646.29,-188.7"/>
<polygon fill="#000000" fill-opacity="0.200000" stroke="#000000" stroke-width="2" stroke-opacity="0.200000" points="644.44,-189.71 649.54,-193.51 647.92,-187.37 644.44,-189.71"/>
</g>
<!-- src/shared/settings.ts&#45;&gt;src/shared/logger/index.ts -->
<g id="edge38" class="edge">
<title>src/shared/settings.ts&#45;&gt;src/shared/logger/index.ts</title>
<path fill="none" stroke="#000000" stroke-width="2" stroke-opacity="0.200000" d="M289.52,-340.76C300.84,-346.04 313.78,-353.57 323,-363.4 328.71,-369.48 324.86,-374.74 331,-380.4 331.31,-380.68 331.62,-380.96 331.94,-381.23"/>
<polygon fill="#000000" fill-opacity="0.200000" stroke="#000000" stroke-width="2" stroke-opacity="0.200000" points="330.71,-382.93 336.88,-384.45 333,-379.41 330.71,-382.93"/>
</g>
<!-- src/shared/settings.ts&#45;&gt;src/shared/vscode/env.ts -->
<g id="edge43" class="edge">
<title>src/shared/settings.ts&#45;&gt;src/shared/vscode/env.ts</title>
<path fill="none" stroke="#000000" stroke-width="2" stroke-opacity="0.200000" d="M292.6,-331.97C351.83,-333.39 495.1,-337.81 614.62,-349.4 616.87,-349.61 619.18,-349.86 621.5,-350.14"/>
<polygon fill="#000000" fill-opacity="0.200000" stroke="#000000" stroke-width="2" stroke-opacity="0.200000" points="621.24,-352.22 627.45,-350.9 621.77,-348.06 621.24,-352.22"/>
</g>
<!-- src/shared/utilities/collectionUtils.ts -->
<g id="node30" class="node">
<title>src/shared/utilities/collectionUtils.ts</title>
<g id="a_node30"><a xlink:href="src/shared/utilities/collectionUtils.ts" xlink:title="collectionUtils.ts">
<path fill="#ddfeff" stroke="black" d="M494.58,-214.27C494.58,-214.27 424.42,-214.27 424.42,-214.27 421.46,-214.27 418.5,-211.31 418.5,-208.35 418.5,-208.35 418.5,-202.44 418.5,-202.44 418.5,-199.48 421.46,-196.52 424.42,-196.52 424.42,-196.52 494.58,-196.52 494.58,-196.52 497.54,-196.52 500.5,-199.48 500.5,-202.44 500.5,-202.44 500.5,-208.35 500.5,-208.35 500.5,-211.31 497.54,-214.27 494.58,-214.27"/>
<text text-anchor="start" x="426.5" y="-201.72" font-family="Helvetica,sans-Serif" font-size="9.00">collectionUtils.ts</text>
</a>
</g>
</g>
<!-- src/shared/settings.ts&#45;&gt;src/shared/utilities/collectionUtils.ts -->
<g id="edge39" class="edge">
<title>src/shared/settings.ts&#45;&gt;src/shared/utilities/collectionUtils.ts</title>
<path fill="none" stroke="#000000" stroke-width="2" stroke-opacity="0.200000" d="M292.33,-330.76C303.41,-329.05 315.35,-325.07 323,-316.4 341.66,-295.22 313.88,-275.83 331,-253.4 349.58,-229.05 381.98,-217.05 409.47,-211.14"/>
<polygon fill="#000000" fill-opacity="0.200000" stroke="#000000" stroke-width="2" stroke-opacity="0.200000" points="409.75,-213.22 415.23,-210.01 408.94,-209.1 409.75,-213.22"/>
</g>
<!-- src/shared/utilities/functionUtils.ts -->
<g id="node31" class="node">
<title>src/shared/utilities/functionUtils.ts</title>
<g id="a_node31"><a xlink:href="src/shared/utilities/functionUtils.ts" xlink:title="functionUtils.ts">
<path fill="#ddfeff" stroke="black" d="M491.21,-244.27C491.21,-244.27 427.79,-244.27 427.79,-244.27 424.83,-244.27 421.88,-241.31 421.88,-238.35 421.88,-238.35 421.88,-232.44 421.88,-232.44 421.88,-229.48 424.83,-226.52 427.79,-226.52 427.79,-226.52 491.21,-226.52 491.21,-226.52 494.17,-226.52 497.12,-229.48 497.12,-232.44 497.12,-232.44 497.12,-238.35 497.12,-238.35 497.12,-241.31 494.17,-244.27 491.21,-244.27"/>
<text text-anchor="start" x="429.88" y="-231.72" font-family="Helvetica,sans-Serif" font-size="9.00">functionUtils.ts</text>
</a>
</g>
</g>
<!-- src/shared/settings.ts&#45;&gt;src/shared/utilities/functionUtils.ts -->
<g id="edge40" class="edge">
<title>src/shared/settings.ts&#45;&gt;src/shared/utilities/functionUtils.ts</title>
<path fill="none" stroke="#000000" stroke-width="2" stroke-opacity="0.200000" d="M292.57,-326.59C302.47,-324.27 313.52,-320.97 323,-316.4 323.69,-316.06 409.82,-250.74 410.5,-250.4 412.04,-249.6 413.64,-248.84 415.26,-248.11"/>
<polygon fill="#000000" fill-opacity="0.200000" stroke="#000000" stroke-width="2" stroke-opacity="0.200000" points="416.01,-250.08 420.78,-245.88 414.43,-246.19 416.01,-250.08"/>
</g>
<!-- src/shared/utilities/typeConstructors.ts -->
<g id="node32" class="node">
<title>src/shared/utilities/typeConstructors.ts</title>
<g id="a_node32"><a xlink:href="src/shared/utilities/typeConstructors.ts" xlink:title="typeConstructors.ts">
<path fill="#ddfeff" stroke="black" d="M607.58,-214.27C607.58,-214.27 525.42,-214.27 525.42,-214.27 522.46,-214.27 519.5,-211.31 519.5,-208.35 519.5,-208.35 519.5,-202.44 519.5,-202.44 519.5,-199.48 522.46,-196.52 525.42,-196.52 525.42,-196.52 607.58,-196.52 607.58,-196.52 610.54,-196.52 613.5,-199.48 613.5,-202.44 613.5,-202.44 613.5,-208.35 613.5,-208.35 613.5,-211.31 610.54,-214.27 607.58,-214.27"/>
<text text-anchor="start" x="527.5" y="-201.72" font-family="Helvetica,sans-Serif" font-size="9.00">typeConstructors.ts</text>
</a>
</g>
</g>
<!-- src/shared/settings.ts&#45;&gt;src/shared/utilities/typeConstructors.ts -->
<g id="edge42" class="edge">
<title>src/shared/settings.ts&#45;&gt;src/shared/utilities/typeConstructors.ts</title>
<path fill="none" stroke="#000000" stroke-width="2" stroke-opacity="0.200000" d="M292.55,-330.95C303.66,-329.27 315.58,-325.27 323,-316.4 338.16,-298.28 315.78,-228.47 331,-210.4 382.67,-149.03 430.87,-179.77 510.38,-190.4 511.3,-190.52 516.47,-191.87 523.31,-193.72"/>
<polygon fill="#000000" fill-opacity="0.200000" stroke="#000000" stroke-width="2" stroke-opacity="0.200000" points="522.67,-195.73 529.01,-195.28 523.78,-191.67 522.67,-195.73"/>
</g>
<!-- src/shared/vscode/env.ts&#45;&gt;node_modules/@types/vscode -->
<g id="edge57" class="edge">
<title>src/shared/vscode/env.ts&#45;&gt;node_modules/@types/vscode</title>
<path fill="none" stroke="#000000" stroke-opacity="0.200000" d="M672.59,-364.64C684.29,-373.21 700.37,-387.07 708.62,-403.4 720.96,-427.8 697.66,-444.7 716.62,-464.4 727.56,-475.75 744.49,-479.45 759.65,-480.11"/>
<polygon fill="#000000" fill-opacity="0.200000" stroke="#000000" stroke-opacity="0.200000" points="759.37,-482.21 765.4,-480.2 759.43,-478.01 759.37,-482.21"/>
</g>
<!-- src/shared/vscode/env.ts&#45;&gt;node_modules/semver -->
<g id="edge56" class="edge">
<title>src/shared/vscode/env.ts&#45;&gt;node_modules/semver</title>
<path fill="none" stroke="#000000" stroke-opacity="0.200000" d="M671.44,-364.7C682.72,-373.5 698.82,-387.67 708.62,-403.4 714.8,-413.29 707.91,-420.64 716.62,-428.4 728.29,-438.77 744.96,-442.85 759.78,-444.19"/>
<polygon fill="#000000" fill-opacity="0.200000" stroke="#000000" stroke-opacity="0.200000" points="759.24,-446.26 765.36,-444.55 759.51,-442.07 759.24,-446.26"/>
</g>
<!-- src/shared/vscode/env.ts&#45;&gt;package.json -->
<g id="edge55" class="edge">
<title>src/shared/vscode/env.ts&#45;&gt;package.json</title>
<path fill="none" stroke="#000000" stroke-width="2" stroke-opacity="0.200000" d="M685.07,-347.32C693.25,-343.93 701.88,-339.36 708.62,-333.4 748.96,-297.74 775.62,-238.09 786.99,-208.76"/>
<polygon fill="#000000" fill-opacity="0.200000" stroke="#000000" stroke-width="2" stroke-opacity="0.200000" points="788.81,-209.87 788.96,-203.52 784.88,-208.4 788.81,-209.87"/>
</g>
<!-- src/shared/globalState.ts&#45;&gt;node_modules/@types/vscode -->
<g id="edge31" class="edge">
<title>src/shared/globalState.ts&#45;&gt;node_modules/@types/vscode</title>
<path fill="none" stroke="#000000" stroke-opacity="0.200000" d="M402.93,-475.56C483.46,-475.94 680.33,-476.86 759.48,-477.24"/>
<polygon fill="#000000" fill-opacity="0.200000" stroke="#000000" stroke-opacity="0.200000" points="759.24,-479.34 765.25,-477.26 759.26,-475.14 759.24,-479.34"/>
</g>
<!-- src/shared/globalState.ts&#45;&gt;src/shared/extensionGlobals.ts -->
<g id="edge29" class="edge">
<title>src/shared/globalState.ts&#45;&gt;src/shared/extensionGlobals.ts</title>
<path fill="none" stroke="#000000" stroke-width="2" stroke-opacity="0.200000" d="M402.7,-475.4C439.01,-474.81 492.92,-472.08 510.38,-461.4 535.95,-445.74 551.79,-413.24 559.6,-392.98"/>
<polygon fill="#000000" fill-opacity="0.200000" stroke="#000000" stroke-width="2" stroke-opacity="0.200000" points="561.52,-393.84 561.59,-387.49 557.57,-392.41 561.52,-393.84"/>
</g>
<!-- src/shared/globalState.ts&#45;&gt;src/shared/logger/logger.ts -->
<g id="edge30" class="edge">
<title>src/shared/globalState.ts&#45;&gt;src/shared/logger/logger.ts</title>
<path fill="none" stroke="#000000" stroke-width="2" stroke-opacity="0.200000" d="M396.77,-466.17C398.87,-464.79 400.82,-463.21 402.5,-461.4 410.44,-452.85 402.07,-444.46 410.5,-436.4 414.26,-432.8 418.9,-430.18 423.81,-428.27"/>
<polygon fill="#000000" fill-opacity="0.200000" stroke="#000000" stroke-width="2" stroke-opacity="0.200000" points="424.2,-430.35 429.32,-426.58 422.97,-426.34 424.2,-430.35"/>
</g>
<!-- src/shared/utilities/pathUtils.ts&#45;&gt;os -->
<g id="edge49" class="edge">
<title>src/shared/utilities/pathUtils.ts&#45;&gt;os</title>
<path fill="none" stroke="#000000" stroke-dasharray="5,2" stroke-opacity="0.200000" d="M490.38,-262.28C497.92,-260.07 505.3,-256.41 510.38,-250.4 519.76,-239.27 513.62,-199.15 518.38,-185.4 526.61,-161.58 542.84,-137.21 553.92,-122.19"/>
<polygon fill="#000000" fill-opacity="0.200000" stroke="#000000" stroke-opacity="0.200000" points="555.48,-123.62 557.41,-117.57 552.12,-121.09 555.48,-123.62"/>
</g>
<!-- src/shared/utilities/pathUtils.ts&#45;&gt;path -->
<g id="edge50" class="edge">
<title>src/shared/utilities/pathUtils.ts&#45;&gt;path</title>
<path fill="none" stroke="#000000" stroke-dasharray="5,2" stroke-opacity="0.200000" d="M490.49,-268.14C498.12,-270.34 505.53,-274.08 510.38,-280.4 519.27,-291.99 515.59,-529.04 518.38,-543.4 526.51,-585.32 546.57,-631.7 557.72,-655.45"/>
<polygon fill="#000000" fill-opacity="0.200000" stroke="#000000" stroke-opacity="0.200000" points="555.74,-656.18 560.22,-660.7 559.53,-654.38 555.74,-656.18"/>
</g>
<!-- src/shared/logger/logger.ts&#45;&gt;src/shared/extensionGlobals.ts -->
<g id="edge34" class="edge">
<title>src/shared/logger/logger.ts&#45;&gt;src/shared/extensionGlobals.ts</title>
<path fill="none" stroke="#000000" stroke-width="2" stroke-opacity="0.200000" d="M486.83,-416.8C494.56,-414.51 502.93,-411.68 510.38,-408.4 522.29,-403.13 534.81,-395.81 544.9,-389.39"/>
<polygon fill="#000000" fill-opacity="0.200000" stroke="#000000" stroke-width="2" stroke-opacity="0.200000" points="545.99,-391.18 549.87,-386.15 543.7,-387.67 545.99,-391.18"/>
</g>
<!-- src/shared/logger/outputChannel.ts&#45;&gt;node_modules/@types/vscode -->
<g id="edge35" class="edge">
<title>src/shared/logger/outputChannel.ts&#45;&gt;node_modules/@types/vscode</title>
<path fill="none" stroke="#000000" stroke-opacity="0.200000" d="M501.62,-402.76C504.75,-404.36 507.72,-406.22 510.38,-408.4 516.22,-413.18 512.26,-418.95 518.38,-423.4 587.84,-473.92 631.2,-420.2 708.62,-457.4 712.88,-459.44 712.36,-462.37 716.62,-464.4 729.89,-470.7 745.73,-473.99 759.55,-475.69"/>
<polygon fill="#000000" fill-opacity="0.200000" stroke="#000000" stroke-opacity="0.200000" points="759.3,-477.78 765.49,-476.33 759.75,-473.6 759.3,-477.78"/>
</g>
<!-- src/shared/utilities/collectionUtils.ts&#45;&gt;src/shared/utilities/tsUtils.ts -->
<g id="edge47" class="edge">
<title>src/shared/utilities/collectionUtils.ts&#45;&gt;src/shared/utilities/tsUtils.ts</title>
<path fill="none" stroke="#000000" stroke-width="2" stroke-opacity="0.200000" d="M500.77,-213.34C504.32,-215.22 507.61,-217.54 510.38,-220.4 519.98,-230.31 507.43,-241.99 518.38,-250.4 535.34,-263.43 595.01,-258.92 614.62,-250.4 627.9,-244.63 638.89,-232.36 646.29,-222.09"/>
<polygon fill="#000000" fill-opacity="0.200000" stroke="#000000" stroke-width="2" stroke-opacity="0.200000" points="647.92,-223.43 649.54,-217.28 644.44,-221.08 647.92,-223.43"/>
</g>
<!-- src/shared/utilities/asyncCollection.ts -->
<g id="node33" class="node">
<title>src/shared/utilities/asyncCollection.ts</title>
<g id="a_node33"><a xlink:href="src/shared/utilities/asyncCollection.ts" xlink:title="asyncCollection.ts">
<path fill="#ddfeff" stroke="black" d="M605.71,-244.27C605.71,-244.27 527.29,-244.27 527.29,-244.27 524.33,-244.27 521.38,-241.31 521.38,-238.35 521.38,-238.35 521.38,-232.44 521.38,-232.44 521.38,-229.48 524.33,-226.52 527.29,-226.52 527.29,-226.52 605.71,-226.52 605.71,-226.52 608.67,-226.52 611.62,-229.48 611.62,-232.44 611.62,-232.44 611.62,-238.35 611.62,-238.35 611.62,-241.31 608.67,-244.27 605.71,-244.27"/>
<text text-anchor="start" x="529.38" y="-231.72" font-family="Helvetica,sans-Serif" font-size="9.00">asyncCollection.ts</text>
</a>
</g>
</g>
<!-- src/shared/utilities/collectionUtils.ts&#45;&gt;src/shared/utilities/asyncCollection.ts -->
<g id="edge46" class="edge">
<title>src/shared/utilities/collectionUtils.ts&#45;&gt;src/shared/utilities/asyncCollection.ts</title>
<path fill="none" stroke="#000000" stroke-width="2" stroke-opacity="0.200000" d="M493.15,-214.72C503.02,-217.55 514,-220.68 524.36,-223.64"/>
<polygon fill="#000000" fill-opacity="0.200000" stroke="#000000" stroke-width="2" stroke-opacity="0.200000" points="523.62,-225.61 529.96,-225.24 524.77,-221.57 523.62,-225.61"/>
</g>
<!-- src/shared/utilities/functionUtils.ts&#45;&gt;src/shared/extensionGlobals.ts -->
<g id="edge48" class="edge">
<title>src/shared/utilities/functionUtils.ts&#45;&gt;src/shared/extensionGlobals.ts</title>
<path fill="none" stroke="#000000" stroke-width="2" stroke-opacity="0.200000" d="M497.39,-240.94C502.36,-243.15 506.93,-246.2 510.38,-250.4 522.13,-264.72 509.99,-316.87 518.38,-333.4 523.93,-344.35 533.65,-353.76 542.83,-360.88"/>
<polygon fill="#000000" fill-opacity="0.200000" stroke="#000000" stroke-width="2" stroke-opacity="0.200000" points="541.44,-362.47 547.53,-364.3 543.91,-359.07 541.44,-362.47"/>
</g>
<!-- src/shared/utilities/typeConstructors.ts&#45;&gt;src/shared/utilities/tsUtils.ts -->
<g id="edge54" class="edge">
<title>src/shared/utilities/typeConstructors.ts&#45;&gt;src/shared/utilities/tsUtils.ts</title>
<path fill="none" stroke="#000000" stroke-width="2" stroke-opacity="0.200000" d="M613.89,-205.4C616.33,-205.4 618.77,-205.4 621.17,-205.4"/>
<polygon fill="#000000" fill-opacity="0.200000" stroke="#000000" stroke-width="2" stroke-opacity="0.200000" points="621.15,-207.5 627.15,-205.4 621.15,-203.3 621.15,-207.5"/>
</g>
<!-- src/shared/utilities/typeConstructors.ts&#45;&gt;src/shared/vscode/env.ts -->
<g id="edge53" class="edge">
<title>src/shared/utilities/typeConstructors.ts&#45;&gt;src/shared/vscode/env.ts</title>
<path fill="none" stroke="#000000" stroke-width="2" stroke-opacity="0.200000" d="M608.28,-214.5C610.66,-216.15 612.82,-218.1 614.62,-220.4 630.19,-240.18 609.82,-311.72 622.62,-333.4 624.26,-336.16 626.39,-338.64 628.8,-340.85"/>
<polygon fill="#000000" fill-opacity="0.200000" stroke="#000000" stroke-width="2" stroke-opacity="0.200000" points="627.18,-342.25 633.22,-344.23 629.73,-338.92 627.18,-342.25"/>
</g>
<!-- src/shared/utilities/asyncCollection.ts&#45;&gt;src/shared/utilities/tsUtils.ts -->
<g id="edge45" class="edge">
<title>src/shared/utilities/asyncCollection.ts&#45;&gt;src/shared/utilities/tsUtils.ts</title>
<path fill="none" stroke="#000000" stroke-width="2" stroke-opacity="0.200000" d="M597.47,-226.03C603.18,-224.2 609.09,-222.26 614.62,-220.4 617.18,-219.53 619.82,-218.62 622.48,-217.7"/>
<polygon fill="#000000" fill-opacity="0.200000" stroke="#000000" stroke-width="2" stroke-opacity="0.200000" points="623.09,-219.71 628.05,-215.74 621.7,-215.75 623.09,-219.71"/>
</g>
<!-- src/srcShared/fs.ts -->
<g id="node34" class="node">
<title>src/srcShared/fs.ts</title>
<g id="a_node34"><a xlink:href="src/srcShared/fs.ts" xlink:title="fs.ts">
<path fill="#ddfeff" stroke="black" d="M72.08,-297.27C72.08,-297.27 29.92,-297.27 29.92,-297.27 26.96,-297.27 24,-294.31 24,-291.35 24,-291.35 24,-285.44 24,-285.44 24,-282.48 26.96,-279.52 29.92,-279.52 29.92,-279.52 72.08,-279.52 72.08,-279.52 75.04,-279.52 78,-282.48 78,-285.44 78,-285.44 78,-291.35 78,-291.35 78,-294.31 75.04,-297.27 72.08,-297.27"/>
<text text-anchor="start" x="43.12" y="-284.72" font-family="Helvetica,sans-Serif" font-size="9.00">fs.ts</text>
</a>
</g>
</g>
<!-- src/srcShared/fs.ts&#45;&gt;fs -->
<g id="edge60" class="edge">
<title>src/srcShared/fs.ts&#45;&gt;fs</title>
<path fill="none" stroke="#000000" stroke-dasharray="5,2" stroke-opacity="0.200000" d="M51.87,-279.14C52.05,-253.8 56.06,-182.54 94,-143.4 158.91,-76.43 275.1,-60.36 332.2,-56.55"/>
<polygon fill="#000000" fill-opacity="0.200000" stroke="#000000" stroke-opacity="0.200000" points="332.15,-58.66 338.01,-56.2 331.9,-54.46 332.15,-58.66"/>
</g>
<!-- src/srcShared/fs.ts&#45;&gt;node_modules/@types/vscode -->
<g id="edge61" class="edge">
<title>src/srcShared/fs.ts&#45;&gt;node_modules/@types/vscode</title>
<path fill="none" stroke="#000000" stroke-opacity="0.200000" d="M51.66,-297.67C49.72,-364.86 46.73,-774.4 262.88,-774.4 262.88,-774.4 262.88,-774.4 567.5,-774.4 658.39,-774.4 671.78,-709.48 708.62,-626.4 718.47,-604.19 703.28,-537.69 716.62,-517.4 726.65,-502.14 744.44,-492.35 760.36,-486.28"/>
<polygon fill="#000000" fill-opacity="0.200000" stroke="#000000" stroke-opacity="0.200000" points="760.67,-488.4 765.62,-484.41 759.26,-484.45 760.67,-488.4"/>
</g>
<!-- src/srcShared/fs.ts&#45;&gt;src/shared/errors.ts -->
<g id="edge58" class="edge">
<title>src/srcShared/fs.ts&#45;&gt;src/shared/errors.ts</title>
<path fill="none" stroke="#000000" stroke-width="2" stroke-opacity="0.200000" d="M64.31,-279.22C106.74,-248.77 248.34,-156.99 323,-229.4 343.83,-249.59 314.69,-466.4 331,-490.4 331.47,-491.08 331.98,-491.74 332.52,-492.37"/>
<polygon fill="#000000" fill-opacity="0.200000" stroke="#000000" stroke-width="2" stroke-opacity="0.200000" points="331.08,-493.91 337.05,-496.09 333.74,-490.66 331.08,-493.91"/>
</g>
<!-- src/srcShared/fs.ts&#45;&gt;src/shared/extensionUtilities.ts -->
<g id="edge59" class="edge">
<title>src/srcShared/fs.ts&#45;&gt;src/shared/extensionUtilities.ts</title>
<path fill="none" stroke="#000000" stroke-width="2" stroke-opacity="0.200000" d="M65.81,-297.71C81.84,-308.52 108.46,-326.48 127.13,-339.07"/>
<polygon fill="#000000" fill-opacity="0.200000" stroke="#000000" stroke-width="2" stroke-opacity="0.200000" points="125.93,-340.79 132.08,-342.41 128.28,-337.31 125.93,-340.79"/>
</g>
</g>
</svg>
