<?xml version="1.0" encoding="UTF-8" standalone="no"?>
<!DOCTYPE svg PUBLIC "-//W3C//DTD SVG 1.1//EN"
 "http://www.w3.org/Graphics/SVG/1.1/DTD/svg11.dtd">
<!-- Generated by graphviz version 9.0.0 (20230911.1827)
 -->
<!-- Title: dependency&#45;cruiser output Pages: 1 -->
<svg width="419pt" height="110pt"
 viewBox="0.00 0.00 419.25 110.00" xmlns="http://www.w3.org/2000/svg" xmlns:xlink="http://www.w3.org/1999/xlink">
<g id="graph0" class="graph" transform="scale(1 1) rotate(0) translate(4 106)">
<title>dependency&#45;cruiser output</title>
<polygon fill="white" stroke="none" points="-4,4 -4,-106 415.25,-106 415.25,4 -4,4"/>
<g id="clust1" class="cluster">
<title>cluster_node_modules</title>
<path fill="#ffffff" stroke="black" stroke-width="2" d="M341.25,-16C341.25,-16 396.25,-16 396.25,-16 402.25,-16 408.25,-22 408.25,-28 408.25,-28 408.25,-56 408.25,-56 408.25,-62 402.25,-68 396.25,-68 396.25,-68 341.25,-68 341.25,-68 335.25,-68 329.25,-62 329.25,-56 329.25,-56 329.25,-28 329.25,-28 329.25,-22 335.25,-16 341.25,-16"/>
<text text-anchor="middle" x="368.75" y="-55.45" font-family="Helvetica,sans-Serif" font-weight="bold" font-size="9.00">node_modules</text>
</g>
<g id="clust2" class="cluster">
<title>cluster_src</title>
<path fill="#ffffff" stroke="black" stroke-width="2" d="M20,-8C20,-8 309.25,-8 309.25,-8 315.25,-8 321.25,-14 321.25,-20 321.25,-20 321.25,-82 321.25,-82 321.25,-88 315.25,-94 309.25,-94 309.25,-94 20,-94 20,-94 14,-94 8,-88 8,-82 8,-82 8,-20 8,-20 8,-14 14,-8 20,-8"/>
<text text-anchor="middle" x="164.62" y="-81.45" font-family="Helvetica,sans-Serif" font-weight="bold" font-size="9.00">src</text>
</g>
<g id="clust3" class="cluster">
<title>cluster_src/shared</title>
<path fill="#ffffff" stroke="black" stroke-width="2" d="M106,-16C106,-16 301.25,-16 301.25,-16 307.25,-16 313.25,-22 313.25,-28 313.25,-28 313.25,-56 313.25,-56 313.25,-62 307.25,-68 301.25,-68 301.25,-68 106,-68 106,-68 100,-68 94,-62 94,-56 94,-56 94,-28 94,-28 94,-22 100,-16 106,-16"/>
<text text-anchor="middle" x="203.62" y="-55.45" font-family="Helvetica,sans-Serif" font-weight="bold" font-size="9.00">shared</text>
</g>
<g id="clust4" class="cluster">
<title>cluster_src/srcShared</title>
<path fill="#ffffff" stroke="black" stroke-width="2" d="M28,-16C28,-16 74,-16 74,-16 80,-16 86,-22 86,-28 86,-28 86,-56 86,-56 86,-62 80,-68 74,-68 74,-68 28,-68 28,-68 22,-68 16,-62 16,-56 16,-56 16,-28 16,-28 16,-22 22,-16 28,-16"/>
<text text-anchor="middle" x="51" y="-55.45" font-family="Helvetica,sans-Serif" font-weight="bold" font-size="9.00">srcShared</text>
</g>
<!-- node_modules/fs&#45;extra -->
<g id="node1" class="node">
<title>node_modules/fs&#45;extra</title>
<g id="a_node1"><a xlink:href="https://www.npmjs.com/package/fs-extra" xlink:title="fs&#45;extra">
<polygon fill="#c40b0a" fill-opacity="0.101961" stroke="black" points="395.25,-41.88 343.22,-41.88 341.25,-39.9 341.25,-24.12 393.28,-24.12 395.25,-26.1 395.25,-41.88"/>
<polyline fill="none" stroke="black" points="393.28,-39.9 341.25,-39.9"/>
<polyline fill="none" stroke="black" points="393.28,-39.9 393.28,-24.12"/>
<polyline fill="none" stroke="black" points="393.28,-39.9 395.25,-41.88"/>
<text text-anchor="start" x="353.25" y="-29.32" font-family="Helvetica,sans-Serif" font-size="9.00" fill="#c40b0a">fs&#45;extra</text>
</a>
</g>
</g>
<!-- src/shared/extensionUtilities.ts -->
<g id="node2" class="node">
<title>src/shared/extensionUtilities.ts</title>
<g id="a_node2"><a xlink:href="src/shared/extensionUtilities.ts" xlink:title="extensionUtilities.ts">
<path fill="#ddfeff" stroke="black" d="M190.83,-41.88C190.83,-41.88 107.92,-41.88 107.92,-41.88 104.96,-41.88 102,-38.92 102,-35.96 102,-35.96 102,-30.04 102,-30.04 102,-27.08 104.96,-24.12 107.92,-24.12 107.92,-24.12 190.83,-24.12 190.83,-24.12 193.79,-24.12 196.75,-27.08 196.75,-30.04 196.75,-30.04 196.75,-35.96 196.75,-35.96 196.75,-38.92 193.79,-41.88 190.83,-41.88"/>
<text text-anchor="start" x="110" y="-29.32" font-family="Helvetica,sans-Serif" font-size="9.00">extensionUtilities.ts</text>
</a>
</g>
</g>
<!-- src/shared/filesystemUtilities.ts -->
<g id="node3" class="node">
<title>src/shared/filesystemUtilities.ts</title>
<g id="a_node3"><a xlink:href="src/shared/filesystemUtilities.ts" xlink:title="filesystemUtilities.ts">
<path fill="#ddfeff" stroke="black" d="M299.33,-41.88C299.33,-41.88 215.67,-41.88 215.67,-41.88 212.71,-41.88 209.75,-38.92 209.75,-35.96 209.75,-35.96 209.75,-30.04 209.75,-30.04 209.75,-27.08 212.71,-24.12 215.67,-24.12 215.67,-24.12 299.33,-24.12 299.33,-24.12 302.29,-24.12 305.25,-27.08 305.25,-30.04 305.25,-30.04 305.25,-35.96 305.25,-35.96 305.25,-38.92 302.29,-41.88 299.33,-41.88"/>
<text text-anchor="start" x="217.75" y="-29.32" font-family="Helvetica,sans-Serif" font-size="9.00">filesystemUtilities.ts</text>
</a>
</g>
</g>
<!-- src/shared/extensionUtilities.ts&#45;&gt;src/shared/filesystemUtilities.ts -->
<g id="edge1" class="edge">
<title>src/shared/extensionUtilities.ts&#45;&gt;src/shared/filesystemUtilities.ts</title>
<path fill="none" stroke="#000000" stroke-width="2" stroke-opacity="0.200000" d="M197.23,-33C198.36,-33 199.48,-33 200.61,-33"/>
<polygon fill="#000000" fill-opacity="0.200000" stroke="#000000" stroke-width="2" stroke-opacity="0.200000" points="200.25,-35.1 206.25,-33 200.25,-30.9 200.25,-35.1"/>
</g>
<!-- src/shared/filesystemUtilities.ts&#45;&gt;node_modules/fs&#45;extra -->
<g id="edge2" class="edge">
<title>src/shared/filesystemUtilities.ts&#45;&gt;node_modules/fs&#45;extra</title>
<path fill="none" stroke="#000000" stroke-opacity="0.200000" d="M305.57,-33C314.89,-33 324.51,-33 333.29,-33"/>
<polygon fill="#000000" fill-opacity="0.200000" stroke="#000000" stroke-opacity="0.200000" points="333.25,-35.1 339.25,-33 333.25,-30.9 333.25,-35.1"/>
</g>
<!-- src/srcShared/fs.ts -->
<g id="node4" class="node">
<title>src/srcShared/fs.ts</title>
<g id="a_node4"><a xlink:href="src/srcShared/fs.ts" xlink:title="fs.ts">
<path fill="#ddfeff" stroke="black" d="M72.08,-41.88C72.08,-41.88 29.92,-41.88 29.92,-41.88 26.96,-41.88 24,-38.92 24,-35.96 24,-35.96 24,-30.04 24,-30.04 24,-27.08 26.96,-24.12 29.92,-24.12 29.92,-24.12 72.08,-24.12 72.08,-24.12 75.04,-24.12 78,-27.08 78,-30.04 78,-30.04 78,-35.96 78,-35.96 78,-38.92 75.04,-41.88 72.08,-41.88"/>
<text text-anchor="start" x="43.12" y="-29.32" font-family="Helvetica,sans-Serif" font-size="9.00">fs.ts</text>
</a>
</g>
</g>
<!-- src/srcShared/fs.ts&#45;&gt;src/shared/extensionUtilities.ts -->
<g id="edge3" class="edge">
<title>src/srcShared/fs.ts&#45;&gt;src/shared/extensionUtilities.ts</title>
<path fill="none" stroke="#000000" stroke-width="2" stroke-opacity="0.200000" d="M78.33,-33C82.86,-33 87.72,-33 92.68,-33"/>
<polygon fill="#000000" fill-opacity="0.200000" stroke="#000000" stroke-width="2" stroke-opacity="0.200000" points="92.66,-35.1 98.66,-33 92.66,-30.9 92.66,-35.1"/>
</g>
</g>
</svg>
