<?xml version="1.0" encoding="UTF-8"?>
<svg width="16px" height="16px" viewBox="0 0 17 17" version="1.1" xmlns="http://www.w3.org/2000/svg" xmlns:xlink="http://www.w3.org/1999/xlink">
    <title>PostGreSQL - dark option 1</title>
    <g id="Page-1" stroke="none" stroke-width="1" fill="none" fill-rule="evenodd">
        <g id="PostGreSQL---dark-option-1" transform="translate(0.265565, 0.956472)" fill="#666666" fill-rule="nonzero">
            <path d="M15.343948,10.3011862 C14.981499,10.0546556 14.3872133,10.2440434 13.903948,10.3191454 C13.5708868,10.3713903 13.2525194,10.2750638 13.0288459,10.2097576 C12.9733357,10.0366964 13.3355102,9.11836735 13.435102,8.95183673 C13.7208163,8.39346939 14.0065306,7.83346939 14.2922449,7.27510204 C14.72,6.29061224 15.8106122,3.44 15.2587755,2.0244898 C14.7493878,0.721632653 12.8685714,-0.0342857144 10.9371429,0.00163265295 C10.6873469,0.0326530611 10.4391837,0.0620408162 10.1893878,0.0930612244 C9.88571429,0.171428571 9.58204082,0.251428571 9.27836735,0.329795918 C8.78367347,0.290612245 8.13877551,0.0881632652 7.51020408,0.202448979 C7.2244898,0.275918367 6.93877551,0.347755102 6.65306123,0.42122449 C6.44571429,0.524081633 6.24,0.628571428 6.03265306,0.731428571 C5.88734694,0.67755102 5.74040816,0.622040816 5.59510204,0.568163265 C5.2,0.476734694 4.80489796,0.385306122 4.40979592,0.295510204 C2.63510204,-0.0571428573 1.1444898,0.542040816 0.511020409,1.58693878 C-0.760816326,3.68489796 0.680816327,7.8955102 1.44,9.66204082 C1.71428572,10.2987755 2.01469388,10.9665306 2.51591837,11.3763265 C3.47755102,12.1632653 4.19591837,11.1036735 4.64816327,10.5371429 C4.86040816,10.3004082 5.07428572,10.0636735 5.28653061,9.82693878 C5.34693878,9.76653061 5.40734694,9.70612245 5.46938776,9.64408163 C5.46938776,9.64408163 6.26612245,9.88571429 6.41795918,9.89877551 C6.41795918,9.90530612 6.72125571,10.243798 6.72125571,10.2503286 C6.59390877,10.4250225 6.23346939,10.8551133 6.03265306,10.9498072 C5.67020408,11.1196031 4.41637789,11.2285018 4.5829085,11.8407467 C4.7396432,12.4170732 5.63530709,12.3454167 6.43235583,12.2195288 C6.78322691,12.0857462 7.13508079,12.0322696 7.47428572,11.9339584 C7.48081633,12.3470196 7.4677551,12.1469388 7.47428572,12.56 C7.70122449,14.0146939 7.42204082,15.1216327 8.45877551,15.7861224 C8.95183674,16.1028571 9.73551021,16.0179592 10.3004082,15.84 C11.7844898,15.3746939 11.684898,14.4114286 11.9771429,12.795102 C12.0440816,12.2416327 12.0508868,12.2913903 12.1178255,11.7379209 C12.3837899,11.7119691 13.1466624,11.6946943 13.496249,11.6395668 C14.1973619,11.4634104 14.1973619,11.3786613 14.8900704,11.1730229 C15.1627235,10.9754719 15.4859888,10.7550638 15.343948,10.3011862 Z M12.2018306,1.08443578 C12.7614407,1.22113969 13.3341302,1.64426254 13.8343266,2.06835061 C13.9678194,2.28132919 14.079317,2.46973035 14.1342345,2.60074788 C14.241716,2.85886026 14.1529293,3.51162979 14.0917355,3.78151022 C13.8808042,4.80060977 13.4411357,5.92965682 13.3305161,6.03952717 C13.3305161,6.04498363 13.4594626,4.77091166 13.4358086,4.56395459 C13.4341447,4.055906 13.3666034,3.47534444 13.1940878,2.94877866 C12.8643883,2.39206451 12.7498954,2.11011341 12.3482129,1.81591237 C12.20935,1.71392268 11.4222993,1.14204808 11.4168075,1.13890994 C11.5423333,1.118512 12.0415689,1.04400006 12.2018306,1.08443578 Z M3.21679483,10.3665045 C2.80708402,9.94847562 2.32631815,8.57049463 2.1724293,8.17356424 C1.70387276,6.95670578 0.848044802,4.27251531 1.51536465,2.76040986 C1.72929597,2.27420232 2.05847089,1.83331197 2.62125611,1.69231178 C2.82060121,1.66921692 3.0199463,1.64733758 3.21807587,1.62424273 C3.91456817,1.63275136 4.65299707,1.77724563 4.65299707,1.78210771 C4.0099876,2.62324675 3.86290982,3.06691113 3.66234921,4.37480941 C3.67085784,4.79537893 3.62102157,5.56208967 3.62102157,6.3281482 C3.62170095,7.16155821 3.78915927,8.23645563 4.26709185,9.0603751 C3.97980679,9.54465945 3.5615275,10.0592808 3.21679483,10.3665045 Z M11.0916971,11.4127113 C10.6035458,13.6534506 11.0918106,14.4593471 9.72757513,14.8745167 C8.06607457,14.8749144 8.61741252,12.1178927 8.4375542,11.5258013 C8.21298928,11.0820684 7.99623559,10.5498615 7.86287715,10.2039903 C7.82382768,10.1890596 7.45274422,9.36756938 7.44635742,9.36756938 C6.90368653,8.94087295 5.63393949,8.95954835 5.34950445,8.43112996 C4.48004199,7.46607756 4.73484022,6.34355682 4.74207301,4.05476086 C4.936413,2.91321307 5.9420453,1.94712571 7.09646045,1.44895485 C7.35193269,1.37710328 7.60740492,1.30684842 7.86287715,1.23499685 C8.00019348,1.22381994 8.1359131,1.21104633 8.27322943,1.19986942 C10.4395309,1.28765653 11.7690562,2.57319417 12.242808,3.76786451 C12.6271759,5.38724164 12.4630084,6.00221416 12.3907701,7.87649821 C12.3286998,8.58875596 12.2340577,9.06759583 11.7874758,9.90920328 C11.384624,10.3776067 11.1818912,10.879642 11.0916971,11.4127113 Z" id="Shape"></path>
        </g>
    </g>
</svg>
