<?xml version="1.0" encoding="UTF-8"?>
<svg width="16px" height="16px" viewBox="0 0 19 17" version="1.1" xmlns="http://www.w3.org/2000/svg" xmlns:xlink="http://www.w3.org/1999/xlink">
    <title>mysql - light</title>
    <g id="Page-1" stroke="none" stroke-width="1" fill="none" fill-rule="evenodd">
        <g id="mysql---light" transform="translate(0.700000, 0.600000)" fill="#999999">
            <path d="M13.173794,11.3967503 C12.9997672,11.4607327 11.8185375,12.1770858 11.7956118,12.377564 C11.8886172,12.461689 12.2988846,12.7682718 12.3804272,12.8848619 C12.5198049,13.0964778 12.8268414,13.4048685 13.0475011,13.552739 L13.7912834,14.0392422 C14.2445869,14.2928021 14.7559861,14.4409095 15.1975661,14.6947063 C15.453396,14.8428138 15.9086302,14.7181291 16.1644601,14.8769002 C16.2947197,14.9614992 17.2329884,15.2253179 17.3958129,15.2779256 C17.3259938,15.1017765 17.264077,14.9783142 17.2100627,14.9075386 L16.860967,14.601134 C16.5241157,14.188803 16.1054613,13.8290797 15.6521579,13.5333388 C15.2801365,13.3006324 14.4667955,12.9835641 14.3156944,12.5925605 L14.2927687,12.5688633 C14.5480775,12.5451662 14.8502798,12.4629369 15.0946468,12.3994285 C15.490115,12.3046397 15.8501525,12.3254932 16.2565625,12.2304675 L16.8148551,12.0823601 L16.8148551,11.9875714 C16.6056582,11.797283 16.454557,11.5434861 16.2338973,11.3638614 C15.6412161,10.8986857 14.9899181,10.4439367 14.3156944,10.0633599 C13.9553963,9.85198099 13.4903696,9.71430034 13.1068853,9.53491265 C12.9669865,9.47140419 12.7348639,9.43964996 12.6535819,9.33396051 C12.4438639,9.10172809 12.3279329,8.79484953 12.1768318,8.51972521 L11.2238525,6.68011267 C11.0146556,6.26778164 10.8864802,5.8554506 10.6311713,5.4748738 C9.43382508,3.67744225 8.13175011,2.58855657 6.13252576,1.5205244 C5.70266908,1.29848177 5.19126989,1.20298211 4.64756631,1.0868659 L3.77586906,1.04421097 C3.58959783,0.970275747 3.40384764,0.769323611 3.24102314,0.674060924 C2.57852281,0.293484119 0.86977737,-0.531177947 0.381303867,0.555574995 C0.0673782288,1.24279338 0.846330642,1.91934804 1.11075763,2.26840759 C1.30875222,2.51154071 1.56406104,2.78642807 1.70395985,3.06131542 C1.78211561,3.24094009 1.80816753,3.43146547 1.88971004,3.62175387 C2.07546023,4.08692963 2.2500081,4.60518708 2.49411459,5.03884558 C2.62437419,5.26088821 2.76114677,5.49383155 2.92397127,5.69454671 C3.01697663,5.81303264 3.17980113,5.86374462 3.21445018,6.05403302 C3.05162568,6.26564889 3.04042336,6.58248026 2.947418,6.84717783 C2.52876365,8.04198994 2.69158815,9.52211617 3.28426933,10.4017557 C3.47054056,10.6659793 3.90951541,11.2477452 4.50506231,11.0254656 C5.02818487,10.8351772 4.91147226,10.2325578 5.0625734,9.70387358 C5.09774349,9.57709364 5.07429676,9.49249468 5.14385539,9.40765876 L5.14385539,9.43135594 L5.62060553,10.3088627 C5.98090359,10.8268832 6.60875486,11.3662312 7.1316169,11.7259544 C7.41037244,11.9162428 7.63129273,12.2442119 7.97986742,12.3603281 L8.48006429,12.5027482 C8.41024514,12.4079595 8.30551642,12.3653045 8.21251107,12.2913693 C8.00331415,12.1010809 7.77093102,11.8683745 7.60810652,11.6569956 C7.12015405,11.0650399 6.69029737,10.4093388 6.30655259,9.73278415 C6.12028136,9.40505207 5.95745686,9.04556576 5.80687676,8.71783368 C5.73653657,8.59081676 5.62436071,7.70947961 5.50842966,7.64644509 C5.37135856,7.74888213 5.31075051,7.82090543 5.1214213,7.92994947 C4.88894047,8.00139649 4.483231,8.56551602 4.41901301,8.70817308 C4.19809273,9.1626851 4.19194569,9.94463699 4.05256791,9.64889611 C3.70399322,8.89816926 3.91186009,7.69293039 4.21406236,6.82585036 C4.29534435,6.60380773 4.64444008,5.90592561 4.50506231,5.69454671 C4.43472212,5.49359458 4.01658881,5.28407369 3.88841336,5.12530255 C3.73731222,4.92435041 3.57500876,4.67079052 3.47028004,4.44874789 C3.19152449,3.85631824 3.05214672,3.20109106 2.74968393,2.60889838 C2.60978512,2.33401103 2.36593914,2.04845994 2.16820507,1.79490005 C2.20029842,1.82283675 2.11839035,1.75607485 2.1139718,1.64503952 C2.2217317,1.65033738 2.14539739,1.63403392 2.50569545,1.85583958 C2.66851995,1.96152903 2.84306782,2.16248117 3.05226474,2.21556286 L3.59760339,2.21556286 C3.96962481,2.28949808 4.08678648,2.23926005 4.43510066,2.33404879 C5.05122857,2.5141474 5.60900018,2.77813405 6.10919705,3.06392211 C7.63167126,3.9414289 8.88737381,5.18908574 9.73562433,6.68011267 C9.87500211,6.9232458 9.93309789,7.14528843 10.0612733,7.39908529 C10.3056403,7.91734274 10.6078426,8.44578999 10.8514281,8.95362068 C11.0957951,9.45055066 11.3281782,9.95838136 11.6767529,10.3707124 C11.8513008,10.592755 12.5484502,10.7088712 12.8621153,10.8252244 C13.0947589,10.9200132 13.4547965,11.005323 13.6645144,11.1214392 C13.7180626,11.3038527 13.7545579,11.2403874 13.173794,11.3967503 Z M3.82448234,3.16155848 L3.82448234,3.20767106 L3.86909366,3.20767106 C4.05007366,3.53691487 4.3669154,3.76332763 4.59301366,4.05153124 L5.11364801,5.03926267 L5.15825933,4.99315009 C5.47510107,4.78748799 5.63377541,4.45824419 5.63377541,3.9648396 C5.49791367,3.82096835 5.47560801,3.67663598 5.36255888,3.53276474 C5.22669714,3.32710264 4.93266801,3.22381046 4.75118106,3.05964968 C4.43868038,3.05621282 4.12715363,3.09078136 3.82448234,3.16155848 Z" id="Shape"></path>
        </g>
    </g>
</svg>
