<?xml version="1.0" encoding="UTF-8"?>
<svg width="13px" height="13px" viewBox="0 0 13 13" version="1.1" xmlns="http://www.w3.org/2000/svg" xmlns:xlink="http://www.w3.org/1999/xlink">
    <title>AWS-AppRunner_13</title>
    <g id="Page-1" stroke="none" stroke-width="1" fill="none" fill-rule="evenodd">
        <g id="AWS-AppRunner_13" fill="#666666" fill-rule="nonzero">
            <path d="M8.125,4.875 L9.75,4.875 L9.75,3.25 L8.125,3.25 L8.125,4.875 Z M12.59375,0 L9.75,0 L9.75,0.8125 L11.6130625,0.8125 L9.9880625,2.4375 L7.71875,2.4375 C7.4945,2.4375 7.3125,2.6195 7.3125,2.84375 L7.3125,5.28125 C7.3125,5.5055 7.4945,5.6875 7.71875,5.6875 L10.15625,5.6875 C10.3805,5.6875 10.5625,5.5055 10.5625,5.28125 L10.5625,3.0119375 L12.1875,1.3869375 L12.1875,3.25 L13,3.25 L13,0.40625 C13,0.182 12.818,0 12.59375,0 L12.59375,0 Z M8.125,9.75 L9.75,9.75 L9.75,8.125 L8.125,8.125 L8.125,9.75 Z M10.15625,7.3125 L7.71875,7.3125 C7.4945,7.3125 7.3125,7.4945 7.3125,7.71875 L7.3125,10.15625 C7.3125,10.3805 7.4945,10.5625 7.71875,10.5625 L10.15625,10.5625 C10.3805,10.5625 10.5625,10.3805 10.5625,10.15625 L10.5625,7.71875 C10.5625,7.4945 10.3805,7.3125 10.15625,7.3125 L10.15625,7.3125 Z M3.25,4.875 L4.875,4.875 L4.875,3.25 L3.25,3.25 L3.25,4.875 Z M5.28125,2.4375 L2.84375,2.4375 C2.6195,2.4375 2.4375,2.6195 2.4375,2.84375 L2.4375,5.28125 C2.4375,5.5055 2.6195,5.6875 2.84375,5.6875 L5.28125,5.6875 C5.5055,5.6875 5.6875,5.5055 5.6875,5.28125 L5.6875,2.84375 C5.6875,2.6195 5.5055,2.4375 5.28125,2.4375 L5.28125,2.4375 Z M3.25,9.75 L4.875,9.75 L4.875,8.125 L3.25,8.125 L3.25,9.75 Z M5.28125,7.3125 L2.84375,7.3125 C2.6195,7.3125 2.4375,7.4945 2.4375,7.71875 L2.4375,9.9880625 L0.8125,11.6130625 L0.8125,9.75 L0,9.75 L0,12.59375 C0,12.818 0.182,13 0.40625,13 L3.25,13 L3.25,12.1875 L1.3869375,12.1875 L3.0119375,10.5625 L5.28125,10.5625 C5.5055,10.5625 5.6875,10.3805 5.6875,10.15625 L5.6875,7.71875 C5.6875,7.4945 5.5055,7.3125 5.28125,7.3125 L5.28125,7.3125 Z" id="Fill-1"></path>
        </g>
    </g>
</svg>