<?xml version="1.0" encoding="UTF-8"?>
<svg width="16px" height="16px" viewBox="0 0 15 17" version="1.1" xmlns="http://www.w3.org/2000/svg" xmlns:xlink="http://www.w3.org/1999/xlink">
    <title>redshift light</title>
    <g id="Page-1" stroke="none" stroke-width="1" fill="none" fill-rule="evenodd">
        <g id="redshift-light" transform="translate(0.700000, 0.243528)" fill="#999999" fill-rule="nonzero">
            <path d="M6.58810862,15.8431373 C3.47084591,15.8431373 0.156862745,15.0933333 0.156862745,13.7035294 L0.156862745,2.29647059 L1.42812144,2.29647059 L1.41463998,13.2571432 C1.41463998,13.8845942 3.06014044,14.7693001 6.57462715,14.7693001 C10.0891139,14.7693001 11.7599104,13.8908687 11.7599104,13.2571432 L11.7733919,2.29647059 L13.0193545,2.29647059 L13.0193545,13.7035294 C13.0193545,15.0933333 9.70537133,15.8431373 6.58810862,15.8431373 Z" id="Path"></path>
            <path d="M6.58810862,4.43294118 C3.47084591,4.43294118 0.156862745,3.68313725 0.156862745,2.29647059 C0.156862745,0.909803922 3.47084591,0.156862745 6.58810862,0.156862745 C9.70537133,0.156862745 13.0193545,0.906666667 13.0193545,2.29647059 C13.0193545,3.68627451 9.70537133,4.43294118 6.58810862,4.43294118 Z M6.656074,1.08985037 C3.90052558,1.08985037 2.20685697,1.73181458 2.20685697,2.1949459 C2.20685697,2.65807722 3.90052558,3.2977487 6.656074,3.2977487 C9.41162242,3.2977487 11.105291,2.65578449 11.105291,2.1949459 C11.105291,1.73410731 9.41162242,1.08985037 6.656074,1.08985037 Z" id="Shape"></path>
            <polygon id="Rectangle" transform="translate(6.588109, 9.317741) rotate(22.000000) translate(-6.588109, -9.317741) " points="5.52322116 10.3406496 6.70362735 8.00175282 7.65299608 8.29483304 6.47258989 10.6337298"></polygon>
            <path d="M4.73921594,12.4368185 C3.91078882,12.4368185 3.23921594,11.7652456 3.23921594,10.9368185 C3.23921594,10.1083914 3.91078882,9.43681848 4.73921594,9.43681848 C5.56764307,9.43681848 6.23921594,10.1083914 6.23921594,10.9368185 C6.23921594,11.7652456 5.56764307,12.4368185 4.73921594,12.4368185 Z" id="Shape" transform="translate(4.739216, 10.936818) rotate(29.000000) translate(-4.739216, -10.936818) "></path>
            <path d="M8.4370013,9.44907837 C7.60857417,9.44907837 6.9370013,8.77750549 6.9370013,7.94907837 C6.9370013,7.12065124 7.60857417,6.44907837 8.4370013,6.44907837 C9.26542842,6.44907837 9.9370013,7.12065124 9.9370013,7.94907837 L9.9370013,7.97050694 C9.92300105,8.78957677 9.25618778,9.44686414 8.4370013,9.44907837 Z" id="Shape" transform="translate(8.437001, 7.949078) rotate(29.000000) translate(-8.437001, -7.949078) "></path>
        </g>
    </g>
</svg>
