<?xml version="1.0" encoding="UTF-8"?>
<svg width="16px" height="16px" viewBox="0 0 13 13" version="1.1" xmlns="http://www.w3.org/2000/svg" xmlns:xlink="http://www.w3.org/1999/xlink">
    <!-- Generator: Sketch 50.2 (55047) - http://www.bohemiancoding.com/sketch -->
    <title>icon / app / 13x13 v1 dark</title>
    <desc>Created with Sketch.</desc>
    <defs></defs>
    <g id="icon-/-app-/-13x13-v1-dark" stroke="none" stroke-width="1" fill="none" fill-rule="evenodd">
        <g id="icon_apps_v1" fill="#999999" fill-rule="nonzero">
            <rect id="Rectangle-path" x="3" y="3" width="3" height="3"></rect>
            <rect id="Rectangle-path" x="3" y="7" width="3" height="3"></rect>
            <rect id="Rectangle-path" x="7" y="3" width="3" height="3"></rect>
            <rect id="Rectangle-path" x="7" y="7" width="3" height="3"></rect>
            <rect id="Rectangle-path" x="0" y="0" width="1" height="5"></rect>
            <rect id="Rectangle-path" x="0" y="0" width="5" height="1"></rect>
            <rect id="Rectangle-path" x="8" y="0" width="5" height="1"></rect>
            <rect id="Rectangle-path" x="12" y="0" width="1" height="5"></rect>
            <rect id="Rectangle-path" transform="translate(12.500000, 10.500000) rotate(180.000000) translate(-12.500000, -10.500000) " x="12" y="8" width="1" height="5"></rect>
            <rect id="Rectangle-path" transform="translate(10.500000, 12.500000) rotate(180.000000) translate(-10.500000, -12.500000) " x="8" y="12" width="5" height="1"></rect>
            <rect id="Rectangle-path" transform="translate(2.500000, 12.500000) rotate(180.000000) translate(-2.500000, -12.500000) " x="-1.33226763e-15" y="12" width="5" height="1"></rect>
            <rect id="Rectangle-path" transform="translate(0.500000, 10.500000) rotate(180.000000) translate(-0.500000, -10.500000) " x="-1.33226763e-15" y="8" width="1" height="5"></rect>
        </g>
    </g>
</svg>