<?xml version="1.0" encoding="UTF-8" standalone="no"?>
<svg width="16px" height="16px" viewBox="0 0 16 16" version="1.1" id="create-bucket" xmlns="http://www.w3.org/2000/svg">
  <path
     id="rect16782"
     style="display:inline;fill:#000000;fill-opacity:1;fill-rule:nonzero;stroke:none;stroke-width:0.415544;stroke-miterlimit:4;stroke-dasharray:none;stroke-opacity:1"
     d="M 3.4274666,1.1074974 V 4.0664818 H 0.48215413 v 1 H 3.4274666 v 3.0410156 h 1 V 5.0664818 h 3.0546875 v -1 H 4.4274666 V 1.1074974 Z M 8.28125,1.0507812 V 1.984375 c 3.77407,0.1246594 5.808466,1.0369609 5.833984,1.4355469 l -0.0039,0.023437 C 14.065978,3.845395 12.036293,4.7489669 8.28125,4.8730469 v 0.9335937 c 1.815511,-0.057426 3.260938,-0.2908201 4.324219,-0.5800781 0.153495,-0.041757 0.299724,-0.085172 0.4375,-0.1289063 0.137776,-0.043734 0.267681,-0.086892 0.390625,-0.1328124 0.122944,-0.045921 0.238657,-0.09426 0.347656,-0.1425782 L 13.175781,9.1015625 C 11.748098,8.6829152 9.9236356,8.0142689 8.8515625,7.5371094 c 0,0 0,-0.00195 0,-0.00195 -0.1399722,-0.634331 -0.7168771,-1.109375 -1.4082031,-1.109375 -0.7961603,0 -1.4414063,0.630478 -1.4414063,1.4082032 0,0.7777252 0.645246,1.4082031 1.4414063,1.4082031 0.530897,0 0.9939727,-0.2818147 1.2441406,-0.6992187 1.1301573,0.509624 2.932639,1.1877792 4.361328,1.5917972 l -0.710937,4.03125 c -0.08631,0.04747 -0.274252,0.114712 -0.431641,0.171875 l -0.263672,0.09766 c -0.271116,0.101731 -0.593357,0.19399 -0.960937,0.273437 -0.9199678,0.202493 -2.1939222,0.322266 -3.4042972,0.322266 -3.7986682,0 -4.6822727,-0.59635 -4.7167969,-0.800781 L 1.8320312,8.859375 H 0.76953125 L 1.4765625,14.339844 C 1.5466262,14.750644 1.7605929,16 7.2773438,16 c 1.2824694,0 2.6398136,-0.129661 3.6308592,-0.347656 0.415304,-0.09107 0.787644,-0.197236 1.105469,-0.316406 l 0.251953,-0.0918 c 0.527,-0.189898 1.071483,-0.384999 1.066406,-0.90625 L 14,10.3125 c 0.45389,0.09398 0.801926,0.136719 1.052734,0.136719 0.469122,0 0.647604,-0.130999 0.771485,-0.271485 0.14825,-0.168583 0.205771,-0.3806297 0.162109,-0.5976559 -0.08834,-0.4321167 -0.557643,-0.8453836 -1.628906,-1.4199219 l 0.646484,-4.4589843 c 0.01494,-0.066141 0.02532,-0.1250373 0.0332,-0.1542969 0.0088,-0.061435 0.01141,-0.1235925 0.0078,-0.1855469 -0.0297,-0.4640867 -0.255235,-0.6632352 -0.417969,-0.8125 C 14.464226,2.3995633 14.297068,2.2940984 14.105469,2.1914062 13.722271,1.9860222 13.237945,1.802922 12.623047,1.6347656 11.557352,1.3433299 10.106435,1.1083452 8.28125,1.0507812 Z m 6.710938,2.7011719 c -0.0056,0.027988 -0.01104,0.058199 -0.02149,0.083984 -0.0057,0.01406 -0.01293,0.028355 -0.01953,0.042969 0.01631,-0.040294 0.02998,-0.083893 0.04102,-0.1269531 z m -0.05078,0.1503907 c -0.0063,0.014006 -0.01683,0.030319 -0.02734,0.048828 0.01135,-0.019349 0.02119,-0.035926 0.02734,-0.048828 z m -0.06836,0.1191406 c -0.02747,0.043519 -0.05539,0.08566 -0.07227,0.109375 -0.05879,0.078983 -0.146512,0.1605233 -0.253906,0.2441406 -0.02046,0.015932 -0.04051,0.032858 -0.0625,0.048828 0.02066,-0.015907 0.04209,-0.031866 0.0625,-0.048828 0.02041,-0.016962 0.04029,-0.034568 0.06055,-0.052734 0.06078,-0.054499 0.128767,-0.1142505 0.193359,-0.1914062 0.01802,-0.027124 0.04637,-0.06833 0.07227,-0.109375 z m -0.583985,4.8125 c 0.815812,0.4453011 1.140256,0.5457217 1.085938,0.8203125 -0.07673,0.286081 -0.68577,0.090259 -1.177734,-0.2070313 z M 7.4121094,7.3105469 c 0.2802546,0 0.5078125,0.2169677 0.5078125,0.484375 0,0.2664385 -0.2275579,0.484375 -0.5078125,0.484375 -0.2792391,0 -0.5078125,-0.2179365 -0.5078125,-0.484375 0,-0.2674073 0.2285734,-0.484375 0.5078125,-0.484375 z" />
</svg>
