<svg width="59" height="64" viewBox="0 0 59 64" fill="none" xmlns="http://www.w3.org/2000/svg">
<path d="M24.4576 1.32L5.2676 12.4C2.2176 14.16 0.347595 17.4 0.347595 20.92V43.09C0.347595 46.6 2.2176 49.85 5.2676 51.6L24.4676 62.68C27.5076 64.44 31.2576 64.44 34.2976 62.68L53.4976 51.6C56.5376 49.84 58.4176 46.6 58.4176 43.09V20.92C58.4176 17.41 56.5476 14.16 53.4976 12.41L34.2976 1.32C31.2576 -0.44 27.5076 -0.44 24.4676 1.32H24.4576Z" fill="url(#paint0_linear_775_214)"/>
<path d="M48.9076 18.67L31.1476 8.42C30.6576 8.14 30.0176 8 29.3676 8C28.7176 8 28.0776 8.14 27.5876 8.42L9.82759 18.67C8.84759 19.23 8.04759 20.62 8.04759 21.75V42.25C8.04759 43.38 8.84759 44.76 9.82759 45.33L27.5876 55.58C28.0776 55.86 28.7176 56 29.3676 56C30.0176 56 30.6576 55.86 31.1476 55.58L48.9076 45.33C49.8876 44.77 50.6876 43.38 50.6876 42.25V21.75C50.6876 20.62 49.8876 19.24 48.9076 18.67ZM29.3776 51.98L12.0676 41.99V22.01L29.3776 12.02L46.6876 22.01V39.68L33.3776 32V30.11C33.3776 29.85 33.2376 29.62 33.0176 29.49L29.7376 27.6C29.6276 27.54 29.4976 27.5 29.3776 27.5C29.2576 27.5 29.1276 27.53 29.0176 27.6L25.7376 29.49C25.5176 29.62 25.3776 29.86 25.3776 30.11V33.9C25.3776 34.16 25.5176 34.39 25.7376 34.52L29.0176 36.41C29.1276 36.47 29.2576 36.51 29.3776 36.51C29.4976 36.51 29.6276 36.48 29.7376 36.41L31.3776 35.46L44.6876 43.14L29.3776 51.98Z" fill="white"/>
<defs>
<linearGradient id="paint0_linear_775_214" x1="55.1376" y1="-4.79" x2="6.80759" y2="64.23" gradientUnits="userSpaceOnUse">
<stop stop-color="#A7F8FF"/>
<stop offset="0.03" stop-color="#9DF1FF"/>
<stop offset="0.08" stop-color="#84E1FF"/>
<stop offset="0.15" stop-color="#5AC7FF"/>
<stop offset="0.22" stop-color="#21A2FF"/>
<stop offset="0.26" stop-color="#008DFF"/>
<stop offset="0.66" stop-color="#7F33FF"/>
<stop offset="0.99" stop-color="#39127D"/>
</linearGradient>
</defs>
</svg>